<svg xmlns="http://www.w3.org/2000/svg" width="805" height="600"><rect width="805" height="600" x="0" y="0" fill="#f2f4fa" id="background"/><g transform="translate(50,50)" id="visualization"><clipPath id="plotClipPath"><rect x="0" y="0" width="705" height="500"/></clipPath><g id="viz" clip-path="url(#plotClipPath)"><g><path fill="rgb(208, 228, 233)" stroke="rgb(159, 178, 183)" stroke-opacity="1" d="M419.5931387413634,296L420,295.918977999671L424,294.776458934442L428,293.1586995040186L430.1242077877065,292L432,290.9726634466758L435.97720066355043,288L436,287.98396994431164L440,284.2517349286497L440.2612449502293,284L443.4638770643379,280L444,279.1025868422716L446.1865832228019,276L448,272.22117627666705L448.1217630755915,272L449.65978918520216,268L450.57940192268427,264L451.06765964333886,260L451.3127683599764,256L451.6205512138042,252L451.99713718742885,248L452,247.97496763422498L452.5093966830466,244L453.11153382517,240L453.82389842667703,236L454.6756308659517,232L455.7083287652581,228L456,226.86606199919277L456.80339425504167,224L458.6156766618428,220L460,217.75661775457326L461.0802624278947,216L464,212.03797137330054L464.02625409595,212L467.1172476130156,208L468,206.91772678842432L470.06629248765364,204L472,201.239151176895L472.9049104522063,200L475.6140331656999,196L476,195.2705281080821L477.7595295281251,192L479.3730161087624,188L480,185.92039821252365L480.605241461961,184L481.5153600333233,180L482.1078325150978,176L482.41947033653014,172L482.4680862831881,168L482.2619994628858,164L481.7664458724448,160L480.94343116359835,156L480,152.87089826387248L479.7459775918403,152L478.1516583711857,148L476,144.1490680712722L475.915922316213,144L472.95014731972867,140L472,138.98305006055568L469.168284242156,136L468,134.85504951908302L464.1310541655986,132L464,131.90651461916394L460,129.68067137977448L456,128.09722912231481L455.6666665849433,128L452,126.89428579715585L448,126.0763608135434L444,125.58652354932428L440,125.3736928551609L436,125.42300041033184L432,125.7402174645342L428,126.33004168836754L424,127.22518772195707L421.4912624004395,128L420,128.4377590815397L416,129.9783057111288L412.0273739375752,132L412,132.01348005439866L408,134.61371856980026L405.8667512632998,136L404,137.1738099223968L400,139.55583271563492L399.17337734562454,140L396,141.72876324909257L392,143.52276625633112L390.59160277566053,144L388,144.82921909375102L384,145.55992718929213L380,146.02840208941265L376,146.27511266038996L372,146.25131287941667L368,146.2320826416994L364,146.2163341174302L360,146.2033140893433L356,146.19249833413696L352,146.18350872133647L348,146.126674213164L344,146.01493370111913L340,145.8423496501273L336,145.5975909396044L332,145.26164928753585L328,144.8032926721797L324,144.2160793602721L323.098010455979,144L320,143.0675652165169L316,141.16597762678407L314.24515328129746,140L312,138.04040097403762L310.3267012443326,136L308,132.28106216554673L307.85398243736046,132L306.10665749435447,128L304.6652301254688,124L304,121.8568411575057L303.5120236719712,120L302.5720623801027,116L302.1801133892035,112L302.06925209719725,108L302.24580282060003,104L302.69667056786466,100L303.29483042218436,96L303.7409961580457,92L304,88.67364601629373L304.06130703984746,88L304.28066900079835,84L304.35863886529427,80L304.298631675536,76L304.0995696135046,72L304,70.8266942809438L303.7900339634909,68L303.35219430033953,64L302.7541112667081,60L301.9700225024674,56L300.8001638495767,52L300,50.01416837880086L299.21879131356707,48L297.091456640843,44L296,42.464047415966576L294.20747249563425,40L292,37.61425127417746L290.41492799687256,36L288,33.715272502692955L285.61578555535493,32L284,30.880340525314224L280,28.820627758309158L277.95045153645884,28L276,27.209574686530715L272,25.938251694426697L268,24.989545064787933L264,24.29925045436032L261.53149156909114,24L260,23.800117920136913L256,23.464529225648334L252,23.30478376368005L248,23.305126471410972L244,23.491436209928565L240,23.64419858783829L236,23.710596293373513L232,23.53101060671085L228,23.118209275107773L224,22.210448954874735L220,20.84074572062049L217.90222500348716,20L216,19.175247348112762L212,17.169991583467592L210.05662760216393,16L208,14.658752984252956L204.5285466481265,12L204,11.548412705645191L200.17705341458077,8L200,7.836677906622597L196,4.032232147911785L195.96605116609817,4L192,0.29826270478130823L191.67717551049753,0L188,-3.344884274252479L187.24014893686712,-4L184,-6.809280536231313L182.52167589194892,-8L180,-9.925728164034965L176.96768131522106,-12L176,-12.64243738520328L172,-15.040203174583056L170.17587218963234,-16L168,-17.161566981547494L164,-19.058713630009294L161.77484387372172,-20L160,-20.79310215975896L156,-22.433542738475097L152,-23.836032995561055L151.49155175417158,-24L148,-25.247085024335163L144,-26.504312501553315L140,-27.62446923808359L138.55464265244734,-28L136,-28.77622647671852L132,-29.970781706583438L128,-31.102028661070328L124.82784809364884,-32L124,-32.28503701900682L120,-33.491490641949625L116,-34.51415954637895L112,-35.39822523160761L108.9125670468027,-36L108,-36.228735517712536L104,-37.12394692642226L100,-37.90177309809246L96,-38.584396853496045L92,-39.190886805647516L88,-39.73545536698712L85.53874315714359,-40L84,-40.21789956189351L80,-40.642327802969774L76,-40.98066488157001L72,-41.10146715886692L68,-41.014857699632024L64,-40.678348824489L60,-40.25271152968789L58.05658603630644,-40L56,-39.7792670474069L52,-39.254525503615525L48,-38.60460914986426L44,-37.798989375060074L40,-36.794542423817056L37.417330536208766,-36L36,-35.59956141259987L32,-34.21208762840554L28,-32.382912076578506L27.25658129567215,-32L24,-30.346639102752825L20.267609133604083,-28L20,-27.82874351528544L16,-24.68758279102468L15.190200878626968,-24L12,-21.11107738521133L10.850310432742106,-20L8,-17.002616079329627L7.068149056997342,-16L4,-12.341275273309407L3.730909484691878,-12L0.8288244280036139,-8L0,-6.586028661882693L-1.4904061915430447,-4L-3.1769183795590834,0L-4,2.5143474633027694L-4.506499004896199,4L-5.611017514956814,8L-6.465470361334894,12L-7.127012173947222,16L-7.634754210462049,20L-7.975020302846758,24L-8,24.49296165310743L-8.202266324587981,28L-8.286575423982484,32L-8.231449837399978,36L-8.036298820311032,40L-8,40.428584002667236L-7.736592636639301,44L-7.2998016149470715,48L-6.695408819683138,52L-6.010312342466989,56L-5.363395977964458,60L-4.627421536015959,64L-4,67.00427318054037L-3.8091901919829922,68L-2.9501571191488836,72L-1.9363366721935478,76L-0.7197727590877037,80L0,82.18606101326196L0.5497193768374302,84L1.8602929340398333,88L3.3472717365623055,92L4,93.61986366778586L4.902713173106974,96L6.598960836067306,100L8,102.9112658415728L8.511063241596219,104L10.570325600380983,108L12,110.43816466954112L12.909510409784872,112L15.692217043747945,116L16,116.35818632480633L19.21348003938249,120L20,120.83599141764424L22.754931949512553,124L24,125.37138122105264L26.325885566032227,128L28,129.86313598231692L30.192566467128245,132L32,133.83748083603558L34.22315350940573,136L36,137.945176671116L37.877072263631305,140L40,142.548010033254L41.170137923312325,144L44,147.7441847956085L44.18417303360468,148L46.745145605837024,152L48,154.2327286558453L48.92597828877845,156L50.68150186283998,160L52,163.41438880506033L52.20981095651072,164L53.48048161858853,168L54.6191836512175,172L55.63741787569947,176L56,177.63985927256203L56.4977878865914,180L57.579395743515306,184L58.97699227400969,188L60,190.3314603718548L60.70939545935718,192L62.85147764633797,196L64,197.60574713857847L65.74226744284147,200L68,202.32625222107214L69.72802741583789,204L72,206.14940022971393L74.56649502290662,208L76,208.9964279866952L80,211.12353533540391L82.2154119216359,212L84,212.7146824175574L88,213.9154765015934L92,214.75637224286004L96,215.30682295238364L100,215.6110320886935L104,215.69588504404123L108,215.57536459059872L112,215.25283151690456L116,214.72183117527072L120,213.96568919807703L124,212.89961653695548L126.48921103042309,212L128,211.49211436934445L132,209.71648397841915L135.6070263879348,208L136,207.82217062502775L140,205.96845144827864L143.9100303696185,204L144,203.95758767694798L148,202.2488387953773L152,200.4893700792037L153.13402583833565,200L156,198.73945899560346L160,196.93788588274316L162.02949698943357,196L164,195.0969594796171L168,193.20046962920958L170.34593420965223,192L172,191.17090916414776L176,189.1511275679481L178.15105643035207,188L180,187.11580852181652L184,185.59823042435295L188,184.71847355617126L192,184.86207046336324L196,185.90106824909589L199.46408368364456,188L200,189.36175155255768L200.63141278641694,192L200.26003928434244,196L200,196.63915584541036L198.6724666933752,200L196.45192471747373,204L196,204.73225772500922L194.08004352624715,208L192,211.78745066346937L191.88918271650323,212L190.27523198007077,216L189.141851435396,220L188.3093262230634,224L188,225.91395517285918L187.6440432694127,228L187.11090287466118,232L186.7005615921256,236L186.56398904537264,240L186.70765607199553,244L187.1400251391119,248L187.8925299756835,252L188,252.39461113451443L188.94352850697618,256L190.43249862736178,260L192,263.0535750520228L192.4870492840621,264L195.23610959334684,268L196,268.84615556999216L199.02955606332785,272L200,272.9422838155886L203.39914727867398,276L204,276.51131387216947L208,278.87593147129064L210.61345894705346,280L212,280.6028438469447L216,281.89285826282736L220,282.7775246061409L224,283.3320908319933L228,283.5995593101443L232,283.5995593101443L236,283.3320908319933L240,282.7775246061409L244,281.89285826282736L248,280.6028438469447L249.38654105294654,280L252,278.87593147129064L256,276.51131387216947L256.6731553571231,276L260,273.3764486138423L261.33789984717197,272L264,269.05852756279194L265.01745946907675,268L267.97967824367015,264L268,263.9649428979175L270.4405358602907,260L272,256.72888642360454L272.3906489096281,256L274.1632049808759,252L275.64094390352057,248L276,246.83207781496753L277.1892180242114,244L278.79505725593515,240L280,237.09633407309605L281.0504345508959,236L284,234.24263010007968L288,234.58046461952466L291.6237816859815,236L292,236.1341565624689L296,238.45073031313746L298.3413567677297,240L300,240.9484655783407L304,243.5260694308559L304.66868549592294,244L308,246.16492616173082L310.773679168121,248L312,248.76247441515824L316,251.34553961766642L317.19308152557613,252L320,253.5169173299903L324,255.82381392819025L324.329295829764,256L328,258.0031285989789L332,259.8757148565001L332.27683639265047,260L336,261.7781361088555L340,263.5950299980869L340.8888880522998,264L344,265.5443294325796L348,267.54248689539713L348.88355075694943,268L352,269.77305780905994L355.79443872583425,272L356,272.1320711709785L360,274.81340704642196L361.70809838338647,276L364,277.68933092309476L367.0820060797193,280L368,280.7042533750127L372,283.7529608919211L372.3237661472345,284L376,286.66697780034974L377.9394246525534,288L380,289.6683609796727L384,291.9918748115392L384.0179831738902,292L388,293.9862646288528L392,295.3879411818781L394.4981171969179,296L396,296.3752433193478L400,297.03824736629286L404,297.3913048688033L408,297.46066453695886L412,297.25134460729254L416,296.7480653911051ZM694.5585290953198,504L696,503.5477737945006L700,501.8342832544175L703.1071437455009,500L704,499.45307406885945L708,496.1787105074359L708.1690942266815,496L711.9839409839697,492L712,491.9785535413289L715.1380850409786,488L716,486.58275433761435L717.540759324023,484L719.3744019097055,480L720,478.2456150020937L720.8159763722258,476L721.9385137355823,472L722.7674001662926,468L723.3565708950048,464L723.7423293379243,460L723.9486547699352,456L723.990385927016,452L723.8750723565491,448L723.6039634942971,444L723.1723038534416,440L722.6485071049865,436L721.6882376896237,432L720.6732206847955,428L720,425.47860917072467L719.6316802019096,424L718.5857813423007,420L717.4553143480563,416L716.2209124579316,412L716,411.32532503093137L714.9653532944488,408L713.5882665172361,404L712.0315862169256,400L712,399.924640568166L710.4187523356328,396L708.5299986430381,392L708,390.9988842643358L706.3955524931688,388L704,384.21224502556885L703.8633790846123,384L700.9237675092158,380L700,379.0251586298759L696.9422838155887,376L696,375.02955606332785L692.8461555699922,372L692,371.23610959334684L688,368.4870492840621L687.0535736937956,368L684,366.43250041936125L680,364.9435285069762L676.3946111345144,364L676,363.89266141005936L672,363.1422936381009L668,362.71350900981906L664,362.5739637489053L660,362.71350900981906L656,363.14378911145L652,363.8901347719159L651.6226923317939,364L648,365.0170749301753L644,366.2418501271177L640,367.63969892404475L639.0714314581347,368L636,369.2132627258153L632,371.1770860513038L629.942806378331,372L628,372.8244161223772L624,373.99989321649144L620,374.52016299093384L616,373.8579551743951L612.9189251571045,372L612,371.3184679197345L609.4858951914911,368L608,365.5802130669996L607.3159216500255,364L605.7914011144898,360L604.4797928539574,356L604,354.3882208259644L603.4276199712273,352L602.438852930201,348L601.9257934799152,344L601.877606644491,340L602.1368793208306,336L602.6465911313398,332L603.354794528606,328L604,324.9148227303074L604.2097223022968,324L605.2833379686952,320L606.4728610846572,316L607.7695657590724,312L608,311.12083525075394L608.9271519004602,308L609.861907449775,304L610.5838439779246,300L611.1288043133547,296L611.5201828933216,292L611.7874551405479,288L611.859785508795,284L611.7269994847467,280L611.3843033488404,276L610.7952774516699,272L609.8996033358309,268L608.6243107393024,264L608,262.51973744088923L606.9736215173068,260L604.7391247297146,256L604,255.02989928067694L601.603468397974,252L600,250.1829140745345L598.0269164377328,248L596,245.95955954634707L593.5141370607033,244L592,242.8685173916242L588,240.53887511410483L586.8224323604061,240L584,238.70737523838125L580,237.29608029109687L576,236.2344184922468L574.875266215521,236L572,235.3655232540084L568,234.69839396525555L564,234.2194348955793L560,233.87269763437433L556,233.75896344752334L552,233.8541065537866L548,234.15287833166434L544,234.66681018145692L540,235.42573049394053L537.909601889265,236L536,236.47114822043534L532,237.52676304140448L528,238.7027668094483L524.036142773964,240L524,240.01094147235267L520,241.30930342772467L516,242.82793435144794L513.3593700838467,244L512,244.58224759898593L508,246.5944401815388L505.7295379993867,248L504,249.07913087266263L500.4091339539831,252L500,252.3487679783197L496.1323487056376,256L496,256.1350919910471L492.11141862377747,260L492,260.12104657344895L488.250666327016,264L488,264.28908533515397L484.547503709731,268L484,268.67204461409426L481.0239164098866,272L480,273.52323641336216L478.03708623116734,276L476,279.70941781894487L475.829933968751,280L474.0725236301414,284L473.2639695285907,288L472.7903859635462,292L472.58111023205925,296L472.57231992608376,300L472.73303640929316,304L473.0525377592911,308L473.5352504283287,312L474.1998618978812,316L475.081743596122,320L476,323.19922603010946L476.2093437269888,324L477.5436527698033,328L479.32841510303115,332L480,333.3154413797861L481.2949284509268,336L483.6304511566932,340L484,340.5468943703188L486.30138318664467,344L488,346.52011927612415L488.98246701017877,348L491.72096242512157,352L492,352.39729868649897L494.48339683633617,356L496,358.1160707006184L497.3294217046704,360L500,363.7044984179483L500.2101015352031,364L502.9807917032864,368L504,369.4977569677379L505.77715336115705,372L508,375.34007225522214L508.4357573904193,376L510.8532535372243,380L512,382.08628900932325L513.0158523609658,384L514.8892356858274,388L516,390.72789446341335L516.4987372627617,392L518.1420136053058,396L519.9763452420801,400L520,400.0481976817509L521.9477772482079,404L524,406.7835744574416L524.9303125935538,408L528,411.0367188978172L529.0491796020827,412L532,414.67768633344696L534.0571412249302,416L536,417.2232428919888L540,419.09984375174963L542.6507935243795,420L544,420.46993621764057L548,421.4736423114331L552,422.1225412993939L556,422.46808525869153L560,422.53597007699125L564,422.33110447086426L568,421.83853121301513L572,421.02060648835015L575.3957652490657,420L576,419.8243403141073L580,418.59414808533916L584,417.18366477965935L586.8765866568377,416L588,415.52372636489565L592,413.49683775691034L596,412.1671038617578L597.2424744926986,412L600,411.60232067526897L603.1227214546495,412L604,412.144226436856L608,414.6868432103238L609.0389153119511,416L611.7117572081322,420L612,420.47674568856075L613.5456551439256,424L615.2071596113993,428L616,429.8997379566157L616.7202392574227,432L618.1702939169855,436L619.9741123441859,440L620,440.06660154114695L621.3616021097532,444L622.7419121004551,448L624,451.60360152330463L624.1274103584445,452L625.4281315899134,456L626.8003440921839,460L628,463.2775559595856L628.2518321144644,464L629.727610528288,468L631.386937918591,472L632,473.33058086085384L633.2078524708957,476L635.3007084773349,480L636,481.1780766747148L637.7007730823857,484L640,487.22949752509373L640.563700428996,488L644,491.9804220942359L644.0177202961534,492L648,495.7194491501615L648.3247373895193,496L652,499.4396716542117L652.8928562544991,500L656,501.8342832544175L660,503.5477737945006L661.4414709046802,504L664,504.8267486806741L668,505.73023678589584L672,506.2966029584119L676,506.5697622806906L680,506.5697622806906L684,506.2966029584119L688,505.73023678589584L692,504.8267486806741Z"/></g><g><path fill="rgb(196, 218, 223)" stroke="rgb(147, 168, 173)" stroke-opacity="0.3" d="M125.32849730570172,196L128,194.88863364981125L132,192.64868624741945L133.14887028542935,192L136,190.40996417650462L140,188.14882500180295L140.26205066508106,188L144,185.95178255998457L147.63531632308153,184L148,183.81276251192543L152,181.78968004266244L155.4949828165904,180L156,179.75587614512648L160,177.8201819639541L163.6450713867189,176L164,175.83293098256252L168,173.91750619019558L171.80224000976102,172L172,171.9001691519221L176,169.92755472124844L179.8126708890162,168L180,167.9097445243312L184,166.36350469574722L188,165.32400229573096L192,164.7071428902397L196,164.33137458293055L200,164.2033032995201L204,164.27950821104287L208,164.55512161655497L212,165.0603209536702L216,165.81750907376409L220,166.8546719331913L223.40644008656113,168L224,168.24171919105294L228,170.1984461149721L231.13350266848903,172L232,172.5746740819456L236,174.79196781709402L238.6484531568385,176L240,176.63122363588462L244,177.90825884364853L248,178.57802166565654L252,178.72243553792237L256,178.37115336773388L260,177.91353000395526L264,177.2124418979261L268,176.4378640246386L270.7561776429882,176L272,175.76035877172592L276,175.00553076934358L280,174.11228844867043L284,172.81101354552993L285.62995731761555,172L288,169.3676789209552L288.67768690708897,168L289.38040822403633,164L289.40854337038826,160L289.18572660909985,156L288.98362645103936,152L288.7898004732666,148L288.5465103535637,144L288.25754119196625,140L288,136.9679974782377L287.9192664955782,136L287.5237143030211,132L287.0966895468611,128L286.57913342906375,124L285.9584045605028,120L285.21498193170385,116L284.8559224449126,112L284.81175728319306,108L285.07834714740244,104L285.64292289855916,100L286.3656679759064,96L286.8875506852485,92L287.2253861204176,88L287.38711022749834,84L287.37283077952725,80L287.17535031955566,76L286.77759799173106,72L286.1313572278595,68L285.25537721312946,64L284.10878307430784,60L284,59.688690767766786L282.46413520225536,56L280.04202434571556,52L280,51.946649359293275L276.362784903892,48L276,47.69522679302682L272,44.872488110528735L270.46430818188304,44L268,42.84465864541488L264,41.34541884396401L260,40.194743143612925L259.1408593443233,40L256,39.34611378655791L252,38.720342403259934L248,38.27930679064647L244,37.997116170791486L240,37.77822084490944L236,37.57275448761226L232,37.25919485637303L228,36.844552927831415L224,36.05180151555331L223.833799986514,36L220,34.70522242010878L216,33.181495073804854L213.34933995281278,32L212,31.348357118067455L208,28.955986346528704L206.73030339600325,28L204,25.846775844045396L201.98514068860624,24L200,22.23268635678211L197.69936313586243,20L196,18.40367547545891L193.52364266394716,16L192,14.538951766839617L189.4277837072375,12L188,10.572488197210447L185.41649138343513,8L184,6.645445048265856L181.11265181473453,4L180,3.008795749497864L176.38565482404778,0L176,-0.31618665198729445L172,-3.3397865846553003L171.0365270880249,-4L168,-6.10635190908711L164.89875631650762,-8L164,-8.543680434380505L160,-10.785354103951036L157.56849937021738,-12L156,-12.78977865041469L152,-14.607709270214315L148.3745132777945,-16L148,-16.15211091344878L144,-17.644368051847565L140,-18.941614753184297L136.26784714168105,-20L136,-20.08400307844444L132,-21.335914748222905L128,-22.49377934511851L124,-23.615567597779062L122.40832622055129,-24L120,-24.660604823677147L116,-25.607939042594907L112,-26.431285622210396L108,-27.15164141869515L104,-27.785255573491142L102.47605793668868,-28L100,-28.40799116462039L96,-28.989503990078163L92,-29.512644716753364L88,-29.987038167789223L84,-30.350914852637047L80,-30.610065236688484L76,-30.814790221066126L72,-30.819984695652174L68,-30.630457223338425L64,-30.192498713273025L60,-29.64958870055976L56,-28.983001838601204L52,-28.1653708966182L51.30911076090848,-28L48,-27.26277203227548L44,-26.174082145316362L40,-24.82173562601622L37.98294481599203,-24L36,-23.21347461961065L32,-21.23748351850344L29.970890860913173,-20L28,-18.784223081396448L24.153339320658702,-16L24,-15.885280203658667L20,-12.493720812428506L19.51425138170498,-12L16,-8.10681435267685L15.906372089615317,-8L12.849397336121271,-4L12,-2.518904652151491L10.535569006631945,0L8.696620557374445,4L8,5.879858991658196L7.160674629731659,8L5.874335183943586,12L4.861361530805581,16L4.06431851684583,20L4,20.452057029329154L3.4546465594731472,24L3.0649134850850714,28L2.8750831248738535,32L2.8706660681700384,36L3.04807009607039,40L3.4151528649515086,44L3.9907610203933075,48L4,48.04676424949923L4.70633494313347,52L5.531099158389168,56L6.309335635339281,60L7.207391227364283,64L8,67.06539011066229L8.220871535242054,68L9.295392264243944,72L10.57739327555062,76L12,79.68432291929508L12.116360728512035,80L13.669580514319023,84L15.431787566006449,88L16,89.1964061368028L17.281401857877867,92L19.3524196102489,96L20,97.1430944044001L21.515856257929002,100L23.896453696041647,104L24,104.16640673826149L26.306214581698256,108L28,110.53854463005871L29.13315538677972,112L32,115.29486985190383L32.669636134042875,116L36,119.00123653916694L37.23094251947475,120L40,122.29767391525041L42.21901102551965,124L44,125.43757013066187L47.359123472812314,128L48,128.53167216830556L52,131.76304473697917L52.29773954963241,132L56,135.38560487406195L56.6687120008626,136L60,139.9738542974664L60.020256863058535,140L62.48548115200987,144L64,146.69618809233532L64.65196196297936,148L66.38552296136822,152L67.86641605662612,156L68,156.42815223318777L69.00338083364213,160L70.07221020654936,164L71.1598274132275,168L72,170.97226975950633L72.32087915237108,172L73.65471435641706,176L75.13399565796519,180L76,181.8742103510852L77.16398846849586,184L79.93225138476689,188L80,188.08198334585495L84,191.95352523039764L84.0616084213147,192L88,194.55410336389275L91.03999439879914,196L92,196.37892487904145L96,197.54481220135574L100,198.31445217815025L104,198.74491327683774L108,198.87338568247503L112,198.72226537227886L116,198.30290100923798L120,197.61657079445888L124,196.52343661672484ZM243.53126066897698,260L244,259.7142919750638L248,256.2742511764874L248.24117966145178,256L250.84687631174592,252L252,249.35484516028458L252.4772756286144,248L253.29910831782666,244L253.56656910790252,240L253.29910831782666,236L252.81183824557212,232L252.0706468285304,228L252,227.71961316405498L250.8060043847862,224L248.9978442385314,220L248,218.3576067757648L245.92388235717073,216L244,214.3665284890635L240,212.43519543878756L237.82791341300901,212L236,211.70758994088203L232,211.76085068518142L230.55999517199757,212L228,212.46309398945135L224,213.66676833347316L220,215.38360363714662L218.93354414771449,216L216,218.03142296591375L213.8513670166684,220L212,222.14423808412914L210.7489195791838,224L208.73024213690007,228L208,230.05194103437827L207.43438505765516,232L206.70089168217334,236L206.43343089209748,240L206.70089168217334,244L207.5227243713856,248L208,249.35484516028458L209.15312368825408,252L211.75882033854822,256L212,256.2742511764874L216,259.7142919750638L216.46873933102302,260L220,261.6964171140264L224,262.90637829621613L228,263.4899430353099L232,263.4899430353099L236,262.90637829621613L240,261.6964171140264ZM417.8836318496452,276L420,274.9345552788166L424,272.0382753372257L424.0403425511673,272L427.24885887530274,268L428,266.66648827366896L429.2193538251595,264L430.40014715235657,260L431.08553166434467,256L431.56486089741304,252L431.8635465876358,248L431.9942054553037,244L431.95839637907216,240L431.74650208182027,236L431.35258087295335,232L430.6867484946722,228L429.17431621956337,224L428.0793066016962,220L428,219.34028948082556L427.56034363338654,216L427.8254850464426,212L428,211.43311363901609L429.2795468855546,208L432,204.66178428189727L432.68704989300375,204L436,201.91943737084358L438.88402666084323,200L440,199.39576371215264L444,197.44053991182346L447.07568355665217,196L448,195.51005061082333L452,192.74361615273898L452.8809913005166,192L456,188.8119738720922L456.6498394414972,188L459.1546036588219,184L460,182.16230042644077L460.82226542423734,180L461.8212405003799,176L462.3243082955306,172L462.3478287331966,168L461.9266931943064,164L460.9140398223234,160L460,157.79220922076289L459.07059098975776,156L456.0549883092376,152L456,151.9451934661031L452,148.9490278270167L450.15768146656194,148L448,147.11256654245446L444,146.12467613499908L440,145.6513926381244L436,145.66360514570755L432,146.18791298205156L428,147.13995712793349L425.5319838071971,148L424,148.63883111782627L420,150.8240824662262L418.26185294153385,152L416,153.8018077815874L413.6207401397265,156L412,157.70830350055328L410.1759099612093,160L408,162.92818523421022L406.86362457405517,164L404,166.61294301366036L400.81928877785595,168L400,168.26480963682104L396,168.54329522241233L392,168.0782574657021L391.7007689412029,168L388,167.05478328065635L384,165.6260664681708L380,164.43186603077703L378.4496612108117,164L376,163.345996063082L372,162.19360860271235L368,161.36720259022397L364,160.77324513289074L360,160.35561297231334L356,160.07998743929465L353.93814262577354,160L352,159.91936508684066L348,159.82886662020917L344,159.85924925379732L340.3834072554049,160L340,160.0140373822748L336,160.28784664337078L332,160.72139294112094L328,161.3663469117205L324,162.3927404134808L320,163.55134795233565L318.55109250996145,164L316,164.86402940787582L312,166.77312512716856L309.4400208738121,168L308,168.8489544785968L304,171.25949150847458L302.7229317408535,172L300,174.57818164661478L298.63668013727437,176L298.0838997898465,180L298.07541163604395,184L298.2932217429556,188L298.65951864355367,192L299.15825470045,196L299.79666329637695,200L300,200.99263135773214L300.5026632898337,204L301.35204753989626,208L302.43309506816587,212L303.86839087762104,216L304,216.29048096441153L305.5086079681452,220L307.6796979861406,224L308,224.46749028521646L310.2878577197764,228L312,230.00779681251032L313.66422990666376,232L316,234.15534108428596L318.42516297571143,236L320,237.20478925904354L323.775370190586,240L324,240.16295853730645L328,242.7956765298644L330.27322593718765,244L332,244.933499415528L336,246.81898130391687L338.8362473239461,248L340,248.51139247224103L344,250.1370861155915L348,251.66360966517323L348.91158388613815,252L352,253.24192283773795L356,254.85121043766344L358.775736815151,256L360,256.5588369966684L364,258.4667546307735L366.9579174688845,260L368,260.59476371702715L372,263.06856113130834L373.3625582681553,264L376,265.9344746746896L378.4294180635781,268L380,269.3622137351183L383.83774888561675,272L384,272.1097811797041L388,274.2902453692492L391.8879901471685,276L392,276.0462577359723L396,277.25877009389853L400,278.0467664510868L404,278.415497163012L408,278.3520402501963L412,277.8227508088764L416,276.76792600522936ZM570.3663140796328,400L572,399.1826285965313L576,396.2596456760679L576.2994068040359,396L579.8754351555936,392L580,391.8113062515432L582.1111220900509,388L583.6490212411699,384L584,382.6037430870947L584.5577520052426,380L584.9930197244005,376L585.0191395555661,372L585.0081089243494,368L584.9642963151633,364L584.8911656762781,360L584.7915084853582,356L584.6675620470097,352L584.381946067179,348L584.6227422661698,344L585.4025033667895,340L586.3989572983321,336L587.5694797793514,332L588,330.73095165300504L588.8897166614444,328L590.2354503230929,324L591.6081687637236,320L592,318.91836478475307L593.0601958881056,316L594.622222067549,312L595.834014443135,308L596,307.30126799735325L596.7758814255354,304L597.4732472086305,300L597.9576548165516,296L598.2498140064075,292L598.3774076529342,288L598.2456777053164,284L597.8086906855704,280L597.0922541382695,276L596.0326755097798,272L596,271.9066563485912L594.4690090702226,268L592.3452069801277,264L592,263.4765303060664L589.3077303715776,260L588,258.6621617852177L584.8386322096576,256L584,255.4374568279373L580,253.20616995786116L577.2822398218304,252L576,251.43146572549972L572,249.96082948517676L568,248.80337264183783L564.4866263550888,248L564,247.8846993948792L560,247.05936164385008L556,246.60555812469397L552,246.46568702648415L548,246.61389327930402L544,247.0491531309964L540,247.79411320257378L539.2793585380189,248L536,248.87499252498378L532,250.0626895679685L528,251.41211273214174L526.4361311711341,252L524,252.87698607553187L520,254.52992140103697L516.9736781822002,256L516,256.4851344482599L512,258.7796086774721L510.20225704907864,260L508,261.5433589074839L505.07489926343794,264L504,264.94789795701666L501.21049204794986,268L500,269.43483674597644L497.9110003509493,272L496,274.8433595647855L495.1933951161375,276L492.8395902944442,280L492,281.70114065378516L490.7977087528608,284L489.36925542518827,288L488.3731620558651,292L488,294.18923775479493L487.6581538927352,296L487.205252588033,300L487.0304516328215,304L487.1159379802124,308L487.4634370756711,312L488,315.4139658585324L488.0840391385598,316L488.9267826546885,320L490.1132832274459,324L491.7379761231041,328L492,328.50717773001054L493.7681089796821,332L496,335.6985664828777L496.1810692856807,336L498.9068390188389,340L500,341.37873594375156L502.1145708041179,344L504,346.4499966696477L505.4217074508583,348L508,350.9518623302937L509.0131326312551,352L512,355.14761461859655L512.8665495494807,356L516,359.27119434540396L516.7209836547523,360L520,363.6074360535056L520.3561910638954,364L523.6120750707148,368L524,368.53633425490824L526.4102395512552,372L528,374.632103290439L528.7833093462594,376L530.9149369375276,380L532,382.1845240265466L533.1200148222897,384L535.4747485796273,388L536,388.9200043386409L538.1664015066996,392L540,394.2618805045068L541.8210957339714,396L544,397.8023193185541L547.6921998113689,400L548,400.15957048240625L552,401.55092391854737L556,402.29045655658365L560,402.43975267614144L564,402.01583717863645L568,400.99166860516925ZM692.0816629321298,484L696,481.38302432308944L697.5285952086991,480L700,477.2539931755289L700.8857351913821,476L703.1369116276826,472L704,470.0094415998486L704.7265318227884,468L705.8272978508683,464L706.6094994033385,460L707.1170636082884,456L707.3799648390709,452L707.4176148205435,448L707.2409806373842,444L706.8537782046393,440L706.3911791107007,436L705.3086271796643,432L704.1558362819922,428L704,427.48701440111995L702.9123648208944,424L701.5900789643152,420L700.168355958714,416L700,415.5552894070928L698.6550137682599,412L697.0130775256117,408L696,405.73872398418695L695.2287358562103,404L693.2813366245156,400L692,397.64404522610334L690.9170058410323,396L688,392.08512666278125L687.9206294424125,392L684,388.26315834347145L683.6390769242779,388L680,385.623356038225L676.5407091018221,384L676,383.7705707600196L672,382.60408261626424L668,381.94116748909045L664,381.74090936900956L660,381.9969180802489L656,382.7366347871077L652.0811311554779,384L652,384.029784183384L648,386.2960615212786L645.5543246335819,388L644,389.3123349350304L641.3786573498759,392L640,393.80852741224265L638.5997445483298,396L636.7032565217781,400L636,402.0759682903664L635.4372291737455,404L634.647355144268,408L634.2013595134218,412L634.0076273136875,416L634.0393770914342,420L634.2772526529886,424L634.7131072700076,428L635.3481892577651,432L636,435.088227718668L636.1971260545434,436L637.6686054398806,440L638.9405543505197,444L640,447.16635348572913L640.2803667861864,448L641.6894348041349,452L643.1962578341538,456L644,457.98512271045877L644.808501210141,460L646.5472639031733,464L648,467.0232352839174L648.4641337970548,468L650.5599836683174,472L652,474.4300422019056L653.2633574311064,476L656,479.006290329133L657.1579784861522,480L660,482.1722923587689L663.225390980107,484L664,484.39462997180806L668,485.8552332194405L672,486.7739199526452L676,487.2101773649488L680,487.18623410455245L684,486.6906530388054L688,485.67551909945905L692,484.0461838314775Z"/></g><g><path fill="rgb(184, 208, 214)" stroke="rgb(136, 159, 165)" stroke-opacity="0.3" d="M125.70857416706929,180L128,179.17307577656157L132,177.12349260218633L134.21624555361583,176L136,175.13695609277875L140,173.19267380672142L142.5116542926887,172L144,171.23687656603573L148,169.23738559690673L150.51253820108934,168L152,167.2256308651538L156,165.19129736838124L158.4016967051272,164L160,163.19840735022592L164,161.27860251215208L166.77281813429465,160L168,159.45891073238718L172,157.77454721875947L176,156.22820709427444L176.5862137362828,156L180,154.79219569976732L184,153.76589070082517L188,153.19244667968087L192,152.85946900604173L196,152.65519367948005L200,152.5690568947597L204,152.5235313978616L208,152.54150672852757L212,152.62589364711718L216,152.7834123872121L220,153.02590398817233L224,153.3724581884793L228,153.91070527780542L232,154.6704411043365L236,155.2780880432621L240,155.77304898613136L244,155.92799434845517L248,155.54744778301898L252,154.71654093957022L256,153.16427491546742L258.10089725927895,152L260,150.83129108099217L263.2392246032236,148L264,147.15724129910555L266.21574887138854,144L268,140.43213474017693L268.18226092942155,140L269.43246705561364,136L270.23729206281416,132L270.78653648648003,128L270.9327203168571,124L270.7535473130427,120L270.28877625212846,116L270.1461986649053,112L270.27159748411924,108L270.6503406911757,104L271.2787112295785,100L272,96.13255838400073L272.025767218419,96L272.5080648950178,92L272.70135601454905,88L272.5963893719734,84L272.1742082770908,80L272,79.04324109641556L271.42728609292186,76L270.2721464834211,72L268.49230912901334,68L268,67.08975986050567L266.1390398778948,64L264,61.18143113352605L262.9649867355997,60L260,57.20960931424813L258.4428890437405,56L256,54.499372007137566L252,52.55452826621769L250.5698782945592,52L248,51.13457448758692L244,50.03123968056809L240,49.19793511613955L236,48.52974689873699L232.79599778066597,48L232,47.873300225078225L228,47.21448240035323L224,46.22967061101525L220,44.845873547691866L217.68807999762475,44L216,43.369377944175255L212,41.67953340457112L208.74077242126833,40L208,39.59984261497195L204,36.84756429606898L202.98484542402252,36L200,33.38584633626222L198.63326793623065,32L196,29.285995086385967L194.87351451581486,28L192,24.80869804543667L191.33900966799536,24L188,20.36844029338161L187.67887439997963,20L184,16.16098348527838L183.8436363037024,16L180,12.249030686313091L179.7333308546573,12L176,8.544521638608131L175.35885301839062,8L172,5.206018427113889L170.41182493186795,4L168,2.185550459678879L164.78386573105007,0L164,-0.5335242934875026L160,-3.069602759727033L158.39726653735482,-4L156,-5.413958301200097L152,-7.4982235781415625L150.918066441881,-8L148,-9.376647389234506L144,-11.002718799278881L141.208225131541,-12L140,-12.445890975963295L136,-13.772905777964965L132,-15.007896607711231L128.47575406803688,-16L128,-16.146599577409347L124,-17.36306188504456L120,-18.37346815153863L116,-19.224031598534665L112,-19.95852202796125L111.74286204088497,-20L108,-20.686446750454806L104,-21.319651572184668L100,-21.86405169009427L96,-22.329165837755582L92,-22.74315729383251L88,-23.111993527233395L84,-23.377179865503876L80,-23.54022973717734L76,-23.65139899561221L72,-23.54821173502637L68,-23.240729883522235L64,-22.66811385257496L60,-21.975129451724598L56,-21.138716320015618L52,-20.123510747151855L51.57856400440599,-20L48,-19.00467520083305L44,-17.64829264176413L40.06524152486253,-16L40,-15.973300006032062L36,-14.066374240592495L32.61659520832261,-12L32,-11.611848625870522L28,-8.60811462330831L27.27684732373845,-8L24,-4.877880195020623L23.173876081451695,-4L20.231122015652062,0L20,0.3807867814678474L18.019966703737538,4L16.29966552775997,8L16,8.837392221035586L14.80220950943044,12L13.575923221836362,16L12.594274351322554,20L12,23.406782780511378L11.888083079981712,24L11.376227368086603,28L11.096979750106215,32L11.030821573646065,36L11.170499421812252,40L11.52708503394419,44L12,47.19966758423351L12.107405182130748,48L12.873089447602197,52L13.77414794981182,56L14.632503758742175,60L15.636938781426636,64L16,65.26725263166242L16.717889473131592,68L17.950717162142297,72L19.436804248918833,76L20,77.302000596142L21.112932534735947,80L22.913519287742858,84L24,86.22230583182042L24.835416196604314,88L26.872721442424663,92L28,94.02285933142426L29.239058754246685,96L32,99.94294465102757L32.04301249795864,100L35.21720719095178,104L36,104.93055312310068L38.87625081469463,108L40,109.14650257193566L43.05875226078541,112L44,112.82780273667396L47.9259220898588,116L48,116.0542045095315L52,118.83723750820306L53.79067366748356,120L56,121.53090847176261L59.749172641232974,124L60,124.18116135827603L64,127.07043122487028L65.27154245407169,128L68,130.3215150510312L69.87517283122179,132L72,134.35398111498597L73.50377068856372,136L75.97502441168132,140L76,140.05557966133776L77.78066727372257,144L79.5244422638778,148L80,149.19792769230426L81.26554850631601,152L82.9076235415711,156L84,158.87317769407053L84.47970291258434,160L86.31166912125337,164L88,167.18998321157477L88.49675252424896,168L91.40326625271865,172L92,172.68968689080526L95.63866384874868,176L96,176.29095343683264L100,178.73553866345026L103.0562927696956,180L104,180.3457159586393L108,181.29046562712824L112,181.74121072374902L116,181.78991399670815L120,181.4989933680621L124,180.64160417250815ZM398.60823331892533,248L400,247.0738551391612L402.52780061250405,244L404,240.44807881418296L404.13509600999765,240L404.6824140600104,236L404.86639325557223,232L404.0621790432062,228L404,227.89387750804394L401.9430392085219,224L400.26149628581334,220L400,219.2865602639685L398.9335082700424,216L397.7780106126434,212L396.6752112435543,208L396,205.59381329643082L395.5998744503473,204L394.5306915130873,200L393.1916306845296,196L392,193.58753273907894L391.290092111232,192L388.81614843501285,188L388,187.0123873026232L385.8109851115917,184L384,182.11432569985027L381.68792579064933,180L380,178.78776260712033L376,176.2899600120557L375.5380980081164,176L372,174.2998681745202L368,172.90773675801375L364.38663387935014,172L364,171.9003796886784L360,171.142058196751L356,170.6443769757288L352,170.37039299383747L348,170.26654929143257L344,170.38993853093592L340,170.7546314870711L336,171.3976320621626L333.5106840536476,172L332,172.3632679963489L328,173.73323087306835L324,175.86112419181018L323.76851400029756,176L320,179.27726913345953L319.29662471243364,180L316.57562391255897,184L316,185.2847458835281L314.97929140412725,188L314.05838865079426,192L313.5961144801604,196L313.5013071422558,200L313.7323135560054,204L314.28218153383983,208L315.1743764273231,212L316,214.5834243061413L316.4966797004131,216L318.3955801989025,220L320,222.54050370512965L320.9377152861112,224L324,227.68930966010385L324.28347047441787,228L328,231.23248302889704L329.1178440235119,232L332,233.6298362593236L336,235.46872665757456L337.385702768539,236L340,237.0987867823374L344,238.5224922227265L348,239.74375917149376L348.97347983800944,240L352,240.8651381437731L356,241.88786816496582L360,242.82380001043606L364,243.70239633272035L365.47360472972974,244L368,244.57932408891656L372,245.46785238323065L376,246.40319788463796L379.89280881269315,248L380,248.0508045190898L384,249.13182655289495L388,249.6170936159118L392,249.76309045176237L396,249.15168369663485ZM557.8253585607538,364L560,362.3067716945599L561.5471591470393,360L563.7141625926167,356L564,355.38807527572436L565.3034636958582,352L566.3690763026625,348L568,344.0653032120911L568.0233733367999,344L570.1796444096982,340L572,336.5305361858519L572.2530381521276,336L574.2914410246932,332L576,328.67234664877253L576.3263525013086,328L578.2137543759268,324L580,320.0061779027301L580.0026918676219,320L581.7736555833375,316L583.6321755152809,312L584,310.99876975138426L585.0920538269913,308L586.2003602404319,304L586.9969850967723,300L587.5083623255467,296L587.7448563134693,292L587.7293122152354,288L587.2971272459243,284L586.322655483595,280L584.8561014743276,276L584,274.2960878669256L582.7043778836804,272L580,268.4922524732213L579.558292339147,268L576,264.7396025808731L575.0293396640662,264L572,262.02991593830995L568.0976786943025,260L568,259.955277102294L564,258.3858255590343L560,257.0661474255413L556,256.2893359746487L552.6349267493923,256L552,255.94869956273067L548,255.98385405664908L547.8339444315911,256L544,256.3779607358923L540,257.1400087381901L536,258.38853399597076L532,259.7931799773827L531.4669778191477,260L528,261.34548009004527L524,263.11774063268484L522.2476440727924,264L520,265.13539344430984L516,267.48142295628753L515.2298999449949,268L512,270.21452982605416L509.80047889621164,272L508,273.6715845168382L505.86648172025707,276L504,278.3747790615775L502.9473007357743,280L500.74019271007046,284L500,285.9386393723914L499.1882268856036,288L498.04624897091367,292L497.26355997370456,296L496.7940683162328,300L496.61023484149325,304L496.7039469524058,308L497.0853878236288,312L497.78499078029427,316L498.8154744991556,320L500,323.3191699624707L500.2359996050485,324L502.0449321656449,328L504,331.2473182712649L504.5589940439062,332L507.878581223089,336L508,336.13280320373536L512,339.85600490473803L512.1813268047845,340L516,342.86350281861667L517.7397635491965,344L520,345.7561586365039L523.1464832971336,348L524,348.7210160582105L527.985807628948,352L528,352.0126646021727L532,355.59796470131494L532.565977297248,356L536,358.7804317665333L537.8844589055268,360L540,361.5791200429497L544,363.81127974582097L544.5493259814205,364L548,365.4193172729755L552,366.0362064410703L556,365.2495254977533ZM683.1612976680697,460L684,459.38372861429457L686.6556485343905,456L688,453.5391660532305L688.5809783681743,452L689.5497076407415,448L690.0152099323163,444L690.0575552587595,440L690.0861156922812,436L688.910332792232,432L688,429.1364270660172L687.5636958125738,428L685.8768123344552,424L684.0473272387153,420L684,419.90688781400667L681.4872401585399,416L680,413.90335854605786L678.173136746105,412L676,409.95812667127143L672.8328014767809,408L672,407.5350474655121L668,406.46649892550073L664,406.58816426367093L660.1256619114031,408L660,408.0568367089987L656,411.76258640620125L655.837660106159,412L653.8059666303086,416L652.5116273231449,420L652,422.9268333145159L651.8694861991867,424L651.7306606000653,428L651.9042489327014,432L652,432.83722333563594L652.4555406340974,436L654.2614818083902,440L655.7070128263122,444L656,444.72883383294663L657.6230879345849,448L659.8002734737056,452L660,452.3289882056729L662.90394544724,456L664,457.2477877195478L667.4292979467838,460L668,460.4122620227729L672,462.10427038310706L676,462.6073363058597L680,461.8137017231187Z"/></g><g><path fill="rgb(172, 198, 204)" stroke="rgb(124, 149, 155)" stroke-opacity="0.3" d="M132.3419608351376,160L136,157.73795296790115L138.78123906289943,156L140,155.17595183786585L144,152.89352993041447L145.80888223424094,152L148,150.89687027003217L152,149.2024113076611L155.61228225214742,148L156,147.87686854678887L160,146.83103054595088L164,146.08332586275395L168,145.43228329395998L172,144.89118714437384L176,144.36829421881203L178.41703284353076,144L180,143.7771596020145L184,143.45345332863204L188,143.43910524059837L192,143.46775319556218L196,143.51310064049792L200,143.5749596055681L204,143.56816072214292L208,143.52291623690311L212,143.43692980273542L216,143.3046272281211L220,143.116102247247L224,142.85491895841284L228,142.6128647044766L232,142.34501209424806L236,141.73788953189347L240,140.77086781108855L241.9864483541769,140L244,139.0610195386471L248,136.08122196754377L248.09341815954804,136L251.70301727401744,132L252,131.59725935719845L254.2561030266101,128L255.7379374311484,124L256,122.71441875031914L256.5151627654557,120L256.77246967183686,116L257.16841185765975,112L257.633074689748,108L258.17827945682876,104L258.82103804379426,100L259.4553364486744,96L259.70888239415416,92L259.56880990325317,88L258.9876441456758,84L257.9008609676251,80L256.26550770076915,76L256,75.5142903589661L253.90794325014855,72L252,69.7876353121294L250.2394115615018,68L248,66.07070415874463L245.28228200076853,64L244,63.15641064419765L240,61.05806078575014L237.45668134785967,60L236,59.44855897105822L232,58.072302333595815L228,56.87800651453844L225.52559039883118,56L224,55.50462030982115L220,53.84587339949073L216,52.26834161347767L215.34881812295305,52L212,50.58601918573552L208,48.63422904072334L206.95081944704043,48L204,46.133742004520826L201.22112769902395,44L200,43.02038449324351L196.81334984440144,40L196,39.20187722113971L193.1504998983297,36L192,34.6898911973787L189.93724262261088,32L188,29.55462570555072L186.88904691317993,28L184,24.282800065386283L183.78689839686962,24L180.25765224168168,20L180,19.73555432341179L176.25144033821755,16L176,15.7633480481595L172,12.250710227856132L171.6940334062121,12L168,8.985870216934316L166.6811547986846,8L164,6.0133944167510975L161.01956944175606,4L160,3.3111209099051138L156,0.7831978544627844L154.63265294493985,0L152,-1.523821579504812L148,-3.5330907720208984L146.9488949152728,-4L144,-5.349989791324603L140,-6.946847178067344L136.96417144968171,-8L136,-8.347616799163276L132,-9.738553197560279L128,-10.987894447510342L124.56688266301984,-12L124,-12.173957319852875L120,-13.21873559063691L116,-14.086219747648258L112,-14.825328891265926L108,-15.454171260305614L104,-15.98647291979863L103.87919783607208,-16L100,-16.490815185833114L96,-16.906126958293854L92,-17.265972565553554L88,-17.574379825561167L84,-17.772524935430752L80,-17.860076698738226L76,-17.89150229453483L72,-17.68053777948697L68,-17.24397255363006L64,-16.51186874797068L61.614288700960145,-16L60,-15.675043587280484L56,-14.734950332794426L52,-13.59821161794747L48,-12.219440516171176L47.446504905728034,-12L44,-10.630205792494607L40,-8.696117589258478L38.77197856212956,-8L36,-6.305704476288241L32.95213778554947,-4L32,-3.1146041244680447L29.122450051885252,0L28,1.4672384960597213L26.19151375921537,4L24,7.800096104379634L23.89050769946229,8L22.022278568718704,12L20.536542999613204,16L20,17.757064701596917L19.34698155011003,20L18.498424046628088,24L17.93057152236095,28L17.60533160079565,32L17.500762297143424,36L17.60767681817282,40L17.94116644644211,44L18.522537171171194,48L19.37403741900883,52L20,54.505088735297136L20.361130370619975,56L21.25848416534066,60L22.301908251090396,64L23.523803597525088,68L24,69.3601917974519L24.878755804190973,72L26.435841490386423,76L28,79.35846664291861L28.321914189705936,80L30.454855984999426,84L32,86.62830254065153L32.84948423242625,88L35.552248310143256,92L36,92.61599199003854L38.73548770218082,96L40,97.43953595955779L42.45773265274073,100L44,101.5398163983283L46.69674359375759,104L48,105.17198133108568L51.43030924607888,108L52,108.46330065298451L56,111.4901908159554L56.724016479099674,112L60,114.28281214354405L62.671561402463624,116L64,116.82427141499272L68,119.22008105871427L69.3183875569245,120L72,121.77955904958333L75.48445441713807,124L76,124.37978862113508L80,127.24202582965157L81.38212320015211,128L84,129.76652885217183L87.92680603316768,132L88,132.05551831077983L92,135.0438830287158L93.34973052663179,136L96,139.35596401875915L96.53745540812668,140L98.58973481772199,144L100,146.42123317266262L101.01541992834208,148L103.67645257393903,152L104,152.45404737603928L106.96802970583613,156L108,157.0848825306573L111.56591478206309,160L112,160.27994160684065L116,162.22424303097415L120,163.5036040382212L124,163.53947587184828L128,162.34930523901969L132,160.1920055855003ZM375.9606684759502,228L376,227.95889808782312L379.23557714262444,224L380,221.7846871170471L380.4148500440086,220L380.77688443306005,216L380.704373604153,212L380.2836678624312,208L380,206.5120982337972L379.4952962065446,204L378.31444940232296,200L376.6604747977408,196L376,194.84310178543973L374.45628199767714,192L372,188.65146920660055L371.3988755772572,188L368,185.14840265371475L366.17794912061066,184L364,182.8956442866674L360,181.44153914545916L356,180.494490310154L352.0754556125171,180L352,179.9919442080706L348,179.87840685819742L346.32862860357676,180L344,180.20298339460913L340,181.07275491248743L336,182.5655606550581L333.43636259659075,184L332,185.0663806863596L329.1640284564751,188L328,189.7612152624351L326.89883589714657,192L325.6893708546164,196L325.13180428366474,200L325.13601551285643,204L325.6658163904372,208L326.72838442315987,212L328,215.1045210737252L328.4514255024267,216L331.23959053156796,220L332,220.83641990504123L335.5232155247255,224L336,224.34439401186563L340,226.68709050101262L342.8247250052808,228L344,228.45321578951024L348,229.6441673703943L352,230.52343681033892L356,231.13677322308234L360,231.46848771699968L364,231.47743994659163L368,231.07003341481987L372,230.04937277074845ZM552.6483243444544,340L556,337.9171005366435L558.0161525290071,336L560,334.03651828840566L561.4965829159107,332L564,328.4292863300866L564.2935933158715,328L566.7767119989729,324L568,321.81553204911467L568.9864191828635,320L571.0384566011488,316L572,314.16096942183356L573.1195726321066,312L574.7184907159962,308L575.8907299513643,304L576,303.4424956110736L576.6822288781426,300L577.1019313356958,296L577.1475185270016,292L576.8294414079406,288L576,284.3857917443171L575.9056791536788,284L574.0911467245633,280L572,276.7640259472479L571.4427219402312,276L568,272.43671823482214L567.5061696710554,272L564,269.53912873922934L561.4554068852392,268L560,267.22174221726067L556,265.83800815913474L552,265.1149104527991L548,264.9311362915323L544,265.2266501701156L540,265.9849702368089L536,267.31536810880755L534.1720715408184,268L532,268.8031597144385L528,270.479425771073L524.8463960213918,272L524,272.44724050114576L520,274.87329828199586L518.4008440266375,276L516,277.8857611171933L513.6933640224377,280L512,281.7507860309559L510.12751742080354,284L508,287.6306162309117L507.8105300526199,288L506.30180628311825,292L505.27120553732993,296L504.66563333534054,300L504.45307629096556,304L504.62708952226717,308L505.2061378992129,312L506.2370687385543,316L507.71120132612396,320L508,320.5953592252217L509.93525632482704,324L512,326.79521415307596L513.060183544432,328L516,330.71685505915275L517.6710625228492,332L520,333.70926490015654L523.7223193736885,336L524,336.1673747195959L528,338.247279278308L531.8795093946779,340L532,340.05594484409147L536,341.35001031259657L540,342.1636883983091L544,342.33668521861273L548,341.8041270948333L552,340.388721411742Z"/></g><g><path fill="rgb(161, 188, 195)" stroke="rgb(114, 140, 147)" stroke-opacity="0.3" d="M227.6232321185476,132L228,131.89563146253016L232,130.5594717696128L236,128.54926748465314L236.85950039313565,128L240,125.22945528519094L241.0475130037484,124L243.32618319780426,120L244,118.02146814326372L244.57049115663568,116L245.5971536198084,112L246.42009242526984,108L247.11163962366112,104L247.71981889645338,100L248,97.52593196451204L248.19084090698703,96L248.18537903219521,92L248,90.6085896798229L247.66702482528189,88L246.57215372227972,84L244.76252547876902,80L244,78.75162308130285L242.0042876758888,76L240,73.91383484421019L237.78010016434172,72L236,70.84106070806484L232,68.60271069257655L230.75158384847145,68L228,66.75779927688549L224,64.86828652330465L222.4305207400272,64L220,62.71673212922494L216,60.77984102735866L214.3549446937206,60L212,58.91544963120589L208,56.901996050035535L206.49348891250162,56L204,54.573178328198594L200.2474362767237,52L200,51.82068883512977L196,48.38891069862072L195.61562669114363,48L192,44.156965073555256L191.87660359421966,44L188.79712942146188,40L188,38.95890396031339L186.02667479366272,36L184,33.06504121174957L183.31217701416716,32L180.52249230199533,28L180,27.319452716521738L177.48825644765202,24L176,22.35408046186673L173.77905029716658,20L172,18.32390879838394L169.3781643799577,16L168,14.847465401251739L164.3106934096648,12L164,11.760600359238168L160,8.856960318679924L158.7315718648395,8L156,6.158082472241148L152.41745931681862,4L152,3.7469978791840646L148,1.54700338556151L144.68835256722724,0L144,-0.3294300865088502L140,-2.0549504671811576L136,-3.534543457105613L134.68237272035086,-4L132,-4.985213047191323L128,-6.311739414597014L124,-7.543581494262099L122.23515581242,-8L120,-8.607568405353817L116,-9.517706735805334L112,-10.288603150180847L108,-10.937289027850227L104,-11.47658294307368L100,-11.915896648840857L99.02545219384604,-12L96,-12.275955853386733L92,-12.581194267684182L88,-12.828939136203587L84,-12.961481565803282L80,-12.976861169609947L76,-12.931845791172364L72,-12.623386993092453L68,-12.073640218817246L67.64748115443811,-12L64,-11.248314553153662L60,-10.27947471647039L56,-9.132257582844375L52.66704779885714,-8L52,-7.765482151864106L48,-6.144823832964448L44,-4.174844771730164L43.689593645833185,-4L40,-1.5346320624110348L38.06937122633778,0L36,1.914126605464844L34.10520666019585,4L32,6.776585980681332L31.174453727699344,8L28.908667955279967,12L28,13.94413503784871L27.073327303623714,16L25.577615183915114,20L24.51677684329337,24L24,26.861526964309547L23.79187443033308,28L23.345196693777694,32L23.16855549777509,36L23.245032577697827,40L23.59148792278036,44L24,46.581954097287564L24.211994397587787,48L25.077238923268823,52L26.095962523178358,56L27.054854006708737,60L28,63.38111172267082L28.17627204566726,64L29.49384029287897,68L31.071063251123775,72L32,74.0045503851351L32.951183067467,76L35.24694868112837,80L36,81.22369781188829L37.88460219339177,84L40,86.8743492038522L40.88951846396674,88L44,91.65583860109734L44.316026356792435,92L48,95.7521418456162L48.26420363610683,96L52,99.29726214337333L52.87045887851144,100L56,102.48796437685877L58.079351104968,104L60,105.41677356085887L63.905098501772954,108L64,108.06373676781584L68,110.56540107007703L70.46610151903278,112L72,112.92825169632772L76,115.19157075678496L77.54482451500749,116L80,117.32842926415347L84,118.86820862062527L87.99696635701912,120L88,120.00100984283503L92,121.27706076782468L96,122.36746186337137L100,123.28608248922254L103.93808907066577,124L104,124.01416755629867L108,124.79446208932379L112,125.41999537639069L116,126.04010536150392L120,126.71707682826201L124,127.00853706875989L128,126.67559919741652L132,125.9302458136066L136,125.0073340338322L139.76449345986148,124L140,123.9469479220624L144,123.92343391754906L144.57616023096355,124L148,124.51404785609307L152,125.43374993565655L156,126.66392619585403L159.71967625095024,128L160,128.09798454943672L164,129.65572661153178L168,130.85702893742067L172,131.87951053467233L172.61036715334723,132L176,132.64853770671039L180,133.08084057254072L184,133.5586884858893L188,134.176773643389L192,134.6140148323237L196,134.94560082757565L200,135.1916642245655L204,135.24566923945784L208,135.1535870250195L212,134.90841229761455L216,134.49003490694787L220,133.86063040975756L224,132.95529539690853ZM357.01237703569666,212L359.9767931782203,208L359.6524606490071,204L356.93555626760207,200L356,199.26098117229128L352,197.78279604975137L348,197.9547190123746L344.6877513699604,200L344,201.23445902661643L343.2271027896715,204L344,207.90934487318185L344.02910110553023,208L348,211.96788771857666L348.07827195689293,212L352,212.98006740807722L356,212.5589416186246ZM549.5378408977818,328L552,326.63267724317296L555.1127321927576,324L556,323.1510296913905L558.4284453514739,320L560,317.7172692595101L560.9318465843401,316L563.0381756210257,312L564,309.55474610131427L564.6472572218665,308L565.8124680997388,304L566.5046606846425,300L566.7291591062769,296L566.458308741615,292L565.6648071734729,288L564.0089470953409,284L564,283.9868418320819L561.1162225340063,280L560,278.8333165946989L556,276.042471804538L555.8992187610846,276L552,274.625755246129L548,274.0231878894196L544,274.099325490058L540,274.79422570635876L536.5753312037608,276L536,276.21862442178957L532,277.99664952021794L528.1427698659337,280L528,280.0808404597678L524,282.71850225338653L522.3375759657055,284L520,286.4779033314925L518.7598832736053,288L516.3929228934828,292L516,292.9549676834814L514.9008631220237,296L514.0728372376481,300L513.8343318342555,304L514.189218209443,308L515.1776802615864,312L516,313.9656620799401L517.0181219900684,316L519.7227059233155,320L520,320.32117834400907L523.9048676501475,324L524,324.0736046256086L528,326.57340442273284L530.9475187757549,328L532,328.44737391592037L536,329.5428690110725L540,330.07756279556605L544,329.82119507040017L548,328.753001580843Z"/></g><g><path fill="rgb(149, 178, 185)" stroke="rgb(103, 130, 137)" stroke-opacity="1" d="M220.58011638016143,124L224,122.1819173360596L227.35583608774493,120L228,119.42903692703979L231.09953891838387,116L232,114.75575704072116L233.6281189326183,112L235.31057163481694,108L236,105.69561580397217L236.46675493289354,104L237.23906879531893,100L237.62020092648368,96L237.29928691478239,92L236.19844406006786,88L236,87.59003467386671L234.0568360895316,84L232,81.46463416715389L230.61635951550574,80L228,77.79705429338159L225.8035937896667,76L224,74.76995754366712L220.29768034841544,72L220,71.81873503275011L216,69.64297915228585L212.73591316453746,68L212,67.63631979580063L208,65.5903533454977L205.29241820955895,64L204,63.240927986129066L200,60.476636667368865L199.41169097456583,60L196,57.21593350938102L194.7611985605016,56L192,53.3834596394922L190.8119168286076,52L188,48.51423755793641L187.6534827849805,48L185.01983612348482,44L184,42.4421585867461L182.5514229860495,40L180.08898052592167,36L180,35.863701694413095L177.60086749124395,32L176,29.683540520055757L174.83443589797736,28L172,24.444616753893087L171.63866680583243,24L168,20.31725637380768L167.6719004630799,20L164,16.871939314725466L162.90649718893138,16L160,13.816011112024682L157.40745650705807,12L156,11.013137008121149L152,8.455034177618558L151.20539850984812,8L148,6.1483798204774445L144,4.185065961637875L143.5786401093502,4L140,2.384930693858678L136,0.833064818040171L133.71589362889597,0L132,-0.64964750348949L128,-2.020309136226828L124,-3.284329106093992L121.29037244320455,-4L120,-4.355810999532068L116,-5.278547148581993L112,-6.055941134852674L108,-6.703903154578299L104,-7.234188538070285L100,-7.655089270329185L96,-7.971866444792724L95.55930167979781,-8L92,-8.240372518124502L88,-8.445216583719755L84,-8.525116202101188L80,-8.476803613086233L76,-8.362755660417108L72.42775413338865,-8L72,-7.956795521963528L68,-7.305936325693764L64,-6.319652693847118L60,-5.156288431557627L56.617710935867706,-4L56,-3.762002920613213L52,-1.9833020447774174L48.30907348123284,0L48,0.18608762054626027L44,2.9663590904290373L42.730171518383145,4L40,6.570637257423911L38.68151889790687,8L36,11.440584396562869L35.62435594510029,12L33.329346707380495,16L32,18.836109253770587L31.494354875158578,20L30.19470614666325,24L29.298866161100634,28L28.741354788088145,32L28.481364591472854,36L28.496182482518265,40L28.8054924661909,44L29.42823708005254,48L30.36079584499379,52L31.487143657251437,56L32,57.926280113330364L32.55201771695384,60L33.80713354450411,64L35.309515802202924,68L36,69.57008066456481L37.155685175768355,72L39.425127756105326,76L40,76.85934419951238L42.23863329652323,80L44,82.29827806214885L45.39477126719592,84L48,86.97904220728779L48.95886727570851,88L52,91.04707804222019L53.02665980605582,92L56,94.61021216502138L57.7192169597607,96L60,97.7516003503099L63.32300705293747,100L64,100.45996293646806L68,102.90622209970579L69.97360502172864,104L72,105.1873339406526L76,107.32051114670332L77.42969439302851,108L80,109.298194015727L84,110.64763115023217L88,111.5297790027397L90.26507928401551,112L92,112.40245304374338L96,113.1030321436341L100,113.6053758366647L104,113.86896500914784L108,114.01169605806069L112,113.97896869483142L116,113.85870456821297L120,113.67477209626034L124,113.27602690801055L128,112.5898334507894L130.82580878592034,112L132,111.79252156007672L136,110.98937579047174L140,110.11876506572827L144,109.87499285889493L148,110.09343114282282L152,110.61725168175067L156,111.6207313321533L157.00047713818049,112L160,113.26827011341825L164,115.43184175899535L165.1093835150088,116L168,117.49782160258457L172,119.54499704377352L173.0002236409843,120L176,121.26327131045966L180,122.55676651244448L184,123.78411334709577L184.65145989147038,124L188,124.99248992188339L192,125.81075210833046L196,126.41382198013432L200,126.83092519851121L204,126.92228973220963L208,126.74365080660553L212,126.27561892163263L216,125.47120124742852L220,124.24356409529346ZM541.6992412860264,316L544,315.7262067550863L548,313.91185868146346L550.4305671604983,312L552,310.3225659324668L553.5093605599976,308L555.2085659780313,304L556,300.13182801083144L556.0206912693226,300L556,298.9942801408833L555.9134183490407,296L554.7247630985377,292L552.2609518925045,288L552,287.7503439688179L548,285.6289982849947L544,285.07268201273286L540,285.8083521462481L536,287.87006134921984L535.7975466824055,288L532,291.3373264207895L531.3727353670539,292L528.7373306842447,296L528,298.0602069600633L527.419700312942,300L527.2722830615762,304L528,307.0416821418494L528.2972041819595,308L531.1043606892855,312L532,312.7938722260745L536,315.0963446628131L539.2107825610709,316L540,316.1874401230364Z"/></g><g><path fill="rgb(137, 168, 176)" stroke="rgb(91, 121, 129)" stroke-opacity="0.3" d="M209.91855698148413,116L212,115.3988969622005L216,113.50779611602928L218.141433342377,112L220,110.17150815588113L221.62300306920025,108L223.56785802897673,104L224,102.43919165908613L224.664221073642,100L224.9750097215367,96L224.25876716329196,92L224,91.41662501137941L222.53738091348401,88L220,84.36626076629258L219.69427890275466,84L216,80.64869905591007L215.17268868638394,80L212,77.83410791535255L209.2000841524432,76L208,75.30452248388428L204,72.81425003713642L202.84026356938625,72L200,70.26448736803187L196.88959562406234,68L196,67.32635208424969L192.45970316849082,64L192,63.555342702741854L189.10602123460637,60L188,58.622953974686936L186.2890494410006,56L184,52.62526276608355L183.63514442517544,52L181.34369225315356,48L180,45.63228968660576L179.1599531986592,44L177.00752235861535,40L176,38.25334856428597L174.73969203880523,36L172.24221710269086,32L172,31.65546719897101L169.42653568092948,28L168,26.26538629153687L166.08767793910283,24L164,21.97662358350317L161.86235483390118,20L160,18.48810577325135L156.76881263733333,16L156,15.444244079892613L152,12.767796518890052L150.7089595125015,12L148,10.374596929832293L144,8.326182781495191L143.2815173262235,8L140,6.4731277925918675L136,4.872634785099166L133.66488616603237,4L132,3.355243243043944L128,1.9672025480974895L124,0.7006861380177298L121.34202272973917,0L120,-0.3709489106743291L116,-1.2896944586253056L112,-2.061502668760383L108,-2.7002507240943885L104,-3.2156846894728375L100,-3.613937886072634L96,-3.897659320897631L94.12837443756669,-4L92,-4.1192705072705L88,-4.271210947921531L84,-4.289808827800584L80,-4.169407873748341L76.48668728444036,-4L76,-3.9753210283731164L72,-3.43516438288961L68,-2.5852811606726647L64,-1.3284611988627262L60.42675540996021,0L60,0.172288060683627L56,2.0235890601161373L52.45025135245237,4L52,4.279818534259533L48,7.147042640633188L46.97387888442228,8L44,10.846884788722136L42.946823304482706,12L40,15.801767655446199L39.86299278908825,16L37.467703430631786,20L36,23.41805396714483L35.77672487953748,24L34.6611742208279,28L33.94988847596234,32L33.588539765379565,36L33.545352429221325,40L33.8435111304762,44L34.501454264992105,48L35.50063325986412,52L36,53.65647190918213L36.75092589932737,56L37.976376905966106,60L39.44952428965291,64L40,65.27379008085191L41.21833764381071,68L43.355642688867846,72L44,73.02835582618934L45.96054527952228,76L48,78.5689410964323L49.210950111013545,80L52,83.1079836881797L52.85628942973264,84L56,87.10501129433354L56.97332991195398,88L60,90.64409764079122L61.74933287539412,92L64,93.67050254026853L67.60233658516066,96L68,96.24900181140742L72,98.53832644011237L74.88571554655778,100L76,100.58557979036962L80,102.4316845240563L84,103.64003927573091L85.87881250743075,104L88,104.44903951066084L92,105.24091536694888L96,105.79429431770225L100,106.14629122388484L104,106.25070578283496L108,106.2258638659687L112,106.02541660811485L116,105.71305360310046L120,105.30040149403112L124,104.73420045138062L127.93789250562031,104L128,103.98981222627921L132,103.24575369404283L136,102.36503108223587L140,101.40298421088357L144,100.8492468501405L148,100.58252069031707L152,100.4668889318614L156,100.71452055247099L160,101.4865173725237L164,102.98060456956136L166.51707535849147,104L168,104.6610389651006L172,106.73579927714175L174.35088206801936,108L176,108.86927625911767L180,110.75351111751354L182.6056110276428,112L184,112.59277064540026L188,114.35156500762184L192,115.57128785854997L193.91565027650518,116L196,116.44072934290628L200,116.97462371488723L204,116.97435764907263L208,116.48765069206507Z"/></g><g><path fill="rgb(125, 158, 166)" stroke="rgb(80, 112, 119)" stroke-opacity="0.3" d="M204.25751333898376,100L206.45538336944554,96L205.52687969667772,92L204,90.08715731277618L202.13220473154246,88L200,86.42560325188612L196.69598338925732,84L196,83.52314802276166L192.27155899709697,80L192,79.72398935977893L189.54735374135197,76L188,73.60779915195741L187.2484239328847,72L184.9232734114064,68L184,66.33434741382001L182.98187921901837,64L181.17717767255385,60L180,57.530594047489586L179.37423394732008,56L177.4820289708677,52L176,48.84546195487749L175.6331152015112,48L173.77179341505718,44L172,40.47065931551842L171.77467774468994,40L169.6043959727441,36L168,33.42256950270358L167.11965127629736,32L164.20784772462008,28L164,27.756005222742303L160.70458549865955,24L160,23.345236354268295L156.28757371952457,20L156,19.774076416255014L152,16.824253039708154L150.75038854392312,16L148,14.296302009547986L144,12.188078340998302L143.59706298395582,12L140,10.280567159737416L136,8.647922027861213L134.29795717547827,8L132,7.094810494984401L128,5.705600095509425L124,4.453180582131637L122.25415548858354,4L120,3.385907853167268L116,2.492646095913358L112,1.7498115206951184L108,1.1456495792699997L104,0.6726238453004925L100,0.326880919262166L96,0.1094637847083817L93.0003142835817,0L92,-0.03819531697909895L88,-0.10677298421703085L84,-0.028133122141838385L83.51459602830562,0L80,0.20906448798545796L76,0.5393376070272922L72,1.2635159162084477L68,2.3429540784153744L64,3.8897548041270937L63.74781031015493,4L60,5.790509693773245L56.15297364680154,8L56,8.097747534768942L52,11.02158395110797L50.845188633788865,12L48,14.766649032037634L46.88507398413822,16L44,19.75439610247831L43.83060121853637,20L41.726565067532675,24L40.257885643129384,28L40,29.0529701318425L39.31678788926388,32L38.80699914081168,36L38.680376711557585,40L38.96671787785607,44L39.685121694596376,48L40,49.143191542619775L40.79889288692959,52L42.17591962022678,56L43.521118640634796,60L44,61.19763640851329L45.14962918333029,64L47.120873022601785,68L48,69.50656726292144L49.516025509609705,72L52,75.40399144368266L52.458169876611635,76L56,79.856047582824L56.14098125470639,80L60,83.75435519052274L60.28198371126405,84L64,87.10473152084234L65.2246024881104,88L68,89.95639914673365L71.27988990600346,92L72,92.43719539042985L76,94.63004625098753L78.96974014885492,96L80,96.47347917532036L84,97.72348786162826L88,98.51972961741276L92,99.24439876351619L96,99.73587573853709L99.49737087691071,100L100,100.04162455462185L104,100.11300358985253L108,100.04062334891023L108.63164517229612,100L112,99.80462775441546L116,99.45347921814758L120,98.98858640582472L124,98.39561099217204L128,97.66053386706164L132,96.78950063766152L135.0358227208124,96L136,95.76227412156044L140,94.70550973173789L144,93.89566101396213L148,93.21484313027435L152,92.50995700655409L155.7032235804517,92L156,91.95776657769062L160,91.71177591768L164,91.96802335604326L164.59528524969932,92L168,92.21934757944737L172,92.75912775846794L176,93.53848491842749L180,94.50794287893908L183.62429232507077,96L184,96.15569317512413L188,98.3860582028569L191.55132343476544,100L192,100.16847098227296L196,101.16048090160217L200,101.47551945748154L204,100.18513925905506Z"/></g><g><path fill="rgb(113, 149, 157)" stroke="rgb(68, 103, 111)" stroke-opacity="0.3" d="M128.817143713572,92L132,91.28299727556211L136,90.18783421696176L140,88.95792972424036L143.5315287725177,88L144,87.87531205601388L148,86.8678632316711L152,85.67518645765753L156,84.40134654583747L157.3604651093055,84L160,83.19150746795913L164,82.096229949968L168,80.37177641347651L168.71011769129905,80L172,77.58602057813371L173.49948799483752,76L175.24581947986775,72L175.39765752965616,68L174.9724097776123,64L174.1735407310079,60L173.08331804315372,56L172,52.97573257704428L171.68456954459435,52L170.2130622439488,48L168.58608356981296,44L168,42.75305289435619L166.75267565429016,40L164.6274018534973,36L164,34.99560122124015L162.12718590211747,32L160,29.15508950013404L159.1422698361672,28L156,24.500302815322215L155.53093966485253,24L152,20.959018172839507L150.77441122502913,20L148,18.11763993762868L144.3541829563273,16L144,15.805745913983927L140,13.858710180296441L136,12.207078474243815L135.46329832628362,12L132,10.618453074642673L128,9.238957573513531L124,8.011750369898337L123.95348047592924,8L120,6.951091882077819L116,6.094909189726167L112,5.393207246670599L108,4.8365303713976715L104,4.419865628331962L100,4.1419823874907L96,4.008681065512221L95.31423338916775,4L92,3.9558497455283828L88,3.9998410181809874L87.99678732979245,4L84,4.202307300648769L80,4.585926754277011L76,5.084873324259959L72,6.0337970564898455L68,7.387525551966945L66.6484056434445,8L64,9.306598551006303L60,11.644747235522203L59.465723845690945,12L56,14.583874570281921L54.35792302682921,16L52,18.346192380605572L50.52695174299819,20L48,23.820098221324884L47.89155643905204,24L46.09044898948315,28L44.89750647365784,32L44.215001561773335,36L44,39.67392044136008L43.98156417981389,40L44,40.29896898773552L44.22806980322696,44L44.9686505293661,48L46.13486968520937,52L47.598874432662484,56L48,57.11948957401077L49.05079121133366,60L50.82599826861764,64L52,66.20036688679477L52.9908281039566,68L55.64091016572698,72L56,72.45958536238697L58.91483635883557,76L60,77.1065033340931L63.153804550593094,80L64,80.74387000583366L68,83.84391065888792L68.22432272241406,84L72,86.55488081224169L74.42894577665297,88L76,88.91448586024927L80,90.88223876942459L83.32890678164833,92L84,92.22484439854267L88,93.12439795264726L92,93.934045292646L96,94.48544924166708L100,94.83147253565016L104,94.91460879103658L108,94.84784919007186L112,94.59671198191964L116,94.20331722102131L120,93.67158430484687L124,93.00509910845125L128,92.19438533577457Z"/></g><g><path fill="rgb(101, 139, 147)" stroke="rgb(57, 94, 101)" stroke-opacity="0.3" d="M124.72575337809127,88L128,87.35312121507852L132,86.38450758181747L136,85.17837062595297L139.4569737494136,84L140,83.82494370439161L144,82.61939684215534L148,81.31057758860587L151.28807915529953,80L152,79.69358661608072L156,77.82776648347098L159.39834119758837,76L160,75.56786113820812L164,72.46775180756674L164.45703958472973,72L166.58492474499462,68L167.4215341042222,64L167.49206955228186,60L167.03453651741677,56L166.11594469975194,52L164.95572309348262,48L164,45.33066281208224L163.54280446091107,44L161.82485549344148,40L160,36.51092521803673L159.74378928354434,36L157.28156207704018,32L156,30.29158631060747L154.23440405431913,28L152,25.623947340337807L150.345591346041,24L148,22.14017277809505L144.89983886118733,20L144,19.4601271727184L140,17.34663036148133L137.01976468881475,16L136,15.560886692737284L132,13.963710664481823L128,12.601530945623182L125.99300805144952,12L124,11.37408109424149L120,10.354348593292755L116,9.543074393392814L112,8.891000510303726L108,8.391131197889607L104,8.04127682515984L103.14997471406801,8L100,7.838119955422258L96,7.80332461015152L92,7.866643629044518L89.00934936610662,8L88,8.045930833817962L84,8.39816160107101L80,8.957548529866415L76,9.66185833834382L72,10.878566052629793L69.2710875354991,12L68,12.566993557632287L64,14.911209112527871L62.398158226371066,16L60,17.85036464609027L57.57409003083666,20L56,21.840723814879865L54.33531029302654,24L52.09521534984813,28L52,28.24313481605634L50.623614463023046,32L49.743527502366845,36L49.374542709494364,40L49.553841037213914,44L50.291296065367106,48L51.487912657632535,52L52,53.34757287672673L53.01948772818807,56L54.56655670737965,60L56,63.01466488225009L56.479051502033315,64L58.82909275427207,68L60,69.65550501146163L61.791168937752985,72L64,74.40654370919404L65.6313295529034,76L68,77.95580561085728L70.7876284470033,80L72,80.86291337839961L76,83.39916311816268L77.13870957529997,84L80,85.4968010410835L84,86.97833073722063L88,87.97499881154283L88.109765978685,88L92,88.89183877398887L96,89.52814493175441L100,89.9453922830399L104,90.07744249234156L108,90.04021802601801L112,89.80366571722405L116,89.40613898574463L120,88.85124141165358L124,88.1518660404075Z"/></g><g><path fill="rgb(89, 129, 138)" stroke="rgb(45, 84, 93)" stroke-opacity="1" d="M122.41231832339491,84L124,83.74156486174996L128,82.94928332306105L132,81.95174259714818L136,80.69350542660118L137.96808138624672,80L140,79.27830399057783L144,77.82861357841892L148,76.1585310815735L148.32511653645992,76L152,73.80485561572215L154.5445326499847,72L156,70.46678281366451L158.0913796730152,68L160,64.01518498889814L160.00689136522246,64L160.93466126483915,60L161.07698891957116,56L160.60159175018185,52L160,49.239619856349265L159.7572256318753,48L158.5993879914497,44L157.04481927964338,40L156,37.91440214542894L155.0458732008957,36L152.52421607695408,32L152,31.325553879230554L149.24210849081112,28L148,26.779767718585973L144.78687021942733,24L144,23.44736623355098L140,20.964189205143157L138.20715561896586,20L136,18.96613694380386L132,17.25294867796299L128.54312702501477,16L128,15.810339132143383L124,14.592944839787691L120,13.61957074203626L116,12.858353134870569L112,12.261718153601123L109.58496217329588,12L108,11.818252095985642L104,11.533776063634718L100,11.42337917944468L96,11.503783748252346L92,11.699299867489671L88.41199212623556,12L88,12.035474190223582L84,12.5604386960879L80,13.32394712696923L76,14.270879091257484L72,15.800867568275976L71.58748923806755,16L68,17.942223870244064L65.0765008389323,20L64,20.980988131920952L61.06318270106664,24L60,25.464449718858603L58.33030949505422,28L56.49987379961823,32L56,33.72863463630955L55.37986413197038,36L54.84766586401378,40L54.93681136925545,44L55.65193067816361,48L56,49.1544253704418L56.860355970839805,52L58.43795063472521,56L60,59.83234224598931L60.07138166400077,60L62.17660708075323,64L64,66.80690228769794L64.83899719616736,68L68,71.68667638544639L68.29425206099191,72L72,75.28635486464907L72.89875873322597,76L76,78.10006669194897L79.43636089032645,80L80,80.30793402741196L84,81.94280083018037L88,83.0816100344438L91.65824986828702,84L92,84.0864610329817L96,84.82601961357904L100,85.33369642815805L104,85.53542676686078L108,85.54904104385605L112,85.34989419426881L116,84.97341307177916L120,84.4237814739403Z"/></g><g><path fill="rgb(77, 119, 128)" stroke="rgb(32, 75, 84)" stroke-opacity="0.3" d="M122.19873164072254,80L124,79.70778422205476L128,78.8950544624702L132,77.83417964450058L136,76.4655836495802L137.2085071086197,76L140,74.78374670007244L144,72.88701483645747L145.63572412134252,72L148,70.27747261094544L150.49239055041232,68L152,65.94693162133413L153.2596084662424,64L154.77083875480548,60L155.40978109004544,56L155.35508222776718,52L154.81015907652733,48L153.82784354516514,44L152.3594532162787,40L152,39.27925137736534L150.30554947657396,36L148,32.55893946852798L147.584454079511,32L144,28.178704884650358L143.8119466492803,28L140,25.05156484058712L138.43181120913354,24L136,22.664645344920118L132,20.657521501984434L130.45235107146604,20L128,19.088676950263007L124,17.82537642868016L120,16.826919552555367L116,16.06278850121612L115.56085554068076,16L112,15.500553171593964L108,15.11965854305835L104,14.92109379694675L100,14.91219705048222L96,15.117490290509167L92,15.45850935157246L88,15.970378103627567L87.82857783927938,16L84,16.721127280861538L80,17.752203139606777L76,19.014259523499902L73.89375793956873,20L72,21.13598156173485L68.21752057006765,24L68,24.21632350515503L64.83810865046445,28L64,29.40451933059171L62.58400088821088,32L61.16301215845354,36L60.415532490560196,40L60.389576991763164,44L61.08193518709075,48L62.309857414612935,52L63.96384421620499,56L64,56.08315323451339L65.8008089601685,60L68,63.75139687923223L68.15640330337223,64L71.25553310508553,68L72,68.79027918494799L75.32235968482817,72L76,72.54514716362272L80,75.23120543871491L81.49401376925937,76L84,77.10820755826035L88,78.40500792974416L92,79.54259559811038L94.19396875168522,80L96,80.37801908194069L100,80.98734360356289L104,81.2732554980727L108,81.35434380911698L112,81.21297349651667L116,80.88296606525753L120,80.37075827373945Z"/></g><g><path fill="rgb(66, 109, 119)" stroke="rgb(20, 66, 75)" stroke-opacity="0.3" d="M123.06304316581125,76L124,75.82908451143311L128,74.8903965618108L132,73.63056743219167L135.95081040586192,72L136,71.97481913003128L140,69.64183203669398L142.4786659940263,68L144,66.63135751090041L146.480765472639,64L148,61.49803748049638L148.75609498728403,60L149.8663652487096,56L150.161169467663,52L149.84017981718335,48L148.98168890838312,44L148,41.30313023995785L147.48685660058422,40L145.2158596270912,36L144,34.37198596546976L142.03527910148833,32L140,30.063548612107454L137.5243370887787,28L136,26.966064997643784L132,24.4899355199326L131.05297403118354,24L128,22.687890690272354L124,21.24813540773353L120,20.117565629687647L119.44038860062662,20L116,19.36440503417718L112,18.829208812570883L108,18.49677225088317L104,18.373358554783593L100,18.469531455712797L96,18.81778168962677L92,19.328853737556358L88.26012117052099,20L88,20.057759616451435L84,21.195471464075567L80,22.71176545873203L77.16661665040974,24L76,24.682718885954145L72.0119238529478,28L72,28.013606746245955L69.04279169695766,32L68,34.13622238881737L67.20667349902911,36L66.22904314798103,40L66.07558798222763,44L66.7425694220619,48L67.99775877321059,52L68,52.00514763731681L69.83785441636897,56L71.863421327813,60L72,60.214008246559985L74.59216071758604,64L76,65.65103070893161L78.3709465286463,68L80,69.32898820134895L84,71.92363520389657L84.15099726036647,72L88,73.60848997401084L92,75.06835778527577L95.46326919027328,76L96,76.12671764393707L100,76.8463035374798L104,77.22373097034227L108,77.37716965424613L112,77.29371055350924L116,77.00448919880685L120,76.51575702319363Z"/></g><g><path fill="rgb(54, 99, 109)" stroke="rgb(4, 57, 66)" stroke-opacity="0.3" d="M122.25882700944868,72L124,71.6128816852432L128,70.42769189076313L132,68.7867335801138L133.47394021878185,68L136,66.25974814959127L138.7988721242658,64L140,62.6385500074889L142.03063138639183,60L143.8597718144704,56L144,55.29002044866877L144.5632147105724,52L144.46467650138152,48L144,45.626409011581785L143.66232805339504,44L142.00644702628014,40L140,36.776339419240514L139.46137915241735,36L136,32.31000606921218L135.6834530245756,32L132,29.171496520391557L130.15647400263913,28L128,26.875905204014927L124,25.165710774486854L120.46072992774239,24L120,23.872025818994302L116,23.06882916223867L112,22.51273169651617L108,22.20870348277569L104,22.169626767298837L100,22.412969187121718L96,22.988197441508333L92,23.784341960867835L91.17321254082299,24L88,25.040740229380276L84,26.718036825364507L81.60325057312008,28L80,29.137808489397642L76.59554962724877,32L76,32.73039228267653L73.98123596143705,36L72.54558706804823,40L72.18797409699954,44L72.85214364763405,48L74.1914878280246,52L76,55.75599385438619L76.13552176663765,56L78.67368033514595,60L80,61.62653395143113L82.2786584297281,64L84,65.41713633391768L87.9554151047324,68L88,68.02353605780664L92,69.96099141267993L96,71.42178064166589L98.05644182374508,72L100,72.45337827073146L104,72.99032045743559L108,73.24890114226909L112,73.22235729517996L116,72.94484235027085L120,72.42421576370788Z"/></g><g><path fill="rgb(42, 89, 100)" stroke="rgb(0, 48, 58)" stroke-opacity="0.3" d="M117.71122783628851,68L120,67.57824202820223L124,66.44961384113648L128,64.88456383661946L129.62506545111503,64L132,62.26739248147672L134.33927231401483,60L136,57.542454519403606L136.904535317752,56L138.11042759437512,52L138.26992402644242,48L137.5257538180712,44L136,40.53192207953862L135.74942391168025,40L132.74364750389051,36L132,35.27158792343323L128,32.03223438738139L127.95041998754212,32L124,29.968299347183404L120,28.401031744618265L118.53824299134757,28L116,27.422271915095266L112,26.83504532707373L108,26.574669663315532L104,26.659336858579636L100,27.112179096272868L96.02103234629377,28L96,28.006007033529272L92,29.47474229917613L88,31.452921075122063L87.08298868125675,32L84,34.57085710713896L82.61599282575554,36L80.19645784638857,40L80,40.912332854415524L79.41766090011637,44L79.98874636353358,48L80,48.031276953388044L81.54691157943853,52L83.97689958395637,56L84,56.03147148541814L87.46360724904366,60L88,60.45989428060858L92,63.60142171452165L92.63407818273046,64L96,65.65609584070836L100,67.1944163680553L103.48018621414624,68L104,68.09780427503779L108,68.50615845433353L112,68.54820062322574L116,68.26068104147603Z"/></g><g><path fill="rgb(30, 79, 90)" stroke="rgb(0, 39, 49)" stroke-opacity="1" d="M122.89311294310141,60L124,59.40578294506301L128,56.3146797586584L128.2889030227866,56L130.40907412999965,52L130.97358180503957,48L130.2378072655234,44L128.0460962266397,40L128,39.94920187842695L124,36.44547225549613L123.3272243989374,36L120,34.38803843359324L116,33.06089376931084L112,32.26504971132535L108,32.02066666436514L104,32.3677331852295L100,33.35220110716779L96,35.12391611809355L94.45326830866694,36L92,38.10058490907923L90.26907129160097,40L88.75337622122618,44L89.2377450638196,48L90.96754324222422,52L92,53.39594522810867L94.27697393796797,56L96,57.48834241654765L99.5494770019148,60L100,60.235678112546736L104,61.57636798636878L108,62.32347593627375L112,62.47393518553508L116,62.069655360273345L120,61.11123069777881Z"/></g></g><g id="labels"/><g id="axis"><g transform="translate(0,500)" fill="none" font-size="10" font-family="sans-serif" text-anchor="middle"><path class="domain" stroke="currentColor" d="M0,6V0H705V6"/><g class="tick" opacity="1" transform="translate(0,0)"><line stroke="currentColor" y2="6"/><text fill="currentColor" y="9" dy="0.71em">40</text></g><g class="tick" opacity="1" transform="translate(54,0)"><line stroke="currentColor" y2="6"/><text fill="currentColor" y="9" dy="0.71em">60</text></g><g class="tick" opacity="1" transform="translate(108,0)"><line stroke="currentColor" y2="6"/><text fill="currentColor" y="9" dy="0.71em">80</text></g><g class="tick" opacity="1" transform="translate(163,0)"><line stroke="currentColor" y2="6"/><text fill="currentColor" y="9" dy="0.71em">100</text></g><g class="tick" opacity="1" transform="translate(217,0)"><line stroke="currentColor" y2="6"/><text fill="currentColor" y="9" dy="0.71em">120</text></g><g class="tick" opacity="1" transform="translate(271,0)"><line stroke="currentColor" y2="6"/><text fill="currentColor" y="9" dy="0.71em">140</text></g><g class="tick" opacity="1" transform="translate(325,0)"><line stroke="currentColor" y2="6"/><text fill="currentColor" y="9" dy="0.71em">160</text></g><g class="tick" opacity="1" transform="translate(380,0)"><line stroke="currentColor" y2="6"/><text fill="currentColor" y="9" dy="0.71em">180</text></g><g class="tick" opacity="1" transform="translate(434,0)"><line stroke="currentColor" y2="6"/><text fill="currentColor" y="9" dy="0.71em">200</text></g><g class="tick" opacity="1" transform="translate(488,0)"><line stroke="currentColor" y2="6"/><text fill="currentColor" y="9" dy="0.71em">220</text></g><g class="tick" opacity="1" transform="translate(542,0)"><line stroke="currentColor" y2="6"/><text fill="currentColor" y="9" dy="0.71em">240</text></g><g class="tick" opacity="1" transform="translate(597,0)"><line stroke="currentColor" y2="6"/><text fill="currentColor" y="9" dy="0.71em">260</text></g><g class="tick" opacity="1" transform="translate(651,0)"><line stroke="currentColor" y2="6"/><text fill="currentColor" y="9" dy="0.71em">280</text></g><g class="tick" opacity="1" transform="translate(705,0)"><line stroke="currentColor" y2="6"/><text fill="currentColor" y="9" dy="0.71em">300</text></g><text x="705" dy="-5" text-anchor="end" style="font-family: Arial, sans-serif; font-size: 12px; fill: rgb(123, 123, 123); font-weight: bold;">low</text></g><g fill="none" font-size="10" font-family="sans-serif" text-anchor="end"><path class="domain" stroke="currentColor" d="M-6,500H0V0H-6"/><g class="tick" opacity="1" transform="translate(0,500)"><line stroke="currentColor" x2="-6"/><text fill="currentColor" x="-9" dy="0.32em">580</text></g><g class="tick" opacity="1" transform="translate(0,462)"><line stroke="currentColor" x2="-6"/><text fill="currentColor" x="-9" dy="0.32em">600</text></g><g class="tick" opacity="1" transform="translate(0,423)"><line stroke="currentColor" x2="-6"/><text fill="currentColor" x="-9" dy="0.32em">620</text></g><g class="tick" opacity="1" transform="translate(0,385)"><line stroke="currentColor" x2="-6"/><text fill="currentColor" x="-9" dy="0.32em">640</text></g><g class="tick" opacity="1" transform="translate(0,346)"><line stroke="currentColor" x2="-6"/><text fill="currentColor" x="-9" dy="0.32em">660</text></g><g class="tick" opacity="1" transform="translate(0,308)"><line stroke="currentColor" x2="-6"/><text fill="currentColor" x="-9" dy="0.32em">680</text></g><g class="tick" opacity="1" transform="translate(0,269)"><line stroke="currentColor" x2="-6"/><text fill="currentColor" x="-9" dy="0.32em">700</text></g><g class="tick" opacity="1" transform="translate(0,231)"><line stroke="currentColor" x2="-6"/><text fill="currentColor" x="-9" dy="0.32em">720</text></g><g class="tick" opacity="1" transform="translate(0,192)"><line stroke="currentColor" x2="-6"/><text fill="currentColor" x="-9" dy="0.32em">740</text></g><g class="tick" opacity="1" transform="translate(0,154)"><line stroke="currentColor" x2="-6"/><text fill="currentColor" x="-9" dy="0.32em">760</text></g><g class="tick" opacity="1" transform="translate(0,115)"><line stroke="currentColor" x2="-6"/><text fill="currentColor" x="-9" dy="0.32em">780</text></g><g class="tick" opacity="1" transform="translate(0,77)"><line stroke="currentColor" x2="-6"/><text fill="currentColor" x="-9" dy="0.32em">800</text></g><g class="tick" opacity="1" transform="translate(0,38)"><line stroke="currentColor" x2="-6"/><text fill="currentColor" x="-9" dy="0.32em">820</text></g><g class="tick" opacity="1" transform="translate(0,0)"><line stroke="currentColor" x2="-6"/><text fill="currentColor" x="-9" dy="0.32em">840</text></g><text x="4" text-anchor="start" dominant-baseline="hanging" style="font-family: Arial, sans-serif; font-size: 12px; fill: rgb(123, 123, 123); font-weight: bold;">high</text></g></g></g></svg>