<svg xmlns="http://www.w3.org/2000/svg" width="805" height="600"><rect width="805" height="600" x="0" y="0" fill="#f0f7f9" id="background"/><g transform="translate(50,50)" id="visualization"><clipPath id="plotClipPath"><rect x="0" y="0" width="705" height="500"/></clipPath><g id="viz" clip-path="url(#plotClipPath)"><g><path fill="rgb(224, 230, 236)" stroke="rgb(174, 180, 186)" stroke-opacity="1" d="M685.6365372261656,536L688,535.1459444270481L692,533.2756264604807L694.1175385394843,532L696,530.838833763383L699.5319315949289,528L700,527.6020233719861L703.3394833930518,524L704,523.248069541628L706.8951081261652,520L708,518.3609160265094L709.5515491237753,516L711.5139499000974,512L712,510.6995440107363L713.0375927031461,508L714.1938690012696,504L714.9782757475507,500L715.4732506937788,496L715.7267482406494,492L715.7638909276021,488L715.5925189229835,484L715.2050331899612,480L714.5772681586739,476L713.6640595701741,472L712.3898281386705,468L712,467.0615485912873L710.7933334506596,464L708.5250288298115,460L708,459.14750282165426L706.0776996317829,456L704,453.02808955672526L703.3109118262951,452L700.2503521500539,448L700,447.7117117037768L696.213515849917,444L696,443.803987047017L692,440.61207948772255L691.1036205644357,440L688,437.9214980443286L684.6035799434338,436L684,435.657982007795L680,433.5349557646532L677.0928561971565,432L676,431.4053880768362L672,429.13439157216396L669.9926671161852,428L668,426.8138082429888L664,424.5855661701679L662.9184266766678,424L660,422.280922247279L656.0463188241021,420L656,419.97054280833447L652,417.242957001632L650.3135855248773,416L648,414.0854141739469L645.7092743620838,412L644,410.24621872731535L642.0171040513108,408L640,405.4392997096509L638.9702497474203,404L636.4491662798711,400L636,399.3054369445981L634.0181253607699,396L632,392.7596138314399L631.5548610578215,392L629.4527051946359,388L628,384.8351076437247L627.6351691680977,384L625.8461004184435,380L624,376.15438263766805L623.9292825664457,376L622.0704125314434,372L620.0752030592414,368L620,367.85252105223L618.113643788653,364L616.0449392128846,360L616,359.9145855160033L614.1162652418616,356L612.1035735189728,352L612,351.8001437561839L610.2322113065292,348L608.2378925546014,344L608,343.58668806510684L606.1276536165341,340L604.2256652947289,336L604,335.4746573490382L602.6605933269512,332L601.0689384960909,328L600,325.39568132427854L599.4891947598787,324L597.9876362936816,320L596.3818172664791,316L596,315.0831691010531L594.769501451459,312L593.0566151790188,308L592,305.71386084942145L591.2407799351936,304L589.3108071401039,300L588,297.5873018558947L587.1581745225252,296L584.790253265868,292L584,290.71684139059954L582.3293684700458,288L580,284.5032066703173L579.659760915429,284L576.9621576294995,280L576,278.85082366872103L573.4595242044969,276L572,274.4978552727257L569.36738621805,272L568,270.78598763417955L564.5833461141189,268L564,267.5473804743939L560,264.84556563378817L558.4754579836781,264L556,262.6280474481148L552,260.99654228810556L548.627383701163,260L548,259.80430812761216L544,258.8652785101748L540,258.220469001324L536,257.81782650630544L532,257.6273517000374L528,257.63524166989407L524,257.84139032386304L520,258.2593285131777L516,258.9185952517882L512,259.8703532683798L511.5865451937872,260L508,261.04528337016046L504,262.66797671698L501.35430035595573,264L500,264.6571894255203L496,266.8808238498504L493.9537865252364,268L492,269.04899877018L488,270.9187108284326L485.28171296060407,272L484,272.5136498273882L480,273.70668354563134L476,274.4874054539198L472,274.51414440967426L468,272.7002402033667L467.4403749845634,272L466.08832177843794,268L465.9162095318952,264L466.27699508106195,260L466.93250722367463,256L467.7749546678715,252L468,251.1515415347016L468.8711388287709,248L469.60685344081276,244L470.0860089130366,240L470.38440818943707,236L470.5360641186876,232L470.5422238235783,228L470.4087084255698,224L470.1280629494562,220L469.75984399879815,216L469.234681264507,212L468.5197508551058,208L468,205.76173842282475L467.61815724647363,204L466.50211653252427,200L465.0033651287142,196L464,193.93662158190114L463.0605636878885,192L460.34011431187787,188L460,187.5389307745928L457.24728866805367,184L456,182.56022980620298L453.61118306402284,180L452,178.40832184352422L449.3186385063268,176L448,174.8803716291688L444.1883577033319,172L444,171.86194941317706L440,169.1971136092809L437.79274619567605,168L436,167.01103179862497L432,165.36986318262808L428,164.2083639531421L427.02524584046023,164L424,163.27881487598583L420,162.61495957027353L416,162.19647099376178L412,161.9907227129688L408,161.9184350383362L404,161.9762871841958L400,162.16766335154782L396,162.50310594941027L392,163.0017842751223L388,163.69435027445405L386.64253568821516,164L384,164.5320972289167L380,165.54550142058275L376,166.75859853124103L372,167.9027905062287L371.5934074317529,168L368,168.7984730632395L364,169.50790760780887L360,169.98144492474756L356,170.0488025643885L352,169.2084215372384L348.63084626156717,168L348,167.74120682704404L344,165.39416776618816L342.2228193871178,164L340,162.00943909877878L338.20830484954547,160L336,157.2385361698584L335.1729318369461,156L332.72271666947483,152L332,150.73300780746627L330.6344208251687,148L328.70141543242596,144L328,142.52614962411988L326.8998883415571,140L325.09316395641196,136L324,133.7366579582566L323.1961890768374,132L321.0734707981496,128L320,125.97764201250254L318.94141323189916,124L316.02173453700794,120L316,119.97217450545071L312.71754185741776,116L312,115.21441025841727L308.83188404490505,112L308,111.2202093579304L304.2158173995017,108L304,107.82690833329158L300,104.85127334568989L298.6005049394611,104L296,102.45276670311159L292,100.85299954812379L289.3924352832493,100L288,99.52697150042678L284,98.02857160061859L280,96.42677243456177L279.0429225043227,96L276,94.53055953035832L272,92.41775210403372L271.28897923669206,92L268,89.89562515219669L265.2779337417836,88L264,87.03896000219788L260.2344008146543,84L260,83.79087450534396L256,80.00271303259242L255.99728912577666,80L252.310570058481,76L252,75.63705885020951L248.95092333905654,72L248,70.79077477747387L245.78527765590798,68L244,65.94643210003628L242.2382118650507,64L240,61.677639506701354L238.24843819542576,60L236,57.981720316679144L233.62475125666805,56L232,54.710940878514776L228,52.20314574109082L227.6615332643314,52L224,49.790648987489504L220.88376452652597,48L220,47.4741527217723L216,45.022238671663985L214.41722945498805,44L212,42.34111954496365L208.9692675952984,40L208,39.2038687316454L204.39941722330616,36L204,35.62698299196883L200.63601536428047,32L200,31.2818947481462L197.30254888885457,28L196,26.357722396879538L194.3048536964813,24L192,21.06984596106892L191.1956392847182,20L188,16.17454121661791L187.85446063062756,16L184.4157927069071,12L184,11.532465836706962L180.75091420241796,8L180,7.213025651251712L176.79931823551306,4L176,3.234574809404819L172.32838463063086,0L172,-0.2690051219190934L168,-3.4333593690547417L167.11330846312484,-4L164,-5.941022624641391L160,-7.887536953292127L159.73538100742655,-8L156,-9.637022177182772L152,-11.045432029701189L148.9011566526116,-12L148,-12.30107112577818L144,-13.792685000279988L140,-15.351135331294287L138.46561895637927,-16L136,-17.16780871784117L132,-19.10758479187993L130.2123500303194,-20L128,-21.259334150026604L124,-23.52252864795642L123.16599374567554,-24L120,-26.097705011285456L116.93835102048075,-28L116,-28.71568808887659L112,-31.618088184608638L111.44967955802471,-32L108,-34.63035732513292L106.0559739907543,-36L104,-37.68176521173437L100.86097751611791,-40L100,-40.68846439086053L96,-43.57978004460401L95.35918882533682,-44L92,-46.24250921946673L88.78043687835029,-48L88,-48.42493914321512L84,-50.128959455212154L80,-51.32296459614308L76.82675569034188,-52L76,-52.19222258093934L72,-52.86950565536716L68,-53.31066351764355L64,-53.552718786096996L60,-53.614991810981564L56,-53.50299372523944L52,-53.209531781922244L48,-52.713412166200484L44.128183341984766,-52L44,-51.97879323813917L40,-51.08120672633225L36,-49.82701521017923L32,-48.05683295951424L31.89489537476676,-48L28,-45.913034942213415L25.04143706899295,-44L24,-43.3141489882024L20,-40.349991394627615L19.568136458421705,-40L16,-37.031343093615114L14.888853927022723,-36L12,-33.15418482361975L10.926634974142985,-32L8,-28.553227150566656L7.559302012560877,-28L4.630604585442782,-24L4,-22.94911318825193L2.258086225859685,-20L0.4381332852667299,-16L0,-14.852146103976409L-1.125541158179459,-12L-2.4333712471223237,-8L-3.5095773498476603,-4L-4,-1.6927726767613933L-4.392709845589138,0L-5.113093828443056,4L-5.658027362650984,8L-6.057064458011681,12L-6.332087014523438,16L-6.49723534484383,20L-6.510441022409736,24L-6.37312333358372,28L-6.075530260955446,32L-5.594890690458172,36L-4.98789079333352,40L-4.279683623335401,44L-4,45.364377860418784L-3.5117986329398434,48L-2.636465499538616,52L-1.576550635460606,56L-0.39967833701518884,60L0,61.322129145463606L0.7518973615760842,64L2.01972022616566,68L3.4824281385040337,72L4,73.28092184896556L5.023599754515388,76L6.772378929713753,80L8,82.65575198718935L8.591768048410884,84L10.38228399892651,88L12,91.4352757555134L12.257562921557692,92L14.021356022253784,96L15.990435438616416,100L16,100.018334815542L18.060598982691374,104L20,107.26208731755099L20.428366978294832,108L22.9720836240661,112L24,113.44308967573306L25.724930476631513,116L28,118.8097561524173L28.936231059862763,120L32,123.21589337768279L32.75947640036368,124L36,127.35297293365994L36.63644427680643,128L40,131.38290173188201L40.73023372779517,132L44,134.85383730647055L45.50185386614643,136L48,137.99690616060323L50.85328538101547,140L52,140.78818301150804L56,143.2772910028723L57.28340206359178,144L60,145.48819597629776L64,147.42778354282189L65.28488405227876,148L68,149.35285936984667L72,151.38697597074597L73.11514414178006,152L76,153.6544392953294L79.88416088586715,156L80,156.07424461722638L84,158.85408977851728L85.75685453042902,160L88,161.58166454770628L91.51240602291873,164L92,164.36794942206336L96,167.4224444545868L96.73612424002582,168L100,170.8214174067279L101.30626803883436,172L104,174.636540920649L105.34563621569569,176L108,178.84712859030878L109.04928014945574,180L112,183.31321673335628L112.60624990074407,184L116,187.606261365514L116.36872539506373,188L120,191.5554597388135L120.4659564622626,192L124,195.0051705961847L125.12084901371185,196L128,198.63723760826934L129.63278853661473,200L132,202.0756635191181L134.4768238943145,204L136,205.26626828288806L139.65850504981705,208L140,208.24408596364515L144,210.9441987379431L145.6716103366183,212L148,213.47874110924482L152,215.8710907413701L152.2197661151353,216L156,218.2148568257133L159.2206187934192,220L160,220.4255691383869L164,222.55262528530062L166.87175752229274,224L168,224.58354574711467L172,226.5968790220843L174.93285473902228,228L176,228.53786304313576L180,230.507310376835L183.15260456051203,232L184,232.42306467004454L188,233.97921914686282L192,235.16774147725033L195.69569572071578,236L196,236.07467852363203L200,236.80197283732633L204,237.280806072151L208,237.5320661619221L212,237.56616631160438L216,237.38416305222313L220,236.97786685964348L224,236.32892886997433L225.45349286586367,236L228,235.48624488282655L232,234.4272175545412L236,233.06758949258767L239.00239475723095,232L240,231.6840573871889L244,230.3079600388332L248,229.38692748443304L252,228.89611225241686L256,228.88800302216737L260,229.4419827572891L264,230.66458478119398L266.68358496189234,232L268,232.86474923399254L271.360876195388,236L272,236.84609548457087L273.86338004901984,240L275.37048387445634,244L276,245.84792342097563L276.6252082846354,248L277.35524591404226,252L278.17281256316807,256L279.0141828052554,260L279.8972015322804,264L280,264.4423032167943L280.76005666340393,268L281.69347138970005,272L282.7337334322354,276L283.9149787008634,280L284,280.26111065474225L285.17293162357413,284L286.6636325491821,288L288,291.00672776832295L288.4361393383492,292L290.4965473647775,296L292,298.3992016972408L293.0228176087823,300L296,303.80381749404063L296.16010452500285,304L300,307.87870589646303L300.129032514493,308L304,311.4652410509858L304.89285625449907,312L308,313.8342832544175L312,315.54777379450053L313.44147090468016,316L316,316.82674868067403L320,317.7684382552691L324,318.4026695669533L328,318.77270280476023L332,318.90404018414176L336,318.80838206278025L340,318.48543862954966L344,317.92309272495265L348,317.0960035574019L351.87108925917306,316L352,315.9656114680866L356,314.59745177571904L360,312.81424811499215L361.4609977878505,312L364,310.60044106328047L368,308.7595673982635L369.821675347865,308L372,307.2208583863375L376,306.02794164785587L380,304.9961602473059L384,304.15789582548445L384.98462096923686,304L388,303.58281458156205L392,303.20223074475916L396,302.99084769786765L400,302.95803063774565L404,303.128238828454L408,303.54826440093177L410.4887859962802,304L412,304.4417938411783L416,306.4140439134492L417.9412290889651,308L419.19821480992755,312L420,315.84223209926256L420.02421792529003,316L420.49624378534656,320L420.8241872729334,324L421.06107254919607,328L421.2358022412528,332L421.3651560380065,336L421.45914118131725,340L421.52355059280296,344L421.8675030574028,348L422.5175408121685,352L423.5259508228562,356L424,357.35294481585174L424.90497706449423,360L426.79492936044244,364L428,365.9015396087183L429.35821462703916,368L432,371.04195778914936L432.87901718540036,372L436,375.0220721135527L437.2698395735043,376L440,378.0259584760114L443.60677492469165,380L444,380.213487278972L448,381.895815306203L452,383.17173157314545L455.5008046464949,384L456,384.1228655552959L460,384.85530101367635L464,385.3399373804444L468,385.60816301802225L472,385.6803280000425L476,385.5682393867123L480,385.2766034836047L484,385.16262385838684L488,385.15203944686726L492,385.2438582772177L496,385.4383710749209L500,385.9998868652177L504,386.97318525819026L506.818799686004,388L508,388.4777777074379L512,390.5011722775475L514.4427895916729,392L516,393.0788966006172L519.5804815399896,396L520,396.384595034603L523.4588104792043,400L524,400.54315667738217L527.1342470685776,404L528,405.12952043405227L530.0131073379051,408L532,411.1558573823146L532.4937397477494,412L534.5328025091314,416L536,418.8978653833003L536.5288603770631,420L538.4925637458624,424L540,426.8981061987031L540.5863398805933,428L542.7865734692783,432L544,434.0724247215236L545.1279532990823,436L547.6461417101472,440L548,440.5285906051263L550.3335083358228,444L552,446.23161474368135L553.2724193238606,448L556,451.38165110776515L556.4755458269676,452L559.9671830336009,456L560,456.03812326645016L563.2840313021527,460L564,460.91625996307664L566.5739128967232,464L568,465.56833327583206L570.3790605204626,468L572,469.6506539704851L574.4046408780357,472L576,473.5782152414396L578.4811703891806,476L580,477.51428285660984L582.4737867189087,480L584,481.56826383440523L585.995185528976,484L588,486.48746943103015L589.0899218679637,488L591.9763329615705,492L592,492.03271860023835L594.6206324180479,496L596,497.9772760680805L597.3191239215889,500L600,503.73333423420615L600.1839159633926,504L603.2763670059485,508L604,508.9726100332442L606.2451859337414,512L608,514.315528537782L609.3032365610082,516L612,519.1307438331744L612.8448758004108,520L616,522.8858773298829L617.436409391386,524L620,525.9468488018125L623.1947066240996,528L624,528.5110213738515L628,530.7718358193268L630.5180784307225,532L632,532.7356851910791L636,534.5262996409036L639.7779520021161,536L640,536.0902668185284L644,537.6221050358757L648,538.6082354553993L652,539.2948601731811L656,539.7336265517879L660,539.952729556163L664,539.9623651021569L668,539.7563183588227L672,539.3102037848605L676,538.6555262896158L680,537.7733704484992L684,536.6037878453961Z"/></g><g><path fill="rgb(209, 216, 225)" stroke="rgb(160, 167, 175)" stroke-opacity="0.3" d="M353.8464322147651,296L356,295.13331158624777L360,293.2249008763698L362.2342877522702,292L364,291.07688032548447L368,289.8357674399138L372,289.0963163314746L376,288.8007778697183L380,288.59627388771185L384,288.4283440434449L388,288.2604252003967L392,288.07466476105924L393.42027063990656,288L396,287.8806699176998L400,287.6705135829528L404,287.4288333342493L408,287.1457838774117L412,286.8077144455903L416,286.39488325680804L420,285.8659676467957L424,285.16725295871464L427.6001958338188,284L428,283.8766407004985L432,282.08634528500914L434.9626069806893,280L436,279.17120321513414L439.1773758573288,276L440,275.0619444385504L442.39388520870705,272L444,269.6439203256534L445.05469433809344,268L447.3795782774283,264L448,262.8602761191715L449.54270896011315,260L451.5148546447342,256L452,254.99121124938654L453.44835406802076,252L455.3173611542969,248L456,245.95647224151418L456.6754065261599,244L457.6518844947808,240L458.2836047072568,236L458.6340553647025,232L458.73227900807433,228L458.58756093117495,224L458.18821468048964,220L457.61602724063334,216L456.8261021572291,212L456,208.83500935259121L455.79132493373766,208L454.52345301121704,204L452.8502734988456,200L452,198.3905873648339L450.7291224686488,196L448,192.094404050641L447.93177377243615,192L444.09508152853687,188L444,187.90733980721564L440,184.3515050454978L439.54018473641486,184L436,181.3820930187727L433.459343349385,180L432,179.20556567872825L428,177.57142338820063L424,176.41836781459602L421.9244880615039,176L420,175.58433437448753L416,175.0263352152042L412,174.7474220285378L408,174.65140389618796L404,174.73284530452713L400,174.99601046889416L396,175.45546181755265L392.7887377240621,176L392,176.12360010873368L388,176.97331927836626L384,178.12320656220743L380,179.6079705239115L379.076588330976,180L376,181.28071484532757L372,182.91522678387759L369.1081833985895,184L368,184.40892747793703L364,185.63646272801572L360,186.59698844873748L356,187.16593532639774L352,187.03191308422709L348,186.62408203477622L344,185.8935788062381L340,184.76309748073237L338.0731252165299,184L336,183.01859203239445L332,180.36126396413846L331.58591922459675,180L328,176.28150744771472L327.78760179609884,176L325.13939709067836,172L324,170.01586522700768L323.02430232772105,168L321.250786799787,164L320,160.99087463495303L319.63637903911103,160L318.1776282106173,156L316.7059887541735,152L316,150.16212749864607L315.2316614177325,148L313.6968686333155,144L312,140.06031066217886L311.97527031771097,140L310.12484776274806,136L308,132.19783144684715L307.89066112609123,132L305.18485999017463,128L304,126.40415177237597L302.14529644747995,124L300,121.8322424466806L297.9083667352822,120L296,118.41420520835163L292,116.04847425502913L291.89965324589065,116L288,114.11227338993152L284,112.40859999807901L282.99294996761904,112L280,110.729910400938L276,109.07247481859943L273.43951002486705,108L272,107.34980088083668L268,105.45564039678001L265.12761054758306,104L264,103.37263573796912L260,100.94664858155329L258.58626552494945,100L256,98.11914540659868L253.36641519880578,96L252,94.82688913592449L248.98984021396058,92L248,91.03843568053429L245.09014472302266,88L244,86.8727306223629L241.35554104844334,84L240,82.4791829761009L237.8847146154207,80L236,77.79702602303598L234.54844730185602,76L232,72.99558533501897L231.07187961293243,72L228,68.92891074389783L226.93782156100593,68L224,65.68385607522518L221.59953922647094,64L220,62.940641370323476L216,60.493730860302236L215.17442035959647,60L212,58.02046046711425L208.93394177261797,56L208,55.35064745138891L204,52.37913322337357L203.56120296544566,52L200,48.740209901846896L199.28078779545308,48L196,44.47407742525215L195.62565459498586,44L192.52640400368517,40L192,39.3215361318868L189.69442889827008,36L188,33.69255738731282L186.8423702582278,32L184,28.100587022507213L183.9298068065129,28L181.0748417853099,24L180,22.67371729544935L177.8722864755913,20L176,17.911443810835266L174.2586808739341,16L172,13.653741166610672L170.41891877693337,12L168,9.606162459547932L166.08990449922936,8L164,6.298579578163057L160.6150531896796,4L160,3.5886934197927616L156,1.2456536347829683L153.42405985843584,0L152,-0.6950289113446217L148,-2.4304691318942417L144.20481176209756,-4L144,-4.08847364818341L140,-5.903915597225236L136,-7.693663816938624L135.32805223271893,-8L132,-9.62988791386833L128,-11.555981565144975L127.10149860584585,-12L124,-13.669815506291599L120,-15.78659235461241L119.59961132163176,-16L116,-18.099835822270236L112.63613235175822,-20L112,-20.390441350929393L108,-22.812873572518825L106.00347631159866,-24L104,-25.288330946916247L100,-27.73594874007773L99.55966477300828,-28L96,-30.41430307109765L93.46191520479348,-32L92,-32.9720681530889L88,-35.34593425376694L86.61498788107059,-36L84,-37.36468322505594L80,-38.90571675684178L76.04472266466757,-40L76,-40.013840675355794L72,-40.931137722931844L68,-41.5356445466603L64,-41.876300264798395L60,-41.978846450181464L56,-41.85122331551245L52,-41.48418002901309L48,-40.85047717135341L44.40576745591028,-40L44,-39.913225233605615L40,-38.742575576790124L36,-37.10019186516297L34.00265081227508,-36L32,-34.922365654249454L28,-32.081252389086124L27.897307109686963,-32L24,-28.810147687789858L23.103022529423342,-28L20,-25.034152443828106L19.001591891795684,-24L16,-20.314077052356637L15.756546393434917,-20L13.159672143139062,-16L12,-13.799318598423056L11.052008808148216,-12L9.270932346865578,-8L8,-4.538405005036225L7.795078925044294,-4L6.545623006798991,0L5.611227367166151,4L4.899974801525389,8L4.375698878145087,12L4.010196563024735,16L4,16.178177693761825L3.7543485858157624,20L3.7233772594900927,24L3.9159191175109243,28L4,28.79655099270407L4.301281387384506,32L4.9093143919025835,36L5.667065713864062,40L6.53435328499755,44L7.557702703821761,48L8,49.507376946167284L8.673751284966002,52L9.937454503024526,56L11.320384254608427,60L12,61.914274352094935L12.695413356111246,64L14.205019886169083,68L15.962177005353695,72L16,72.0788854072334L17.83052591988674,76L20,79.88417353908034L20.061271860998673,80L22.182334856181413,84L24,87.2044824860433L24.429439686299816,88L26.584916909418965,92L28,94.57413408013775L28.74529707480272,96L30.94667184578158,100L32,101.73727328741012L33.35020492081016,104L35.99731150186665,108L36,108.00384625223032L38.763506473358916,112L40,113.61276491883675L42.12172790380046,116L44,117.85926069420168L46.457826757971304,120L48,121.18812057940164L52,123.88731210308697L52.17963448007714,124L56,126.54682176592112L58.44956331525782,128L60,128.96602047651913L64,131.24518598519722L65.44031635789648,132L68,133.44577893831962L72,135.60140900200219L72.73545451491194,136L76,137.9021329584953L79.6526915530248,140L80,140.20381799687664L84,142.61602602627883L86.69515895971045,144L88,144.66534291995242L92,146.47415373784193L95.74160271646244,148L96,148.13539647006786L100,150.13170301911367L103.47008691236954,152L104,152.3177033466189L108,154.85944665703772L109.6498716482674,156L112,157.79820662332168L114.60351902589323,160L116,161.28566008403448L118.6006160659953,164L120,165.53917152164053L122.06177489111258,168L124,170.35064204873765L125.20774311877531,172L128,175.74263185426514L128.2003377255695,176L131.4547787707551,180L132,180.62844561349465L135.23775459587526,184L136,184.72067615142385L139.8294714576347,188L140,188.1316689545613L144,190.9700391552979L145.56161842893167,192L148,193.44479115446467L152,195.6601828836006L152.64205671648574,196L156,197.90679493964433L159.8360488555229,200L160,200.09603205415107L164,202.39521586379027L166.820810813121,204L168,204.71739054427724L172,207.15361855331537L173.37101317314477,208L176,209.60100821259L179.88775775420368,212L180,212.06707155786455L184,214.57221204202057L186.94656698995192,216L188,216.47763975094995L192,217.94468206039767L196,219.11183400455394L200,219.99679823724057L200.02044775364152,220L204,220.56809459792402L208,220.9039029730119L212,221.01633663038996L216,220.91263769969817L220,220.59585236995855L224,220.06505241830803L224.34805360801755,220L228,219.2826370218154L232,218.28030098282022L236,217.06338320526135L239.510435880076,216L240,215.8521051263508L244,214.45490023330245L248,213.4422971944337L252,212.7229087305181L256,212.26535993254976L260,212.0677560466096L264,212.1426989904936L268,212.5203064335276L272,213.25449158739485L276,214.4348548799486L279.56292374443495,216L280,216.23096933242988L284,219.13023113763575L284.89282806447954,220L288,223.89012024642557L288.069184309602,224L290.0886461391779,228L291.58824247698993,232L292,233.41845988225873L292.6517780190206,236L293.43081231852483,240L294.0141915022478,244L294.70038004585496,248L295.19308917028496,252L295.8276307653787,256L296,256.93005933058055L296.56773021529887,260L297.42311397392825,264L298.41463803121684,268L299.56776576005353,272L300,273.3096142207049L300.8772665918693,276L302.38592654166723,280L304,283.64022315890475L304.21428244787995,284L306.9619764720435,288L308,289.2944527604009L310.77798997355666,292L312,293.0342022796049L316,295.563852452912L316.9039040296711,296L320,297.33045877960126L324,298.5603908840167L328,299.3567450587341L332,299.7662076092917L336,299.81954159178764L340,299.5366197690578L344,298.92817008231793L348,297.99683567864514L352,296.7376689659348ZM672.2652964623454,524L676,523.0207986466901L680,521.674010615546L683.874684320221,520L684,519.9371821532739L688,517.4950058532901L689.9489419939438,516L692,514.0799842929989L693.8310025043143,512L696,508.8656224320696L696.5092596605688,508L698.4171398796454,504L699.7257018243556,500L700,498.7531161594146L700.5505585121339,496L701.0157537687671,492L701.1782850629855,488L701.05497278879,484L700.6412669377648,480L700,476.4785224398853L699.9071391185545,476L698.7667879838075,472L697.1584885195756,468L696,465.8487969674578L694.9048837078137,464L692,460.4451732727754L691.5947793228854,460L688,456.32970788153864L687.6406365523097,456L684,452.8856862787271L682.8608699627522,452L680,449.9261267152309L677.2135540446918,448L676,447.2357425486556L672,444.77958020015865L670.6582054944464,444L668,442.41432571472706L664,440.3729227418545L663.1779634345241,440L660,438.466542166223L656,436.7110628968785L654.2987339508434,436L652,434.9483572308052L648,433.12453824612487L645.6185660844466,432L644,431.13986905502884L640,428.90554053404765L638.6108377453784,428L636,426.0429412346558L633.6771803221854,424L632,422.3071081585747L630.0163933154096,420L628,417.33473272221846L627.1090762803514,416L624.6820816579237,412L624,410.794563634348L622.5073524558873,408L620.4674856878689,404L620,403.02043927638834L618.4846751715983,400L616.2106995679843,396L616,395.659415312318L613.6653502138688,392L612,389.104779788064L611.3641244383347,388L609.3467334783658,384L608,381.25958066209074L607.4025040449601,380L605.567705015581,376L604,372.46673885355864L603.8063412857159,372L602.1891604277388,368L600.6237888809823,364L600,362.383977429271L599.1898968404832,360L597.8483801891324,356L596.4923734657949,352L596,350.652269431856L595.0033413739322,348L593.3801099176195,344L592,341.2608616267513L591.3594817090444,340L589.6515606044193,336L588.0923935422647,332L588,331.76488405223745L586.5750007654215,328L585.0351920104854,324L584,321.40146513572586L583.4684732314189,320L581.8849737426916,316L580.1802757963858,312L580,311.6048657035447L578.4226765481056,308L576.455442198501,304L576,303.16770398137925L574.3059609692476,300L572,296.339177123322L571.7878092751072,296L568.9525679066859,292L568,290.74428294012284L565.9184650671629,288L564,285.6816407309413L562.4436689342994,284L560,281.5020007736518L558.2787748843016,280L556,278.31152873042373L552,276.1156092814833L551.725498584872,276L548,274.406263870459L544,273.17320524876635L540,272.31797218985224L537.6888040944042,272L536,271.7525175864393L532,271.4532594489225L528,271.4277628187182L524,271.6720878126837L521.4965199532154,272L520,272.1818874246593L516,272.9492301098549L512,274.052478845102L508,275.57219435988884L507.14506808736724,276L504,277.54081466011667L500,279.9373135977456L499.9050994165633,280L496,282.88981083196614L494.4853561786392,284L492,285.9446914176208L489.28747600736176,288L488,289.03291059077657L484.1876879567129,292L484,292.1526388002396L480,295.2555334995391L479.01122027959696,296L476,298.3866894922488L473.9041350845414,300L472,301.5043817535537L468.73021291580835,304L468,304.55172743046927L464,307.4398489622036L463.1996593308694,308L460,310.1269497953427L457.1505763099433,312L456,312.89559692909086L452.0707336151768,316L452,316.0718257202685L448.26217482757136,320L448,320.3726774557588L445.5077871147329,324L444,327.2117453711665L443.68428234949727,328L442.5989873679122,332L441.9811684917478,336L441.7573220984299,340L441.901147493345,344L442.5995216265659,348L443.91047281597196,352L444,352.1838152959806L446.2634358879425,356L448,358.0767782787784L449.88549632317074,360L452,361.63343975056205L455.86387536180564,364L456,364.06656518279084L460,365.641208292183L464,366.8029445970881L468,367.6157663274325L470.9657309706462,368L472,368.1163367856721L476,368.3472205928514L480,368.36842128366L484,368.46855856598444L488,368.59034078831945L492,368.7341728701827L496,368.90089107617524L500,369.4257053731316L504,370.32893727158125L508,371.59612937840143L509.16825485736865,372L512,373.0418473625671L516,374.72954685660955L518.623835481041,376L520,376.7317965932851L524,379.171583362379L525.1882563297382,380L528,382.1727904205122L530.0770903255442,384L532,385.87533172699875L533.9370267683529,388L536,390.4916055150297L537.1262717294373,392L539.8833208519461,396L540,396.172211168515L542.8176323466308,400L544,401.41724415324956L546.2344781042702,404L548,406.4968342813504L549.070232530336,408L551.6271296414908,412L552,412.647422411291L553.8944307315548,416L556,419.7980247772157L556.1080552720836,420L558.2733233033917,424L560,427.1009952480965L560.4756170272129,428L562.6664189380034,432L564,434.3092681975486L565.0565902958298,436L567.7111562064383,440L568,440.40734478434274L570.853496382803,444L572,445.3470425103378L574.4839106356401,448L576,449.46874045361835L578.8283088089024,452L580,452.95298434980214L583.9629784959958,456L584,456.0303049960345L588,459.52197362826075L588.5119157233671,460L592,463.8112903246123L592.1565912527562,464L595.3448256244183,468L596,468.8821300644388L598.0661801505296,472L600,475.09871638968445L600.5023102094514,476L602.6874672638778,480L604,482.40523042291284L604.7906166340013,484L606.8473928626472,488L608,490.10304755003267L608.9690294672129,492L611.2295537601319,496L612,497.2116389360564L613.8722000126536,500L616,502.717057254564L617.1040075971829,504L620,506.8612335386923L621.2782558875408,508L624,510.4763828264024L625.8546186928668,512L628,513.7102836164262L631.2152743096512,516L632,516.5232895190092L636,518.9500034809568L637.927685146016,520L640,521.043362809817L644,522.8577754271788L647.9868575509446,524L648,524.0040324221742L652,524.861055861558L656,525.3621825585831L660,525.5401889142656L664,525.4019003001861L668,524.9290656663907L672,524.0740952508324Z"/></g><g><path fill="rgb(195, 203, 215)" stroke="rgb(147, 154, 166)" stroke-opacity="0.3" d="M413.0256804995946,276L416,275.41650580593773L420,274.3594071065472L424,272.9272102046327L425.7329043754843,272L428,270.7158825357665L431.43866475238815,268L432,267.52586895604674L435.16659268353726,264L436,262.9964391477767L438.18362358437764,260L440,257.28242934338897L440.80979698470287,256L443.1959851257068,252L444,250.62727627193078L445.5119414673353,248L447.17495197351366,244L448,241.16759707797513L448.35303640185293,240L449.16782057638704,236L449.62001443301733,232L449.7472474945689,228L449.5590617151811,224L449.03882862724026,220L448.2914569880314,216L448,214.82184107628183L447.32821607642563,212L446.08072272850006,208L444.4439628386509,204L444,203.12455565958362L442.3753207114145,200L440,196.47595672118814L439.64955409890297,196L436,192.05616969640795L435.93384732249444,192L432,189.3518716112266L429.21601871322775,188L428,187.40566184524317L424,185.95027777849856L420,184.9497538140305L416,184.31366628013558L412.1299449077584,184L412,183.98864324616824L408,183.86318158641302L404,183.95958675062593L403.4943797081289,184L400,184.25824356337802L396,184.77702115513466L392,185.550414682662L388,186.62882131208886L384.2362400855404,188L384,188.0850524554519L380,189.8673305479744L376.14220411141383,192L376,192.09591710710168L372,194.683301255306L369.83777601888363,196L368,197.30928521296454L364,199.835789341583L363.6752501740551,200L360,202.1333323059141L356,203.87428466453815L355.39189541701825,204L352,204.80458402940872L348,205.6284567800542L344,206.3281190228014L340,206.88798048639677L336,207.27819102005702L332,207.4426160400272L328,207.2707241852454L324,206.5218611543989L320,204.80993307521214L318.77869909630135,204L316,201.3677074135091L314.85276818525045,200L312.93310695611035,196L312,192.2425686538914L311.9529350225393,192L311.4426536056518,188L310.32061320758504,184L309.9961850958829,180L309.56219315110013,176L309.0358048662602,172L308.4178926536284,168L308,165.73019241923436L307.71813074147354,164L306.93982809216345,160L306.03950108509247,156L304.98851868147284,152L304,148.81392719074637L303.76409597439186,148L302.37781750123975,144L300.6929241406718,140L300,138.63528324187928L298.61693873079133,136L296,132.0523208733015L295.9561623055827,132L292,128.30471382711275L291.59343467275346,128L288,125.51342240974381L285.3661205058305,124L284,123.32582655433043L280,121.58429730618224L276,120.03947507965768L275.89022826474746,120L272,118.51086761675154L268,117.03975970308878L265.1609362387346,116L264,115.53510963715158L260,113.89030446514266L256,112.10359139295045L255.7834822698162,112L252,109.95454087340775L248.8730868736837,108L248,107.38056731034558L244,104.09651181838905L243.89878441406415,104L240.13213974876282,100L240,99.8527005157778L237.00336437814525,96L236,94.72074451172557L234.21179462486776,92L232,88.91752255995559L231.32765317819485,88L228,84.03591735053348L227.96596245787111,84L224.07711446946195,80L224,79.92356606813067L220,76.37141394155961L219.53719013350144,76L216,73.25110586321225L214.28127124261857,72L212,70.40652005650489L208.59063913246098,68L208,67.60623741688286L204,64.86274933313584L202.88251612868197,64L200,61.81397523764164L197.87451023985744,60L196,58.28375091993644L193.92656119624468,56L192,53.750472437835185L190.72046598060012,52L188,48.15695745298166L187.90258545301032,48L185.4224701290256,44L184,41.780030582846535L182.9656591588356,40L180.45524452111363,36L180,35.336850705009425L177.8604589986905,32L176,29.399870192304647L175.03193237767357,28L172.01998473267628,24L172,23.97618969433485L168.78678374200035,20L168,19.142163759045474L164.70591186061358,16L164,15.357613022049165L160,12.192221640668464L159.72482989165505,12L156,9.43954952215556L153.51277369666084,8L152,7.124380257436755L148,5.094512783981401L145.723926498515,4L144,3.150387103859856L140,1.2284409400634217L137.39944472809654,0L136,-0.6897677561510847L132,-2.622723525732198L129.06643683718244,-4L128,-4.532567945994643L124,-6.545583098135367L121.06074729110952,-8L120,-8.565313521816165L116,-10.672100696712633L113.44019553160663,-12L112,-12.808827658663319L108,-15.029713535124401L106.29744192536427,-16L104,-17.397929619477594L100,-19.825337910133314L99.71747854589916,-20L96,-22.34379136347637L93.27281219455028,-24L92,-24.793849140852302L88,-27.094504201067437L86.05913687890569,-28L84,-29.063343933229845L80,-30.63789265670595L76,-31.790695741221064L75.00331964322754,-32L72,-32.69818829854838L68,-33.31707039667943L64,-33.6577379440478L60,-33.74109031262029L56,-33.57393429071066L52,-33.14092548899532L48,-32.408932988782894L46.45811695213186,-32L44,-31.38980005649408L40,-30.00267083417259L36,-28.057920505528735L35.90664712147313,-28L32,-25.570685026814346L30.048996688737702,-24L28,-22.123029325235734L25.946799640229884,-20L24,-17.549599194054863L22.8183211253984,-16L20.27538647644677,-12L20,-11.495955939645782L18.09409671043784,-8L16.298482224010257,-4L16,-3.1765004487286035L14.816533879875436,0L13.685380551955802,4L12.81991338738446,8L12.176969420358134,12L12,13.529980263975204L11.690467416435709,16L11.369137511918964,20L11.311218990499896,24L11.510095403186725,28L11.977924964389288,32L12,32.11822445582297L12.667189883291712,36L13.519275857341526,40L14.486467891416638,44L15.620471348388108,48L16,49.1766748536171L16.86082691513819,52L18.2871571725901,56L19.84373054287728,60L20,60.39973143717512L21.297212113853917,64L22.975516291627528,68L24,70.1597368409414L24.82832755397378,72L26.883700336787044,76L28,77.90731920326783L29.194086930958917,80L31.563362887717915,84L32,84.73607927224603L33.937560163077436,88L36,91.37326286227432L36.37940503794789,92L38.71257687016333,96L40,98.09120918592669L41.31143720403742,100L44,103.57007273266754L44.35519418274902,104L47.8989913662611,108L48,108.10698909537638L52,111.9197777950393L52.09037810086744,112L56,115.26459237532146L56.9716200691895,116L60,118.11189921346153L63.0156048279687,120L64,120.5708027942531L68,122.72179510878235L70.55761520053525,124L72,124.77849040284991L76,126.86704029793154L78.24390014410301,128L80,128.95688267609364L84,131.0722354302792L86.1478318619481,132L88,132.8965865781389L92,134.49410090509423L96,135.80715358215045L96.73303779773582,136L100,136.98288449687547L104,138.18612942956216L108,139.37529626706842L110.11659142975785,140L112,140.62573633467562L116,142.04893075154123L120,143.93448780784456L120.1187469306127,144L124,146.2471912829594L126.3966827189856,148L128,149.78079187917223L129.96633130172458,152L132,154.60853921959475L133.1502911938758,156L136,159.60213856624733L136.3384093892978,160L139.69608102938014,164L140,164.35659176231815L143.3618114480764,168L144,168.66574260559509L147.2675117393249,172L148,172.69717450016918L151.61199648341932,176L152,176.3257359466686L156,179.5148959968738L156.63975875344832,180L160,182.33019416396553L162.50595004219676,184L164,184.8918219897506L168,187.19329655836526L169.44072947414134,188L172,189.28710606934817L176,191.2903244710227L177.44849819160044,192L180,193.1535521647645L184,195.2577662245925L185.85491292643098,196L188,196.9205527044079L192,198.44650809324787L196,199.89023167916463L196.34646086240042,200L200,201.14942971250673L204,202.1810984292688L208,202.95315542543364L212,203.44906966177206L216,203.6706552301066L220,203.63603163416116L224,203.37557055067822L228,202.92692795281062L232,202.33030613108394L236,201.62464954487763L240,201.05230441999657L244,200.20100688277478L245.3821890703033,200L248,199.6498726010683L252,199.2574836080003L256,198.96182511309877L260,198.74511806443752L264,198.59709832521287L268,198.5133513597952L272,198.49495449722457L276,198.54936767443797L280,198.6931966221805L284,198.95854621636647L288,199.4079332127452L291.2162384675343,200L292,200.18603801258115L296,201.68921569506404L300,203.0040830211433L301.94309919900155,204L304,205.93865163837614L305.8639793892631,208L307.46942799021735,212L308,214.3936846392802L308.38059790306966,216L309.0655991107352,220L309.5595539529249,224L309.96939169585875,228L310.3437352443836,232L310.7099461023194,236L311.0868147507603,240L311.4900569581285,244L312,246.93889036805012L312.2330837093127,248L312.96026533512014,252L314.0705172953007,256L315.5330737751299,260L316,261.01587492983884L317.6536313290286,264L320,267.4603676618543L320.43620792010677,268L324,271.6185979071968L324.4676519528641,272L328,274.3823168766475L331.30520367252603,276L332,276.28448025837145L336,277.3608590207985L340,277.87827010596686L344,277.9146049531903L348,277.54994965093215L352,276.8611832450265L355.6321025751908,276L356,275.91136221004666L360,274.83204511737L364,273.76694684519464L368,273.8768333286063L372,274.5150662502623L376,275.5207393664375L378.20491690506725,276L380,276.3454123456651L384,276.93628076886296L388,277.3176077583961L392,277.51198948498364L396,277.5475956281421L400,277.43761275090037L404,277.18369764004865L408,276.7769365331243L412,276.19678651802803ZM670.0192027808416,512L672,511.19146390894616L676,509.0134841131436L677.5045393143419,508L680,506.04429529594233L682.1322585880973,504L684,501.523573305481L684.9854962231815,500L686.7643414394498,496L687.8241737713029,492L688,490.50088394879003L688.2703897356625,488L688.2007593479129,484L688,482.5726303830852L687.6194060773504,480L686.489780434121,476L684.7616106786546,472L684,470.71868400018593L682.2708275702182,468L680,465.2903553643225L678.8666861377177,464L676,461.5056752339184L674.2054848384769,460L672,458.2269631341686L669.0505558396252,456L668,455.2418912618094L664,452.82935278304853L662.3534716898955,452L660,450.8613690188578L656,449.23589322902774L652.4363443975691,448L652,447.85833636301857L648,446.7723586234275L644,445.83829407174926L640,445.139938595516L636,444.31505310930163L634.6650792983388,444L632,443.2517108321109L628,441.8234115893623L624.4022211233066,440L624,439.7460733313202L620,436.7162672894516L618.9625145712598,436L616,433.267367782586L614.4976312471407,432L612,429.0754770926968L611.0416460368135,428L608.4350305577,424L608,423.19530906330215L606.332003925343,420L604.6146343328156,416L604,414.51659227224326L602.967868296181,412L601.4314128565912,408L600.0201886710022,404L600,403.9308484827738L598.9609166483532,400L597.360758842681,396L596,393.0857642538987L595.4315319546103,392L593.6467271864561,388L592.205975031601,384L592,383.4030250559667L590.6946419567747,380L589.3140641914623,376L588.0578096577865,372L588,371.8131631438261L586.7450088120414,368L585.5520432919732,364L584.4553862776295,360L584,358.2838109656183L583.3942169979691,356L582.3397043948404,352L581.1457104081943,348L580,344.6173918949312L579.799109151019,344L578.021562843704,340L576.7037678789447,336L576,333.68198752188243L575.5216419235745,332L574.3306286763313,328L573.0779874050944,324L572,320.8148325226709L571.7405435243587,320L570.3342694432159,316L568.7592111719113,312L568,310.2966882918016L567.0410957528289,308L565.1040838183263,304L564,302.0549453947661L562.7406146802374,300L560,296.25785417336135L559.7882695017623,296L556,292.0031103172552L555.9962808898606,292L552,288.811023887703L550.687650027235,288L548,286.4129726808892L544,284.6480251731188L541.9630545135794,284L540,283.3885702869759L536,282.5651853292642L532,282.1304939633084L528,282.05378438461696L524,282.3264024171931L520,282.9602289112157L516,283.98925209906093L515.9700521966452,284L512,285.4938663988879L508,287.55786986634865L507.34739429859553,288L504,290.4430857355884L502.13157220872665,292L500,293.9007380794399L497.7909769154776,296L496,297.9056529116604L493.8740727314628,300L492,302.03251367489327L490.06371460710784,304L488,306.22878013044794L486.2255744222804,308L484,310.2690196985005L482.1371750308904,312L480,314.3042405898033L478.2645665857725,316L476,318.7568942815142L474.9065311385467,320L472.21047438846006,324L472,324.4508886958804L470.246871125652,328L469.10120319627595,332L468.87621255184797,336L469.82612594418254,340L472,343.89854185768746L472.0703994759409,344L476,347.3318475268772L477.09187897791344,348L480,349.25444095627927L484,350.7999148518831L487.67261838220827,352L488,352.08489276612306L492,353.06128446770003L496,353.92243211003694L500,355.14225217795183L502.2367503005619,356L504,356.62269786434933L508,358.3022098136519L512,359.8014290223609L512.5274152361486,360L516,361.3278991284431L520,362.92099047215004L522.5304882317379,364L524,364.6619353364902L528,366.65281851871106L530.3956014138297,368L532,368.9828541673565L536,371.8070815816487L536.2398300106609,372L540,375.3901977522123L540.7686460579347,376L544,378.8916459439004L545.3126379772312,380L548,382.5743475159746L549.5466653408027,384L552,386.58979917953667L553.3536686577968,388L556,391.20698354840124L556.6555658641295,392L559.4713913342343,396L560,396.73534556775L562.2704276865884,400L564,402.133122298964L565.6564776615944,404L568,407.6854795953929L568.2329933370625,408L570.8848112598884,412L572,413.8849414581528L573.4983284261696,416L576,419.6619674979459L576.2827683229202,420L579.639075246247,424L580,424.4247789761173L583.653005707341,428L584,428.3390751171029L588,431.7392521369469L588.3596672175576,432L592,434.80818107352684L593.6134564970617,436L596,437.9790296902265L598.2404016256411,440L600,441.9542884715455L601.4666292245341,444L603.5969178735818,448L604,448.5633051727358L606.0083062789605,452L608,455.2360493291035L608.3814732586633,456L610.1220019180747,460L611.3710231532124,464L612,465.88639083596365L612.6903461794803,468L614.0363985790731,472L615.4250191937383,476L616,477.50023383041344L616.995941969909,480L618.7646474991126,484L620,486.47060332614876L620.8018306278706,488L623.2222044874441,492L624,493.10543598242805L626.1393476885041,496L628,498.13178989744654L629.725131826018,500L632,502.0735098820297L634.2577515827976,504L636,505.2549315403088L640,507.933833574215L640.10412862958,508L644,510.4765892621939L647.6893409506333,512L648,512.1233541166794L652,513.2019247258302L656,513.7942628517687L660,513.926082709171L664,513.5871446538329L668,512.7277653323054Z"/></g><g><path fill="rgb(180, 189, 204)" stroke="rgb(132, 141, 155)" stroke-opacity="0.3" d="M283.63858632804147,184L284,183.87864062890026L288,182.07292638130826L291.03700783240214,180L292,179.00519082226162L294.10422331023926,176L295.63428277069016,172L296,170.0835246569145L296.2990134706027,168L296.45751186808474,164L296.2667073924389,160L296,157.8916602687687L295.72693272792577,156L294.7861053153532,152L293.46516934466723,148L292,144.67041395849648L291.6589046731939,144L289.02688896692723,140L288,138.76775576537867L285.2913838250691,136L284,134.93065668295102L280,132.13325401961362L279.7765372216557,132L276,130.15453755456647L272,128.48396375695404L270.66773595513246,128L268,127.04370617668124L264,125.7629283905238L260,124.58056641931879L257.8905416450966,124L256,123.49769973541666L252,122.46736895824239L248,121.37764982836782L244,120.10998643548595L243.69561273361148,120L240,118.37482640840793L236.60918863021277,116L236,115.47814062894275L233.5562770503709,112L232,109.40779824798085L231.25101582719122,108L229.2032803200005,104L228,101.67007839649551L227.07727600919145,100L224.5776334417253,96L224,95.19503094433117L221.46652437847257,92L220,90.40633946319397L217.5300157543823,88L216,86.71893728328993L212.42643663204257,84L212,83.67719451082306L208,80.74548441694611L206.96657126464453,80L204,77.8306322855789L201.71939357888243,76L200,74.61318329381967L197.1360233090772,72L196,70.98828929135931L193.25528055628223,68L192,66.68556134142858L189.86803414827074,64L188,61.68537936014448L186.8479882961056,60L184.27527061805688,56L184,55.56030054005262L182.05886328263324,52L180,48.23997391937428L179.8848766924288,48L177.87170011117865,44L176,40.59104672193777L175.7029194809661,40L173.45683482429996,36L172,33.77461406467698L170.93917310060561,32L168.16917742827866,28L168,27.77122161104802L164.93676511473882,24L164,23.00232665414127L160.83676546869654,20L160,19.28223747268771L156,16.251962360623153L155.62569865463286,16L152,13.607919789059167L149.13166902790488,12L148,11.363729539769977L144,9.208779898116077L141.59286091375242,8L140,7.178936062573754L136,5.152599610556422L133.57800099576767,4L132,3.2134242393865406L128,1.2722349583716834L125.31243960815033,0L124,-0.657668999575364L120,-2.645526605986788L117.16798286048652,-4L116,-4.596696071253362L112,-6.61826943628914L109.19845083449133,-8L108,-8.638242207599617L104,-10.853122895740071L101.99506336950014,-12L100,-13.208238719819803L96,-15.6669163821945L95.47215044881005,-16L92,-18.24701727430474L89.13541189859043,-20L88,-20.68767546628986L84,-22.72224463047013L80.72166125622459,-24L80,-24.285899661857357L76,-25.499564640889176L72,-26.364185430045012L68,-26.929507736492525L64,-27.22304043609553L60,-27.257874465399198L56,-27.03847279109138L52,-26.54317844782787L48,-25.734099841787454L44,-24.538773259085843L42.665960946115234,-24L40,-22.851605934555096L36,-20.493091942289155L35.35120781907651,-20L32,-17.024088769343905L31.064145880383833,-16L28,-12.051116705794342L27.963587564135125,-12L25.45632538461659,-8L24,-5.201820664201065L23.374779805009595,-4L21.68488527469519,0L20.41855087273788,4L20,5.677298113207556L19.391196820560282,8L18.589158424738415,12L18.011011982667227,16L17.635541734643013,20L17.54697157125061,24L17.73513711848861,28L18.21013841515841,32L19.00400750071921,36L19.990976872022728,40L20,40.03351586907257L20.980091932836686,44L22.130625399556905,48L23.478864279749942,52L24,53.355298670548194L24.958404420042115,56L26.500675322916777,60L28,63.70987291708994L28.113715299567758,64L29.85264638841558,68L31.861826467699913,72L32,72.24953769233437L34.11163940259192,76L36,78.94861611315409L36.67890417195866,80L39.26520736598607,84L40,85.1435127458947L42.01381134191104,88L44,90.75794504616059L44.96825248426555,92L48,95.93803418740114L48.05176052685948,96L51.505877389622555,100L52,100.53201774604611L55.39513116054127,104L56,104.58000219057786L59.86347236250904,108L60,108.11411947715118L64,111.23155263744536L65.09105269459826,112L68,113.9649002680984L71.32467421927836,116L72,116.39324514983397L76,118.61497869049057L78.66334461304265,120L80,120.6761306124107L84,122.58562498008058L87.74004378333373,124L88,124.10884572492463L92,125.4264574030272L96,126.41929192770999L100,127.09822068891307L104,127.71274527714266L106.28817501622075,128L108,128.2528802640014L112,128.7210020045188L116,129.08768825506715L120,129.59296271966332L124,130.19572997587412L128,130.97049040567003L132,131.69969055706173L134.26810551111802,132L136,132.3477995903642L140,132.8012822210305L144,132.867385705377L148,133.71879005664394L152,135.83180019141653L152.20269488609708,136L156,139.93978684911502L156.044643224846,140L159.32109651752995,144L160,144.67827873281905L163.30911947882228,148L164,148.88010853387334L166.6507403020995,152L168,153.583430670226L170.3346240306367,156L172,157.63539246932731L175.04601642533288,160L176,160.7866482248964L180,162.20776348822145L184,163.59877492971722L188,163.21655550830204L192,163.142741208184L194.39918973291714,164L196,164.57889400844584L200,167.75138874680306L200.20500661877549,168L204,171.40210190835506L204.55665158968395,172L208,174.7692410829394L209.41772733096502,176L212,177.6871661997555L215.65201928651896,180L216,180.16672381538393L220,181.99291445725453L224,183.5248090017178L225.41418875822376,184L228,184.7104322688062L232,185.64538296788646L236,186.39572153244558L240,187.21028758320102L244,187.41571467100903L248,187.62009377225144L252,187.72967630434573L256,187.7297486227754L260,187.62999575744277L264,187.4291911140956L268,187.11572899827735L272,186.66531105736544L276,186.03485237935382L280,185.1492456146981ZM419.10502817024445,264L420,263.6672096012974L424,261.6970629503123L426.3936051330877,260L428,258.8161032119452L430.89949201633056,256L432,254.88135734007903L434.2392135118756,252L436,249.7041522208649L437.15384224302454,248L439.162262059717,244L440,241.6445724370995L440.5728579137028,240L441.50578584702896,236L442.0202083757948,232L442.15556928162505,228L441.91983900320236,224L441.2909764255543,220L440.3942287267048,216L440,214.66371640189897L439.18697651801847,212L437.59474235348705,208L436,204.89762059852166L435.4474250787872,204L432.35182488826274,200L432,199.6293112692266L428,196.38790716602773L427.3524138389396,196L424,194.28795559927465L420,192.86964128572328L416.16488757131816,192L416,191.9680893828322L412,191.5563148332938L408,191.40846887120216L404,191.51557353963216L400,191.8838836238043L399.2733168863222,192L396,192.60632683257006L392,193.7098322691561L388,195.25402969403132L386.5269091851183,196L384,197.47684100206112L380.5775028343122,200L380,200.49919835825847L376.4739075512736,204L376,204.5590460977886L372.96997993570693,208L372,209.32080635623316L369.7829661268028,212L368,214.58192454034634L366.8439957118812,216L364.1124208395148,220L364,220.19586635086785L361.13005403393754,224L360,226.10495253379423L358.65618779355367,228L356.77728910407967,232L356,235.07089418814314L355.64762931313726,236L355.46974440796,240L356,241.60661089039496L356.64565655255643,244L359.58547446283904,248L360,248.3061287919279L364,251.20060675448053L364.78553538915224,252L368,254.67113986382515L369.3980494220054,256L372,257.9970948597132L374.374221097885,260L376,261.1460695582601L380,263.5644003958814L380.93826454508365,264L384,265.2589625149678L388,266.40184112942256L392,267.1099121340046L396,267.4759108448411L400,267.55152819477445L404,267.3611981298033L408,266.9083882457662L412,266.17742186596644L416,265.131601040436ZM561.7860768008451,360L564,357.0983106021495L564.4698288261158,356L565.6553376964713,352L566.0327121032558,348L565.9072466356423,344L565.1539015929571,340L564.7498960173234,336L564.2562373031018,332L564,330.5087092742199L563.5542335169937,328L562.6526594085889,324L561.5606264562521,320L560.2499346175937,316L560,315.36387377053654L558.5687879466706,312L556.5376546342529,308L556,307.1081987168843L553.7243227874283,304L552,302.02686467271855L549.8046478941318,300L548,298.5940941251979L544,296.2000177769328L543.5450807655276,296L540,294.61913745966746L536,293.5965772717835L532,293.04677519164704L528,292.95293960430047L524,293.31743467361616L520,294.1622874075104L516,295.53181129915697L515.0233460484229,296L512,297.66534854447923L508.79971836606023,300L508,300.6967257814807L505.0400015643015,304L504,305.3872018994685L502.0965414595953,308L500,311.3145354181449L499.54414586085215,312L497.4587224770951,316L496,319.98773768125545L495.99446592764764,320L495.07547160797014,324L495.10950048592906,328L496,330.8358005888651L496.3318060881734,332L498.7982975097859,336L500,337.1722451173121L502.82914713237744,340L504,340.9940849840312L507.4298825168331,344L508,344.4112377273447L512,346.797949842493L514.2911676712748,348L516,348.79647032549934L520,350.5220520536288L523.5781888907203,352L524,352.16042392333384L528,353.6657798950685L532,355.2409119560336L533.8086853163088,356L536,356.97780185686355L540,358.98939210129254L542.6624645586237,360L544,360.5767936946815L548,361.8472215891147L552,362.67493619335966L556,362.8608648565172L560,361.5946545816399ZM662.4455631635724,500L664,499.47077311464477L668,496.82448526347673L668.80416240571,496L671.3514006341172,492L672,490.0681215377151L672.5884876143522,488L672.8634217863633,484L672.3433950896641,480L672,478.9363124515902L670.9824630263003,476L668.7808745018336,472L668,470.97604131130663L665.1512124184204,468L664,467.05865678630687L660,464.5325546766254L658.8324283567717,464L656,462.9602994608209L652,462.0103221560929L648,461.6013873616629L644,461.8608501359521L640,463.4422854177236L638.9848015568614,464L636,466.97635224130863L635.2685570122962,468L633.9535348084249,472L633.7991835353309,476L634.43008055369,480L635.6937859381998,484L636,484.63819874381716L637.6280936427974,488L640,491.66842834177646L640.2189311664333,492L643.6529529522535,496L644,496.3243321156117L648,498.7595545625968L651.1761151106649,500L652,500.2656924302297L656,500.8217230244485L660,500.62439571136326Z"/></g><g><path fill="rgb(165, 176, 194)" stroke="rgb(118, 129, 146)" stroke-opacity="0.3" d="M213.1648826276242,124L215.45716148084512,120L215.62924703301087,116L214.88467843683998,112L213.59304543833196,108L212,104.27946656212592L211.87046093640993,104L209.35325673439593,100L208,98.3573673713602L205.89621607999044,96L204,94.26780939116023L201.5327421526208,92L200,90.8118285384216L196.7454282519903,88L196,87.4416585343273L192.33315183959684,84L192,83.6553307512118L189.20181561552926,80L188,78.2242836869014L186.79804299968674,76L184.68851149998414,72L184,70.79357802535364L182.68408121152515,68L180.65803598993836,64L180,62.78864008321651L178.7289888068088,60L176.9490440485866,56L176,53.90907500465937L175.23887327621287,52L173.54164254088136,48L172,44.68465209603144L171.72543136869797,44L169.90607805546085,40L168,36.459729453884194L167.74316146123033,36L165.08135656467311,32L164,30.602868331298154L161.81794043349308,28L160,26.0262280966502L157.94711827551646,24L156,22.315655788410027L152.96783883388036,20L152,19.319365301935235L148,16.828578372270727L146.58008887320102,16L144,14.502825453721442L140,12.375682517366357L139.2768688784072,12L136,10.253434398383803L132,8.304635679713243L131.35069171427426,8L128,6.35257335496442L124,4.471549438926985L122.97632202766542,4L120,2.541910795660584L116,0.6788781062115987L114.50953755193552,0L112,-1.2197247094960773L108,-3.100443135959793L106.1875210310339,-4L104,-5.153438110896445L100,-7.351008957955685L98.87017616961305,-8L96,-9.737198686023106L92.35888736967857,-12L92,-12.230831949880383L88,-14.75426749791049L85.68209149874684,-16L84,-16.911801441195806L80,-18.61845063701024L76,-19.90329685497261L75.5850241449804,-20L72,-20.824385884445576L68,-21.409787545101338L64,-21.680645694130746L60,-21.64551677834116L56,-21.30835101128389L52,-20.637860529581104L49.53440242249704,-20L48,-19.56778891864647L44,-17.96558073144466L40.478583111508414,-16L40,-15.7039715489298L36,-12.466093742088404L35.54837544364402,-12L32.1724661300636,-8L32,-7.766493182707109L29.638818878556933,-4L28,-0.6641697860162594L27.69138214998698,0L26.210249250760455,4L25.06549281922291,8L24.201211074473477,12L24,13.249481840335037L23.532069453874286,16L23.076412223970692,20L22.945511841244382,24L23.124030848871968,28L23.61869978185564,32L24,33.833019604408435L24.41896303053018,36L25.36632133768694,40L26.431591065541653,44L27.671176625270277,48L28,48.93749496342039L29.05702813175654,52L30.646605238166444,56L32,59.21487088713667L32.33871589410957,60L34.05475436059341,64L36,67.94125922532703L36.02931453583844,68L38.20194146693967,72L40,74.91787303201247L40.721823577250916,76L43.677406364160504,80L44,80.43698427063711L46.82418311697742,84L48,85.48504261009333L50.13743991832257,88L52,90.13675375563687L53.67088463795329,92L56,94.62935771065182L57.283623298244464,96L60,98.77227433409803L61.28637857356878,100L64,102.42640300934735L65.9323636937533,104L68,105.60637652453835L71.39265747007812,108L72,108.4135216754548L76,110.96601481628525L77.74986093010594,112L80,113.30850169592003L84,115.39078825218067L85.49220849596347,116L88,117.02481947112918L92,118.24099704638172L96,119.10239294904099L100,119.60933919238636L103.74066444183879,120L104,120.02905499584003L108,120.33171112686304L112,120.49107057083663L116,120.46611055393248L120,120.44236673054795L124,120.35580655991475L128,120.21212429093714L130.5367527180914,120L132,119.88358983976676L136,119.31781191407595L140,118.41243611124943L144,117.19060718267346L148,116.07349178707304L148.36917918059515,116L152,115.29327540583546L156,114.79474527929801L160,114.79923516021714L164,115.31179319366223L166.23768272919358,116L168,116.6579266823241L172,119.13002062241688L173.17127227454307,120L176,122.19928631449551L180,123.91964224168277L180.29738287267787,124L184,125.11931950565537L188,125.64780144715218L192,125.97701922707239L196,126.28768712148852L200,126.60141805768689L204,126.87181176511774L208,126.52296402370055L212,125.00112069316745ZM274.77809662032485,172L276,171.16378294720738L279.273102445578,168L280,166.77404406553444L281.25080716944865,164L281.91381004630585,160L281.6446467037216,156L280.53330520557995,152L280,150.90515320620358L278.3163744856886,148L276,145.19835906050335L274.79199121881305,144L272,141.89767406277394L268.8654134071489,140L268,139.57685623600113L264,138.0784314084518L260,136.98272736790395L256,136.30428284765352L252,136.11072559379406L248,136.56370669733312L244,137.9512909259768L240.92296678307082,140L240,141.19147440368252L238.46562711300783,144L237.84507243387702,148L237.64926215679657,152L237.73228467468516,156L238.06245048657513,160L238.67813959664363,164L240,167.36927669046673L240.33539948221676,168L244,171.56741535403222L244.5960905355526,172L248,173.63715564289225L252,174.8591197358454L256,175.49143494590862L260,175.6409771420382L264,175.34719102795543L268,174.596954032709L272,173.32270695302765ZM413.3396841070653,256L416,255.210824472323L420,253.50193471185253L422.5861785423356,252L424,251.19995824224242L428,248.04443425567848L428.04391199965187,248L431.0762904182038,244L432,242.29687914299973L433.0192827821777,240L434.19975614126895,236L434.8434961620594,232L434.98850106758255,228L434.6325056818182,224L433.73154234210506,220L432.45355372807126,216L432,214.91246624516657L430.48483043498436,212L428,208.3255259208152L427.7119871648388,208L424,204.59664125626898L423.08445773408187,204L420,202.3035799022166L416,200.87596493308467L412,200.1234181093144L410.24479877091613,200L408,199.85923625720585L404.34590915268984,200L404,200.01478986127125L400,200.64119212337005L396,201.75451644306457L392,203.41791876521552L390.96435303169466,204L388,205.92764118104873L385.5597451408238,208L384,209.55968231163268L381.9789028158696,212L380,214.86036303139656L379.290447427349,216L377.20456746144043,220L376,222.8127196823596L375.46500109265594,224L374.31801556695916,228L373.7799801033605,232L373.835970550598,236L374.5395836529792,240L376,243.91368786501317L376.03313046669865,244L378.52169176022284,248L380,249.54738980739955L382.98425562545486,252L384,252.7634943121356L388,254.9822594757968L390.8000894009459,256L392,256.4018162299469L396,257.23613646675835L400,257.6108061855431L404,257.58455276814544L408,257.1813788957757L412,256.39702735596626ZM544.287365492085,340L548,336.99538289044796L548.6146923369073,336L549.8680090664486,332L550.080923256146,328L549.5597210695546,324L548.4348070670426,320L548,318.9988136374212L546.3923432730688,316L544,312.69643368334306L543.3282941622936,312L540,309.35327157807484L537.3687862762282,308L536,307.4348582919338L532,306.57682554143724L528,306.52480681493097L524,307.3019105598884L522.2773975191343,308L520,309.19554803080223L516.4573354382305,312L516,312.53467408741204L513.7444515001705,316L512.3997543092115,320L512.3636319746647,324L513.7213166654842,328L516,331.19055506327857L516.7342583307802,332L520,334.4039285107828L522.7182814201601,336L524,336.5805350509324L528,338.03588955831475L532,339.22624942765304L535.2857994697044,340L536,340.19462384928283L540,340.98223967154223L544,340.197228634819Z"/></g><g><path fill="rgb(151, 162, 183)" stroke="rgb(105, 115, 135)" stroke-opacity="1" d="M130.05736702330566,112L132,111.64680100334724L136,110.64004435662628L140,109.24016861211476L142.91353937354225,108L144,107.54400490790113L148,105.89131979783551L152,104.2319305672545L152.59846993850235,104L156,102.62635047946932L160,101.06169513523326L162.63056598231196,100L164,99.36885202968702L168,97.45701409057932L170.60336226301894,96L172,94.87143217805337L175.0286439100763,92L176,89.54642360070164L176.4069552868899,88L176.36384605909092,84L176.21838617716458,80L176,77.25681697358982L175.92019097353676,76L175.3618186428415,72L174.50445952344137,68L173.3960327514563,64L172.10241274971207,60L172,59.70878917776085L170.9351480931058,56L169.67706010352146,52L168.25863101094336,48L168,47.36548133728067L166.62798598094253,44L164.6820588754327,40L164,38.82158837214661L162.3040371356558,36L160,32.894573513270515L159.2955337257427,32L156,28.459432158780942L155.53236669785665,28L152,24.817578362299855L150.97672907815905,24L148,21.88831452709394L145.1150529740847,20L144,19.315117624127183L140,17.0283969718012L138.10571463411864,16L136,14.847451738708216L132,12.841282767292995L130.20945688333012,12L128,10.916878404729417L124,9.0440393024612L121.67093405862718,8L120,7.206747480366133L116,5.41565870477713L112.69981112555107,4L112,3.677192574577475L108,1.9156050157864541L104,0.04201838216647502L103.91556966586157,0L100,-2.059395452157844L96.50352054578445,-4L96,-4.2916352232605846L92,-6.717671457670576L89.88191632718386,-8L88,-9.177159137742763L84,-11.343298410192801L82.47142957872774,-12L80,-13.080651009959013L76,-14.396578682251715L72,-15.332493588670161L68,-15.907353941018528L66.2597472507531,-16L64,-16.12173720083578L60.72880601040265,-16L60,-15.971881649768179L56,-15.451258184890719L52,-14.510726829019248L48,-13.08489850819683L45.821153384654906,-12L44,-11.006843523931721L40,-8.059812704867625L39.93587189982864,-8L36.141141250153424,-4L36,-3.81877904583979L33.57285194967321,0L32,3.231458169802096L31.67346243208175,4L30.28646846256474,8L29.228921079269142,12L28.447284151918865,16L28,19.38446003905227L27.919229181224665,20L27.739861044612454,24L27.897306932771272,28L28,28.832155630165744L28.38216109092464,32L29.222224518252688,36L30.26244041330574,40L31.424935704257237,44L32,45.743666440781624L32.773599386149286,48L34.321739042444705,52L36,55.792723639459325L36.09453391810612,56L37.93909094682104,60L39.7962813246217,64L40,64.39471530513393L41.98122983462707,68L44,71.25921974673673L44.48431463809257,72L47.420157840968216,76L48,76.71778552683386L50.8324613001308,80L52,81.3388065877349L54.34609326652824,84L56,85.87907720849398L57.93500096643777,88L60,90.1617266664708L61.853168462914624,92L64,94.1478851108788L66.01237431762709,96L68,97.7622895372289L70.76700049525209,100L72,100.95052553672008L76,103.78112006830054L76.33088435426566,104L80,106.37211183550963L82.91003594307438,108L84,108.60599072001139L88,110.36999110994552L92,111.63469462935313L93.65836795285406,112L96,112.53238837837716L100,113.03910409076343L104,113.43216689462443L108,113.66016064503924L112,113.72615155941003L116,113.55128377802521L120,113.30471360137497L124,112.91970446411798L128,112.38887124789917ZM404.90175460041183,248L408,247.75229965451035L412,246.8584592009152L416,245.37306055102226L418.4527447780077,244L420,242.83162969034316L422.7245419351292,240L424,237.98670653804118L424.94820341931677,236L425.9553452369612,232L426.09734171881644,228L425.3595223336372,224L424,220.79144311824763L423.5461131688387,220L420.44995878239274,216L420,215.54501922111575L416,212.81094817183077L413.8375319124144,212L412,211.42710203364942L408,210.91416299805206L404,211.1049409683838L400,211.99395488421516L399.9848850931908,212L396,213.8612835524243L392.9136376016255,216L392,216.7568840395163L389.07784490842727,220L388,221.46672028858688L386.5207631787894,224L385.15337943028754,228L384.70410299523536,232L385.2071067079306,236L386.81050563682885,240L388,241.65449131782873L390.3402225540334,244L392,245.10863059539264L396,246.85765642987775L400,247.79927862893192L402.9023259274235,248L404,248.05837009707483Z"/></g><g><path fill="rgb(136, 148, 173)" stroke="rgb(91, 102, 126)" stroke-opacity="0.3" d="M134.58187780098683,104L136,103.5378318045334L140,101.85911694318179L143.66561528199668,100L144,99.83024737074294L148,97.73046231649039L151.09063402104695,96L152,95.4694000592892L156,92.94518725647876L157.41121743597176,92L160,89.90586141556847L162.02813141286052,88L164,85.07993326517371L164.64389342173337,84L166.4434728789792,80L167.53123888369515,76L167.9875945465468,72L167.92482022595107,68L167.46738223021634,64L166.71310214848512,60L165.78038419499848,56L164.6438383601839,52L164,50.139719987667036L163.27072749573918,48L161.59669601410465,44L160,40.90380504818228L159.5236121879171,40L156.92194015060394,36L156,34.849470941596394L153.5592436190218,32L152,30.465785065470342L149.20283280877445,28L148,27.020174456885925L144.03556458381303,24L144,23.975823926471747L140,21.427798161340988L137.59729195537216,20L136,19.092886968334497L132,17.020095692214156L129.86808731866495,16L128,15.085505024570011L124,13.233514250977464L121.1714691086184,12L120,11.460396368430281L116,9.749229206979123L112,8.13842796818605L111.62752310607044,8L108,6.5416130934618195L104,4.827108806889285L102.19418410555102,4L100,2.9179017421725604L96,0.8116061203217981L94.56533612388077,0L92,-1.5062161112502395L88,-3.893640309191454L87.79844697932367,-4L84,-6.026186142391865L80,-7.711501834285798L79.07748991963359,-8L76,-8.988714874874873L72,-9.876217717433605L68,-10.372869305471099L64,-10.46691017181189L60,-10.141469250725692L56,-9.391877780861378L52,-8.15298221740592L51.64429262494636,-8L48,-6.2993803467458065L44.48335298305145,-4L44,-3.627901554888936L40.37698951583684,0L40,0.47215187418649407L37.71824265674152,4L36,7.368608869453567L35.72954695567857,8L34.35385080552042,12L33.32503130321186,16L32.61899476573339,20L32.35030197715112,24L32.48458691519039,28L33.00925405894766,32L33.9556971816171,36L35.12347792030839,40L36,42.73311258226303L36.42694094052203,44L37.928205471130525,48L39.61512102221781,52L40,52.82312558201005L41.57247131890452,56L43.60584985121292,60L44,60.782417467327605L45.6901759825823,64L48,67.82730459192794L48.10896568928166,68L50.9212103188313,72L52,73.35456969522457L54.0980761182459,76L56,78.15908563085966L57.66194053978731,80L60,82.53375604123491L61.39824355252301,84L64,86.72087751984424L65.30344066194294,88L68,90.48918316001368L69.78288418161281,92L72,93.9036258278986L74.66457499496028,96L76,97.02563253779638L80,99.84798216775258L80.2471573834419,100L84,102.26839174867226L87.70179454491006,104L88,104.13930896910372L92,105.52930060609748L96,106.49552453085883L100,107.03211843008395L104,107.43474859638746L108,107.65870294819618L112,107.71253222742749L116,107.48428986884045L120,107.13306012080153L124,106.5957844816316L128,105.86454440286974L132,104.86022900600247Z"/></g><g><path fill="rgb(121, 135, 162)" stroke="rgb(76, 90, 115)" stroke-opacity="0.3" d="M128.27606757378675,100L132,98.93927861841496L136,97.42990590865082L138.91466835811883,96L140,95.46828855616076L144,93.22306249829722L145.97475653118826,92L148,90.6433959317855L151.60055024949017,88L152,87.62050083681663L155.3954910800409,84L156,83.21836385631303L158.30804821004782,80L160,76.68000967937084L160.31754976167872,76L161.50835393923666,72L161.98797874960877,68L161.93564710909908,64L161.47605277401405,60L160.73228704102345,56L160,53.18352087283969L159.70083966233224,52L158.3551484583776,48L156.6241901249233,44L156,42.84726805801762L154.41369293601394,40L152,36.588085990020204L151.5524072807569,36L148,32.264451777099936L147.7365243210027,32L144,28.83197504614148L142.92349259400146,28L140,25.88003807286222L137.23954295454456,24L136,23.236752390283357L132,21.006403435180957L130.02423016296834,20L128,18.996509852533364L124,17.14225118352607L121.36005401617524,16L120,15.392163772629871L116,13.76543371788253L112,12.263024531858193L111.21604223089776,12L108,10.831723126574204L104,9.285044804012003L100.91204476849552,8L100,7.590602313811729L96,5.6751239152797694L92.8020521117983,4L92,3.5518972345384583L88,1.254241303522349L85.56609085998059,0L84,-0.8199088088022677L80,-2.4640936915866263L76,-3.6680767236177303L74.33053723951389,-4L72,-4.461748086719851L68,-4.829349081615646L64,-4.751276055275284L60,-4.198806479274651L59.200447343395126,-4L56,-3.101702693706315L52,-1.3624910434316746L49.732980522649626,0L48,1.255720209127844L45.163310025692,4L44,5.366726697298532L42.21390062620668,8L40.09914871911238,12L40,12.239044815492079L38.68294033827536,16L37.700619520371816,20L37.273173253308755,24L37.3474646024377,28L37.88669374657883,32L38.919521964879806,36L40,39.40381825011622L40.20195375300162,40L41.66092124957618,44L43.29317455804147,48L44,49.554116766157335L45.164804780749165,52L47.28190979639581,56L48,57.331021690478366L49.4956362358422,60L51.73915809633519,64L52,64.40737992231968L54.24996200485381,68L56,70.45657204630317L57.10532519445158,72L60,75.51622701409434L60.40429802117879,76L64,79.85003461869701L64.14777804539139,80L68,83.79380900683495L68.22387372127614,84L72,87.4791938481105L72.60386032452581,88L76,90.72328232304085L77.72888058431823,92L80,93.70503845717701L83.59836241525818,96L84,96.254626043961L88,98.31119892767347L92,99.78849676775002L92.79123449785817,100L96,100.86525268818585L100,101.49445836556524L104,101.96668637805405L108,102.24132196081564L112,102.33065862230777L116,102.08187649874401L120,101.6563570434335L124,100.99142230206903L128,100.08070601052441Z"/></g><g><path fill="rgb(106, 121, 152)" stroke="rgb(62, 77, 106)" stroke-opacity="0.3" d="M123.42395049414844,96L124,95.89611543208255L128,94.92371947646555L132,93.62621362233517L135.8026101639317,92L136,91.91366116290351L140,89.71525272808012L142.64102134132773,88L144,86.91828488252267L147.25494475054774,84L148,83.24104469999378L150.94568510103403,80L152,78.52488085943861L153.63436192518392,76L155.3476159394669,72L156,69.18691544165625L156.264321384079,68L156.56125204292152,64L156.35663092319317,60L156,57.57635919841363L155.777675080862,56L154.83336803147992,52L153.48940523777094,48L152,44.68977152165783L151.67603337211892,44L149.24415976149038,40L148,38.38905121998528L146.0906456550808,36L144,33.902064807578L141.9451332072708,32L140,30.472511819885824L136.65225417477166,28L136,27.545479881557966L132,25.027613336544647L130.19776304484634,24L128,22.84837739528149L124,20.912370567151598L121.96106621329525,20L120,19.13576633221696L116,17.562787830348526L112,16.135223781091838L111.55877774524322,16L108,14.849274792347657L104,13.476681367194274L100.02110684942627,12L100,11.991516394888833L96,10.286637095630226L92,8.39368269760854L91.20361787763179,8L88,6.312481615291034L84,4.410584859552529L82.88776821008486,4L80,2.8856648592601175L76,1.818599060678892L72,1.1716180706415855L68,0.9978711334861714L64,1.373409408994135L60,2.3749311582891153L56.07723879355012,4L56,4.036982042410372L52,6.72792624739489L50.5796745959141,8L48,10.84063864786242L47.17830242234865,12L44.93402531301081,16L44,18.323055090551918L43.434249210851334,20L42.747711263492846,24L42.6883792744554,28L43.18367018741432,32L44,35.01586191733453L44.28277876935246,36L45.70896474655456,40L47.239872010016796,44L48,45.7714804811024L48.997554567606045,48L50.9878711920434,52L52,53.82779108605254L53.16559669303044,56L55.35799737290171,60L56,61.16582406299719L57.54302853565099,64L60,67.84318359995848L60.09965093931626,68L63.012374407820914,72L64,73.17216285785611L66.49609990304265,76L68,77.52506535955249L70.59097650073804,80L72,81.30342719601481L75.10540063702155,84L76,84.77775867775989L79.94677571426371,88L80,88.04010327714255L84,90.66198721142277L86.5463489062555,92L88,92.78352357435435L92,94.40116706558626L96,95.57208644220637L98.38066698767588,96L100,96.29707137596259L104,96.86146188280199L108,97.20918732795903L112,97.35690756756574L116,97.11348712046649L120,96.64415233216684Z"/></g><g><path fill="rgb(92, 107, 141)" stroke="rgb(49, 64, 96)" stroke-opacity="0.3" d="M120.08153033821841,92L124,91.2322364290444L128,90.13321083365582L132,88.65605251463151L133.3916463469307,88L136,86.53750523462392L139.49078019009877,84L140,83.59546775324011L143.95598967421495,80L144,79.95165891100035L147.20915925334327,76L148,74.62525756297518L149.43032703591695,72L150.7406500208224,68L151.32858226764355,64L151.33342315993303,60L150.87123573197536,56L149.95360478520584,52L148.55536398684723,48L148,46.841395150054694L146.62320440851283,44L144.05282894006993,40L144,39.93460843607272L140.58315580995043,36L140,35.458140483823954L136.08788466805004,32L136,31.934020402589553L132,29.23274542784675L129.96064289324863,28L128,26.860801794523283L124,24.730942464731925L122.4996328003015,24L120,22.868646913171943L116,21.284335600115227L112.3496032374199,20L112,19.877237458059938L108,18.717581832307843L104,17.488547154720266L100,16.160026663933863L99.54562276496168,16L96,14.685735356229515L92,13.038915967662987L89.63527260504202,12L88,11.226578698441216L84,9.565990011876991L80,8.285645600203779L78.53514385302353,8L76,7.480844840258243L72,7.126613760102359L68,7.304567420761714L64.58897309347981,8L64,8.136891646354982L60,9.850444883539907L56.70238240950712,12L56,12.557737584821197L52.76107956933899,16L52,17.095063986051755L50.33567468750553,20L49.07699485565416,24L48.73025928257948,28L49.113978998106376,32L50.23688531989592,36L51.65958609727366,40L52,40.87391485253127L53.18816950091397,44L54.88575120654207,48L56,50.341415575669714L56.77523188630022,52L58.86878742550513,56L60,58.09680102886594L61.00603046795334,60L63.169263831460086,64L64,65.29539931254513L65.7860158795686,68L68,70.88040630523994L68.89973818157438,72L72,75.30669098049381L72.68187739935178,76L76,79.01697180921929L77.13659057160638,80L80,82.3790272932275L82.26664309183448,84L84,85.24910891702004L88,87.64256556676185L88.77104300037215,88L92,89.36298520918183L96,90.6352190975644L100,91.45097091233569L103.50057138190579,92L104,92.08088990196705L108,92.51151608689466L112,92.72961510736155L116,92.50832212808831L120,92.01630706014515Z"/></g><g><path fill="rgb(77, 94, 131)" stroke="rgb(33, 53, 86)" stroke-opacity="1" d="M117.27862813066452,88L120,87.60306750655624L124,86.60328042104825L128,85.18243129069276L130.51385684348935,84L132,83.25953929343723L136,80.67897203304267L136.83762807285223,80L140,76.94031190895717L140.86303401058748,76L143.58744727110218,72L144,71.06688612952851L145.2341606868201,68L146.0709507411827,64L146.25466050708462,60L145.90058941925017,56L145.02680977574371,52L144,49.09127528838269L143.59653221105913,48L141.50450289009612,44L140,41.83101874809418L138.68162657712736,40L136,37.06825218205822L134.90324134336475,36L132,33.68793299179542L129.6360314988492,32L128,30.997437870332277L124,28.772271377899415L122.46182769395318,28L120,26.796489137752175L116,25.11635096320194L112.92789879460557,24L112,23.682919422976838L108,22.616245338409158L104,21.494604443868823L100,20.285660534887924L99.10831588411588,20L96,19.001051722477285L92,17.5787665772839L88,16.01626906397965L87.94984420441543,16L84,14.66253698322015L80,13.707485038668665L76,13.278912810393024L72,13.35576590780775L68,14.08762927741374L64,15.686656845372767L63.48906863913041,16L60,18.748031836281214L58.82594638796169,20L56.5364670946999,24L56,26.2419007984831L55.64480431157182,28L55.66783492138265,32L56,33.460325664729666L56.572249981195995,36L57.81764340027124,40L59.17348560537582,44L60,46.09782397780427L60.72913133869261,48L62.487942022531485,52L64,55.03140418182349L64.48986965362002,56L66.62003771061251,60L68,62.4956728242048L68.85786941682133,64L71.61837411453561,68L72,68.47280513790531L74.9603937073241,72L76,73.05656543773992L79.0214166651786,76L80,76.85027067171436L84,79.86478196251619L84.20986086210223,80L88,82.32924940935379L91.52220082935065,84L92,84.22813608888154L96,85.74683303671856L100,86.76988175213432L104,87.56822244764658L107.17844126869974,88L108,88.10028831024863L112,88.37524113714022L116,88.16662519726512Z"/></g><g><path fill="rgb(62, 80, 120)" stroke="rgb(17, 40, 76)" stroke-opacity="0.3" d="M127.95699708590084,80L128,79.97987494025196L132,77.55041056572671L133.97365599003592,76L136,73.91947991740881L137.5107840040607,72L139.59705467212532,68L140,66.63775253523528L140.72433569675346,64L141.0848739971314,60L140.81513291269533,56L140,52.26930162543391L139.94018053707785,52L138.41714469873548,48L136.22144580106067,44L136,43.694882742601806L132.99129527459698,40L132,39.03394366810045L128.51603601993108,36L128,35.629666746848415L124,33.03427801356533L122.2167628671248,32L120,30.889829515641694L116,29.207929873104092L112.57765574360423,28L112,27.798668358255327L108,26.796258016673917L104,25.75854544224876L100,24.653080079075465L97.79025233961158,24L96,23.500506673570115L92,22.295291983901677L88,20.960286221783704L84.52016317583804,20L84,19.85871562059647L80,19.293224591129245L76,19.371076240358292L72.43833434188119,20L72,20.104842256785034L68,22.106765565732687L65.81496410204832,24L64,26.96841920444659L63.539791108072734,28L62.846720738249445,32L63.29343217985067,36L64,39.137781586040575L64.19691774543935,40L65.3397887764601,44L66.72312369768852,48L68,51.10085678809102L68.3780239638094,52L70.37497661278374,56L72,59.06626596441524L72.50382183142605,60L74.81804335360985,64L76,65.66025601441754L77.70853160572199,68L80,70.63256875207094L81.35958934829935,72L84,74.24421139961697L86.39775931929154,76L88,77.04117274035002L92,79.09769791896989L94.15406804341993,80L96,80.72604925553003L100,81.83433186728948L104,82.7081202118857L108,83.31571330387607L112,83.67249693128468L116,83.43157795592242L120,82.77273992985104L124,81.62277149775662Z"/></g><g><path fill="rgb(48, 67, 110)" stroke="rgb(0, 29, 67)" stroke-opacity="0.3" d="M124.689937560179,76L128,73.94624056995289L130.37831958634436,72L132,70.08544743132424L133.41610193214095,68L135.02437947148783,64L135.64877785469514,60L135.46194961483337,56L134.51925022473378,52L132.82922372112097,48L132,46.65456822567552L130.1598534267764,44L128,41.64454759293727L126.30463729505007,40L124,38.2010603590536L120.79893788179979,36L120,35.54090925267106L116,33.66587715589185L112,32.13916243123887L111.42351359537824,32L108,31.277534561802327L104,30.446053687907124L100,29.597700323559422L96,28.69118215435431L93.17570594467716,28L92,27.713029980080478L88,26.720313874162755L84,26.097416723440375L80,26.192176941662865L76,27.525684464260905L75.22569754675158,28L72,31.556436571203648L71.7470348756446,32L71.2143039043122,36L71.51813002216718,40L72,42.759501660510836L72.21875610824065,44L73.36615136458175,48L74.85238070736736,52L76,54.47828765070406L76.7070421609279,56L78.79321979047569,60L80,62.10303228522494L81.23455770523441,64L84,67.35782238348307L84.60015264563498,68L88,70.97856553492912L89.43994688264672,72L92,73.50095384262585L96,75.45344871362423L97.52601553573376,76L100,76.76640382897409L104,77.75917798592889L108,78.46174891134197L112,78.88500516035825L116,78.59119064485833L120,77.77260110459517L124,76.33958976018118Z"/></g><g><path fill="rgb(33, 53, 99)" stroke="rgb(0, 15, 56)" stroke-opacity="0.3" d="M119.61212430444309,72L120,71.85253364196944L124,69.2439728692091L125.36814664388277,68L128,64.14697644827797L128.07909996603803,64L129.08081074884151,60L129.06522038180435,56L128.1229513022607,52L128,51.73586446175992L126.02529761434855,48L124,45.39347679293857L122.73626623084235,44L120,41.71025631704089L117.39739596816582,40L116,39.25003297335803L112,37.65929626867353L108,36.839274785847294L104,36.106424122505786L103.27399014347793,36L100,35.582567979496574L96,35.15888209014466L92,34.85648205075748L88,34.7203699813992L84,35.766342611925964L83.67047018228462,36L81.21792026243588,40L80.6899650367998,44L81.21309388300091,48L82.41235213076763,52L84,55.65410646799222L84.16624202090051,56L86.58242051437065,60L88,62.01845902962302L89.67999448589038,64L92,66.02943719811583L94.57360688788657,68L96,68.85315600038095L100,70.6526024233502L103.66778052835767,72L104,72.09700032778858L108,72.93236345137808L112,73.43795283212157L116,73.01778803730326Z"/></g></g><g id="labels"/><g id="axis"><g transform="translate(0,500)" fill="none" font-size="10" font-family="sans-serif" text-anchor="middle"><path class="domain" stroke="currentColor" d="M0,6V0H705V6"/><g class="tick" opacity="1" transform="translate(0,0)"><line stroke="currentColor" y2="6"/><text fill="currentColor" y="9" dy="0.71em">40</text></g><g class="tick" opacity="1" transform="translate(64,0)"><line stroke="currentColor" y2="6"/><text fill="currentColor" y="9" dy="0.71em">60</text></g><g class="tick" opacity="1" transform="translate(128,0)"><line stroke="currentColor" y2="6"/><text fill="currentColor" y="9" dy="0.71em">80</text></g><g class="tick" opacity="1" transform="translate(192,0)"><line stroke="currentColor" y2="6"/><text fill="currentColor" y="9" dy="0.71em">100</text></g><g class="tick" opacity="1" transform="translate(256,0)"><line stroke="currentColor" y2="6"/><text fill="currentColor" y="9" dy="0.71em">120</text></g><g class="tick" opacity="1" transform="translate(320,0)"><line stroke="currentColor" y2="6"/><text fill="currentColor" y="9" dy="0.71em">140</text></g><g class="tick" opacity="1" transform="translate(385,0)"><line stroke="currentColor" y2="6"/><text fill="currentColor" y="9" dy="0.71em">160</text></g><g class="tick" opacity="1" transform="translate(449,0)"><line stroke="currentColor" y2="6"/><text fill="currentColor" y="9" dy="0.71em">180</text></g><g class="tick" opacity="1" transform="translate(513,0)"><line stroke="currentColor" y2="6"/><text fill="currentColor" y="9" dy="0.71em">200</text></g><g class="tick" opacity="1" transform="translate(577,0)"><line stroke="currentColor" y2="6"/><text fill="currentColor" y="9" dy="0.71em">220</text></g><g class="tick" opacity="1" transform="translate(641,0)"><line stroke="currentColor" y2="6"/><text fill="currentColor" y="9" dy="0.71em">240</text></g><g class="tick" opacity="1" transform="translate(705,0)"><line stroke="currentColor" y2="6"/><text fill="currentColor" y="9" dy="0.71em">260</text></g><text x="705" dy="-5" text-anchor="end" style="font-family: Arial, sans-serif; font-size: 12px; fill: rgb(123, 123, 123); font-weight: bold;">low</text></g><g fill="none" font-size="10" font-family="sans-serif" text-anchor="end"><path class="domain" stroke="currentColor" d="M-6,500H0V0H-6"/><g class="tick" opacity="1" transform="translate(0,500)"><line stroke="currentColor" x2="-6"/><text fill="currentColor" x="-9" dy="0.32em">600</text></g><g class="tick" opacity="1" transform="translate(0,455)"><line stroke="currentColor" x2="-6"/><text fill="currentColor" x="-9" dy="0.32em">620</text></g><g class="tick" opacity="1" transform="translate(0,409)"><line stroke="currentColor" x2="-6"/><text fill="currentColor" x="-9" dy="0.32em">640</text></g><g class="tick" opacity="1" transform="translate(0,364)"><line stroke="currentColor" x2="-6"/><text fill="currentColor" x="-9" dy="0.32em">660</text></g><g class="tick" opacity="1" transform="translate(0,318)"><line stroke="currentColor" x2="-6"/><text fill="currentColor" x="-9" dy="0.32em">680</text></g><g class="tick" opacity="1" transform="translate(0,273)"><line stroke="currentColor" x2="-6"/><text fill="currentColor" x="-9" dy="0.32em">700</text></g><g class="tick" opacity="1" transform="translate(0,227)"><line stroke="currentColor" x2="-6"/><text fill="currentColor" x="-9" dy="0.32em">720</text></g><g class="tick" opacity="1" transform="translate(0,182)"><line stroke="currentColor" x2="-6"/><text fill="currentColor" x="-9" dy="0.32em">740</text></g><g class="tick" opacity="1" transform="translate(0,136)"><line stroke="currentColor" x2="-6"/><text fill="currentColor" x="-9" dy="0.32em">760</text></g><g class="tick" opacity="1" transform="translate(0,91)"><line stroke="currentColor" x2="-6"/><text fill="currentColor" x="-9" dy="0.32em">780</text></g><g class="tick" opacity="1" transform="translate(0,45)"><line stroke="currentColor" x2="-6"/><text fill="currentColor" x="-9" dy="0.32em">800</text></g><g class="tick" opacity="1" transform="translate(0,0)"><line stroke="currentColor" x2="-6"/><text fill="currentColor" x="-9" dy="0.32em">820</text></g><text x="4" text-anchor="start" dominant-baseline="hanging" style="font-family: Arial, sans-serif; font-size: 12px; fill: rgb(123, 123, 123); font-weight: bold;">high</text></g></g></g></svg>