<svg xmlns="http://www.w3.org/2000/svg" width="805" height="600"><rect width="805" height="600" x="0" y="0" fill="#f7f7ef" id="background"/><g transform="translate(50,50)" id="visualization"><clipPath id="plotClipPath"><rect x="0" y="0" width="705" height="500"/></clipPath><g id="viz" clip-path="url(#plotClipPath)"><g><path fill="rgb(231, 221, 205)" stroke="rgb(181, 171, 156)" stroke-opacity="1" d="M367.8913129920629,432L368,431.9888691918957L372,431.2844397497702L376,430.2208888627898L380,428.7015321525987L381.38461780598755,428L384,426.6735715698211L387.83516449725346,424L388,423.88157865179426L392,420.07518690413895L392.0738905928832,420L395.59460947404017,416L396,415.39423997501217L398.2174601128316,412L400,408.46454678044535L400.24582394771807,408L401.9652657860598,404L403.264264361187,400L404,397.0513862315029L404.2934172345726,396L405.1608017629759,392L405.7885963074368,388L406.21706411457427,384L406.472912599482,380L406.5730964384841,376L406.52704266211606,372L406.337873749537,368L406.00424670633396,364L405.51116880131576,360L404.94024298319937,356L404.5084671474232,352L404.33693689038915,348L404.4306649477797,344L404.80496560137294,340L405.4879583741418,336L406.5247240419579,332L407.98368350008735,328L408,327.9651199295944L410.2084541230938,324L412,321.48717530197706L413.25496080533094,320L416,317.3060231512759L417.5412672398434,316L420,314.2002113025317L423.3321392947231,312L424,311.606165954951L428,309.36475674273595L430.4333880997333,308L432,307.21203202820834L436,305.06371792944765L437.761952620024,304L440,302.70013898454914L443.7737733760274,300L444,299.837654247083L447.98750496616185,296L448,295.9874947097164L451.64687860253,292L452,291.5086538474525L454.4092332401607,288L456,285.0092443420115L456.53143996815345,284L458.1680028685564,280L459.3519043602947,276L460,272.9468485786535L460.2107220941116,272L460.834183600889,268L461.2048333485419,264L461.35294153664995,260L461.29558334658543,256L461.03929234179657,252L460.58122565213296,248L460,244.8709679880609L459.8537757352882,244L458.8966587063969,240L457.57711050473665,236L456,232.46606836376304L455.80265958864993,232L454.0557314207441,228L452.1403640148483,224L452,223.717165188759L450.226077497926,220L448.1049709556793,216L448,215.81107503478523L445.9292048824665,212L444,208.83752190330506L443.466224062787,208L440.70618556740806,204L440,203.06476092003948L437.5860052393232,200L436,198.18785897101782L433.99352317128705,196L432,194.051243138249L429.77343854824767,192L428,190.5467341933429L424.56060945441675,188L424,187.57540384306787L420,184.39822907994267L419.3905678042322,184L416,181.69405170194744L412.901066402164,180L412,179.47424178543156L408,177.49805547504184L404.24981730047404,176L404,175.89034772651513L400,174.37041560397944L396,173.12743366489832L392,172.10111633581522L391.5427149711069,172L388,171.1739898335136L384,170.39335226711518L380,169.74352804256142L376,169.20519789625786L372,168.76375090120905L368,168.40814246946786L364,168.0694165909453L360,168.09907669250498L356,168.21843931661886L352,168.4315875789751L348,168.68134313601632L344,168.776077301614L340,168.70697363055365L336,168.46314722921755L332,168.03125845858142L331.7984359994773,168L328,167.34664459040715L324,166.43302931819028L320,165.2790927322764L316.3626059364828,164L316,163.86434748393415L312,162.1467426694169L308,160.2142609931277L307.58922664204084,160L304,158.24850557842788L300,156.0582321683038L299.9018019078639,156L296,153.6014225331878L293.41489382001583,152L292,151.0995262285427L288,148.70222829335978L286.5484430521766,148L284,146.72407229742328L280,144.9614236590534L277.53924105297966,144L276,143.3722859595394L272,141.98340097605134L268,140.44415687891475L266.97527166853564,140L264,138.64080329226778L260,136.65155421051566L258.8049316510307,136L256,134.38656238469827L252.10991450880948,132L252,131.92896621400357L248,129.14094909762656L246.44751131957554,128L244,126.13038075642618L241.32553618798266,124L240,122.9164510799169L236.5279957725918,120L236,119.55332311346217L232,116.06318863435524L231.9343973581844,116L228,112.36511773117039L227.61285461745126,112L224,108.94057835547619L222.95890441839526,108L220,105.31732185303107L218.54813528959784,104L216,101.675442202835L214.44834142565816,100L212,97.3456592087326L210.7609266867466,96L208,93.0813857458495L206.9668231520859,92L204,88.97525306026549L203.0692018256338,88L200,84.75998097666792L199.2907095415677,84L196,80.62935997771294L195.38998982644455,80L192,76.58718456632559L191.41728525456443,76L188,72.57121781701545L187.42334415944077,72L184,68.57044848300893L183.442633176882,68L180,64.46849666955833L179.54505951141806,64L176,60.30627441097414L175.70753735398154,60L172,56.04047933644691L171.96145428277862,56L168.3111365529263,52L168,51.6253546286552L164.88614648529665,48L164,47.05803007565132L160.85392923881466,44L160,43.223355893835304L156.0670352437688,40L156,39.94760887596004L152,37.05434740415606L150.34175323571083,36L148,34.34078996064258L144.25703763965655,32L144,31.80866688901382L140,29.479271566978298L136.57873390913227,28L136,27.718477571119735L132,25.93223280207853L128,24.367157187591943L127.00130023635299,24L124,22.75674416301223L120,21.197419357491697L116.79189003479019,20L116,19.678310810475338L112,18.010160542079987L108,16.186812080045755L107.62942979152001,16L104,14.195284817218152L100,12.167091744845052L99.687202744921,12L96,9.95774750576146L92.425627854607,8L92,7.757983757143734L88,5.439327984496131L85.49433486628331,4L84,3.1149571023453717L80,0.691105578117913L78.81881158320192,0L76,-1.6748394767110426L72,-3.6357687197033073L71.13809483348697,-4L68,-5.372881705114466L64,-6.825945169366761L60.074791949536035,-8L60,-8.023671745399668L56,-9.140669305617365L52,-10.032159474791968L48,-10.645928027728232L44,-11.03278865345304L40,-11.223712928766417L36,-11.23562507704061L32,-11.07436017449929L28,-10.73579419713677L24,-10.187806678893608L20,-9.387809448265884L16,-8.32239311561645L14.916452968502483,-8L12,-7.207153528289112L8,-5.946688643774905L4,-4.436031490648077L2.996110510567121,-4L0,-2.7660655344951977L-4,-0.7444321894685402L-5.268167797920626,0L-8,1.578477193686922L-11.724737384100095,4L-12,4.179108800985588L-16,6.957106159888909L-17.359302378786253,8L-20,10.081271112439083L-22.203612347983523,12L-24,13.640449357212475L-26.35549542703845,16L-28,17.787610081511474L-29.87526071834965,20L-32,22.94470921850244L-32.774565889420764,24L-35.360907786429934,28L-36,29.112788416387673L-37.7593665302454,32L-39.87449958072328,36L-40,36.254435438159305L-41.98744186893393,40L-43.52751844439896,44L-44,45.63636087387124L-44.732586644621044,48L-45.64026640156496,52L-46.26142489213111,56L-46.63980607945702,60L-46.798135856647775,64L-46.74223374553836,68L-46.46174039978888,72L-45.9276728982355,76L-45.085778529878745,80L-44,83.74713747482647L-43.929851156019815,84L-42.503790255454504,88L-40.54745723049288,92L-40,92.88034324060746L-38.047756547806614,96L-36,98.46012702580978L-34.66001010661661,100L-32,102.78214863649188L-30.75164166023771,104L-28,106.4875648247359L-25.84411685330994,108L-24,109.24376639919882L-20,111.33727876848033L-18.376481183422555,112L-16,112.98062353140946L-12,114.26693282554209L-8,115.233224183891L-4,115.95224791738531L-3.617139024380805,116L0,116.48903166343649L4,117.04960596698342L8,117.63995556340484L12,118.56958875883467L16,119.77878666404013L16.58623800344573,120L20,121.48534179206962L24,123.56588116938008L24.709303677608787,124L28,126.36182167893273L29.9514976392027,128L32,130.00729561510153L33.7570017509979,132L36,134.85036357980334L36.83471152192777,136L39.99363827604452,140L40,140.00722473829805L43.039770856492964,144L44,145.2162343924677L46.07677276553321,148L48,150.3792690345288L49.22922333225978,152L52,155.3542142977039L52.50952605042016,156L55.912365502273275,160L56,160.09548954551218L59.35547498054959,164L60,164.68572029586755L63.12234276419622,168L64,168.86996158920692L67.22419144053598,172L68,172.71954121719256L71.77272655541435,176L72,176.19374159220257L76,179.47805895646826L76.67306091428705,180L80,182.59261282406425L81.94668611637655,184L84,185.51377582382634L87.69005171954859,188L88,188.21583090140257L92,190.86800625576376L93.89786667414978,192L96,193.36623706991173L100,195.73357809928717L100.48607023588863,196L104,198.20954225435952L107.29303399083483,200L108,200.4457462518128L112,202.89662585618345L114.10113597836573,204L116,205.12721088768438L120,207.10157636356683L122.18885970801921,208L124,208.86238871350383L128,210.4945642759546L132,211.85201975802005L132.48340884979362,212L136,213.1603630512755L140,214.45980469094258L144,215.71814842769078L144.81199195833045,216L148,217.27331825768L152,219.09249970622466L153.73164995003577,220L156,221.48012677297442L159.2657451604436,224L160,224.78182373083723L162.51182320504577,228L164,230.99061006535612L164.42214985148826,232L165.90679073963213,236L167.09714982400487,240L168,243.7931026173116L168.04342599207655,244L168.7032906122472,248L169.19608972414187,252L169.66350298779258,256L170.15754345484993,260L170.68898134073743,264L171.2710247378041,268L172,271.21963782725595L172.16378203394265,272L173.2916225613389,276L174.84657170223534,280L176,282.4253666709818L176.7273636892212,284L178.97555232648233,288L180,289.6716427842135L181.40701828423573,292L183.9461221715319,296L184,296.0865246224309L186.37419791941215,300L188,302.6925527223022L188.7633224932752,304L191.17902125138932,308L192,309.35995171755064L193.54336979548867,312L195.89849643148062,316L196,316.18030015307426L198.1845955934512,320L200,323.30130769353565L200.37495353693777,324L202.32687718644718,328L204,331.73325841233947L204.11467418118661,332L205.5948881788791,336L206.86722007021774,340L208,343.4248096494183L208.18271662277368,344L209.5012700701854,348L211.2490313653396,352L212,353.29910831782666L213.5816993831828,356L216,359.04945086450266L216.78839412197908,360L220,362.9494979659809L221.24565728367503,364L224,366.4183006168172L226.70089168217334,368L228,368.7509686346604L232,370.4987290432796L236,371.73714328667234L237.20629195812302,372L240,372.6374159922141L244,373.21609373346746L248,373.4951911644756L252,373.4951911644756L256,373.21609373346746L260,372.6374159922141L262.793708041877,372L264,371.73714328667234L268,370.5977694264146L272,369.12846586619486L274.9534741225484,368L276,367.60063566496393L280,365.9804108689378L284,364.03196472096835L284.1371013868578,364L288,363.13110246868285L292,362.9442051710324L296,363.81056227114846L296.35855353170035,364L300,366.49242178188695L301.3052991802224,368L304,371.616629053628L304.2095185787525,372L306.24545894466564,376L308,379.74076793587176L308.10097876708096,380L309.6391303366537,384L311.1786735637434,388L312,390.08724652140495L312.6789580615007,392L314.18167076229673,396L315.82941236801315,400L316,400.3840140207234L317.53549529287034,404L319.5047390225487,408L320,408.889972126444L321.72278023784946,412L324,415.40610125464974L324.40539052595983,416L327.93144188636177,420L328,420.0699345404462L332,423.881526652366L332.16483550274654,424L336,426.6735715698211L338.61538219401245,428L340,428.7015321525987L344,430.2208888627898L348,431.2844397497702L352,431.9888691918957L352.1086870079371,432L356,432.4261901553541L360,432.5688371566847L364,432.4261901553541ZM308,296.3409689169618L304,296.96038187082723L300.2602247588874,296L300,295.9193262653108L296,292.48276972035546L295.6696105575064,292L293.8858415826205,288L293.01105042014797,284L292.8224692171769,280L293.056176054334,276L293.933525394923,272L295.4720719378718,268L296,267.0591802156413L298.74572500327776,264L300,262.9937724764018L304,261.76764240890043L308,262.6426397008598L311.25202851841914,264L312,264.3854327665373L316,267.66306090798315L316.3930427658485,268L319.66776274311684,272L320,272.7501800653708L321.1666235126393,276L321.2827546488381,280L320.3373483588381,284L320,284.68762030902775L318.0874845902645,288L316,290.5803168058368L314.66446809668025,292L312,294.2326584790856L308.6604844523712,296ZM502.55852909531984,496L504,495.5477737945006L508,493.8342832544175L511.10714374550093,492L512,491.4652410509858L516,488.25951289294323L516.2500014381841,488L519.9839409839697,484L520,483.97720932284926L522.977181268627,480L524,478.1381990135666L525.16571444651,476L526.780827852005,472L527.9193709647349,468L528,467.61619604612326L528.8324997158708,464L529.5870631558957,460L530.2014531581457,456L530.6975305167743,452L531.1198099571659,448L531.5668459731386,444L532,440.42807481393595L532.0585002036026,440L532.6626539892666,436L533.3500931689251,432L534.1549105070031,428L535.0267049497975,424L536,421.3661757788956L536.6185174488518,420L539.240476864902,416L540,415.1270001465769L543.5865803048665,412L544,411.7138789019935L548,409.7556690860147L552,408.63775373997936L554.3440140435414,408L556,407.6161865277702L560,406.8474991628867L564,406.22267704817375L568,405.71280323676973L572,405.2978739077888L576,404.96419058538584L580,404.7028283011829L584,404.35422923534384L587.0479472489146,404L588,403.8952526457582L592,403.21719154744426L596,402.21390223325324L600,400.7472628715528L601.4826678782401,400L604,398.6843805218161L607.5479420373623,396L608,395.64386421178267L611.3498272675689,392L612,391.182796492043L614.5911680782541,388L616,385.59407480135246L616.8911311698653,384L618.5773200052668,380L619.7954182585157,376L620,375.1343076110293L620.7619793995299,372L621.527340747487,368L622.0016780124632,364L622.223395791432,360L622.2140385034669,356L621.9818848572313,352L621.5234797286847,348L620.8235511820398,344L620,340.5930934070468L619.8686766755108,340L618.7411665736367,336L617.2053475886278,332L616,329.4801238807219L615.3297337393511,328L613.4669595748833,324L612,321.00881704569196L611.551372904366,320L609.7151145309379,316L608,312.5324915416442L607.7264999588848,312L605.6297484395373,308L604,305.0764984720943L603.3921320817915,304L601.0570779505002,300L600,298.2801916311964L598.5977431145049,296L596,292.06401969498245L595.9577916573093,292L593.1809346920136,288L592,286.4508417358501L590.10477901662,284L588,281.56539079894156L586.603198308977,280L584,277.5421338186554L582.420145198502,276L580,273.58956615545526L577.8984485772803,272L576,270.5172014607564L572,268.1972004996043L571.5499993975509,268L568,266.429868141838L564,265.16618014531406L560,264.29956956730433L557.8181809204182,264L556,263.7346599350269L552,263.44936060836494L548,263.44936060836494L544,263.7346599350269L542.1818190795818,264L540,264.29956956730433L536,265.16618014531406L532,266.429868141838L528.4500006024491,268L528,268.1972004996043L524,270.5172014607564L522.2852719192506,272L520,274.0612776746627L518.0112402322565,276L516,278.0770169012875L514.2571326239878,280L512,283.467274268329L511.66224042274155,284L509.67739341094205,288L508.0182849361414,292L508,292.04567750271946L506.35293965229926,296L504.74591315399846,300L504,301.83160312613944L503.00557192076246,304L501.1044398374139,308L500,310.1909140292667L498.9525083097561,312L496.4458122925505,316L496,316.6484026299682L493.30603070916754,320L492,321.4643795847416L489.2174402539557,324L488,324.9925432301454L484,327.99433924892617L483.9920389830961,328L480,330.6176125541605L477.9207209463698,332L476,333.1994584835543L472,335.91547775020007L471.88678581235126,336L468,338.85101287421867L466.6938880670158,340L464,342.3989527807188L462.4325098962487,344L460,346.6089170599506L458.8029771471105,348L456.01135003266677,352L456,352.0200660547565L453.76991019851573,356L452.1755910897209,360L452,360.59999520973895L450.9714624534229,364L450.1484475099588,368L449.42692129289856,372L448.83384007825373,376L448.35165652158855,380L448,383.65681421027364L447.96104536313896,384L447.6075652275666,388L447.35310350984173,392L447.19319345565884,396L447.1256636942056,400L447.1505327654562,404L447.27005029721636,408L447.1687244286087,412L446.7463730408149,416L446.03298944839753,420L445.0761914833895,424L444,427.7588086967753L443.92458179580285,428L443.0490134174671,432L442.42381068970246,436L442.0093475305031,440L441.7804056402342,444L441.7224782859262,448L441.82975615600685,452L442.10429724452956,456L442.55614822974496,460L443.2044463195725,464L444,467.6460228676499L444.0732082255705,468L445.21696448104024,472L446.834121082451,476L448,478.1381990135666L449.02281873137304,480L452,483.97720932284926L452.01772029615336,484L456,487.8833522248651L456.129032514493,488L460,491.4652410509858L460.89285625449907,492L464,493.8342832544175L468,495.5477737945006L469.44147090468016,496L472,496.8267486806741L476,497.73023678589584L480,498.2966029584119L484,498.5697622806906L488,498.5697622806906L492,498.2966029584119L496,497.73023678589584L500,496.8267486806741ZM636.1631916071472,536L640,534.7292020187697L644,532.994114430917L645.7508058894008,532L648,530.7870367397804L652,528.389648763041L652.6347464352611,528L656,526.0825642017877L659.4295240761885,524L660,523.6314735977221L664,521.0183220885439L665.5160989471748,520L668,518.2864443127819L671.243243691071,516L672,515.4626320887505L676,512.6069273761975L676.838886296262,512L680,509.7312663412831L682.3399571441412,508L684,506.78494971572445L687.6360655920992,504L688,503.72313571789823L692,500.5079266749457L692.5859150872528,500L696,496.98161028285665L696.9971602614576,496L700,492.90872698694045L700.7741937958446,492L704,488.0901947880832L704.0842254627396,488L707.00017443958,484L708,482.1381990135666L709.16571444651,480L710.780827852005,476L711.9193709647349,472L712,471.5931387413634L712.7480653911051,468L713.2513446072926,464L713.460665034526,460L713.3913048688033,456L713.0382473662928,452L712.3752434530993,448L712,446.498117196918L711.4017396537887,444L710.041840344961,440L708.1277063017862,436L708,435.79285725579643L705.6241620569275,432L704,430.1709000125171L702.1602086801842,428L700,425.66558861785563L697.9862385763468,424L696,422.43430376072445L692,420.0934426443406L691.7907477979297,420L688,418.2979888737799L684,417.01815358957674L680,416.13554464800507L679.0628360939431,416L676,415.52865807491264L672,415.20444093364915L668,415.18820682949394L664,415.35039675900674L660,415.6993554509033L657.8266387649421,416L656,416.23166586547313L652,416.95322913020243L648,417.9566415355074L644,419.3535685541706L642.7960022333345,420L640,421.44639037965294L636,423.7053525456927L635.4961952668773,424L632,425.95829642938975L628.71603213903,428L628,428.4260696840687L624,430.92722073635525L622.4242427180709,432L620,433.75931550831706L617.1151425529666,436L616,436.8636050784976L612.1495516234048,440L612,440.1175227904588L608,443.3362664099119L607.2217551568806,444L604,446.5505279928939L602.26614669859,448L600,449.74133541059643L597.2355028252651,452L596,452.9898153521434L592.5410185029825,456L592,456.47844729415624L588.4250958598985,460L588,460.4356793346351L584.8161439057335,464L584,464.97649926988913L581.2495854019775,468L580,469.93845991886883L578.7526284910072,472L576.9377223255406,476L576,478.8309340193923L575.5724987028377,480L574.5186090541852,484L573.8400390869537,488L573.4794516881717,492L573.4053353113206,496L573.609511357662,500L574.1048543736928,504L574.9276373668295,508L576,511.5431203316741L576.1310822853364,512L577.697234995702,516L579.9070532866632,520L580,520.1310541655986L582.8550495190831,524L584,525.168284242156L586.9431430275943,528L588,528.9963805773411L592,531.9944530481007L592.0096458106332,532L596,534.2620884083203L600,535.8737971158306L600.422102250411,536L604,537.1031103686904L608,537.9490606425776L612,538.4735457880547L616,538.7206215232995L620,538.7137160306493L624,538.4599277599094L628,537.9515255821179L632,537.1651468985411L636,536.0585200200119Z"/></g><g><path fill="rgb(222, 207, 195)" stroke="rgb(172, 158, 147)" stroke-opacity="0.3" d="M364.63649864111926,412L368,411.2859315475002L372,409.7997006415901L375.22511106348674,408L376,407.4984247568687L379.90257970218875,404L380,403.8950675878928L382.77616272454,400L384,397.8363088678554L384.8413380271525,396L386.29588796838135,392L387.3941478107091,388L388,384.979957430052L388.1703227511441,384L388.6525353002935,380L388.92903214958454,376L389.0125768636735,372L388.90900290784987,368L388.61780161539093,364L388.132182836939,360L388,359.0646544265499L387.5477807518711,356L387.1658805012764,352L386.84899976039543,348L386.58718779932354,344L386.3738368045138,340L386.20514771485466,336L386.0800238086791,332L386.00046462379635,328L385.97269057255033,324L386.00970779678977,320L386.13707934734384,316L386.4072112313072,312L386.8644976158739,308L388,305.4217430022344L388.8551106251384,304L392,301.52873702489L394.7941709964116,300L396,299.55891652773073L400,298.22711272751593L404,297.03781734764715L407.5734288559972,296L408,295.89735380844854L412,294.8305354739304L416,293.6640466917493L420,292.3392430143674L420.8819629418666,292L424,290.68266336266487L428,288.7072134161225L429.2092890990974,288L432,286.1150008425844L434.57493467712004,284L436,282.58146309831477L438.1514144866577,280L440,277.1672644594725L440.6429716076416,276L442.35224436782335,272L443.5840607713435,268L444,266.0680905910447L444.3903613416451,264L444.8665104801954,260L445.0836852276882,256L445.0621466437266,252L444.8116590628259,248L444.18202288116254,244L444,243.29032342441695L443.104746623193,240L441.53747933927036,236L440,233.12014814236045L439.3652170438161,232L437.0346891876909,228L436,226.29411572420207L434.557175579797,224L432,220.11469111278421L431.9228050869789,220L429.1377145055096,216L428,214.45637425091934L426.13408273909863,212L424,209.37093183467198L422.9934056850175,208L420,204.25089285403556L419.7708037693691,204L416,200.2357529630267L415.72655571440606,200L412,197.0866364240665L410.3670437520938,196L408,194.57660704078972L404,192.5420151442508L402.76050838244134,192L400,190.91749704500597L396,189.59244658400388L392,188.4808180932646L389.9658635963461,188L388,187.49981223347572L384,186.6388730668266L380,185.90843297333043L376,185.29619421123334L372,184.79261593338396L368,184.39046702815585L364,184.00210533341277L360,184.1142045628908L356,184.34678979212686L352,184.70838166732642L348,185.15973577339366L344,185.55457993322426L340,185.89242882180662L336,186.1713622595014L332,186.38768538860103L328,186.53538202745182L324,186.60525687779761L320,186.58114724199487L316,186.40765854684054L312,186.05589299997024L308,185.4321208611808L304,184.6202035320145L302.7447447783213,184L300,182.547330263809L296.76200325172107,180L296,179.39109741613282L292.63729690174563,176L292,175.38136013781718L288.7778041345335,172L288,171.24721492224586L284.1015272417197,168L284,167.92365112077619L280,165.1491695734103L278.18350222723984,164L276,162.78009557255604L272,160.81886091295127L270.3838620452826,160L268,159.02053252667696L264,157.2979435823388L261.1671375849816,156L260,155.44198275435747L256,153.38891189291954L253.49833415596754,152L252,151.14405451933388L248,148.68333464847035L246.9736033990464,148L244,146.05716866841354L241.01266050537566,144L240,143.27072701437334L236,140.22475098036L235.7272815453763,140L232,136.82112836034415L231.17310172683182,136L228,132.80046635889877L227.30711672233844,132L224,128.25584248722174L223.80006208859044,128L220.5683026578605,124L220,123.3321747692811L217.33697794709673,120L216,118.45877364410663L214.22211543227257,116L212,113.25430271860412L211.00127946142385,112L208,108.78620261839305L207.266504393272,108L204,104.53172846953541L203.51052387479007,104L200,100.21899152826015L199.80134831150417,100L196.1512519024157,96L196,95.83759654797814L192.47637158923658,92L192,91.50050622799097L188.6573653279027,88L188,87.31410231177887L184.75501240104438,84L184,83.2442514892802L180.80652600976902,80L180,79.18820908031921L176.8435923248456,76L176,75.14584590886795L172.92980089338147,72L172,71.04119179562636L169.02713001933097,68L168,66.95448089163955L165.09648337983595,64L164,62.88622584232468L160.9744262109146,60L160,59.059672660135135L156.64652381829066,56L156,55.39851339099363L152,52.0384442583962L151.9506440118208,52L148,48.74807043590599L147.00119616877635,48L144,45.801060019087345L140.80817347417124,44L140,43.546834579310314L136,41.71477950315787L132,40.19054413113062L131.43944154280766,40L128,38.79831339468072L124,37.56501558362254L120,36.49251983344632L117.96466219023637,36L116,35.43315179411195L112,34.34965398372384L108,33.19913275392257L104.15529499128209,32L104,31.939760692688154L100,30.250908940055268L96,28.408875869207577L95.18840795821231,28L92,26.16976893414227L88.48076689163867,24L88,23.672070102926227L84,20.712661925908264L83.1624723234394,20L80,17.499672189376426L78.13927274767991,16L76,14.499119029051869L72,12.068627060794896L71.87442382437112,12L68,9.86970658905527L64,8.011149067923057L63.97343056665139,8L60,6.300888841025099L56,4.844730220843445L53.22347307905824,4L52,3.6144570313668396L48,2.676526967516523L44,2.0411125812102284L40,1.6639217455142585L36,1.5179543019913666L32,1.5893742365749262L28,1.8754082313380138L24,2.436264999470353L20,3.3240973182703186L17.744085724609477,4L16,4.492366552966516L12,5.7877940846212965L8,7.326889232203243L6.490168927795196,8L4,9.07648686907936L0,11.14837314896748L-1.3886667675408262,12L-4,13.599524042122113L-7.289732335728289,16L-8,16.54621252653928L-12,19.845502205866126L-12.176826838901377,20L-16,23.78569348459169L-16.204463713444525,24L-19.626904937774498,28L-20,28.484562354721533L-22.605767932805747,32L-24,34.09691612218063L-25.217437367851062,36L-27.535390203729122,40L-28,41.04457335734139L-29.27142468425643,44L-30.54063299300895,48L-31.43688070485169,52L-32,55.8344737607363L-32.02699867694745,56L-32.379455128436874,60L-32.43861061279846,64L-32.19987027580367,68L-32,69.44613157200564L-31.673018263500616,72L-30.818832478634263,76L-29.536084857805356,80L-28,83.6318348539487L-27.824413517176254,84L-25.440000103541152,88L-24,89.88651723901967L-22.08814764636699,92L-20,93.87087473079754L-17.08087594997356,96L-16,96.66239113360663L-12,98.6923288199113L-8.736495559455733,100L-8,100.29681877709746L-4,101.64396126788856L0,102.61316513786474L4,103.41834165062471L7.380478343477165,104L8,104.11377406201325L12,104.9831212093955L16,105.94606625395033L20,107.02902476171406L23.265695834289062,108L24,108.24493337167638L28,109.7242684103191L32,111.52525858362097L32.798338654269216,112L36,114.16515282557893L38.1720958131626,116L40,117.72509211788125L41.789990809981134,120L44,123.03063224583866L44.58616647746547,124L46.92970316440534,128L48,129.8206988868625L49.08786724689136,132L51.22801171721821,136L52,137.21251262913333L53.6288880029023,140L56,143.28721397172995L56.47613954228191,144L59.29823009638139,148L60,148.9128420473815L62.378477713361406,152L64,153.96555087963984L65.69443737758141,156L68,158.62348296557303L69.28387803351794,160L72,162.76635473894254L73.2713231044311,164L76,166.546218446044L77.63948805879798,168L80,170.02788571037001L82.43304330445363,172L84,173.26262134502747L87.61511909650264,176L88,176.2916292906429L92,179.20719403479484L93.15627573000367,180L96,181.96793904750137L99.11109133771939,184L100,184.58775819281868L104,187.02656967646777L105.73897385741392,188L108,189.29517911525062L112,191.44599941182383L113.13764860932088,192L116,193.5134895231871L120,195.27997988524714L121.9010582682337,196L124,196.90625917244824L128,198.39947578276008L132,199.67858395654525L133.1170169685805,200L136,200.95182451326895L140,202.16766894636544L144,203.28711516285892L146.58664721439402,204L148,204.44803389497667L152,205.73672634292575L156,207.05334850992944L158.83846781213563,208L160,208.47389263441056L164,210.20343783622474L167.77991799213936,212L168,212.12893366301762L172,214.51935693733162L174.10975494002372,216L176,217.9082189832509L177.68135239704645,220L179.65730141555707,224L180,225.3412791581045L180.5708890290976,228L180.95641120116522,232L181.37762515939625,236L181.7746557900548,240L182.16463504491338,244L182.53795031730033,248L182.9146945205091,252L183.36306369184626,256L183.91447922950664,260L184,260.51915841847455L184.5367537685451,264L185.284831969986,268L186.41538761136195,272L187.9731714761224,276L188,276.0543123165736L189.92129285336569,280L192,283.5050127545402L192.29296599331764,284L195.0402614502662,288L196,289.33150508539444L198.22715137533487,292L200,294.19191280062404L201.56846102133642,296L204,299.031014784624L204.8408590781474,300L207.8316225289637,304L208,304.2265443355651L210.88035719338387,308L212,309.58446869940894L213.69250051514734,312L216,315.6315707012021L216.2259512890363,316L218.4435515518627,320L220,323.11602501246784L220.4183689429679,324L222.14184217796537,328L223.72614166689334,332L224,332.74358775519136L225.5767765572811,336L227.43185275568646,340L228,341.0636732763482L229.95203218900934,344L232,346.60616416726344L233.44147090468016,348L236,349.9428591211574L239.87095848238755,352L240,352.05504985093853L244,353.16418078517574L248,353.69911666447183L252,353.69911666447183L256,353.16418078517574L260,352.05504985093853L260.12904151761245,352L264,349.9428591211574L266.7965990072132,348L268,346.9197038932442L270.6925817023104,344L272,342.12199557277256L273.30324287982666,340L275.0107033829702,336L276,332.7096899346701L276.18969249074365,332L276.8720751766783,328L277.17906775169394,324L277.14795526333774,320L276.8087159705901,316L276.18544823259924,312L276,311.2061566673311L275.25261087441646,308L274.1436918934429,304L272.4995275849208,300L272,298.12427293877215L271.46960197912443,296L271.03233159910957,292L271.1028674171812,288L271.53082249448806,284L272,280.71502923718356L272.10347469841474,280L272.73902282760935,276L273.4153966316446,272L274.1510553107385,268L274.9648642282436,264L275.88776286938054,260L276,259.57290412975607L277.0828005586632,256L278.5067863963073,252L280,248.63722364791943L280.3502897542807,248L282.7120214709667,244L284,242.0665101958199L285.8030762575238,240L288,237.47843751743522L289.79298536113686,236L292,234.13971057588606L296,232.28714920237724L299.37974199901527,232L300,231.94334652926977L300.1925357639082,232L304,232.97127034609133L308,235.7153183730859L308.397309306795,236L312,238.26309982077873L314.4153152647386,240L316,241.01020752720217L320,243.4504096383061L320.87553204340935,244L324,245.74545766425655L328,247.78380595259313L328.41599766806837,248L332,249.65541339904138L336,251.51756985063287L337.00523374478615,252L340,253.81557122329633L343.50319333721984,256L344,256.36564072960095L348,259.3914751356802L348.7833649684676,260L352,263.01615487400414L353.0351849477452,264L356,267.4992773810029L356.4244967026638,268L359.0330791350897,272L360,274.0820393576633L360.93559345438706,276L362.09327616976907,280L362.33333172554677,284L361.18860377266344,288L360,289.513325255226L357.77442225460766,292L356,293.13834619255135L352,295.60039834531506L351.3775633107185,296L348,297.9821763125046L344.88083053026156,300L344,300.54646279947116L340,303.6495667184025L339.57963469486486,304L336,306.96381345172415L334.8748267180593,308L332,310.698525255607L330.7826542725032,312L328,315.85847397608785L327.90968212526514,316L325.83360932885324,320L324.271388942054,324L324,324.9336768129873L323.14964546713634,328L322.39451450035466,332L321.96267919952226,336L321.8250015084679,340L321.96129869456394,344L322.358145913086,348L323.0080160563063,352L323.9086101143987,356L324,356.5121477489785L324.58359723827306,360L325.24012126423804,364L325.9521979034823,368L326.7475715612538,372L327.64012229405563,376L328,377.43301479483534L328.61544427735623,380L329.6958678189618,384L330.9249739156775,388L332,391.05823809907685L332.38929832153417,392L334.28317307974083,396L336,399.0969922568218L336.61474878268393,400L339.78585512027996,404L340,404.2342679037271L344,407.6180241159907L344.6195279538964,408L348,409.8413905962855L352,411.2995671810436L355.34356735347956,412L356,412.1247628352232L360,412.37501332175935L364,412.1215936121294ZM497.8571448278873,476L500,474.78195684702905L503.44008511216566,472L504,471.3957652490657L506.39842567388087,468L508,464.84529047543833L508.34526513075787,464L509.6823406612973,460L510.73295904318604,456L511.5358609031979,452L512,448.85047468250605L512.1068968670886,448L512.4633438725075,444L512.6799622310847,440L512.7562392310317,436L512.6825799400908,432L512.4378559457796,428L512,425.2316065335639L511.75191562931343,424L511.61836189330836,420L512,417.59697998257485L512.2264906929134,416L513.5461732944705,412L515.7297209898878,408L516,407.60488978909115L518.1781790471648,404L520,400.8366510727403L520.4787124135286,400L522.5386352723858,396L524,393.4334914814354L524.9716325522033,392L528,388.11866145447414L528.1330917788373,388L532,384.78709060307943L533.7506164300875,384L536,383.0598427097512L540,382.50646757578164L544,382.80617158708657L548,383.7212323260221L548.7565450826698,384L552,385.0259188434236L556,385.5976625375872L560,385.95177011237763L564,386.13129939339603L568,386.1595752297235L572,386.0462076330748L576,385.789611987056L580,385.37715925883316L584,384.7525828969567L586.9606528520756,384L588,383.6921371109457L592,381.87073767512686L594.8377917784545,380L596,379.04963314433434L598.7874385772569,376L600,374.2645866274692L601.2578662621099,372L602.9121218916404,368L604,364.1312213601038L604.0312239585242,364L604.637908390428,360L604.9091329687571,356L604.8725265121836,352L604.5410623067943,348L604,344.543401508353L603.9081556387715,344L602.913197853276,340L601.6473342915946,336L600,332.3851805233897L599.8150314848959,332L597.4348634475248,328L596,325.58216113622245L595.0372241260378,324L592.6297346759821,320L592,318.9518823118358L590.231539780365,316L588,312.29105517906197L587.8278547014959,312L585.4353333333333,308L584,305.6723072927475L583.0858232348593,304L580.7941779347467,300L580,298.6981771184255L578.0300989222663,296L576,293.4509938609946L574.5736364787274,292L572,289.61703320076373L569.7586473186868,288L568,286.84670340435326L564,284.88220559917187L561.4468135097055,284L560,283.5429477328917L556,282.75190204293114L552,282.40850253757225L548,282.5146779828094L544,283.0642994656249L540.4115973353199,284L540,284.1247656857178L536,285.96995076069635L532.9459874443633,288L532,288.7475149206599L528.8829569408831,292L528,293.09783917213014L526.1165901423897,296L524,299.8720253231239L523.9463077370204,300L522.4526645558003,304L521.1249827480561,308L520,311.69862914557774L519.901057668825,312L518.6669615103366,316L517.4554950785202,320L516.2159128941718,324L516,324.68779784204406L514.8086783834809,328L513.2012968410066,332L512,334.70779034382025L511.3093457229809,336L508.82541166845294,340L508,340.85029038585935L504.1317209302325,344L504,344.08085195250766L500,346.2161736619772L496,347.9834328083099L495.95964601145306,348L492,349.68966609520874L488,351.1221466390469L486.0017331093634,352L484,353.0199076666474L480,355.53027204798263L479.38644140412123,356L476,359.22571286836956L475.3343835728815,360L472.72386448916836,364L472,365.5736481096284L471.0710270357838,368L469.7457724145685,372L468.6840609998702,376L468,379.3095707182037L467.8785072850661,380L467.3600131167183,384L467.02048865440554,388L466.855985495798,392L466.86957767787453,396L467.07202947636654,400L467.4863932180119,404L468,407.1439920361716L468.1746425533828,408L468.59080421805834,412L468.32751091170246,416L468,417.32395436190683L467.4410329946994,420L465.9994628874748,424L464,427.983966309489L463.99313490402744,428L462.777387631161,432L461.86181026532904,436L461.23307645717364,440L460.88514742777215,444L460.81908767106813,448L461.0433441369054,452L461.5745477990715,456L462.4389153410849,460L463.6745038041631,464L464,464.8071619235393L465.60157432611913,468L468,471.3957652490657L468.55991488783434,472L472,474.78195684702905L474.1428551721127,476L476,476.8400491304286L480,477.99740557746986L484,478.55559942447996L488,478.55559942447996L492,477.99740557746986L496,476.8400491304286ZM628.6177879960343,520L632,519.2741582136291L636,518.0353857842697L640,516.3973642425536L640.7729709688005,516L644,514.2375900662471L647.0397320568131,512L648,511.25715222966585L652,508.05908700298824L652.0759473937632,508L656,504.90946426871824L657.1910517972709,504L660,501.87758150258117L662.5566910168742,500L664,498.968501515052L668,496.16014583073456L668.2283558106363,496L672,493.4454904001707L674.0952387503315,492L676,490.7952406359118L680,488.1446121760131L680.205947550206,488L684,484.7836289664166L684.8502626678512,484L688,480.38135211027077L688.3021948000383,480L690.7742194434582,476L692,473.30815332059206L692.5419966349268,472L693.6819151980582,468L694.3323644830948,464L694.548013536644,460L694.3185848032855,456L693.6081158749438,452L692.3484725400251,448L692,447.242201265737L690.1905707124565,444L688,441.2063418938287L686.7925050917755,440L684,437.85711133386235L680.6873859564037,436L680,435.6877110989168L676,434.3850700276769L672,433.5775871056219L668,433.2047448344713L664,433.20002698914016L660,433.5427791743874L656,434.2315682782505L652,435.2831067542984L650.0067492390774,436L648,436.78359792257254L644,438.8193253367623L642.4712003268704,440L640,442.03697129012494L637.5754840950813,444L636,445.3123149508143L632.6761177744249,448L632,448.5426897770244L628,451.6391438238369L627.5218374904736,452L624,454.58835465381105L622.0387077481004,456L620,457.4194367214345L616.273105592363,460L616,460.1817937137764L612,462.8878720946734L610.4137983336558,464L608,465.63828858455213L604.7400240413351,468L604,468.6874775297605L600.7104207621212,472L600,472.90178176818154L597.7706932341908,476L596,479.25290480657804L595.6301776055313,480L594.1989424493673,484L593.2812947255997,488L592.8382334761648,492L592.836468017222,496L593.3085692626635,500L594.3093315932506,504L595.9321646208776,508L596,508.12030675702886L598.6986538090646,512L600,513.3783886085188L603.2270213568479,516L604,516.4936113743305L608,518.3977539142834L612,519.6716253430583L613.7094017668902,520L616,520.37429414982L620,520.6452687454164L624,520.5565508488779L628,520.1211708987526Z"/></g><g><path fill="rgb(213, 194, 185)" stroke="rgb(164, 146, 137)" stroke-opacity="0.3" d="M406.3611049010961,276L408,275.908623310208L412,275.02157555770987L416,273.4040596899746L418.29591834061864,272L420,270.76556658795175L422.6947651571894,268L424,266.2740930176533L425.4622286656818,264L427.3317317311303,260L428,257.8590561566026L428.486244128733,256L429.0910390329699,252L429.29084064260394,248L428.7716092882067,244L428,241.41586223249902L427.56128645598653,240L425.6231787608366,236L424,233.5523788948899L423.05771475755785,232L420.62527004517244,228L420,226.9919464413435L417.92336586032525,224L416,221.31889687787168L414.9345556851886,220L412,216.54353509326126L411.4766837746793,216L408,212.6128454769817L407.2810234007164,212L404,209.40684048401272L401.94754836210996,208L400,206.77312545493288L396,204.6109388543552L394.6722096913517,204L392,202.87969115565465L388,201.47938969039745L384,200.32537537827938L382.70400070177396,200L380,199.3914226387427L376,198.63542456713344L372,198.02114274526457L368,197.5503736042997L364,197.0740514336668L360,197.52138592262207L356,198.20040207534765L352,199.138171241286L349.0111430555707,200L348,200.3702779472526L344,201.88462414907264L340,203.53547997203702L338.93646783881184,204L336,205.84702604215857L332.9802722674503,208L332,209.23754367053726L330.054254584006,212L329.2344736712776,216L329.9324670716761,220L331.6396441090859,224L332,224.51464931666527L334.35292043882805,228L336,229.7491950949124L338.05315946155133,232L340,233.636742486618L342.71182451822057,236L344,236.94772732643202L347.988607147624,240L348,240.0075948056945L352,242.77298969067147L353.7168990343362,244L356,245.42541499352143L359.9760198821386,248L360,248.01365177272288L364,250.3687294542181L367.4071873576681,252L368,252.3515410179378L372,254.97481420068942L373.4737106628481,256L376,258.0049652529941L378.4058475902869,260L380,261.470250418155L382.69226398182025,264L384,265.3059908640346L386.6130293030006,268L388,269.443324611544L391.31958007915597,272L392,272.5058101426003L396,274.5345881482542L400,275.6949279419358L402.77434043610776,276L404,276.12546624210984ZM246.83828678441267,308L248,306.92441220779625L249.3405176817733,304L249.70314862307265,300L251.0625020893454,296L252,294.1900491151717L252.77033472159064,292L254.56149711294415,288L256,284.9736573709833L256.41481155312033,284L258.073734497662,280L259.51468467980163,276L260,274.3950397918549L260.6590889481904,272L261.6170135776563,268L262.457428869158,264L263.24216302705327,260L263.99893187250143,256L264,255.99428620339887L264.8058702155188,252L265.6612432944217,248L266.53300946915147,244L267.5267391565276,240L268,237.81623578117842L268.46585629954996,236L269.35621757252886,232L270.14205976030007,228L270.88812793835154,224L271.8107808339595,220L272,219.49642206517086L273.62235607998196,216L275.20356714235186,212L276,209.22416333457556L276.4078346446315,208L277.0468796906019,204L276.89516509818014,200L276,196.41195973143437L275.8970693334255,196L274.0278240179536,192L272,189.16900691546823L271.1758924058428,188L268,184.31954067896197L267.72323513183295,184L264,180.37326382251945L263.6097365656718,180L260,176.97613528051016L258.8087600725922,176L256,173.89807755297954L253.51501132399056,172L252,170.89709213588355L248.2815676620413,168L248,167.79399627303673L244,164.58298783368895L243.32792342505496,164L240,161.38707415700557L238.40994013052534,160L236,158.24249101199325L233.35043327579012,156L232,154.85010212062383L229.3421821398602,152L228,150.61651547724145L225.98407335959462,148L224,145.75063420721173L222.65001589833724,144L220,140.5256756363579L219.6389464510438,140L216.86604995786217,136L216,134.78561543528073L214.37240827947932,132L212,128.1643086967777L211.90272048391427,128L209.39990575255985,124L208,121.94939716425952L206.71194195635525,120L204,116.3145760484635L203.7766458212389,116L200.60776984531924,112L200,111.34460560141292L196.95975523901694,108L196,106.94996855589119L193.3610824918723,104L192,102.49383067571551L189.78982578182882,100L188,98.01560978352157L186.19287838574803,96L184,93.65198041374444L182.50502416163874,92L180,89.39759599117676L178.6691091725756,88L176,85.25420020177751L174.7968316149054,84L172,81.13275327975799L170.88288525795065,80L168,77.09796099650299L166.9155592416759,76L164,73.04056431234105L162.91035762560128,72L160,69.18742195971919L158.7173822257363,68L156,65.48564623786896L154.21122255213413,64L152,62.13220523907296L149.23690782289034,60L148,59.019270667813885L144,56.0939239199823L143.84505104786186,56L140,53.578357610463L136.86137881732736,52L136,51.5410699194108L132,49.691692344565155L128,48.1406496179963L127.59357647819678,48L124,46.7223690107605L120,45.53731764796913L116,44.53890913029639L113.46185683856302,44L112,43.67017474836149L108,42.79455731938873L104,41.92639240043087L100,41.00360750402015L96.02193560448251,40L96,39.99395655573514L92,38.79075572241689L88,37.39997761585184L84.77002326405099,36L84,35.60721741089314L80,32.877289298965806L78.9312970595222,32L76,29.38452438274915L74.4357021179195,28L72,25.85463012310791L69.79367434286107,24L68,22.567564140182185L64.48637732540979,20L64,19.692835116286673L60,17.38928842005471L57.24383934483404,16L56,15.44797773851468L52,13.903664341738391L48,12.775283100692704L44.07732771761562,12L44,11.984056539554217L40,11.440920500119205L36,11.172302097998042L32,11.158404502886128L28,11.391867109429654L24,11.960638259684572L23.833223058879454,12L20,12.853924323328044L16,14.108243065524235L12,15.596740582751977L11.059131148942598,16L8,17.35034655689482L4,19.445729444540433L3.0881575839161,20L0,22.102757246308798L-2.3609561818714866,24L-4,25.475139198659065L-6.485243582150048,28L-8,29.716571391602926L-9.964294696889056,32L-12,34.6109568983439L-13.059419963524505,36L-15.8567173992122,40L-16,40.263067286351315L-18.005219745887345,44L-19.585465713084773,48L-20,49.485908246693356L-20.697615493614833,52L-21.387363971375024,56L-21.68128881262595,60L-21.580810324006606,64L-21.056279496051204,68L-20.03933822831273,72L-20,72.10273879025684L-18.355353118035495,76L-16,79.79496359797776L-15.854890188049765,80L-12.373656124160263,84L-12,84.35382021329133L-8,87.55945919270263L-7.338492021055117,88L-4,89.92393953988773L0,91.60983661092703L1.163784349070383,92L4,92.8708712029028L8,93.84664039558373L12,94.77863366758729L16,95.66971080785225L17.497174074932403,96L20,96.54670644912534L24,97.37183832922676L28,98.16193335941452L32,99.06107788814106L34.756593028095935,100L36,100.48344753206081L40,102.61149449072582L41.70513906321534,104L44,106.12975630158064L45.51634501842926,108L48,111.42235158618533L48.32112941728394,112L50.42450198864074,116L52,119.1091190918169L52.37840472548521,120L54.10038571589561,124L55.927641356604056,128L56,128.14883767473938L57.64938451615342,132L59.644435053664665,136L60,136.58904910990788L62.019020885535724,140L64,142.73065036885723L64.91737877191323,144L68,147.96418584680373L68.02948106905646,148L71.55219880214057,152L72,152.48850090963015L75.37509902962097,156L76,156.63300183471242L79.47474621717234,160L80,160.4919956649179L83.91930731393435,164L84,164.07017357383688L88,167.437540055821L88.70075960423935,168L92,170.57932806404057L93.92795899831981,172L96,173.5328292275152L99.46392729186303,176L100,176.38223521072968L104,179.02352729430834L105.60043081545152,180L108,181.48674687422658L112,183.79810237314405L112.38064305751584,184L116,185.96904742955184L120,187.7733528256607L120.57730283324878,188L124,189.3944516310866L128,190.78274213491653L132,191.98391545038658L132.05965250503772,192L136,193.1718164176915L140,194.23889954244265L144,195.2096308995511L147.43325481920047,196L148,196.14851281029962L152,197.16853727082946L156,198.1792129200221L160,199.1379937622695L163.5450375035958,200L164,200.12717894209055L168,201.2534144450284L172,202.2179248579394L176,203.21911537450563L178.62844617759498,204L180,204.47908906465324L184,206.14975257348914L187.44919872541516,208L188,208.4474803385918L191.43325085175906,212L192,213.0509305223964L193.28104070738812,216L193.90823088971683,220L193.93068243206534,224L193.54626730251505,228L193.0916466010894,232L192.8825256002463,236L192.8276763729463,240L192.90802027006794,244L193.07473771185005,248L193.34276635589242,252L193.745906238837,256L194.30560532967752,260L195.04263154258797,264L195.98878493372115,268L196,268.03348500591966L197.5161860759182,272L199.60136162787842,276L200,276.60206696006315L202.48336218322623,280L204,281.8128216604534L206.1583741352988,284L208,285.69903962058316L210.96490394852248,288L212,288.85011954772665L216,291.72641477908957L216.42823197257002,292L220,294.7452651181134L221.71192295893377,296L224,298.22505029810867L226.42794258194522,300L228,301.74641191367255L230.51912145966077,304L232,305.31994335329057L236,307.9687026397554L236.08656313261105,308L240,309.66772418586584L244,309.80414371607486ZM576.3886760098035,360L580,356.6714730266894L580.473334098732,356L582.2418828492605,352L583.0220974428142,348L583.0966359686641,344L582.6684441259481,340L582.0326176841294,336L580.5688579232362,332L580,330.89212067632957L578.3105937823406,328L576.0925903799027,324L576,323.8349686822961L573.4496348734701,320L572,317.84134869178587L570.464385488091,316L568,313.1641453154876L566.6557077506858,312L564,309.8391704100044L560.6356597361028,308L560,307.6771646162266L556,306.7144511806766L552,306.87070240763745L549.2386422121133,308L548,308.6431458073187L544.1254870836107,312L544,312.14695612622904L541.5720902784897,316L540,319.64691671868655L539.8746203113537,320L538.9567946520899,324L538.5290682841013,328L538.5773705434024,332L539.6023323360812,336L540,336.7067861303002L541.9397260710208,340L543.988844463991,344L544,344.02131637002225L546.0455654364139,348L548,351.11348019383314L548.5190086735284,352L551.3094170911612,356L552,356.83774781655944L556,359.7253213642632L556.5766316565865,360L560,361.4254977330226L564,362.31967732074503L568,362.4757471607641L572,361.8423158564081L576,360.2560735102247ZM364.37524015326915,376L366.25374263136644,372L367.13844194446807,368L367.1729119329762,364L366.4766391671945,360L365.6455341497312,356L365.6692898650753,352L365.32247835312654,348L364.6193858029999,344L364,341.71036157513686L363.26065870516885,340L360.8258699474958,336L360,334.9866624709788L356,333.06436098495897L352,333.9093818181818L349.6509014000473,336L348,338.0617524007734L347.14787452415646,340L346.12942701472616,344L345.8219062887539,348L346.15731944757965,352L347.0594538246711,356L347.18479227523306,360L347.4057180165135,364L348,367.3942268114561L348.15621240317694,368L349.87148653245936,372L352,375.6342832017674L352.39911529799184,376L356,378.5683494658608L360,378.95186620216407L364,376.5180062615067ZM640.5625006654782,492L644,490.8872255471505L648,488.41142730797935L648.6472840377608,488L652,485.47112496108446L654.1281611887817,484L656,482.3935753559714L658.9213502383896,480L660,478.8270007489198L662.6129738046518,476L664,473.76765893333004L665.0645888225564,472L666.0706192419035,468L664.9895417146174,464L664,462.6557287821081L660.0391363019954,460L660,459.9849383495805L656,459.50554503884086L652,459.886574108608L651.5693011634879,460L648,460.93047572052933L644,462.4949486159712L642.106319284802,464L640,465.5612053984007L636.2182921080683,468L636,468.1828713324958L632,471.32676403879134L631.0978345293353,472L628,474.9421878986002L626.8658413469337,476L624,479.68617787725884L623.7607295709668,480L622.1180863479302,484L622.0792941492234,488L624,491.0181843094696L625.2500003405147,492L628,493.2340726304592L632,493.65989906750895L636,493.19822827801795L640,492.20633428574513Z"/></g><g><path fill="rgb(204, 180, 175)" stroke="rgb(155, 132, 128)" stroke-opacity="0.3" d="M400.603343542972,248L404,246.52886916222144L405.90346041110644,244L405.83069550162855,240L404,236.4022679199585L403.7421950982143,236L400,232.7490454781385L398.90507897721494,232L396,230.07099086409363L392,228.07439437005536L391.63360097651855,228L388,227.32107966917545L384.7280564618767,228L384,228.41047566862363L381.6503092360904,232L382.5020577113319,236L384,237.99321095712628L385.16670637564,240L388,243.16560065513755L388.9306770545093,244L392,245.93561866843993L396,247.67043801777072L398.647715102008,248L400,248.1200994657184ZM240.5615842044965,280L244,277.46873637126015L245.32425333189514,276L248,272.2056160715105L248.1097974908521,272L249.8599557832199,268L251.21976430613336,264L252,261.2285177940893L252.28910413456214,260L253.0854042566782,256L253.75556364786684,252L254.32446199069977,248L254.79558713585652,244L255.26235863631229,240L255.46390369805522,236L255.3600897500765,232L254.86999783273797,228L253.9815427916896,224L252.91390933729315,220L252.05625345585418,216L252,215.7797621231602L250.70061131580076,212L248.96316371000404,208L248,205.9312299260548L246.8711220251854,204L244,200.04648436276602L243.94890519038887,200L240,196.72325815310478L238.60603410769437,196L236,194.6494294545771L232,193.51451805504L228,192.36337414277398L227.5696380746868,192L224.37982941168485,188L224,187.28208956296356L222.7637198260029,184L221.8327025176173,180L221.2219688375414,176L220.78731556954693,172L220.5748428484971,168L220,164.45503601033118L219.94035631967955,164L218.91051965093646,160L217.3940626967696,156L216,152.93630216387606L215.66159464781367,152L213.88731049413656,148L212,144.55716500953687L211.71449211239297,144L209.63081018292354,140L208,136.96309859614882L207.51296203143846,136L205.36043695524023,132L204,129.66385365952917L203.07914281316982,128L200.6753081212105,124L200,122.97484963869849L198.12113787318333,120L196,117.00825616776103L195.311044143831,116L192.21738910592535,112L192,111.75916287063563L188.67883758273024,108L188,107.23727465023845L185.1576394436043,104L184,102.70206814247214L181.69367606614304,100L180,98.07001119109717L178.24486761228337,96L176,93.50283000086668L174.69489657049928,92L172,89.14093422580024L170.92055591324697,88L168,85.00821685100385L167.0246533264944,84L164,80.92155162447295L163.03492019316192,80L160,77.10475728201729L158.7919793243761,76L156,73.41208667173385L154.28489556095684,72L152,70.06606080177676L149.32185372101736,68L148,66.95966912757225L144,64.05756434442341L143.90582816010584,64L140,61.53510537197673L137.01855918728774,60L136,59.45469606115989L132,57.59603662261097L128,56.024375557701006L127.93042195854392,56L124,54.54780631504883L120,53.35048644711205L116,52.37918820641397L113.98781064646386,52L112,51.59286175957254L108,50.89657312653719L104,50.31733632097345L100,49.777833348641025L96,49.27607175989101L92,48.72787753374118L88,48.10905304451322L87.45320215552997,48L84,47.231448624303454L80,45.56777812783733L77.42715911506642,44L76,43.06392958521221L72,40.09872838799157L71.8783763188892,40L68,36.84380391791581L67.0250425253798,36L64,33.35257038636679L62.48862478663227,32L60,29.888784325694132L57.713296105723686,28L56,26.731869719103827L52,24.075548714495028L51.85538739688957,24L48,22.234897322397572L44,20.922702027708382L40,20.052577516851485L39.5758832148795,20L36,19.61096098802831L32,19.486476761994055L28,19.65546821216978L25.611665436423678,20L24,20.253857944852115L20,21.39121848864255L16,23.006582622324345L13.88204382836632,24L12,24.97547398244798L8,27.380298974675185L7.104258955428435,28L4,30.375713291881183L2.157694536757262,32L0,34.096423089068765L-1.7196627878883817,36L-4,38.762124242970344L-4.929969757268168,40L-7.255611122606211,44L-8,45.738941351416685L-8.971039049115745,48L-10.133426737528211,52L-10.77502574874569,56L-10.901944311821453,60L-10.480264574202863,64L-9.426027627228834,68L-8,71.14163440991291L-7.5715933654262955,72L-4.553405839258772,76L-4,76.54980647125032L0,79.6527325148113L0.581885073290195,80L4,81.81674696212829L8,83.40445575279688L9.771362607056375,84L12,84.70489926769363L16,85.78816958614425L20,86.72234363519482L24,87.417848537937L28,87.86338581691561L29.66451299867512,88L32,88.20113356681699L36,88.8727182511538L40,89.97789831885885L43.90302600986061,92L44,92.0551927659595L48,95.46286300298988L48.41676433479893,96L51.27731506382716,100L52,101.16279080272696L53.35923871052438,104L55.10048218228255,108L56,110.16104350623823L56.622716714216835,112L57.99325731054179,116L59.41661774489552,120L60,121.52839202718803L60.87351636799639,124L62.44856866335658,128L64,131.4168507175781L64.25283730317719,132L66.26936580309908,136L68,138.69444243474578L68.87646499644688,140L72,143.8802657297868L72.09984342918986,144L75.60903341698904,148L76,148.41474187581505L79.53566445748231,152L80,152.46049601766015L83.72283821622685,156L84,156.26001924796722L88,159.87537388868904L88.1424754721831,160L92,163.294638042981L92.8615652155593,164L96,166.50694668623942L97.91016682113249,168L100,169.58502647434102L103.55174072634699,172L104,172.30860627341104L108,174.91401446252598L109.79182009434894,176L112,177.36384425853907L116,179.56737115170876L116.91770164563428,180L120,181.50067293023864L124,183.142081360029L126.44071767085887,184L128,184.57144672465427L132,185.85359109463337L136,186.96277521621687L140,187.94148472877913L140.26864768539244,188L144,188.85435840891085L148,189.68299583945634L152,190.44959881749253L156,191.1732312787596L160,191.78012015283582L161.59741005736686,192L164,192.3737121639258L168,192.93598894716507L172,193.23242832241323L176,193.4041550209439L180,193.60228438260458L184,193.8653515212053L188,194.22220754703028L192,194.721174402909L196,195.4551887523745L198.55932083183308,196L200,196.4027230704154L204,197.86953497952743L207.97815987917437,200L208,200.01788604192205L211.96797914076154,204L212,204.05869638822787L213.95595138504774,208L213.27172671185093,212L212,214.9494031383325L211.68842874356477,216L209.79143222770978,220L208,223.48480965967826L207.79878453472924,224L206.03781134619578,228L204.5737857940345,232L204,234.4592542997297L203.6969320295562,236L203.24148537743548,240L203.09049390829256,244L203.13991743669897,248L203.41132602122838,252L203.92740139737288,256L204,256.3754326952605L204.81054599873528,260L206.0414736565159,264L207.6610965052863,268L208,268.60337256184346L210.35697362004157,272L212,273.845957288703L214.4196521149226,276L216,277.1661811608952L220,279.48542157401164L221.16786917369745,280L224,281.2395466158203L228,282.21124479180617L232,282.4701232442136L236,281.91818133101873L240,280.37067985004586Z"/></g><g><path fill="rgb(195, 166, 165)" stroke="rgb(146, 119, 118)" stroke-opacity="0.3" d="M180.30778359209444,184L184,183.16712380083675L188,182.02311435502747L192,180.4918342114873L193.0512388584968,180L196,178.3524931472714L199.08177328242914,176L200,175.1344448878525L202.652767121058,172L204,170.07574514333868L205.2106551956163,168L206.4839489690919,164L206.8558384651605,160L206.54405961466807,156L205.7509498120578,152L204.54513137081392,148L204,146.76219341782834L202.87903925737442,144L201.1723882847905,140L200,137.45557672928666L199.3741375274439,136L197.4636119254693,132L196,129.25406031249076L195.36665747358091,128L193.13481260355945,124L192,122.17905941872982L190.6998042974909,120L188,116.01580154236407L187.98962648385202,116L185.01504199500027,112L184,110.84942336291851L181.60260875045537,108L180,106.11990694889764L178.26891289494142,104L176,101.29133748858419L174.97020077624416,100L172,96.42280495618971L171.65506625884927,96L168.15068622264403,92L168,91.84148151363419L164.41083188070985,88L164,87.57661719783775L160.3030235311997,84L160,83.70944779975724L156,80.02564330032789L155.96847701298375,80L152,76.72255841138434L151.0327823918577,76L148,73.6523889844405L145.66984642516277,72L144,70.76731684755936L140,68.30028021758605L139.42468422826454,68L136,66.1512084855012L132,64.3279849557328L131.1694718523789,64L128,62.69013696600885L124,61.255928701389024L120,60.11781711767611L119.47231053439305,60L116,59.172037172147526L112,58.506329442461805L108,58.03149259001759L104,57.76847375525827L100,57.63857991331338L96,57.685737897347735L92,57.816354624082464L88,58.06016074729632L84,58.309191026375856L80,58.03870577070029L76,57.120889181163506L72.75768063947012,56L72,55.69816532024541L68,53.57112171973617L65.88848439238896,52L64,50.48486319015737L61.639591328861655,48L60,46.304276037490666L58.09714406691711,44L56,41.70984271904078L54.513345065912006,40L52,37.55942688628244L50.12331139310473,36L48,34.455261887169286L44,32.15968278904258L43.624446235667534,32L40,30.68036548428634L36,29.752600193875182L32,29.314400332665087L28,29.32723529990116L24,29.997479320282736L20,31.39644016693768L18.817895136608357,32L16,33.588523820784744L12.311413955917416,36L12,36.22420883447495L8,39.52186786125307L7.489615534493581,40L4.196148784958012,44L4,44.33212482488014L2.0770625750750185,48L0.7553628177808918,52L0.19528659082739352,56L0.4390385846181175,60L1.597947349679771,64L3.8837093408220227,68L4,68.1340997154829L8,71.7368704069373L8.368480306560585,72L12,73.90978812246527L16,75.51411809073016L17.572912989085893,76L20,76.66112854933701L24,77.30548814170095L28,77.4698199654236L32,77.28841111777643L36,77.19515755620162L40,77.20301023308284L44,77.56246222060454L48,78.43725682507181L51.047461487667505,80L52,80.71457388871892L54.345751591561594,84L56,87.18904528901223L56.26196575737356,88L57.496234743924845,92L58.6570090195562,96L59.82617143243834,100L60,100.59103691728276L60.85670251981409,104L61.87767210758946,108L62.94495034578293,112L64,115.64296181552874L64.09383745675939,116L65.28265464066686,120L66.63943722373645,124L68,127.44298925164671L68.2224710072756,128L70.08759330664279,132L72,135.3706379000632L72.36240971868261,136L75.23189904250444,140L76,140.90768700419773L78.69736698512571,144L80,145.40644747574908L82.48576761162406,148L84,149.47361504608585L86.7019321378298,152L88,153.1999207212462L91.14675103403818,156L92,156.75478827862668L95.80833926579785,160L96,160.15962283681995L100,163.48606906345336L100.6812644274103,164L104,166.45499665966696L106.2600205422502,168L108,169.1635328597099L112,171.63568896632177L112.65235414247735,172L116,173.93252139225694L120,175.84796772179493L120.37084747560147,176L124,177.54559302864607L128,178.97791915888968L131.3142222788926,180L132,180.2212198708457L136,181.33762787551433L140,182.29594660865024L144,183.11832990120172L148,183.829571477895L149.1234646031064,184L152,184.4636050512239L156,185.01191997672646L160,185.3519881661677L164,185.57948971081134L168,185.6635346194514L172,185.3680557658294L176,184.79093645956192L180,184.06229959590365ZM233.19650572976292,260L236,257.31146181357235L236.76490540629743,256L238.41311016311835,252L239.42947275047254,248L239.81768231782468,244L239.74467719908245,240L238.3416026337394,236L236,232.99529648369537L233.9840186220943,232L232,231.38013905396167L228,231.6815033563899L227.11390088674676,232L224,233.5345570982389L221.44568351975056,236L220,238.2248389571622L219.2477729242155,240L218.53999781939268,244L218.44191307463456,248L219.06735570595976,252L220,254.7412818498148L220.67319458233857,256L223.9480723339592,260L224,260.04730356814264L228,261.5197876750417L232,260.8635145816299Z"/></g><g><path fill="rgb(186, 153, 155)" stroke="rgb(138, 107, 109)" stroke-opacity="1" d="M29.64113429743834,64L32,63.24482240666282L36,61.503287340779394L38.47638283725462,60L40,57.9345375266106L41.07797012514459,56L40.94554758805964,52L40,50.167729533389235L38.66836701988311,48L36,45.82386232097602L32.696550940072854,44L32,43.75594599042489L28,43.056005286729146L24,43.65849096074879L23.3264777112892,44L20,46.43111057814153L18.63159590034452,48L16.711851848115742,52L16.447451181266374,56L18.07990744399507,60L20,62.0341003940043L23.496924960464057,64L24,64.18200491491788L28,64.34783584361193ZM177.25012552355662,176L180,174.8355981292479L184,172.7851480397431L185.31333885390654,172L188,170.25084574224485L190.8427993335893,168L192,166.67641339065761L194.02371280881903,164L195.7360478085646,160L196,158.61539365644575L196.45712862087288,156L196.46083625004894,152L196,148.70871612815435L195.91054383895755,148L194.79088925904654,144L193.50481202492955,140L192.01657158451098,136L192,135.96231946643928L190.3660322820678,132L188.45540019103396,128L188,127.15307290395666L186.3787501341988,124L184.03188099185599,120L184,119.95203930368882L181.52777535930596,116L180,113.88016148639807L178.71489772622562,112L176,108.67924903971976L175.47390057177773,108L172.32166449951654,104L172,103.60143470662996L169.15241324021525,100L168,98.60321729401232L165.93744515117322,96L164,93.74880921675538L162.42952116753486,92L160,89.55628337908439L158.40539562839166,88L156,85.74184054938439L153.87963417925982,84L152,82.44883210345859L148.71229727570272,80L148,79.4576686004743L144,76.6478276604013L142.909821505765,76L140,74.19110694963169L136,72.12195440372099L135.72773512746292,72L132,70.24163678393603L128,68.64830219106904L126.13174999768523,68L124,67.2250596616746L120,66.09121155548155L116,65.24519164432297L112,64.72796205157329L108,64.4622568160211L104,64.49801894178484L100,64.76128972075023L96,65.34974498054615L92,66.17005374681557L88,67.32786662034258L86.08435845563415,68L84,68.82503168459121L80,70.38053932822004L76.44401192875395,72L76,72.26086248443883L72,75.55909452778366L71.62759803788165,76L68.82605183374397,80L68,81.66554210353601L67.0975594938744,84L66.34126548216466,88L66.06443800564031,92L66.18209467529428,96L66.58756362692182,100L67.12548706150221,104L67.79384461765099,108L68,108.99816963593861L68.60093186295094,112L69.57133626139716,116L70.73070063655592,120L72,123.65578269035635L72.11760526160188,124L73.75316862915753,128L75.73941399149939,132L76,132.43825984393416L78.14108259773096,136L80,138.45001861320836L81.19648749848432,140L84,143.0807137747226L84.8548834524494,144L88,147.16850355522635L88.8501424026355,148L92,150.87198038821106L93.28196136386055,152L96,154.38036025076036L97.86282536413904,156L100,157.8496943165018L102.75008761616766,160L104,160.96200445416423L108,163.82894988411414L108.25576638333948,164L112,166.47807986989943L114.59010073991121,168L116,168.81566017428827L120,170.7597737183449L123.06835172243919,172L124,172.39607134461227L128,173.8331587719481L132,175.05556540336795L135.6574584029283,176L136,176.09290175767063L140,177.00284412376857L144,177.7511585516628L148,178.3552063535513L152,178.8240435615799L156,179.15901093761624L160,179.20350540681176L164,179.06827120580607L168,178.6857680191721L172,177.8052235441105L176,176.47937463191334Z"/></g><g><path fill="rgb(178, 139, 145)" stroke="rgb(130, 94, 100)" stroke-opacity="0.3" d="M167.7050505635322,172L168,171.93404577577707L172,170.51776463952797L176,168.51962772273657L176.91490459554564,168L180,165.71163234622645L181.99016712003373,164L184,161.5055326676177L185.08356131379009,160L186.86932238057074,156L187.7066192608455,152L187.8512803621942,148L187.28934004055765,144L186.43028617315167,140L185.2797944119443,136L184,132.50879149099592L183.82879711096615,132L182.16228823339748,128L180.2415059013058,124L180,123.5635774531948L178.1520036961408,120L176,116.42757822713324L175.75870029426483,116L173.14982630116776,112L172,110.5287654370502L170.0651029658721,108L168,105.35643963756115L166.98740678270838,104L164,100.1313657179929L163.8957024955357,100L160.58157813256648,96L160,95.35625484494992L156.9230926309529,92L156,91.09762636098424L152.3800002562211,88L152,87.68400933162087L148,84.65070512766991L147.0625135276093,84L144,81.84741668124121L140.88524937852114,80L140,79.45962059965609L136,77.37863386672043L132.86456085245464,76L132,75.59903371015972L128,74.00648800062797L124,72.63948852628627L121.52627578884938,72L120,71.57846446981534L116,70.79197175349509L112,70.39384975735297L108,70.31985777355303L104,70.6503165085727L100,71.3129076866868L97.5276113695756,72L96,72.44342397156416L92,73.92948268490659L88.00774100458949,76L88,76.00418917651413L84,78.5952896765387L82.09935647937345,80L80,81.81146201059084L77.82044806593018,84L76,86.75949745703653L75.3067154044401,88L73.83351313266476,92L73.15467132458659,96L73.01146728259806,100L73.15479161714873,104L73.5388935838759,108L74.14330982020601,112L74.98715801644207,116L76,119.69550922127638L76.08114089871358,120L77.43205037456434,124L79.10634667403318,128L80,129.74959088412362L81.14553245315136,132L83.67335042830862,136L84,136.41709946423504L86.84306131558532,140L88,141.23875829079296L90.63108712005479,144L92,145.34083432724344L94.78712662488448,148L96,149.07690045887392L99.31517773283403,152L100,152.60131215873656L104,155.7746887905563L104.30316107757213,156L108,158.77479295828988L109.78956401458146,160L112,161.50731393457437L116,163.93904001576846L116.11897133829885,164L120,165.98227278050632L124,167.67459961262256L124.92342835974327,168L128,169.0750230872868L132,170.25205306449607L136,171.22425970183178L139.93653863876852,172L140,172.01342543943696L144,172.6696619938176L148,173.15046922681296L152,173.4570572501366L156,173.58099666573975L160,173.31925456791942L164,172.80451795480644Z"/></g><g><path fill="rgb(169, 125, 135)" stroke="rgb(121, 80, 90)" stroke-opacity="0.3" d="M158.30987115523047,168L160,167.7355879485575L164,166.77116260047353L168,165.26974345902494L170.28468514609057,164L172,162.7699504340341L174.96645469847135,160L176,158.63317108319737L177.77966589053227,156L179.44373614965173,152L180,149.41432077238747L180.28630654126357,148L180.29807633009835,144L180,141.34155686380208L179.8654763884029,140L179.07597651123,136L177.92826396863978,132L176.43616506254608,128L176,127.01928143828192L174.75420671274122,124L172.81117129681047,120L172,118.57346990473886L170.57353024203275,116L168,112.02062462901802L167.9872551462957,112L165.04139198970068,108L164,106.61525325632135L161.98409598851947,104L160,101.5169957138821L158.7921549669344,100L156,96.67988809495176L155.35550568582383,96L152,92.77933476548154L151.11233718073424,92L148,89.54459020947564L145.85603910602694,88L144,86.69253511076633L140,84.28350061628146L139.45239923133653,84L136,82.19472894585044L132,80.42669589171592L130.86686006793175,80L128,78.88242016214775L124,77.54483231083401L120,76.56577777873889L116.54479660334252,76L116,75.90333287600211L112,75.63529171335267L108,75.7558729692029L106.3699560895468,76L104,76.3495014463528L100,77.32704227200435L96,78.90253524313297L93.77991479325865,80L92,80.95880423205551L88,83.7174369903461L87.6536745164388,84L84,87.91768024823665L83.93079777894235,88L81.42043487798333,92L80.01594710297422,96L80,96.08930098333363L79.33923111399258,100L79.09041345964923,104L79.18591395606035,108L79.58033498072999,112L80,114.34906611395456L80.28270017854493,116L81.2803952303567,120L82.60317386944726,124L84,127.3091991310481L84.28742351513216,128L86.35768328835897,132L88,134.53221455071557L88.95733384622042,136L92,139.70992368417194L92.23996348963081,140L96,143.86930089261872L96.12532451817529,144L100,147.72425416977157L100.31941192894212,148L104,150.9645200379596L105.39110183049127,152L108,153.966723747619L110.98221476223412,156L112,156.70728379149145L116,159.20020644915093L117.5445120694059,160L120,161.27764360142592L124,163.00720151778827L126.79333958163585,164L128,164.42890511568487L132,165.62106759972494L136,166.5909623882825L140,167.3538364339645L144,167.91639273178157L144.9492323059804,168L148,168.2645954107412L152,168.4017282135054L156,168.3135826806233Z"/></g><g><path fill="rgb(160, 112, 125)" stroke="rgb(113, 68, 81)" stroke-opacity="0.3" d="M163.6950816257217,160L164,159.84060984437758L168,156.8909931035089L168.8803021149086,156L171.67442426262795,152L172,151.28756895122515L173.2674605132171,148L173.8608791863523,144L173.86291531614035,140L173.3866192446228,136L172.4765058045076,132L172,130.5550299073453L171.18349672224753,128L169.61723022735612,124L168,120.54852378618952L167.75431338266787,120L165.63423707213389,116L164,113.35856860358604L163.14142791180726,112L160.11166597184834,108L160,107.85573600687209L157.04012378026312,104L156,102.69985677024286L153.56357558481469,100L152,98.35217785638142L149.58072487288402,96L148,94.60772246017297L144.7862339509276,92L144,91.42800672417022L140,88.90769748378915L138.32177973247715,88L136,86.77571504289327L132,84.97229589533907L129.46311758123565,84L128,83.43566086581211L124,82.10921702742422L120,81.16218755836724L116,80.5662842232204L112,80.42872341705748L108,80.7177249096199L104,81.56523473431608L100,82.90856800634634L97.81498688301795,84L96,85.08270276445336L92.10719404997286,88L92,88.10260860287599L88.6288306583088,92L88,93.13149630642621L86.58788067820655,96L85.47272339640159,100L84.87638514321736,104L84.69947479140711,108L84.88218439984763,112L85.43953229935607,116L86.35318175434332,120L87.63738024690207,124L88,124.86247294331505L89.30970703861064,128L91.42209176186387,132L92,132.87420665211104L94.07060062993864,136L96,138.3169454949411L97.3734464084597,140L100,142.73468562667688L101.34401750656178,144L104,146.30704524291306L106.10176584447623,148L108,149.43057563481378L111.81208135990514,152L112,152.12966766097531L116,154.59762694385998L118.76757995210994,156L120,156.64305442346566L124,158.36540443260748L128,159.76225281960217L128.82198772858067,160L132,160.92527340741725L136,161.8457207413219L140,162.53202941001095L144,162.98145604168744L148,163.17955019425355L152,163.09617710605193L156,162.67867489000585L160,161.54476330181103Z"/></g><g><path fill="rgb(151, 98, 115)" stroke="rgb(104, 55, 72)" stroke-opacity="0.3" d="M156.85566942961987,156L160,154.26957407282055L162.9123068311232,152L164,150.85097363719086L166.01122919824576,148L167.4579732888672,144L167.97777439958253,140L167.83480001362682,136L167.1552360768681,132L166.03947252945454,128L164.62528813621822,124L164,122.5712723643918L162.85532855322646,120L160.72586617578872,116L160,114.84728205860858L158.23095197126742,112L156,109.01556159428563L155.13959126606915,108L152,104.38447639177079L151.6399869821004,104L148,100.27056487570627L147.71576925379927,100L144,96.64746578210216L143.18804460644165,96L140,93.73040039549997L137.19245668092864,92L136,91.34864220275645L132,89.47517065919556L128.28704698903277,88L128,87.88903264548418L124,86.56274891299392L120,85.63828949037077L116,85.09976440531202L112,85.09368904474132L108,85.61176910202565L104,86.84282252604052L101.48095914625443,88L100,88.81844956183929L96.115698379892,92L96,92.1377148399612L93.19949708535196,96L92,98.79191702133991L91.53811781071713,100L90.57322658289056,104L90.12209613747194,108L90.10053767866407,112L90.52354402340089,116L91.35425680608188,120L92,122.07217663449953L92.59284147157038,124L94.25187937836631,128L96,131.29458109733233L96.36239576967023,132L98.97363986582195,136L100,137.25064406140373L102.4900340365912,140L104,141.42381164343993L106.9238721299576,144L108,144.87267757226687L112,147.7591523751191L112.37889051339099,148L116,150.1799795765045L119.72240064922494,152L120,152.14069565380788L124,153.7857682661621L128,155.08908509888946L131.41132347009568,156L132,156.16224431966614L136,156.98123577863373L140,157.5311618354459L144,157.79509077906428L148,157.73828621203342L152,157.30039944060957L156,156.38088834745471Z"/></g><g><path fill="rgb(142, 84, 105)" stroke="rgb(95, 41, 62)" stroke-opacity="1" d="M147.54816250480218,152L148,151.9461988724083L152,150.93006396161417L156,149.09239278862665L157.34732126082733,148L160,144.58785971538026L160.35796896375632,144L161.7003110794183,140L162.07223311738997,136L161.70669762411904,132L160.77834645017438,128L160,125.6336313644382L159.47426694318523,124L157.8031829589513,120L156,116.46101883221701L155.73064932967299,116L152.92691542415608,112L152,110.90186321083533L149.36544415372592,108L148,106.53998618720544L145.44595888642618,104L144,102.6246816505539L140.89503416971982,100L140,99.28791351498674L136,96.50879754361944L135.15437055971753,96L132,94.333852914857L128,92.54207835254704L126.58408101917385,92L124,91.13425859209033L120,90.24574770541284L116,89.80367831897891L112,90.00219930460196L108,90.86091623644091L105.36902168990514,92L104,92.80063553135173L100.22264604370898,96L100,96.28669594485629L97.86441035736777,100L96.42136640550268,104L96,106.07940472324924L95.63631558578783,108L95.36841773802823,112L95.62548944852998,116L96,118.05555751172179L96.33918027251954,120L97.48009887136311,124L99.06175021333726,128L100,129.8257562248953L101.22997702852368,132L104,135.8274224781863L104.13336940078113,136L108,139.9907292072853L108.01020839795899,140L112,143.12116608428613L113.27919823020173,144L116,145.72547250456975L120,147.76394874227108L120.58333267740878,148L124,149.31274878483592L128,150.48225584841197L132,151.4061602407165L135.68892325203473,152L136,152.0521309532154L140,152.3889501543349L144,152.37653279382968Z"/></g><g><path fill="rgb(133, 71, 95)" stroke="rgb(86, 28, 53)" stroke-opacity="0.3" d="M150.6628690853524,144L152,142.9257491228117L154.37150211294994,140L155.7862543567321,136L155.89456522328143,132L155.12524098956925,128L153.8412209696941,124L152.09719020155038,120L152,119.82875536284575L149.65493917085456,116L148,113.75810506882058L146.59916408579272,112L144,109.32195825129068L142.56919885899674,108L140,105.72938876717205L137.78197539954468,104L136,102.69376833394182L132,100.14690518199313L131.72455218680088,100L128,98.16532501022675L124,96.4714171052234L122.19486750458387,96L120,95.50712814564761L116,95.20310526701459L112,95.76908139384108L111.34736873994748,96L108,97.6531034557648L105.44271924342755,100L104,101.91369323106346L102.81544483335065,104L101.40387380855509,108L100.72963894384839,112L100.7719585613265,116L101.39979408569923,120L102.56237529163593,124L104,127.40737433148709L104.26751056113685,128L106.65649803271191,132L108,133.74364543533468L109.99663674149468,136L112,137.81590157964504L114.76837154202286,140L116,140.83830200200873L120,142.978756329412L122.42108277436063,144L124,144.61030123829883L128,145.70629445919917L132,146.51260651315215L136,146.9663918223645L140,147.00745031968472L144,146.53328805545638L148,145.3686671365391Z"/></g><g><path fill="rgb(124, 57, 85)" stroke="rgb(77, 12, 44)" stroke-opacity="0.3" d="M140.68922181881143,140L144,138.26371689391465L146.33600337335284,136L147.8498631131614,132L147.6584947709837,128L146.57392737785975,124L144.79966866194246,120L144,118.7027869629897L142.12947545627554,116L140,113.55518135536559L138.45483978970142,112L136,110.03305943183892L133.0801863898702,108L132,107.29536935762499L128,105.14894382908693L125.44895514496321,104L124,103.40223249060858L120,102.58336845268684L116,102.68727445555393L112.73798899978001,104L112,104.4214563252066L108.85954780168149,108L108,109.7242156885415L107.26038980337319,112L106.90469548056171,116L107.30997557656787,120L108,122.55909309167433L108.46390149336284,124L110.48049455429529,128L112,130.27069911076603L113.3624657788277,132L116,134.57058437355872L117.93005214353522,136L120,137.22154271987378L124,138.98954039916973L127.47151832713473,140L128,140.131422028273L132,140.7044581240499L136,140.78110646272495L140,140.22284706170507Z"/></g></g><g id="labels"/><g id="axis"><g transform="translate(0,500)" fill="none" font-size="10" font-family="sans-serif" text-anchor="middle"><path class="domain" stroke="currentColor" d="M0,6V0H705V6"/><g class="tick" opacity="1" transform="translate(0,0)"><line stroke="currentColor" y2="6"/><text fill="currentColor" y="9" dy="0.71em">40</text></g><g class="tick" opacity="1" transform="translate(71,0)"><line stroke="currentColor" y2="6"/><text fill="currentColor" y="9" dy="0.71em">60</text></g><g class="tick" opacity="1" transform="translate(141,0)"><line stroke="currentColor" y2="6"/><text fill="currentColor" y="9" dy="0.71em">80</text></g><g class="tick" opacity="1" transform="translate(212,0)"><line stroke="currentColor" y2="6"/><text fill="currentColor" y="9" dy="0.71em">100</text></g><g class="tick" opacity="1" transform="translate(282,0)"><line stroke="currentColor" y2="6"/><text fill="currentColor" y="9" dy="0.71em">120</text></g><g class="tick" opacity="1" transform="translate(353,0)"><line stroke="currentColor" y2="6"/><text fill="currentColor" y="9" dy="0.71em">140</text></g><g class="tick" opacity="1" transform="translate(423,0)"><line stroke="currentColor" y2="6"/><text fill="currentColor" y="9" dy="0.71em">160</text></g><g class="tick" opacity="1" transform="translate(493,0)"><line stroke="currentColor" y2="6"/><text fill="currentColor" y="9" dy="0.71em">180</text></g><g class="tick" opacity="1" transform="translate(564,0)"><line stroke="currentColor" y2="6"/><text fill="currentColor" y="9" dy="0.71em">200</text></g><g class="tick" opacity="1" transform="translate(635,0)"><line stroke="currentColor" y2="6"/><text fill="currentColor" y="9" dy="0.71em">220</text></g><g class="tick" opacity="1" transform="translate(705,0)"><line stroke="currentColor" y2="6"/><text fill="currentColor" y="9" dy="0.71em">240</text></g><text x="705" dy="-5" text-anchor="end" style="font-family: Arial, sans-serif; font-size: 12px; fill: rgb(123, 123, 123); font-weight: bold;">low</text></g><g fill="none" font-size="10" font-family="sans-serif" text-anchor="end"><path class="domain" stroke="currentColor" d="M-6,500H0V0H-6"/><g class="tick" opacity="1" transform="translate(0,500)"><line stroke="currentColor" x2="-6"/><text fill="currentColor" x="-9" dy="0.32em">580</text></g><g class="tick" opacity="1" transform="translate(0,455)"><line stroke="currentColor" x2="-6"/><text fill="currentColor" x="-9" dy="0.32em">600</text></g><g class="tick" opacity="1" transform="translate(0,409)"><line stroke="currentColor" x2="-6"/><text fill="currentColor" x="-9" dy="0.32em">620</text></g><g class="tick" opacity="1" transform="translate(0,364)"><line stroke="currentColor" x2="-6"/><text fill="currentColor" x="-9" dy="0.32em">640</text></g><g class="tick" opacity="1" transform="translate(0,318)"><line stroke="currentColor" x2="-6"/><text fill="currentColor" x="-9" dy="0.32em">660</text></g><g class="tick" opacity="1" transform="translate(0,273)"><line stroke="currentColor" x2="-6"/><text fill="currentColor" x="-9" dy="0.32em">680</text></g><g class="tick" opacity="1" transform="translate(0,227)"><line stroke="currentColor" x2="-6"/><text fill="currentColor" x="-9" dy="0.32em">700</text></g><g class="tick" opacity="1" transform="translate(0,182)"><line stroke="currentColor" x2="-6"/><text fill="currentColor" x="-9" dy="0.32em">720</text></g><g class="tick" opacity="1" transform="translate(0,136)"><line stroke="currentColor" x2="-6"/><text fill="currentColor" x="-9" dy="0.32em">740</text></g><g class="tick" opacity="1" transform="translate(0,91)"><line stroke="currentColor" x2="-6"/><text fill="currentColor" x="-9" dy="0.32em">760</text></g><g class="tick" opacity="1" transform="translate(0,45)"><line stroke="currentColor" x2="-6"/><text fill="currentColor" x="-9" dy="0.32em">780</text></g><g class="tick" opacity="1" transform="translate(0,0)"><line stroke="currentColor" x2="-6"/><text fill="currentColor" x="-9" dy="0.32em">800</text></g><text x="4" text-anchor="start" dominant-baseline="hanging" style="font-family: Arial, sans-serif; font-size: 12px; fill: rgb(123, 123, 123); font-weight: bold;">high</text></g></g></g></svg>