<svg xmlns="http://www.w3.org/2000/svg" width="805" height="600"><rect width="805" height="600" x="0" y="0" fill="#f1f8f0" id="background"/><g transform="translate(50,50)" id="visualization"><clipPath id="plotClipPath"><rect x="0" y="0" width="705" height="500"/></clipPath><g id="viz" clip-path="url(#plotClipPath)"><g><path fill="rgb(216, 230, 205)" stroke="rgb(167, 180, 156)" stroke-opacity="1" d="M414.42500275678725,148L416,147.65969696101774L420,146.34636015767992L424,144.3253562776562L424.4743350926593,144L428,141.74808064191606L429.9897962143118,140L432,138.3556691251947L434.18965596940654,136L436,133.7718855762178L437.5055232399628,132L440,128.04714352269016L440.029171683261,128L441.95692369827486,124L443.3258808485989,120L444,117.19418917850882L444.2992917270619,116L444.966360047125,112L445.321532931177,108L445.39130486880333,104L445.1807370495528,100L444.67441159038196,96L444,92.77049884845849L443.84682529378244,92L442.70089601460325,88L441.07469072977153,84L440,82.0357130749791L438.87732883754836,80L436,76.17094076555361L435.87903186922085,76L432.31927403371935,72L432,71.66776066856798L428,68.46203109059113L427.23077128594673,68L424,66.08728483544911L420,64.37379334698247L418.81250554064985,64L416,63.08814410437952L412,62.184656840826506L408,61.618290400573784L404,61.345131279665964L400,61.345131279665964L396,61.618290400573784L392,62.184656840826506L388,63.08814410437952L385.18749445935015,64L384,64.37379334698247L380,66.08728483544911L376.76922871405327,68L376,68.46203109059113L372.0590905757539,72L372,72.05633445465091L368.133620796157,76L368,76.17094076555361L365.10594250005045,80L364,81.98071619365041L362.85651806303616,84L361.14332835122207,88L360,91.64689744109393L359.879867781485,92L358.8634650707849,96L358.16389476272747,100L357.7492061936316,104L357.6161377036488,108L357.7928715857407,112L358.35203361724587,116L359.44390094779754,120L360,121.2719691070944L361.03028689197106,124L363.3630878611829,128L364,128.7680001234426L366.28365712240156,132L368,133.8504171653304L369.952037715407,136L372,138.00657281257244L374.0054539897257,140L376,141.8952334364897L379.59128952435515,144L380,144.23924395783624L384,146.0254815624851L388,147.2803593705982L391.2828199273259,148L392,148.1697286122484L396,148.81332509535997L400,149.17703464404786L404,149.27981015309143L408,149.11126586221337L412,148.57597351136585ZM577.3865410529465,476L580,474.87593147129064L584,472.51131387216947L584.6652299102891,472L588,469.3263080859416L589.2544661253307,468L592,464.8461555699922L592.8788300517939,464L595.9282348928349,460L596,459.8790177168527L598.5409804652687,456L600,452.8696646790927L600.4612646059696,452L602.0030723769266,448L602.9899908561852,444L603.5587761454774,440L603.7737903928842,436L603.7618962304147,432L603.5531266331543,428L603.1610577963066,424L602.5868596571299,420L601.8208669579881,416L600.8423385607615,412L600,409.234914452242L599.6600116175023,408L598.3050364616479,404L597.2123377972558,400L596.1065075527839,396L596,395.61595332996217L595.0766584513437,392L594.0244065406168,388L592.9272734375352,384L592,380.77214966272624L591.7968365348775,380L590.6985394506742,376L589.5076872510521,372L588.203299881403,368L588,367.4114198335747L586.8490278129315,364L585.3640083738865,360L584,356.70621495390895L583.7137950537569,356L581.9437187490109,352L580,348.23634520549473L579.8782710360764,348L577.558268686661,344L576,342.2027647677625L574.0146913752701,340L572,337.9191281133782L570.0845990165882,336L568,334.00409932370076L565.5893726069116,332L564,330.6902921429213L560.402475333202,328L560,327.69313384705345L556,324.7543132052123L554.9547904528719,324L552,321.7439725452534L549.7631706182391,320L548,318.52658772021636L545.130158097136,316L544,314.92608989574023L541.129732452662,312L540,310.75831633878994L537.6752771324135,308L536,305.8834497857723L534.6198519155632,304L532,300.2768383122784L531.8186818665652,300L529.2467201541302,296L528,294.0881415998316L526.7069006537623,292L524.0828375043612,288L524,287.8809210960411L521.3566889296723,284L520,282.24394124086473L518.2482846076964,280L516,277.2286120625326L514.954899239642,276L512,272.5458824369534L511.45853098207044,272L508,268.336847503358L507.6890915281134,268L504.3846502718417,264L504,263.4634242244598L501.7712236712264,260L500,256.38320906425884L499.8369057058429,256L498.3205736336413,252L496.9881544611145,248L496,244.7027309356704L495.81440107184915,244L494.82002066138455,240L493.92297803568624,236L493.1094813240975,232L492.3681791858171,228L492,225.80244135510867L491.7207389224541,224L491.2332815786208,220L490.4758856663806,216L489.3863189449669,212L488,208.32659154949556L487.8763957951811,208L485.91412000732953,204L484,201.12315633812744L483.25430081044533,200L480,196.467046971137L479.56888327370996,196L476,192.4153926555419L475.46534346539124,192L472,189.38601904320814L469.5573510013188,188L468,187.10510658866053L464,185.3123080244933L460.0549880912512,184L460,183.97973183352713L456,182.8064050859113L452,181.93388821997513L448,181.3108861432264L444,180.90572718153516L440,180.70147140045594L436,180.69364866392624L432,180.8699629942834L428,181.31205989154705L424,181.99325420330268L420,183.1496203853534L418.14564033855373,184L416,184.74639659781815L412,186.22678772247303L408,187.8536669793475L407.6772720751994,188L404,189.37059446603348L400,190.7962206995319L396.37567626152037,192L396,192.1063262219298L392,193.08454852071668L388,193.9425949950899L384,194.62058853541356L380,195.07256727583126L376,195.2492624434796L372,195.1820836004112L368,194.5769129799171L364,193.48517868176737L361.32938034733473,192L360,191.2233424244924L356.16154214355186,188L356,187.83915827351717L353.1001501501084,184L352,182.26621523068502L350.8562974559869,180L349.149298764908,176L348,172.89037775235784L347.7373698227641,172L346.7199027643771,168L345.82822336191794,164L345.0443108000295,160L344.35514909741926,156L344,153.86623886378308L343.7283069637711,152L343.1717435332717,148L342.60500849030893,144L342.0016450878692,140L341.3178582807848,136L340.41921236811265,132L340,130.5096855192014L339.3830020843826,128L337.4963199836591,124L336,121.90431770299656L334.75102013511207,120L332,117.01260459990576L331.10638483097017,116L328,113.06543436279483L326.8953636924385,112L324,109.55593645071292L322.1607938809278,108L320,106.34186807411126L316.9041847042787,104L316,103.36146088529094L312,100.3086785544794L311.5195475739895,100L308,97.8013754754835L304.1930465206994,96L304,95.90864339414941L300,94.18769090049764L296,92.6933306272364L293.9068513879627,92L292,91.31251094435581L288,89.95373765501233L284,88.64529974329108L282.05232851107746,88L280,87.20493016850585L276,85.56722818091953L272.39898716715106,84L272,83.78590998773728L268,81.31827699060253L266.4096222678357,80L264,77.32872359689262L263.1303462808366,76L261.28404077478666,72L260.18165249406843,68L260,67.04842641169924L259.53632558853485,64L258.93388971686124,60L258.30454887805587,56L257.4156549659209,52L256.19467660011105,48L256,47.50048234881473L254.77294743502455,44L252.94704545003538,40L252,38.14526502792992L250.96153216947897,36L248.794005543408,32L248,30.665452347240205L246.50007029629074,28L244,24.176814553683457L243.87561434111,24L240.80608867204188,20L240,19.063693332002345L237.1099313399675,16L236,14.937976479762568L232.5810772465024,12L232,11.53626688814039L228,8.6330028655739L227.02939254377748,8L224,6.011447111914208L220.48677283723515,4L220,3.7120116923288293L216,1.4943305436631533L213.14525398032885,0L212,-0.6493507630468685L208,-2.48882482507031L204,-3.8942986094957774L203.63515596026645,-4L200,-5.154390360526563L196,-6.203337703656018L192,-7.177793309775339L188.99637184392964,-8L188,-8.306783018842296L184,-9.665148771092063L180,-11.057266263491343L177.5312560624023,-12L176,-12.64403593493995L172,-14.415023434788651L168.3491437830964,-16L168,-16.167712056710954L164,-18.13032000470554L160,-19.942867037877534L159.87430221301753,-20L156,-21.97580036550204L152,-23.70678199640325L151.3773606355176,-24L148,-25.70422868928746L144,-27.64172472930798L143.2673163502581,-28L140,-29.762127368724187L136,-31.69668104720037L135.29791893471062,-32L132,-33.715447778827865L128,-35.373974645790526L126.20064518066039,-36L124,-36.82398600908386L120,-38.108366850143156L116,-39.15185688358418L112.1620233974669,-40L112,-40.03984840336467L108,-40.93136989347524L104,-41.705882205736344L100,-42.38742121784635L96,-42.99414218288822L92,-43.61204965191844L88.34766242434412,-44L88,-44.04338847423152L84,-44.35047331947448L80,-44.47221707400523L76,-44.438217160563454L72,-44.31680262699353L68,-44.13025270800251L65.95217634958581,-44L64,-43.892313991457506L60,-43.603080057879886L56,-43.2399852960174L52,-42.74975539695577L48,-42.10879752807983L44,-41.28413765231049L40,-40.229012944568055L39.281171340345935,-40L36,-39.01760343954442L32,-37.348215493595816L29.053244691887556,-36L28,-35.55022123985654L24,-33.7503572307716L20.50862713499788,-32L20,-31.75134046418094L16,-29.7025779982295L13.104533843931733,-28L12,-27.380007076622604L8,-24.822822952036333L6.876035621215493,-24L4,-21.933631332564218L1.6973792762909028,-20L0,-18.514071175471187L-2.487394737749753,-16L-4,-14.352138394934116L-6.072225382935457,-12L-8,-9.617085269622251L-9.285392868041015,-8L-12,-4.240853541929752L-12.174972199012018,-4L-14.69208253135102,0L-16,2.637948950962354L-16.716218099671224,4L-18.478726437805037,8L-19.893329034117215,12L-20,12.347900920169735L-21.26001679560153,16L-22.410888409552783,20L-23.377607694058128,24L-24,27.002973958479643L-24.239270588519503,28L-25.07781286054731,32L-25.64889693370931,36L-25.951158909439158,40L-26.01039027746772,44L-25.83148793751694,48L-25.399502338034566,52L-24.676398286301804,56L-24,58.99690941115793L-23.792737068259157,60L-22.836145386476232,64L-21.67751353820664,68L-20.259982886051773,72L-20,72.63459984348574L-18.723398628133978,76L-16.823530576994116,80L-16,81.43567884825217L-14.557610934065664,84L-12,87.58476909077342L-11.698645017163955,88L-8.103538581652089,92L-8,92.10486877481773L-4,95.90052608221859L-3.8924412782452578,96L0,99.44948285729296L0.7206574472441787,100L4,102.4580954769132L6.479191014642126,104L8,104.95830392543417L12,107.12452735794542L13.88468859517269,108L16,109.03501189275221L20,111.08248849343693L21.80723766602179,112L24,113.18968480435385L28,115.28644300129884L29.39715285703737,116L32,117.37019679142225L36,119.38390510473695L37.243348675157364,120L40,121.4199018584165L44,123.30791896609065L45.55439544508417,124L48,125.17040628944551L52,126.94785938071851L54.56044170995193,128L56,128.6315483919611L60,130.22257225941772L64,131.6119516777919L65.19249736218666,132L68,133.02833488498243L72,134.36243912780037L76,135.7472016070344L76.835280844115,136L80,137.13044374240917L84,138.41037068216087L88,139.84345448523322L88.39198364328539,140L92,141.78578943175006L96,143.8418426329259L96.28586592310691,144L100,146.45772857755958L102.29560338804308,148L104,149.19032058779928L108,151.9795897106987L108.02859736876158,152L112,154.95484726789277L113.45001728578387,156L116,157.88816637062425L119.03415865146061,160L120,160.72014054122783L124,163.52169362575728L124.72525896410548,164L128,166.18621359190382L131.00629052588695,168L132,168.62516568594657L136,170.78519033395384L138.62948095937855,172L140,172.681846460416L144,174.4534331435479L148,175.62966859019997L149.69962899693948,176L152,176.57519387551167L156,177.2871795102954L160,177.7457816834754L164,177.9830189561638L168,178.01329254954544L172,177.8359175012763L176,177.43482176701508L180,176.77525491723372L184,176.1243406921248L184.71942180700245,176L188,175.49374871223336L192,174.98720709342177L196,174.78038709261295L200,175.33575955191628L202.0491973899376,176L204,176.76233765996074L208,179.67691174951835L208.32621860144224,180L212,183.52978316557017L212.4138995082318,184L216,187.77738025234112L216.19590902316037,188L220,191.9309571135994L220.06584128637525,192L223.9505671785002,196L224,196.049073154962L228,199.8825711515733L228.11638480128244,200L232,203.76057162913548L232.24737948659703,204L236,207.50917906312316L236.53248771101693,208L240,211.11409230716163L241.09049930567028,212L244,214.3688166503307L246.14877827039402,216L248,217.440735554779L251.53836145866114,220L252,220.35190242105898L256,223.32557131605324L256.962566133561,224L260,226.34351042478136L262.1860804659415,228L264,229.55392052398878L266.8425685264169,232L268,233.15088521501013L270.8285739403859,236L272,237.3819412299946L274.20312159084796,240L276,242.19747533910135L277.49097732605526,244L280,246.9899004166628L280.8838468908147,248L284,250.92685402799287L285.24565728367503,252L288,254.4183006168172L290.70089168217334,256L292,256.7509686346604L296,258.4987290432796L300,259.73714328667234L301.206291958123,260L304,260.6374159922141L308,261.3281098308898L312,262.30184405829084L316,263.42607056057534L317.75434147126936,264L320,264.8215704798753L324,266.56268538913304L326.7327570398438,268L328,268.77097989235864L332,271.72729697429577L332.26973841047953,272L335.60394149633214,276L336,276.56697470701636L337.8907748269552,280L339.4878558217609,284L340,285.91177113072075L340.4599775884712,288L341.32384087091026,292L342.0731722404432,296L342.7390820912893,300L343.34620880349513,304L343.8681894146661,308L344,309.1831904132354L344.2915008873714,312L344.94060123634574,316L345.76901480282504,320L346.81689746123703,324L348,327.6014742689154L348.12727656007485,328L349.65573463662713,332L351.61839667790787,336L352,336.65007379313727L354.00553520044144,340L356,342.4844406815901L357.28332933743724,344L360,346.47355623392156L361.84314055480183,348L364,349.86070231429267L367.54160496402477,352L368,352.27532830963025L372,354.12611695951745L376,355.43077813849754L378.4981171969179,356L380,356.36753748636687L384,357.01411294006544L388,357.35465711461006L392,357.41698421338566L396,357.20964634103393L400,356.81363694693266L404,356.2436493979701L405.2947682596275,356L408,355.55207254458276L412,354.7040767549853L416,353.62647453552984L420,352.2626177278027L420.6383517156903,352L424,350.7340702235112L428,349.5303996522755L432,348.56929006621436L435.4711440487224,348L436,347.92517884395204L440,347.66352730024477L444,347.71999529221983L446.8954874734634,348L448,348.1240372294988L452,348.9344085328321L456,350.2970733906605L460,351.8663131755569L460.3142031675916,352L464,353.7232437657762L468,355.7432640528487L468.4624031762846,356L472,358.17298492567835L474.68111738750815,360L476,360.99895904222916L479.5517854304137,364L480,364.4090558746766L483.49483139751567,368L484,368.57074923869806L486.76775575293243,372L488,373.69541188858403L489.5070430281679,376L491.8618029571695,380L492,380.25719627511387L493.81695480312214,384L495.60558456700187,388L496,388.9434267791276L497.17091212173443,392L498.6417451324737,396L500,399.73399568479743L500.0905404625985,400L501.4433710061536,404L502.507172660812,408L503.60139477173584,412L504,413.4302684518879L504.6668940438417,416L505.737479595885,420L506.8611109731685,424L508,427.8317785737994L508.0471061782132,428L509.2060897614813,432L510.45765884985485,436L511.8261198221285,440L512,440.4800018708404L513.238273346319,444L514.7996291897417,448L516,450.75617648515095L516.5316747874965,452L518.4324986273618,456L520,458.836748854941L520.6460976928742,460L523.2361095933469,464L524,464.8461555699922L527.0295560633278,468L528,468.94228381558867L531.3991472786739,472L532,472.51131387216947L536,474.87593147129064L538.6134589470535,476L540,476.6028438469448L544,477.8928582628274L548,478.7775246061409L552,479.33209083199324L556,479.5995593101443L560,479.5995593101443L564,479.33209083199324L568,478.7775246061409L572,477.8928582628274L576,476.6028438469448ZM691.5931387413634,508L692,507.91937096473487L696,506.780827852005L700,505.16571444651004L702.1382004811371,504L704,502.97718239121775L707.9772093228493,500L708,499.98394098396966L712,496.2500014381841L712.2595128929432,496L715.4652410509858,492L716,491.10714374550093L717.8342832544175,488L719.5477734798981,484L720,482.55852909531984L720.8267486806741,480L721.7302367858958,476L722.2966029584119,472L722.5697622806906,468L722.5697622806906,464L722.2966029584119,460L721.7302367858958,456L720.8267486806741,452L720,449.44147090468016L719.5477734798981,448L717.8342832544175,444L716,440.89285625449907L715.4652406465003,440L712,436.12903262351904L711.8833522248651,436L708,432.01772029615336L707.9772093228493,432L704,429.02281760878225L702.1382004811371,428L700,426.83428555348996L696,425.219172147995L692,424.08062903526513L691.5931387413634,424L688,423.2519346088949L684,422.7486553927074L680,422.53933496547404L676,422.60869513119667L672,422.9617526337072L668,423.6247566806521L666.498117196918,424L664,424.5982603462113L660,425.958159655039L656,427.87229369821375L655.7928572557964,428L652,430.38383750536764L650.2812121791254,432L648,434.2784925291778L646.2087317689851,436L644,438.2852739936043L642.2572401298021,440L640,443.35348648909803L639.517499381666,444L637.3204077583288,448L636,451.62068669194275L635.8398531585046,452L634.7239539043749,456L634.1478274142132,460L634.0025224300291,464L634.2265520190098,468L634.7508579471115,472L635.5863045342182,476L636,477.4071702229363L636.6767263970851,480L638.1075938548157,484L640,487.8854580833271L640.0530621154595,488L642.4682417435217,492L644,493.8984464653063L645.7294762467932,496L648,498.10129870491687L650.1968440359173,500L652,501.61616249463236L655.7928572557964,504L656,504.12770630178625L660,506.041840344961L664,507.4017396537887L666.498117196918,508L668,508.3752433193479L672,509.0382473662928L676,509.39130486880333L680,509.4606645369589L684,509.2513446072926L688,508.7480653911051Z"/></g><g><path fill="rgb(209, 219, 196)" stroke="rgb(160, 169, 148)" stroke-opacity="0.3" d="M407.36464689563553,128L408,127.90192010640015L412,126.63433898972767L416,124.61224895520283L416.86539003655116,124L420,121.11391414197806L420.91470510802424,120L423.2883719926581,116L424,114.17204672561587L424.68552277939557,112L425.3662717856263,108L425.5000008277127,104L425.096414111155,100L424.12595801607847,96L424,95.67740992253744L422.2170632344562,92L420,88.87089826387248L419.19030301537595,88L416,85.42856980193326L413.4778769900441,84L412,83.33386513956867L408,82.17650794489995L404,81.61831373730845L400,81.61831373730845L396,82.17650794489995L392,83.33386513956867L390.5221230099559,84L388,85.42856980193326L384.80969698462405,88L384,88.87089826387248L381.7829367655438,92L380,95.67740992253744L379.8740419839215,96L378.903585888845,100L378.49999917228735,104L378.63372821437366,108L379.3144772206044,112L380,114.17204672561587L380.711628007342,116L383.0852948919758,120L384,121.11391414197806L387.13460996344884,124L388,124.61224895520283L392,126.63433898972767L396,127.90192010640015L396.63535310436447,128L400,128.4311504107528L404,128.4311504107528ZM571.531260668977,456L572,455.74377825242914L576,452.62934983402715L576.6039199860369,452L579.6702968507083,448L580,447.44494104173646L581.6325816915742,444L583.0138718170048,440L583.953175975797,436L584,435.6729068962384L584.4496587860989,432L584.6451801895915,428L584.5631984288602,424L584.210087375564,420L584,418.6595758415519L583.5432400153762,416L582.5593950875973,412L581.2697465876805,408L580,404.8512204404761L579.6381119485046,404L578.5668273477924,400L577.5040265318594,396L576.4281671537261,392L576,390.46461438835286L575.3296065655935,388L574.2045315177683,384L573.0266105461251,380L572,376.7324878048781L571.7698233894079,376L570.4189221075168,372L568.9463549879655,368L568,365.6676552023501L567.213907065218,364L565.1253549094506,360L564,358.0737247720144L562.5800478670216,356L560,352.6283493713427L559.4356113594206,352L556,348.5319103500581L555.3873220671969,348L552,345.29088810895115L550.1724956385174,344L548,342.8173911412049L544,340.81152675013243L542.29374060167,340L540,338.7890418460883L536,336.6446610588288L534.8428450289276,336L532,334.1731330244235L529.0329404415431,332L528,331.11539622747443L524.8702576058821,328L524,326.98087657078963L521.8145514216534,324L520,321.1117195996168L519.3953624926073,320L517.34391597996,316L516,313.2109674573854L515.4459239101207,312L513.5928387784928,308L512,304.6343889447157L511.654080145584,304L509.3063709046436,300L508,297.95393271301253L506.64975566336705,296L504,292.5322899449729L503.56473362707504,292L500,288.08174267595444L499.9221361820445,288L496,284.28505796442903L495.6950986979915,284L492,281.0120331961003L490.77874962968906,280L488,277.2568758353967L486.78068856811126,276L484,272.33973304254283L483.7838247798161,272L481.8755298752784,268L480.63331165836917,264L480,260.5477675618566L479.92069145622816,260L479.7472531516635,256L479.4820679740592,252L479.1267506395383,248L478.6746537420353,244L478.0578937346162,240L477.4128765871658,236L476.7230342757782,232L476,228.16195130293096L475.9675474890631,228L475.0856580827716,224L474.11421979887655,220L472.722259363641,216L472,214.4229150485687L470.7127295006387,212L468,208.17362811198024L467.85180081418866,208L464,204.41910910235532L463.4320889973826,204L460,201.89945746459176L456,200.06148832805138L455.82907760616854,200L452,198.83992482778848L448,197.95125653114604L444,197.36012686262217L440,197.0182867922174L436,196.8954342927666L432,196.97426849695427L428,197.2477757232425L424,197.64343796256236L420,198.39567949715183L416,199.6488074842739L414.93031404825354,200L412,200.98153545590378L408,202.3999999765885L404.0659649329834,204L404,204.0264606943211L400,205.54588254613742L396,207.04697171210933L393.4269998506386,208L392,208.5225855758897L388,209.97567659631454L384,211.38714994540913L382.14097633338395,212L380,212.71486096224868L376,213.97584233027754L372,215.23466752441493L369.3532560392775,216L368,216.42045921984817L364,217.88314570631582L360,218.67550805161915L356,218.2078506728481L352,216.06135353832434L351.94093822622307,216L348.6315824346371,212L348,211.11494016658776L346.62236346329234,208L344.94045611951674,204L344,201.7712195840292L343.28401519915707,200L341.62065038761807,196L340,192.1359965802435L339.9464855669726,192L338.0463680635298,188L336.6512859862545,184L336,181.74383536451205L335.5480865121521,180L334.6967420231215,176L333.92015824683256,172L333.1821420385626,168L332.4529805733974,164L332,161.57121123738548L331.7365889821541,160L331.03463727114865,156L330.2543346711782,152L329.36271512172647,148L328.3145970409425,144L328,142.96190794879033L327.1682963518339,140L325.80271070676326,136L324.0498679152371,132L324,131.90247884841028L322.06649621102827,128L320,125.02315183124699L319.2934100296254,124L316.00045874787406,120L316,119.99951639739865L312.35117150370877,116L312,115.6460239583104L308,112.1678368925603L307.7745009863094,112L304,109.30217261393543L301.70269315113944,108L300,107.0424822403663L296,105.12316878918904L293.026546193632,104L292,103.59484080193431L288,102.26524145958538L284,101.15472342937531L280,100.1972912049884L279.0651665074244,100L276,99.27000239462927L272,98.41295527870585L268,97.5877176671336L264,96.58870080757117L262.2657053845345,96L260,95.03286245422808L256,92.25234144341917L255.74594722192927,92L252.76822772787216,88L252,86.53956465476836L250.99173318897994,84L249.82580522061926,80L248.9805568014064,76L248.36167362598985,72L248,68.6142068565731L247.94701484173368,68L247.57604897390382,64L247.07062235172845,60L246.3842774800912,56L245.41485975083827,52L244.08635487858413,48L244,47.794322667847354L242.34310168614348,44L240.06887030335417,40L240,39.88896987411101L237.44414115218518,36L236,34.0109798929096L234.4495074165185,32L232,29.07880543170431L231.03612264656675,28L228,24.831750362427087L227.14743733539677,24L224,21.13221233757791L222.6595513566549,20L220,17.89425911096754L217.38683971990463,16L216,15.056037640013457L212,12.400729491607336L211.27120795950202,12L208,10.265891652873705L204,8.612258906799454L202.14598969917012,8L200,7.244828920132505L196,6.078063936562884L192,5.0630434243934275L188.03869384204643,4L188,3.9885173300789347L184,2.713926895925482L180,1.3781422043115157L176.29002491925718,0L176,-0.12165520617348591L172,-1.9750932665528182L168,-3.8792856163597094L167.76110876619907,-4L164,-5.975632956663802L160.04052840253783,-8L160,-8.021412142894434L156,-10.17008082567709L152.20606056558,-12L152,-12.101414407098673L148,-14.255713816509058L144.66071783506942,-16L144,-16.365756593438434L140,-18.605815722329965L137.3144152755194,-20L136,-20.726778479675033L132,-22.715983585158526L128.81893911992864,-24L128,-24.358086028679367L124,-25.886212658619826L120,-27.168806829957305L116.85128073248299,-28L116,-28.25618352300019L112,-29.315726177099513L108,-30.21713887036141L104,-30.99303404699708L100,-31.667591499049905L97.77821046316646,-32L96,-32.325154651333904L92,-33.05825873106591L88,-33.53245500383679L84,-33.7792896926596L80,-33.81253800358923L76,-33.6601511069513L72,-33.389610896085394L68,-33.04623798595894L64,-32.62124042295641L60,-32.09206870209053L59.38079630302235,-32L56,-31.555598596964558L52,-30.88051875488859L48,-30.021026580274707L44,-28.933195973482277L41.23097192968774,-28L40,-27.615695206055506L36,-26.097509696378566L32,-24.00963136527085L31.98200192990872,-24L28,-21.960790561837584L24.54939577897032,-20L24,-19.682671957749974L20,-17.303050378516076L17.957315203442207,-16L16,-14.724535347843386L12.177873230933258,-12L12,-11.869914573610103L8,-8.64407244786129L7.289268203376139,-8L4,-4.87688104436306L3.1738274585153903,-4L0,-0.05357265020997204L-0.038930086671769004,0L-2.5280496612343057,4L-4,6.942375309955835L-4.544166152414064,8L-6.302614014610356,12L-7.7395363977988865,16L-8,16.840146779053896L-9.043957838181171,20L-10.160028069405186,24L-11.083579551517474,28L-11.858535833748775,32L-12,33.087974901081L-12.423107334162054,36L-12.692730082072487,40L-12.678618854423348,44L-12.37924169433137,48L-12,50.50699973774607L-11.794341286385688,52L-10.929667711055032,56L-9.841992274986453,60L-8.53989472899778,64L-8,65.43307072508088L-7.072934216074415,68L-5.3429889157093555,72L-4,74.57139448869168L-3.284689228478001,76L-0.8747008524501325,80L0,81.20656298682925L2.239704558778783,84L4,85.8684074517314L6.292570526972241,88L8,89.37228314400045L11.807285653142301,92L12,92.12867302863333L16,94.5452629760849L18.41412604108389,96L20,96.9707669059323L24,99.37753038480281L25.04632312213728,100L28,101.7640386499256L31.98113736531137,104L32,104.01106120722687L36,106.42261705250675L38.708026726279854,108L40,108.77538116567064L44,111.05494447202665L45.7672964150579,112L48,113.24088726597657L52,115.30208007037686L53.4356019608158,116L56,117.27680049227538L60,119.02249254646293L62.49226692795722,120L64,120.63487262734378L68,122.21060317044007L72,123.62346671046154L73.01617806306996,124L76,125.21817970766111L80,126.56296163909099L84,127.72417220012548L84.8949098007117,128L88,129.0557221710841L92,130.46643737495597L96,131.9246856860628L96.19475404187119,132L100,133.68569927150466L104,135.52557277167742L104.97288404647696,136L108,137.7003269213827L111.97928304608615,140L112,140.01381679782577L116,142.77190210714886L117.75528121473224,144L120,145.70887944156775L123.05995726670574,148L124,148.70864312217705L128,151.66057286409207L128.4673487031865,152L132,154.52606945835564L134.43479936788933,156L136,156.9324772351686L140,159.0780276924831L141.92870920070146,160L144,161.04482080538625L148,162.46657814467196L152,163.4892528195575L154.86616776658965,164L156,164.2205927004897L160,164.71797477762954L164,164.94986676283725L168,164.92945177353482L172,164.65289627660428L176,164.09854802502696L176.46619840282392,164L180,163.312262263883L184,162.39314580543575L188,161.2270814822712L191.6904031075943,160L192,159.9028095139778L196,158.7601475708799L200,157.85530796071208L204,157.1492518034153L208,157.50774838082637L212,159.1856510321753L213.0157486934781,160L216,162.98168966896878L216.6976591616795,164L219.2793756530773,168L220,169.10654556314142L221.56993444603359,172L223.99146028887992,176L224,176.0125147651632L226.53075110117607,180L228,181.94568628237613L229.44972921159558,184L232,187.0196706598681L232.81166617021432,188L236,191.39625280528549L236.56799845033737,192L240,195.56444090454204L240.46616990241108,196L244,199.21969922583787L244.92835207947712,200L248,202.55633263781493L249.94102164765553,204L252,205.54895705493215L255.5711178326551,208L256,208.30345323200856L260,210.8327923498755L262.0066444890729,212L264,213.24421224658226L268,215.63146451582725L268.62689641373873,216L272,218.18339557997496L274.7863800419117,220L276,220.8802015133145L280,223.86569611780942L280.1726336946486,224L284,227.31354995157415L284.75710802318775,228L288,231.2253122598168L289.04900706069304,232L292,234.35641430955815L294.56541664963004,236L296,236.9697914047889L300,239.04033889523504L302.533813501076,240L304,240.5291166391671L308,241.4816378831938L312,242.41951319394963L316,243.2296604642467L320,243.93687975628205L320.42566306736416,244L324,244.50112681079747L328,244.98247389042228L332,245.3971629491054L336,246.06335942910653L340,247.1523456661672L341.99451044351537,248L344,248.86263492319517L348,251.81353544564837L348.12067879369806,252L349.96321259609635,256L351.34517039166064,260L352,262.2433328559295L352.3963328167006,264L353.2357796711086,268L354.01830867565036,272L354.7773895657052,276L355.54023354098234,280L356,283.7750784240946L356.0241553774566,284L356.22747730578095,288L356.66182357345104,292L357.1909254681504,296L357.83639215319454,300L358.6296493662739,304L359.47061523409894,308L360,310.2635326657258L360.3939907230576,312L361.520993558188,316L362.9030399495522,320L364,322.6424153024412L364.6987070365445,324L367.1680265445274,328L368,329.1367005230089L370.64443533960684,332L372,333.2570629028502L375.90966530334214,336L376,336.0559316367215L380,337.937342050534L384,339.2107796976908L388,339.9913560154203L388.09229093995145,340L392,340.32737799630104L396,340.27536491569253L399.57982605440185,340L400,339.9656531862335L404,339.40617044523407L408,338.6059570449849L412,337.54230771592165L416,336.1789438905119L416.42822758111356,336L420,334.4761726391592L424,332.3524983813048L424.8499507223647,332L428,330.6593369860942L432,329.26437259639306L436,328.20211673344346L437.2033243963398,328L440,327.5085291946118L444,327.2258537298706L448,327.4133106809888L451.2508051680953,328L452,328.1337319582222L456,329.66822678922045L460,331.4372531859413L461.2661772858155,332L464,333.1259633319449L468,334.799162991324L470.76187362957285,336L472,336.4934445958133L476,338.1543247380102L480,339.97892403909646L480.0431355320766,340L484,341.79616499822333L488,343.6366911247531L488.7677171106303,344L492,345.8281681462059L495.3558884730503,348L496,348.4963111619448L499.89067749363915,352L500,352.1200621329208L503.00375273927193,356L504,357.61144698909027L505.2591066344452,360L507.00736350184854,364L508,366.62779172122066L508.4525309371719,368L509.68306752197645,372L510.8222064740786,376L511.9244532583981,380L512,380.26650780879083L513.1020607302082,384L514.3048567318428,388L515.5668918737913,392L516,393.27092521147364L516.9970722525388,396L518.5758159256729,400L520,403.28563333049874L520.3231980157015,404L521.3833738619226,408L522.4404477904008,412L523.5167064827929,416L524,417.72248611497537L524.6203306188659,420L525.7576330919632,424L526.9597693787638,428L528,431.2137518023395L528.2445175870288,432L529.5964281111909,436L531.0955037876662,440L532,442.1574549297043L533.0280382402707,444L535.5703212645547,448L536,448.59585864651933L539.0983854110414,452L540,452.8641794088883L544,455.7574663096407L544.4687501703593,456L548,457.6216895281822L552,458.7845317840158L556,459.3508852442001L560,459.3582373378739L564,458.8031158428996L568,457.6402155059583ZM688.6862251841508,488L692,486.39842567388087L695.3957652490657,484L696,483.44008511216566L698.781956847029,480L700,477.8571448278873L700.8400491304286,476L701.9974069524978,472L702.5556011630138,468L702.5556011630138,464L701.9974069524978,460L700.8400491304286,456L700,454.1428551721127L698.781956847029,452L696,448.55991488783434L695.3957652490657,448L692,445.60157432611913L688.6862251841508,444L688,443.7328732906434L684,442.7682544949113L680,442.3670592364706L676,442.4999991722873L672,443.17668924994484L669.3835107076015,444L668,444.5369404473214L664,446.8956502698635L662.6507935243795,448L660,450.86924880384936L659.1972781816826,452L657.175185677585,456L656,459.7018300235038L655.9223866655351,460L655.4088493889716,464L655.4088493889716,468L655.9223866655351,472L656,472.2981699764962L657.175185677585,476L659.1972781816826,480L660,481.13075119615064L662.6507935243795,484L664,485.1043497301365L668,487.4630595526786L669.3835107076015,488L672,488.82331075005516L676,489.5000008277127L680,489.6329407635294L684,489.2317455050887L688,488.2671267093566Z"/></g><g><path fill="rgb(202, 209, 186)" stroke="rgb(153, 160, 138)" stroke-opacity="0.3" d="M318.1492726774039,216L320,214.4277923575438L321.84906142157325,212L323.5962646318027,208L324,206.27771846507517L324.42045918112865,204L324.7387232912233,200L324.74572897151825,196L324.5446537443555,192L324,188.41991755984537L323.9443495381449,188L323.7786414455164,184L323.6650450808636,180L323.5879072723741,176L323.4003904103786,172L323.1135630422293,168L322.7287679696149,164L322.23976956500474,160L321.6330402425299,156L320.88025036208717,152L320,148.2097398500262L319.9549390693788,148L318.9150870721088,144L317.62346086560785,140L316,136.019050788621L315.99291619357433,136L314.1906386288448,132L312,128.23354567042998L311.8512959819906,128L308.5989283066762,124L308,123.3556927242806L304.44182006091563,120L304,119.6321302216059L300,116.87146927255856L298.4705400298927,116L296,114.59882728465237L292,112.85871856779738L289.4292471549985,112L288,111.50074534183793L284,110.4067231717531L280,109.57992196384953L276,108.97655724935498L272,108.57952559273033L268,108.37969086817824L264,108.31848354127538L260,108.36174663529832L256,108.3186737269474L252,108.25096562643816L249.60339443898022,108L248,107.73687517469753L244,104.74574456592478L243.5294555160325,104L242.27200769217507,100L241.61176067949543,96L241.15901743188886,92L240.8106282002899,88L240.51543431683922,84L240.2540648027761,80L240.009181652927,76L240,75.85140989013655L239.7768957147955,72L239.54166763044884,68L239.14513718522772,64L238.5028363298868,60L237.54200236876028,56L236.20998240335496,52L236,51.50731296852035L234.46547809245698,48L232.15076290255166,44L232,43.781171180747066L229.2742401923785,40L228,38.43525479857382L225.9071770250735,36L224,33.91659957305497L222.14349705773935,32L220,29.90777924763927L217.9239617778146,28L216,26.31254812842937L213.3404894889398,24L212,22.89966715845243L208,20.130916301445296L207.7730166902581,20L204,17.91906923956678L200,16.207369448882275L199.41541959202084,16L196,14.815366392588615L192,13.648365714750597L188,12.469360058116024L186.4303211082189,12L184,11.260485009158742L180,9.971850192830715L176,8.52574828212407L174.69927907510908,8L172,6.8311351954700115L168,4.972639670866187L166.02237985472294,4L164,2.9520009041738575L160,0.8255913547235139L158.47600165858069,0L156,-1.4272962693223974L152,-3.611764233375709L151.35657732424596,-4L148,-6.0325512731858595L144.75121368375397,-8L144,-8.453417626101768L140,-10.904135211547L138.12968750076791,-12L136,-13.229723413605726L132,-15.303354155942145L130.4139459436358,-16L128,-17.12666780773705L124,-18.712821602968717L120.1828741319961,-20L120,-20.066449470074886L116,-21.316785659255274L112,-22.36346650700675L108,-23.249818535058537L104.04007313059819,-24L104,-24.008553233219942L100,-24.765818629097026L96,-25.41802840427701L92,-26.051063729822346L88,-26.44289613940488L84,-26.617570264408073L80,-26.57860733866967L76,-26.344984195292014L72,-25.972852232346227L68,-25.51886698156308L64,-24.97172615455125L60,-24.30265335070635L58.365519226934026,-24L56,-23.60015569648135L52,-22.76900724779219L48,-21.736115608437217L44,-20.45345345370265L42.80873164495472,-20L40,-18.928174365257888L36,-17.050431306280444L34.22992220847944,-16L32,-14.642296042043327L28,-12.04518198486464L27.931646653124545,-12L24,-9.327375101987073L22.139403638703996,-8L20,-6.43331208670233L16.823650948702365,-4L16,-3.29594159439867L12.342970746417222,0L12,0.3579611020513198L8.805590629600701,4L8,5.083110487984129L5.995781064874052,8L4,11.495841355020147L3.7294851374063143,12L1.8640325606450574,16L0.32314421845785546,20L0,20.972321277921395L-0.9633118316468625,24L-2.0016958824831192,28L-2.852945724532404,32L-3.3930136403826197,36L-3.605147426120027,40L-3.529279016207454,44L-3.1651711610912088,48L-2.4834385829651495,52L-1.4289160115411335,56L-0.11384977235259441,60L0,60.306303822741796L1.4398403691593273,64L3.3066851220674067,68L4,69.28156159526759L5.583986710615946,72L8,75.45560559722793L8.417079762704816,76L12,79.9611778068604L12.0390547437418,80L16,83.38012306576528L16.726523364159704,84L20,86.54297017028537L21.929348112778897,88L24,89.41645043536218L27.915312531969306,92L28,92.05501752113045L32,94.65698269300307L34.086582804329765,96L36,97.24289141319883L40,99.8181534924475L40.29107713165379,100L44,102.28652722641164L47.0172115731493,104L48,104.58323510420703L52,106.8623643897266L54.127459103601325,108L56,109.02873201864921L60,110.99810342499023L62.22786360861602,112L64,112.8256458468943L68,114.55881440833727L71.67637887632213,116L72,116.13089061639164L76,117.80485750274335L80,119.13827902328481L83.01660271151883,120L84,120.31052147928753L88,121.58076203135576L92,122.8476584331724L95.61992128006926,124L96,124.13754058314976L100,125.6196096032975L104,127.1486250604901L106.12359702432553,128L108,128.83640895423636L112,130.71246429108734L114.59702939115562,132L116,132.78090459502135L120,135.15255380605382L121.34432698919548,136L124,137.8269617336681L127.06447388405203,140L128,140.70421331000645L132,143.7443558309174L132.37693110571865,144L136,146.4631689494727L138.4610478184371,148L140,148.96970380390962L144,151.28921118014057L145.6952966772678,152L148,152.95780616495244L152,154.18802816236888L156,155.0385619230479L160,155.5657933162396L164,155.80233166900027L168,155.76223047986934L172,155.4431143065181L176,154.82584786028863L180,153.871095159453L184,152.6788202837789L185.8170882387542,152L188,151.18047781617912L192,149.39566364017352L194.9808109397423,148L196,147.52291552873638L200,145.70452639575208L203.39908279344763,144L204,143.66011187957514L208,142.08997483344442L212,141.03992378845052L216,140.91660310411586L220,142.54021964194905L221.34357863131692,144L224,147.68523667826608L224.13745790638058,148L225.74106535139077,152L227.189927155948,156L228,158.2417539025367L228.5089895990688,160L229.73495061788202,164L231.1761049304912,168L232,169.87651050940121L232.8421796027327,172L234.83383899777164,176L236,177.86162922633747L237.28636028183269,180L240,183.71557780884353L240.22609950796794,184L244,187.97547144572633L244.02516222156845,188L248,191.53852506403985L248.58894972930295,192L252,194.70868176568308L253.8249894789211,196L256,197.55898002319583L260,199.9217734107359L260.1495205724731,200L264,202.12427341238953L267.80685395957374,204L268,204.10220033877386L272,206.08559644882644L276,207.9952316840587L276.01024350821837,208L280,210.06638349105765L283.60551607123193,212L284,212.23728861681855L288,214.74014898738812L290.84384117122653,216L292,216.57721379239166L296,218.0293437787982L300,218.9665766909281L304,219.4625552855378L308,219.32262626906123L312,218.74620544103033L316,217.28296770803587ZM414.5948412295306,320L416,319.43775036547163L420,317.35669379370614L422.0586114668598,316L424,314.75388628206116L428,312.50273222938523L429.0091618009252,312L432,310.53513391356495L436,308.7200825376835L437.7371863537129,308L440,307.05094054688135L444,305.4601458585061L447.65548394627285,304L448,303.86352966058536L452,302.310447049746L456,301.2597353503015L460,300.00302569472024L460.0075463905148,300L464,297.1805877564863L465.06027250805903,296L466.51246852987424,292L466.62543511125466,288L466.06092878672064,284L464.9673461079615,280L464.4764000018462,276L464.3230336394479,272L464.40794614780884,268L464.6776342824729,264L465.10294113312364,260L465.8013476513604,256L466.11726414337636,252L466.09997263117145,248L465.7624796380503,244L464.9751927783825,240L464.01740399143625,236L464,235.93794433997095L462.8132217418457,232L461.31600860353274,228L460,225.12785703725694L459.4164527900425,224L456.88830858412086,220L456,218.94238791585178L452.9807325124211,216L452,215.22572167654505L448,212.7101320361142L446.40915890908366,212L444,211.06279508039802L440,210.0025957137185L436,209.37439624944972L432,209.1041430689416L428,209.14200990757502L424,209.32748979113654L420,210.02225338523414L416,211.34004818125584L414.1121271046776,212L412,212.71814852267505L408,214.1743846383207L404,215.85013755524665L403.6389406954908,216L400,217.47248733431064L396,219.14280273139622L394.04003801366815,220L392,221.00985582297608L388,223.1828547448676L386.51834101637314,224L384,225.65156103218106L380.6215186400887,228L380,228.48418384838624L376,231.81496975530388L375.79259745757656,232L372.14981610986183,236L372,236.20649855024226L369.4938098506232,240L368,243.1574538897268L367.6700700459378,244L366.7120751585953,248L366.22858166052106,252L365.8988818313014,256L365.7500338480511,260L365.7464616682463,264L365.8767955230121,268L366.1374181959801,272L366.53298510232526,276L367.07654532919685,280L367.4235907094323,284L367.56654988825306,288L368,291.23355061513547L368.11518565158985,292L368.9619790919312,296L370.1251690460161,300L371.6942665565291,304L372,304.7351767525367L373.6142162346713,308L375.9885186938394,312L376,312.0168287287359L379.4162396291194,316L380,316.5881550708692L384,319.64664617452L384.6442362249327,320L388,321.64994780513706L392,322.90581359910203L396,323.37569748434885L400,323.3584037982345L404,322.9574631262533L408,322.1837381327094L412,321.02372526585225Z"/></g><g><path fill="rgb(195, 198, 177)" stroke="rgb(147, 149, 130)" stroke-opacity="0.3" d="M184.71724514604563,144L188,142.496973735942L192,140.20693683417946L192.35136046409104,140L196,137.67502064655937L198.45738557018728,136L200,134.84726605975092L203.39681579977355,132L204,131.43646745852283L207.93720847271538,128L208,127.94011923382484L212,124.25077090679855L212.28580982901929,124L216,120.25850233152428L216.25975631536238,120L219.82930767491217,116L220,115.770115512601L222.76083282724989,112L224,109.91010864186524L225.1074952193478,108L227.11852507813012,104L228,101.94553469907518L228.8133864373844,100L230.05987230627318,96L230.87651957857798,92L231.4082488894545,88L231.72408284620076,84L231.89719662341815,80L231.94893582217065,76L231.8902986399956,72L231.71500622648347,68L231.27282616283054,64L230.49612938531266,60L229.2852328911414,56L228,52.84446225037988L227.64989042777466,52L225.53407827044987,48L224,45.720837447379495L222.80175981063314,44L220,40.657324845328645L219.42628984418263,40L216,36.49137685344459L215.51748013805798,36L212,32.578872806090644L211.32169028161985,32L208,29.28575889206084L206.10050411114474,28L204,26.617905603850886L200,24.50977776491814L198.81688761421185,24L196,22.81285956545554L192,21.4199590498999L188,20.056803655120987L187.8309771763773,20L184,18.715403566993842L180,17.319267183136873L176.62709538322895,16L176,15.75633091797414L172,14.02055052077526L168,12.149505981720537L167.7067323122721,12L164,10.113148951712603L160,8.003169330830161L159.99433763557397,8L156,5.711988648040318L152.91720331184726,4L152,3.4798280786900477L148,0.9806445530889647L146.48586321315338,0L144,-1.654821482602685L140.47337863646558,-4L140,-4.3115961819650295L136,-6.92261516484804L134.19829960865528,-8L132,-9.293723558426379L128,-11.281121577745424L126.31475640094666,-12L124,-12.987498522865025L120,-14.475911829612798L116,-15.68507781232789L114.79410132890365,-16L112,-16.795599694031765L108,-17.769790667156272L104,-18.598147150422236L100,-19.305574796012934L96,-19.910820242709136L95.38853114177593,-20L92,-20.540224050039697L88,-20.910091646800623L84,-21.03965336224988L80,-20.92911865052939L76,-20.59568522502481L72,-20.09446014205288L71.34556927965141,-20L68,-19.536139440922256L64,-18.882950426515904L60,-18.095917773790973L56,-17.215923224024266L52,-16.132952390258055L51.57949450327402,-16L48,-14.878826899099522L44,-13.343864610430174L41.10858935684371,-12L40,-11.472525371195175L36,-9.227934655892469L34.22023312210578,-8L32,-6.418101747096543L28.72530834042709,-4L28,-3.4100174172947533L24,-0.05318712773929235L23.9374795439183,0L20,3.8351421695351604L19.83498534358705,4L16.351648244743828,8L16,8.473532331937946L13.417528052809004,12L12,14.281985144005901L10.994996054906537,16L8.988328013806907,20L8,22.315130846509632L7.314273728659032,24L5.9884321424040365,28L4.915607590967255,32L4.248718352683497,36L4.011601720286151,40L4.143788484387883,44L4.6497235712384395,48L5.563959074193917,52L6.954060017905036,56L8,58.469179417480206L8.684236169659442,60L10.755209821117845,64L12,66.05244329360795L13.268014332431619,68L16,71.57835556350747L16.313320077498673,72L19.759683852483732,76L20,76.24166094568278L23.778819802157955,80L24,80.19004323088089L28,83.57340261571545L28.517799382415234,84L32,86.67037604563586L33.73773908237055,88L36,89.59765184244819L39.405287754315964,92L40,92.41197150372065L44,95.08896830564433L45.42893978447867,96L48,97.6443045834713L51.93920903559976,100L52,100.03576133382455L56,102.33405282177333L59.32285996354841,104L60,104.35829084666557L64,106.35858734386105L67.61546377260919,108L68,108.17984479362053L72,109.9751673255627L76,111.71173336323898L76.80280907603893,112L80,113.19620342939686L84,114.46305373506937L88,115.65156809085465L89.18313061064174,116L92,116.87900785924165L96,118.0984853741625L100,119.28488164053161L102.36479502105317,120L104,120.56099434768126L108,121.97938481260894L112,123.46524716484677L113.36274876085807,124L116,125.1777527792583L120,127.12182522426443L121.65887622622355,128L124,129.35579781484716L128,131.84379875157734L128.2318153441265,132L132,134.7062820756882L133.96458401536293,136L136,137.39326721703193L139.88819699765344,140L140,140.0752228382797L144,142.66130027893269L146.77709265507656,144L148,144.57030873575945L152,145.98192104014035L156,146.95928776114093L160,147.5665570240949L164,147.8406861517061L168,147.79868444811623L172,147.4401942542615L176,146.74752997765157L180,145.6802195013677L184,144.30807496991397ZM302.84047670133646,200L304,199.3272991162583L307.3858663316115,196L308,195.22154901920305L309.9123279261961,192L311.3456988312759,188L312,186.2140468223139L312.6666794872954,184L313.59392131083763,180L314.2907807419964,176L314.66250150482324,172L314.7889761083084,168L314.712841614423,164L314.45411334773627,160L314.0168564243361,156L313.39023262407625,152L312.5519406359481,148L312,145.94785625484L311.4622380241696,144L310.06228109536164,140L308.2607149140949,136L308,135.52866818119682L305.9061280925177,132L304,129.48453237366067L302.6627011744826,128L300,125.62750680117117L297.81530694606823,124L296,122.75835030552383L292,120.67383324027281L290.2789742691774,120L288,119.14580833325229L284,118.038652059638L280,117.27205124952059L276,116.8015538868645L272,116.61120998703964L268,116.70880017898986L264,117.08861237888419L260,117.80203230866738L256,118.78866205280215L252.83308519183214,120L252,120.36004945503939L248,122.49093281841164L245.69273701513492,124L244,125.34962491305927L241.1445414701803,128L240,129.50523622268668L238.36450604126497,132L236.98865582377385,136L236.31532392541794,140L236.06367723407726,144L236.10581815710032,148L236.36592611851125,152L236.82803681748095,156L237.49323092973407,160L238.37535639651304,164L239.58397924822935,168L240,169.04311983578276L241.21582422896648,172L243.40135904534964,176L244,176.85949270653856L246.3019385428085,180L248,181.9408106394714L250.03461562607447,184L252,185.7061447796629L255.00564288674167,188L256,188.72086405206193L260,191.06436714190193L261.8997649221027,192L264,193.09482268765476L268,194.86931055762903L270.94272152934894,196L272,196.4390130341709L276,197.90786168352457L280,199.2533414592217L282.3943214443992,200L284,200.56437051464872L288,201.9011577335375L292,202.49580057001344L296,202.42319207357951L300,201.39832197241986ZM415.86680998350397,304L416,303.95872462786116L420,302.24710830946765L423.99597186879953,300L424,299.9974663430568L428,297.5398266034777L430.5999257800728,296L432,295.0333476053789L436,292.1721318165364L436.23041440490863,292L440,288.4976054260117L440.4855045759007,288L443.33272196193127,284L444,282.7613517875105L445.2967173163754,280L446.9892695985278,276L448,273.13030486498013L448.35054797625924,272L449.4674960347252,268L450.46872660394183,264L451.4102267924169,260L452,257.7910213262739L452.49475848598956,256L453.04195679097165,252L453.05720416717145,248L452.5276419543063,244L452,242.38180729226195L451.1780832529422,240L449.4155025007783,236L448,233.46211545188027L446.9908996165036,232L444,228.51799806370462L443.41889363934126,228L440,225.43300151108485L437.2893883457018,224L436,223.4254951380126L432,222.2178711253557L428,221.54185891990676L424,221.08927641770526L420,221.41505330648198L416,222.56537740487977L412,223.8714704866149L411.6584375400892,224L408,225.48774890936244L404,227.46817365842008L402.9887703055789,228L400,229.62993427023326L396.0818373331513,232L396,232.05326940244117L392,234.98975878735115L390.81665173459623,236L388,238.71727212417073L386.7441023172271,240L384,243.25332732775001L383.41134760516394,244L381.1915459076807,248L380,251.12738125120848L379.6850393293135,252L378.6531654107103,256L378.0306471729156,260L377.70656029614565,264L377.66973356595906,268L377.9139936455013,272L378.44954632102,276L379.3042853121482,280L379.96985983327227,284L380,284.26583284622455L380.4684001624774,288L381.7533265637774,292L383.649417528575,296L384,296.556278625205L386.66238489601074,300L388,301.29199134366013L391.7541497170305,304L392,304.16940210204615L396,305.79286706704085L400,306.55034538275066L404,306.6784798387536L408,306.26763638149185L412,305.35863274807474Z"/></g><g><path fill="rgb(189, 187, 167)" stroke="rgb(141, 139, 120)" stroke-opacity="0.3" d="M172.12611929395376,140L176,139.17449042409828L180,137.86507782211058L184,136.1572207391696L184.2943314787439,136L188,133.90969942922177L190.70664158717108,132L192,131.03553718602146L195.82568503930645,128L196,127.85829134816606L200,124.30800323121323L200.30808070573022,124L204,120.11926910274141L204.11560616720703,120L207.8903492800344,116L208,115.86821657531627L211.1889211912922,112L212,110.87934096616127L214.11707518200882,108L216,105.09727583171036L216.71780413578858,104L219.0344816624501,100L220,97.89860809554023L220.87248019875142,96L222.24061355283993,92L223.20436743908675,88L223.83672121090086,84L224,82.44306033074056L224.260166378522,80L224.48724341347224,76L224.52925723529228,72L224.37148025153675,68L224,65.11024786033974L223.85974549070534,64L222.95310701737725,60L221.5138281262416,56L220,52.81579027908808L219.6047079742853,52L217.17056656970834,48L216,46.44939159234963L214.16243140572016,44L212,41.56218719601878L210.46968892373326,40L208,37.75198260719381L205.7140029172641,36L204,34.73029123043253L200,32.34174763759381L199.301050177683,32L196,30.404847506553338L192,28.841384316499756L189.78475713131957,28L188,27.31889133991909L184,25.86803697587159L180,24.362839012145386L179.14785702767267,24L176,22.66621827267997L172,20.808739159202148L170.4166400872681,20L168,18.780598773463893L164,16.62104681237888L162.92137643399968,16L160,14.351090140939107L156,12.016710120838638L155.9720491623039,12L152,9.661724712273681L149.45349004612117,8L148,7.056028902241124L144,4.34147596470612L143.51895084208633,4L140,1.5368109929073483L137.7609317194013,0L136,-1.2209672958926205L132,-3.7954978415784666L131.63540917087747,-4L128,-6.020289155660279L124,-7.877194639980871L123.70448946240577,-8L120,-9.545192872951006L116,-10.900506403621051L112.12123694462437,-12L112,-12.03508227964322L108,-13.043068366213348L104,-13.892625942471653L100,-14.610005581016068L96,-15.214693480266277L92,-15.77749076565155L89.06916955062488,-16L88,-16.090301812995733L84,-16.16637730486343L80.51077871724203,-16L80,-15.977371402791164L76,-15.570017281349237L72,-14.974709115900652L68,-14.275429177748393L64,-13.457720129611303L60,-12.483140038905702L58.163536074048636,-12L56,-11.428370760926569L52,-10.166835762563892L48,-8.634119031942703L46.58229219039245,-8L44,-6.8225587652469954L40,-4.649529097233113L38.96752549914868,-4L36,-1.9632950507802462L33.611001998346055,0L32,1.4892444602041195L29.332012134533286,4L28,5.4311308451084415L25.64884046798025,8L24,10.115939995705219L22.532126250545232,12L20,15.818778550745535L19.879213516213568,16L17.54282246620997,20L16,23.142288093872892L15.57251486611834,24L13.963539772595055,28L12.679088107993138,32L12,35.45358423585208L11.894484670018684,36L11.642183929154058,40L11.832606193541665,44L12,45.04148922258423L12.487657297823105,48L13.644457986338097,52L15.38082059666506,56L16,57.18615808421197L17.408487579959825,60L19.76488264181279,64L20,64.34895124018439L22.423979687668492,68L24,70.04597968084443L25.49533881451441,72L28,74.82090461962363L29.053511886094213,76L32,78.85512214578483L33.163138955996885,80L36,82.42063588135923L37.84445613549309,84L40,85.72834605048729L43.002750218573766,88L44,88.70723276330546L48,91.43216662358583L48.86392107535647,92L52,94.03691894404574L55.19757376400949,96L56,96.49241576449256L60,98.7435852078251L62.42001404192794,100L64,100.80622602124578L68,102.7197921729385L70.88864918098051,104L72,104.52242470879892L76,106.40732092601846L80,107.90570306075017L80.29115375791147,108L84,109.25426421601742L88,110.49264213488601L92,111.67399537844094L93.15507974497379,112L96,112.85463897670485L100,113.99005366658807L104,115.12166246550666L107.05510583930351,116L108,116.29192198037887L112,117.55859809424021L116,118.8871663358818L119.03006468121148,120L120,120.40597906540609L124,122.24202974782321L127.45348463464197,124L128,124.31009536966963L132,126.80386522646793L134.0451675560987,128L136,129.2205036475382L140,131.81938640427046L140.27388794614177,132L144,134.5000163289321L146.82322270447008,136L148,136.61897761028268L152,138.25440919840463L156,139.41989786999454L159.11440636620983,140L160,140.16109749298784L164,140.49927335681946L168,140.45503467847445L172,140.02588748309842ZM296.9301338768399,188L300,185.46746867711664L301.29125372484333,184L303.9551412534307,180L304,179.9158278075177L305.6686333036333,176L306.72208493220046,172L307.31318478076145,168L307.5471852141268,164L307.4803184735393,160L307.13749279660055,156L306.52016901752927,152L305.60859318944097,148L304.35972969033645,144L304,143.1088335183198L302.58980464271355,140L300.2194695347793,136L300,135.7026322722225L296.87080951410337,132L296,131.1805254621164L292,128.29986563058577L291.44134965918346,128L288,126.41546595051875L284,125.11235641947508L280,124.2601697968754L277.7127167349502,124L276,123.80461676132316L272,123.72777760689274L268.5893518978949,124L268,124.04819836161548L264,124.78811096705078L260,126.05574687906841L256,127.85680531880399L255.7701674040656,128L252,130.88628870099924L250.81955724046537,132L248,135.89643097592554L247.93435788632428,136L246.14893302004663,140L245.08578516520538,144L244.53397460897753,148L244.38138519090086,152L244.57443194650392,156L245.09719913540408,160L245.9667224392502,164L247.28081340063943,168L248,169.57825925200325L249.20145055901025,172L251.88112887219006,176L252,176.13944664256775L255.70154267690447,180L256,180.26899158552158L260,183.10523669247243L261.57007562970097,184L264,185.25347939273286L268,186.89600117377012L271.38995915420713,188L272,188.2071310000249L276,189.2717057446768L280,190.08973932830492L284,190.6681752542636L288,190.98430475835818L292,190.40151266634632L296,188.70917271466948ZM417.0398708924876,288L420,285.94771967917757L421.95268966244896,284L424,281.96381607252823L425.69604319652365,280L428,277.28538722658095L429.0737100753249,276L431.8736180138483,272L432,271.78606891781084L434.03821257989273,268L435.84905380799376,264L436,263.6075689424655L437.26739893112256,260L438.6556706113629,256L439.15518390169314,252L438.68916994910285,248L437.0882094628862,244L436,242.6745541700298L433.12211280712063,240L432,239.13509079606803L428,236.92317465388487L425.9393047019414,236L424,235.25018495272786L420,234.90322667740253L416,235.77519426668567L415.286389191046,236L412,237.06123323747948L408,238.7487880583417L405.7440958922046,240L404,241.00937217020208L400,243.70201656207996L399.62109968937705,244L396,247.9108506990524L395.9297414704469,248L393.5835465189382,252L392,255.93673358125596L391.9783855227554,256L391.1823990301111,260L390.7800768958365,264L390.8033998722094,268L391.27326369683277,272L392,275.0413803454995L392.300682571597,276L394.28812434339403,280L396,283.4071825308053L396.43840935640924,284L399.48615051863584,288L400,288.38497298345914L404,290.0491379568074L408,290.506318706607L412,289.97007675270584L416,288.5803931641082Z"/></g><g><path fill="rgb(182, 177, 158)" stroke="rgb(134, 130, 112)" stroke-opacity="1" d="M173.18766198984332,132L176,131.29032560347406L180,129.76810103606658L183.5594712106299,128L184,127.7790223658809L188,125.27018754842072L189.61952831354142,124L192,122.10764865166112L194.49440541542674,120L196,118.7652486774137L199.00173452237493,116L200,114.98741979234299L202.59211722179288,112L204,110.21622426978064L205.71164062225228,108L208,104.72701740704491L208.50287460686474,104L210.99007709349746,100L212,98.03219358759313L213.0587438398955,96L214.65418266333086,92L215.8176754567889,88L216,87.0820222191129L216.63151619762846,84L217.18867151521772,80L217.50539535134465,76L217.5972953877154,72L217.4362894057747,68L216.85264067640406,64L216,60.76815268141874L215.8029620129069,60L214.2029655371539,56L212.11492235393428,52L212,51.81951104692564L209.3803339678053,48L208,46.3628885953477L205.6939250799394,44L204,42.50956264219536L200.4846930988361,40L200,39.68668483896903L196,37.55983941603478L192.3029493961496,36L192,35.872214100027165L188,34.243259406607535L184,32.7525928540031L182.0944604154413,32L180,31.169202041149788L176,29.37981877669543L173.23366907270457,28L172,27.396059990038665L168,25.239372644758262L165.86355931732186,24L164,22.93465149875918L160,20.512510089309643L159.19905413661985,20L156,17.997153197128654L152.82665440674882,16L152,15.493084448437756L148,12.724333887395147L147.02164765564788,12L144,9.827002049308518L141.56705128593873,8L140,6.8599421426047655L136.05029871165752,4L136,3.9643908562638757L132,1.2200899331863724L129.91068859256964,0L128,-1.126220692664205L124,-3.1595377508799203L122.11276976359551,-4L120,-4.9428507995453685L116,-6.420331298609369L112,-7.649752335927133L110.65922829670382,-8L108,-8.712265394582161L104,-9.614656600661988L100,-10.36548917249543L96,-10.985520274185305L92,-11.542425087022536L88,-11.810992071853988L84,-11.818913135958113L80,-11.553905331387597L76,-11.023510946018447L72,-10.272890692638384L68,-9.405673220522786L64,-8.405971761999638L62.57631723022456,-8L60,-7.260773511302517L56,-6.024310094851444L52,-4.532087882769602L50.7649909285328,-4L48,-2.738146661350129L44,-0.5637373222507307L43.09881798925241,0L40,2.135112877570677L37.693203244394454,4L36,5.550407618318587L33.67671370330325,8L32,10.077866792339663L30.439994464380092,12L28,15.514122827532162L27.661317885660935,16L25.226496490057855,20L24,22.371643303061973L23.139627476645927,24L21.481222091380886,28L20.186731478061517,32L20,32.95267308606077L19.37032797384481,36L19.124408440881595,40L19.349512323825167,44L20,47.5690058670655L20.074545427835062,48L21.250906955092915,52L22.985428516279228,56L24,57.93290572303522L25.051938739036174,60L27.447834224066625,64L28,64.79586253095229L30.20323402633963,68L32,70.26753997658003L33.32517988285964,72L36,75.01749409838251L36.8506770529861,76L40,79.15140783822821L40.88686350302157,80L44,82.59790501011261L45.76966788002986,84L48,85.67510687412843L51.268944449160244,88L52,88.49607051741762L56,91.13019867552825L57.452589192459556,92L60,93.51268185554278L64,95.72034240660616L64.53122159164496,96L68,97.82256048236184L72,99.75841289131361L72.49854611161061,100L76,101.67353560908856L80,103.19908951350291L82.49285431777759,104L84,104.52213515653267L88,105.78706501757475L92,106.97078323353293L95.77158456684901,108L96,108.06623314716362L100,109.13104641711465L104,110.16622040254305L108,111.19555483957035L111.08675572143173,112L112,112.25683950008352L116,113.40056428002657L120,114.67778272078385L123.6569775392326,116L124,116.13240651548745L128,117.82308496724627L132,119.78212629679086L132.47617255934904,120L136,121.80960930442527L139.82399523120353,124L140,124.10825351896685L144,126.65566205435121L146.54340300770798,128L148,128.78631002220396L152,130.4966346734312L156,131.73846080442908L157.3038009760486,132L160,132.5367482980162L164,132.89435616094428L168,132.8153540516069L172,132.29105964607945ZM290.29204978465623,180L292,179.12568591982603L295.5205530690506,176L296,175.3813976288372L297.83443165620145,172L299.17499178277353,168L299.8827505932751,164L300,161.68585240438023L300.0764527548217,160L300,158.6844113631086L299.8356100060106,156L299.16137968493746,152L298.0428677224668,148L296.42682012392225,144L296,143.2071026917315L293.83939262338964,140L292,137.8962555518933L289.8134488808035,136L288,134.73655238308382L284,132.75590192896672L281.61053795497963,132L280,131.5768373741818L276,131.06709490620273L272,131.08360428886994L268,131.64886154155036L266.7621616860648,132L264,132.9910223229611L260,135.35623171251612L259.189749049526,136L256,139.46715909435002L255.6438679599147,140L253.7844119991159,144L252.68415261979914,148L252.18886490930436,152L252.2183666278401,156L252.74347531479998,160L253.7825498496215,164L255.4305318050013,168L256,168.9847408827797L258.22556922502486,172L260,173.82148506284727L262.6705814548196,176L264,176.87041067564616L268,178.85447126391745L271.1854854999742,180L272,180.2728072380217L276,181.1568395342053L280,181.60511673428692L284,181.58016006964328L288,180.97610839923266Z"/></g><g><path fill="rgb(175, 166, 148)" stroke="rgb(128, 119, 102)" stroke-opacity="0.3" d="M173.34289536977906,124L176,123.27344026151496L180,121.6616724255999L183.18301384591433,120L184,119.59128310596307L188,117.11319221360358L189.42473626593375,116L192,113.81337775851705L194.00687387376558,112L196,110.05538882392756L197.86738173130652,108L200,105.46926812047218L201.09590092573546,104L203.81198956718578,100L204,99.68179166217328L206.07003482839502,96L207.81790602571772,92L208,91.4556866148331L209.127546469994,88L210.004448040905,84L210.61324922997892,80L210.97056658453755,76L211.08460572559687,72L210.91122109635444,68L210.26108765919918,64L209.07746768159473,60L208,57.69361580283808L207.111611756201,56L204.4350294894715,52L204,51.46750046118299L200.54138683008085,48L200,47.54379498122324L196,44.80473108090433L194.5074582080577,44L192,42.78052650670176L188,40.971086149335775L185.57777222115607,40L184,39.40675002916993L180,37.82075889712098L176,36.01744952244161L175.9658824741432,36L172,33.970258002184394L168.5962394019466,32L168,31.661577505720345L164,29.15722686297029L162.29716082728967,28L160,26.53691545744485L156.19000245133637,24L156,23.876091060243454L152,21.189564323896704L150.41939874348907,20L148,18.231799953753168L145.13007203239886,16L144,15.150479938667871L140.02209827882598,12L140,11.983125409443332L136,8.837908926789368L134.90903610134467,8L132,5.8867465558160745L128.98644996776662,4L128,3.398834388765522L124,1.2568444214470418L121.30176597951689,0L120,-0.6166204307905474L116,-2.1971374072603993L112,-3.508181671010263L110.2156607002278,-4L108,-4.625008183133204L104,-5.5689277669066115L100,-6.343792190555931L96,-6.971267358495325L92,-7.51383093776532L88,-7.7425637304316695L84,-7.6889546052431115L80,-7.337051591181648L76,-6.692207454182707L72,-5.795986239779438L68,-4.771964532527747L65.31809754210767,-4L64,-3.610342964124442L60,-2.2635831973400258L56,-0.7872265078954115L54.177983944192846,0L52,1.0007833535180168L48,3.173737381118457L46.686998599097876,4L44,5.875537095213133L41.39076666902335,8L40,9.3227675523693L37.516671679264704,12L36,13.914710236238662L34.49950036375999,16L32.04961494576928,20L32,20.09283518599493L29.842184193152463,24L28.17625936006567,28L28,28.54135392993618L26.82645195806839,32L26.018838488785505,36L25.789597063236343,40L26.014230976962097,44L26.743281993145786,48L27.986761566553326,52L28,52.02994299287411L29.695019567061536,56L31.81015907187806,60L32,60.30955738692265L34.153063808674375,64L36,66.65709698439395L36.90466665444552,68L39.98762873311949,72L40,72.01414077986115L43.61654329628871,76L44,76.36810226397841L47.94378988066987,80L48,80.04533198401685L52,83.17366747499113L53.104855119477776,84L56,86.06026615787886L59.03523125736825,88L60,88.59830707454088L64,90.96658036935375L65.86028463196797,92L68,93.17856506665592L72,95.25332325003086L73.46204225677295,96L76,97.2936984766917L80,98.9353489607378L83.11851059364935,100L84,100.30199254878218L88,101.53376818252113L92,102.66543399719322L96,103.6792567185461L97.4446375820076,104L100,104.62894677823749L104,105.556267044126L108,106.44887446727952L112,107.32763241539885L115.0595784578847,108L116,108.22441847808292L120,109.26261007476197L124,110.44750014484706L128,111.82357528779215L128.44199409506433,112L132,113.51267446341564L136,115.14369231311119L137.77097027896724,116L140,117.10179868495209L144,119.26831843164936L145.56337092085778,120L148,121.22667590715108L152,122.84597370136095L155.90874766939837,124L156,124.02762441272611L160,124.79722509866605L164,125.11599138305883L168,124.97622333137673L172,124.36581201578394ZM286.8854920059108,168L288,166.760576440489L289.43030697879414,164L290.34871407870435,160L290.29987104775597,156L289.3870600460211,152L288,148.85652308926592L287.47346250891064,148L284,144.2389028122146L283.6517191774997,144L280,142.1522082274678L276,141.2776610769236L272,141.5700197068957L268,143.13960948933249L266.83272108608554,144L264,147.18265861691052L263.52430754645854,148L262.28549554148736,152L262.0650323371942,156L262.7902242774567,160L264,162.8946575317074L264.6367899587639,164L268,167.65970546657996L268.4730845873771,168L272,169.85506043523304L276,170.96919740729277L280,171.05419350089426L284,169.9263404536003Z"/></g><g><path fill="rgb(168, 155, 139)" stroke="rgb(121, 109, 94)" stroke-opacity="0.3" d="M174.43990152769055,116L176,115.53057100386786L180,113.80478130859021L183.2696797329836,112L184,111.5622971426908L188,108.65364485272875L188.70998217630006,108L192,104.75369752045754L192.72171119702938,104L196,100.27999785822306L196.21723013761942,100L198.92069097442243,96L200,94.02121761473907L200.9716348823477,92L202.44759450615953,88L203.44091236672784,84L204,80.79334174521131L204.12755578164888,80L204.48771945512385,76L204.56593877340578,72L204.29656393445725,68L204,66.57902766720798L203.37260490780636,64L201.6528915724022,60L200,57.565082776422145L198.67747392008084,56L196,53.40592022356432L194.11758080047497,52L192,50.64099245568721L188,48.344919685479965L187.27444899827526,48L184,46.58594669848284L180,44.78327778942395L178.4612724778999,44L176,42.82835063143196L172,40.6518398051785L170.96452038889055,40L168,38.275568055802296L164.55800458235512,36L164,35.638178598449244L160,32.77219171091144L159.01596658431959,32L156,29.769997244979123L153.72298402890826,28L152,26.791547711006316L148.4409580981273,24L148,23.663840655365803L144,20.400180710470494L143.54099744605165,20L140,17.022201151460123L138.822411294741,16L136,13.657054796763134L133.9842732178115,12L132,10.450281436137203L128.42471883217422,8L128,7.725031847523425L124,5.420991475115287L121.17113292500176,4L120,3.4241297644144595L116,1.7826463939366164L112,0.42222750673845155L110.51788344101058,0L108,-0.7426977471632199L104,-1.7186728157435311L100,-2.5102237403691134L96,-3.1396960640642106L92,-3.6629597531777023L88,-3.849617785545746L84,-3.734011794752064L80,-3.2950215650685664L76,-2.5330604712667366L72,-1.480922742850666L68,-0.2807421981081859L67.14777324601485,0L64,1.0709323923357488L60,2.6627206517668753L56.91309291679735,4L56,4.426346358210793L52,6.604989330726369L49.818020117809596,8L48,9.341490399102838L44.86868894173688,12L44,12.849726180096383L41.13589682457402,16L40,17.46173704616686L38.212745026288474,20L36,23.741968076448373L35.856336048921406,24L34.12252856277232,28L32.82304387062176,32L32.06137883820686,36L32,37.18530110578337L31.841462888260708,40L32,42.69055778494925L32.07094216618354,44L32.77281118378771,48L33.95377645858164,52L35.666348347102726,56L36,56.64509452942917L37.66367648978027,60L40,63.915467860185714L40.05136971692525,64L42.88744804826936,68L44,69.3815703655134L46.165732939579726,72L48,73.93587740509844L50.016142142813976,76L52,77.7809847248526L54.56147150687454,80L56,81.09706565229448L60,83.87323148533537L60.18909806751509,84L64,86.42641149577062L66.67452699118468,88L68,88.7656749664969L72,90.96830461501713L73.92151366520321,92L76,93.10882489410932L80,94.83528714846247L83.26083335405528,96L84,96.26737979530895L88,97.54436434249251L92,98.6941780831022L96,99.69191242559617L97.47933167483657,100L100,100.54602487343041L104,101.33051379992335L108,102.05241520811691L112,102.72689953913232L116,103.36833061430798L119.55274395146901,104L120,104.08978779378148L124,104.96440491630935L128,105.989491742365L132,107.28899678654903L134.34483097380038,108L136,108.53779776703578L140,110.21214539042796L143.5281681439517,112L144,112.2430211767525L148,114.06884034672106L152,115.57953555380814L153.54066545325915,116L156,116.63993659368447L160,117.28965908534929L164,117.52050104715624L168,117.31816127468977L172,116.67053621198073Z"/></g><g><path fill="rgb(161, 145, 129)" stroke="rgb(114, 99, 85)" stroke-opacity="0.3" d="M172.73093364928906,108L176,106.77777137504441L180,104.71566073881431L181.11052575188103,104L184,101.94638884232L186.32238671583156,100L188,98.40776323185881L189.9651090041421,96L192,92.94375516441303L192.58863723229138,92L194.49274101188763,88L195.71893843749143,84L196,82.6132496279258L196.45059321585768,80L196.76875299870602,76L196.69836894497763,72L196.12006069214442,68L196,67.65570289438378L194.3718492267388,64L192,60.802874192237596L191.31411769621155,60L188,57.37215587806864L185.74648889457848,56L184,55.06355422945336L180,52.92003753801842L178.4224319026997,52L176,50.70301552790741L172,48.277189459279725L171.60544909356128,48L168,45.6275185375209L165.87736691407775,44L164,42.66524411113102L160.7126135937466,40L160,39.47507100042429L156,36.188786128028795L155.79067577112917,36L152,32.796270691478796L151.18980807095124,32L148,29.141918694238043L146.82942034152614,28L144,25.595237575453694L142.2453841715631,24L140,22.030783114417304L137.77010641997563,20L136,18.452933017034184L133.19764770610857,16L132,15.004436505825566L128,12.056826550895082L127.91420410343926,12L124,9.527952321915762L121.26097789329609,8L120,7.337643064046887L116,5.587620033045326L112,4.139110213377435L111.5410667523864,4L108,2.92950331922718L104,1.9435616778761045L100,1.152897747935853L96,0.5356065797234493L92,0.0445992915657456L90.68162274807662,0L88,-0.0962600157301381L85.94908885082305,0L84,0.08957126098552237L80,0.6168103507184384L76,1.4964017624383814L72,2.7094949231100713L68.26924132384195,4L68,4.098365263809811L64,5.701490687827146L60,7.603265986383576L59.20697838783835,8L56,9.82972935525757L52.79004079154748,12L52,12.606672171196251L48.124897901238796,16L48,16.125946199297303L44.55900829861568,20L44,20.736369072687964L41.7417745967978,24L40,27.41780011152295L39.7232063999501,28L38.28826800639669,32L37.46007375014773,36L37.23287360470914,40L37.443057123792386,44L38.160204346416634,48L39.35311459269849,52L40,53.5296553350546L41.05039129833435,56L43.13517496409281,60L44,61.39130520813205L45.64592014270772,64L48,67.13722844745757L48.660765818324705,68L52,71.87096227641288L52.11367948043957,72L56,75.86633600694154L56.14481404573198,76L60,79.1327789890052L61.11232620355412,80L64,81.98517299711449L67.12985858585859,84L68,84.5310967863272L72,86.86133781987263L74.02817335244029,88L76,89.10012706929837L80,90.90536165488183L82.93728225964318,92L84,92.39972446266609L88,93.70397313561483L92,94.8579005122684L96,95.82880425282696L96.88966878126311,96L100,96.6275698094833L104,97.3227720790297L108,97.92061209493119L112,98.42985043661679L116,98.85519854650352L120,99.30477933302018L124,99.80182032100825L125.4196217864924,100L128,100.39455405249575L132,101.19791868632794L136,101.89636663964049L140,103.06950674091539L142.35180652169322,104L144,104.7011473840544L148,106.34470138577856L152,107.7591230768922L152.9561954189713,108L156,108.73933653781003L160,109.32327320452754L164,109.45463736978107L168,109.10114515260489L172,108.24666967108303Z"/></g><g><path fill="rgb(154, 134, 119)" stroke="rgb(107, 89, 75)" stroke-opacity="0.3" d="M174.51729607140243,96L176,95.06587175203089L179.717694532549,92L180,91.68072395901919L182.7161055397484,88L184,84.8709268662372L184.31350611086862,84L185.11848842224862,80L185.26212792601524,76L184.69001138310216,72L184,70.15675333110278L183.12279278269642,68L180,64.07760698198197L179.9387137679002,64L176,60.562029871435016L175.40261386196966,60L172,57.67846883026152L169.87500967216454,56L168,54.62668676958927L164.92762668483817,52L164,51.25785374406303L160.49617246830246,48L160,47.56743048995432L156.43918052794638,44L156,43.6008779729612L152.45592959384294,40L152,39.589477286511965L148.62834002896466,36L148,35.38245602108621L144.8925994016801,32L144,31.128892250761865L141.0693410843329,28L140,27.024350072489966L136.8304724864205,24L136,23.240587619872116L132.49662373704524,20L132,19.56229207561833L128,16.401227590299257L127.43382432475059,16L124,13.678028409625256L121.21571892344073,12L120,11.300438194051026L116,9.374332966611604L112.58326548976109,8L112,7.778123525743567L108,6.507687496894519L104,5.4832109855341855L100,4.672388247014524L96,4.053220507586673L95.54043604671429,4L92,3.5818022165542374L88,3.4994994786061255L84,3.7645762417461555L82.50883655894165,4L80,4.406566859009828L76,5.438380180549856L72,6.8562199060623215L69.13753535314495,8L68,8.511750413235717L64,10.506150217669116L61.408850629261394,12L60,12.911150313203777L56,15.669194788477839L55.57834272742059,16L52,19.209308863031637L51.21537789526687,20L48,23.76043091248701L47.81429085384556,24L45.427697732535734,28L44,31.36250463492064L43.74380759068623,32L42.774014241094335,36L42.467965023925075,40L42.63443179030139,44L43.35985224580574,48L44,50.09309335799483L44.5822300577407,52L46.32325560083453,56L48,59.1140753213833L48.47804365003279,60L51.09310096628255,64L52,65.16973377520381L54.233553102304654,68L56,69.99338270478347L57.9002189916757,72L60,73.94584829347903L62.28264530954311,76L64,77.35779533975523L67.53004066310308,80L68,80.31063945835041L72,82.86050641909983L73.84378892035195,84L76,85.25624262528723L80,87.1256308257978L82.27567053163168,88L84,88.67379437262724L88,90.00391076191042L92,91.1609914160004L95.55876830972429,92L96,92.10778227133952L100,92.84755961325513L104,93.4488474224122L108,93.920100256045L112,94.26322940158838L116,94.47279451490544L120,94.6526037923283L124,94.80757902616935L128,94.96886725905674L132,95.23937213610216L136,95.30079652497062L140,95.79288417844279L140.9583473696863,96L144,96.72291892509571L148,97.80405335817841L152,98.74878210279323L156,99.38436233183856L160,99.67180332512874L164,99.45776834167015L168,98.66119455789544L172,97.25018405762435Z"/></g><g><path fill="rgb(147, 123, 110)" stroke="rgb(101, 79, 67)" stroke-opacity="1" d="M151.34681617555393,88L152,87.95241564481262L156,87.19057144337145L160,85.71122907430902L162.69661482022843,84L164,82.5624446341078L165.7245690275983,80L166.87247150101138,76L166.92492503299928,72L166.047782650143,68L164.05411790403383,64L164,63.930732306196234L161.3751246397987,60L160,58.541315603992786L157.96205171810035,56L156,53.71173908391765L154.7466183931768,52L152,48.52656877450144L151.65997183747734,48L148.8148799616613,44L148,43.003735169972856L145.84807147813424,40L144,37.76761973878686L142.71539390688235,36L140,32.70220513039084L139.4688530778185,32L136,28.05690663727991L135.95221655838162,28L132,24.131122491111242L131.85162357919444,24L128,20.76909890724835L126.97749287108766,20L124,17.856789630451942L121.12332627409896,16L120,15.306774837499887L116,13.23725253602585L113.14953215584916,12L112,11.519855557582261L108,10.135258786205199L104,9.023055462108047L100,8.151502042700443L99.06922116419642,8L96,7.521132425990402L92,7.082215847385896L88,7.062202706934343L84,7.414861616589803L80.91231959835036,8L80,8.189164030252073L76,9.455417853163539L72,11.191119317942778L70.3168867690074,12L68,13.233834892928044L64,15.633876088148995L63.453287097025,16L60,18.607275484474286L58.26328206752024,20L56,22.069024302788847L54.14049497569903,24L52,26.92383299521586L51.27796683043138,28L49.3160000839992,32L48.153333792865766,36L48,37.431945189269754L47.73356543260803,40L47.82471893254447,44L48,44.98955365901915L48.52865662258003,48L49.749651905646544,52L51.51096061745784,56L52,56.89475272546423L53.69441936835733,60L56,63.41914919260057L56.411525241195875,64L59.816178741045206,68L60,68.19365465335389L63.680935647051285,72L64,72.28864485358719L68,75.75555220790133L68.29148477700187,76L72,78.73598701964619L73.7628465369458,80L76,81.41883082228688L80,83.46548158126811L81.25614701400744,84L84,85.10705678964794L88,86.44867344978238L92,87.59196488910493L93.81508261113402,88L96,88.5172803563421L100,89.1932341058633L104,89.7034759244535L108,90.05199324612832L112,90.23390352623969L116,90.2335484629237L120,90.1468531857671L124,89.95624185457936L128,89.67543296742431L132,89.37087769494968L136,88.69705667615472L140,88.30686205680416L144,88.19337502127902L148,88.18854055269006Z"/></g><g><path fill="rgb(140, 112, 101)" stroke="rgb(94, 69, 59)" stroke-opacity="0.3" d="M130.6332191009421,84L132,83.62662575445614L136,81.95629992511255L140,80.28341602090069L140.72794805409652,80L144,78.14267274311925L147.17855954168897,76L148,75.0693328730031L150.19235899766431,72L151.3609806002507,68L151.28898499179712,64L150.32797432907046,60L148.50654646026567,56L148,55.05535787113172L146.62805451588704,52L144.6125539331253,48L144,46.94247999892039L142.56361275906139,44L140.1692963135076,40L140,39.76540854877459L137.5527621675629,36L136,33.94809846576459L134.62164191805502,32L132,28.890761623911686L131.1822654848613,28L128,25.175117016159106L126.53587871130765,24L124,22.070348466356776L120.9795786378719,20L120,19.35611695106573L116,17.147955943580868L113.52652955927502,16L112,15.317309833727535L108,13.845981544190138L104,12.672217977551384L101.0409211455771,12L100,11.769370740443108L96,11.123701523670178L92,10.703789383465164L88,10.757984902692385L84,11.233958349699662L80.7431554401577,12L80,12.18813062114829L76,13.694065902422352L72,15.754822548332001L71.56200406677468,16L68,18.219908934738626L65.45195337304804,20L64,21.142029745854273L60.76503836407281,24L60,24.86355133237643L57.331118535045704,28L56,30.1901382984598L54.99618691449399,32L53.61114174466587,36L53.035017694409845,40L53.01374035208096,44L53.66666772262113,48L54.862543377663286,52L56,54.59469348843501L56.63378245735612,56L58.92458100426572,60L60,61.50310146489065L61.78115283804192,64L64,66.55689023330834L65.29811152317947,68L68,70.68383656101022L69.36331983521507,72L72,74.22865319793021L74.14176793385599,76L76,77.35343953648865L80,79.7144790028068L80.58115892979649,80L84,81.50487757774252L88,82.95870849242078L91.36759278981597,84L92,84.18636086673482L96,85.09316096295592L100,85.69927268777911L104,86.11512610591373L108,86.3414606825585L112,86.36757100559961L116,86.16832413651667L120,85.82627217095066L124,85.29808048001516L128,84.57369987285531Z"/></g><g><path fill="rgb(134, 102, 91)" stroke="rgb(88, 59, 50)" stroke-opacity="0.3" d="M125.32293409519829,80L128,78.94384324781672L132,76.91616025790177L133.3009657285965,76L136,73.34265201382306L137.3733983859028,72L139.93465262676068,68L140,67.81797829093784L141.364641687774,64L141.6652247767841,60L140.9999358218835,56L140,52.17771760316691L139.96154342922992,52L138.7208685868666,48L137.18256869585866,44L136,41.70862887843691L135.20802108580705,40L132.85551594321146,36L132,34.794133710655856L129.87110417469492,32L128,29.965449494558996L126.03445000642279,28L124,26.355256849025025L120.78987205061466,24L120,23.451029630648392L116,21.111454669494975L113.74197968720415,20L112,19.17196634256672L108,17.61888478302167L104,16.389656804921557L102.33707808207836,16L100,15.464854366121216L96,14.81840741958824L92,14.439756854054622L88,14.585202579627222L84,15.196124298099193L81.14158499390601,16L80,16.346927991102532L76,18.123353546001354L72.86758029200934,20L72,20.578354975755204L68,23.51033682598907L67.3884939236668,24L64,27.41915897863393L63.48072037443754,28L60.873081835675606,32L60,34.109616764801956L59.22376175112393,36L58.44155649660965,40L58.27598118164113,44L58.87822752798965,48L60,51.75003971068631L60.0719312356741,52L61.818797528343765,56L64,59.83498714748225L64.09517883880514,60L67.05681884678572,64L68,65.04450428154072L70.73304029112288,68L72,69.22479177984545L74.91714116860317,72L76,72.9025350748559L80,75.62689817134566L80.66072333368155,76L84,77.68018879765424L88,79.32819909768858L89.93838828899734,80L92,80.64868359959917L96,81.58493446218162L100,82.17314616022045L104,82.53260868610153L108,82.65471074137315L112,82.51615662112621L116,82.07371356465623L120,81.40058385231126L124,80.41364822941509Z"/></g><g><path fill="rgb(127, 91, 81)" stroke="rgb(81, 49, 41)" stroke-opacity="0.3" d="M121.13474594098994,76L124,74.64176098297867L128,72.09251517200389L128.12200277147048,72L131.87871424268988,68L132,67.80579802131038L133.8997684123696,64L134.8453555679656,60L134.863942536939,56L134.41808543070937,52L133.57568400494966,48L132.3654270207809,44L132,43.19316414363115L130.48264122389006,40L128.0132067068175,36L128,35.98269386876245L124.74255611187888,32L124,31.257481119857744L120.45866124942998,28L120,27.66054095029682L116,25.15544011805055L113.81996473033584,24L112,23.0869912520443L108,21.458365756671668L104,20.180505577359867L103.2450614557124,20L100,19.240171964944494L96,18.602441680679433L92,18.28060497629174L88,18.536394413199744L84,19.304054335992973L81.90313099664738,20L80,20.68551924225045L76,22.768715483461108L74.20793020926644,24L72,25.860389006959096L69.69141271406824,28L68,30.177935291921713L66.6738169211969,32L64.77185903600787,36L64,39.21014397917119L63.81945252716869,40L63.519532829789455,44L64,47.7463589415199L64.03241738209434,48L65.16625232003057,52L66.92213895467128,56L68,57.857703643631595L69.24397934661187,60L72,63.620412284465885L72.29045480408112,64L76,67.94264203927443L76.06553442678296,68L80,71.09537765881325L81.39574353711336,72L84,73.49406994285437L88,75.36411100298164L89.64088847969174,76L92,76.82526334378875L96,77.82690383391534L100,78.4038442502029L104,78.69311922265842L108,78.67673624852566L112,78.31667719773625L116,77.54670775202663L120,76.42689896952655Z"/></g><g><path fill="rgb(120, 80, 72)" stroke="rgb(75, 39, 33)" stroke-opacity="0.3" d="M116.87281673306774,72L120,70.40588863608238L123.35320765231546,68L124,67.37898601621322L126.81388889183583,64L128,61.53433614396718L128.62793643534926,60L129.17182518032914,56L129.07020848704923,52L128.4404970432138,48L128,46.43730840278559L127.2968908091772,44L125.37170168252939,40L124,37.88510293051456L122.70162395859137,36L120,32.9310222132699L119.04561943469818,32L116,29.610036135061492L113.59173146286872,28L112,27.147308044429806L108,25.4112820239812L104,24.051399783216027L103.79460233576978,24L100,23.101116858554192L96,22.483058802706708L92,22.236133029779452L88,22.624621879355317L84,23.574619398437704L82.90293901038643,24L80,25.325492558135153L76,27.981422290403927L75.97824342314811,28L72.55821127338072,32L72,32.983907122710264L70.37616234948175,36L69.21465428841591,40L68.7609145546661,44L69.19764070590747,48L70.2814800946561,52L72,55.96505499625866L72.01494767497755,56L74.33426643157952,60L76,62.1650668078193L77.70011827072997,64L80,66.01947648853272L82.73555000859548,68L84,68.82732565019134L88,70.95240486318116L90.41780132286516,72L92,72.61453388537109L96,73.67978774941469L100,74.22944006099988L104,74.41805338396128L108,74.21408564694755L112,73.55855743690728L116,72.35246439767016Z"/></g><g><path fill="rgb(113, 70, 63)" stroke="rgb(68, 30, 25)" stroke-opacity="1" d="M111.97676638399238,68L112,67.9924971445451L116,65.8966920572677L118.5789555113758,64L120,62.4270955903458L121.65953247003654,60L122.89591039435555,56L123.21850632792285,52L122.81226902785298,48L121.76937609674329,44L120,40.3914000559281L119.78061912650094,40L116.62710556830993,36L116,35.388234224152484L112,32.033987337526455L111.94983958821595,32L108,29.8628678753345L104,28.18724507516353L103.37377174382345,28L100,27.18534628286575L96,26.592049094301913L92,26.450605474564483L88,27.05100986905444L84.97091571419841,28L84,28.408397158258282L80,31.059159113740293L78.96901597433512,32L76,35.97700303336704L75.9864503905653,36L74.60243936595452,40L73.99005393220764,44L74.33552829171734,48L75.3570087769026,52L76,53.51384715107858L77.24775747987633,56L80,59.97380242336013L80.0217761866081,60L84,63.55208223495703L84.62539222043492,64L88,65.98109281644415L92,67.86611821926255L92.44071453044191,68L96,68.99835040239753L100,69.49250592530188L104,69.53107744887433L108,69.06176194401198Z"/></g><g><path fill="rgb(106, 59, 53)" stroke="rgb(61, 19, 15)" stroke-opacity="0.3" d="M101.34771852347481,64L104,63.83537126422061L108,62.746641363473316L112,60.590268436613655L112.71264304395837,60L115.36035977619306,56L116,53.714890163985785L116.37644016793996,52L116.28235910413105,48L116,46.84837624025752L115.21160218968697,44L112.6989499017611,40L112,39.227363016178L108.39248547799019,36L108,35.7353430197346L104,33.686710339018234L100,32.24866579804561L98.74642346922658,32L96,31.56691203888137L92,31.592439638762357L90.36748810622962,32L88,32.827003207067875L84,35.43133912815553L83.4173263187829,36L80.94893683361707,40L80,43.231410940618645L79.82482039870192,44L80,46.3593359609755L80.14636189760034,48L81.52965930896224,52L83.8957435692372,56L84,56.12555789644077L88,59.99062265310246L88.01235636505902,60L92,62.23428185557404L96,63.610876071211806L99.3463331890957,64L100,64.06302982509666Z"/></g></g><g id="labels"/><g id="axis"><g transform="translate(0,500)" fill="none" font-size="10" font-family="sans-serif" text-anchor="middle"><path class="domain" stroke="currentColor" d="M0,6V0H705V6"/><g class="tick" opacity="1" transform="translate(0,0)"><line stroke="currentColor" y2="6"/><text fill="currentColor" y="9" dy="0.71em">40</text></g><g class="tick" opacity="1" transform="translate(59,0)"><line stroke="currentColor" y2="6"/><text fill="currentColor" y="9" dy="0.71em">60</text></g><g class="tick" opacity="1" transform="translate(118,0)"><line stroke="currentColor" y2="6"/><text fill="currentColor" y="9" dy="0.71em">80</text></g><g class="tick" opacity="1" transform="translate(176,0)"><line stroke="currentColor" y2="6"/><text fill="currentColor" y="9" dy="0.71em">100</text></g><g class="tick" opacity="1" transform="translate(235,0)"><line stroke="currentColor" y2="6"/><text fill="currentColor" y="9" dy="0.71em">120</text></g><g class="tick" opacity="1" transform="translate(294,0)"><line stroke="currentColor" y2="6"/><text fill="currentColor" y="9" dy="0.71em">140</text></g><g class="tick" opacity="1" transform="translate(353,0)"><line stroke="currentColor" y2="6"/><text fill="currentColor" y="9" dy="0.71em">160</text></g><g class="tick" opacity="1" transform="translate(411,0)"><line stroke="currentColor" y2="6"/><text fill="currentColor" y="9" dy="0.71em">180</text></g><g class="tick" opacity="1" transform="translate(470,0)"><line stroke="currentColor" y2="6"/><text fill="currentColor" y="9" dy="0.71em">200</text></g><g class="tick" opacity="1" transform="translate(529,0)"><line stroke="currentColor" y2="6"/><text fill="currentColor" y="9" dy="0.71em">220</text></g><g class="tick" opacity="1" transform="translate(588,0)"><line stroke="currentColor" y2="6"/><text fill="currentColor" y="9" dy="0.71em">240</text></g><g class="tick" opacity="1" transform="translate(646,0)"><line stroke="currentColor" y2="6"/><text fill="currentColor" y="9" dy="0.71em">260</text></g><g class="tick" opacity="1" transform="translate(705,0)"><line stroke="currentColor" y2="6"/><text fill="currentColor" y="9" dy="0.71em">280</text></g><text x="705" dy="-5" text-anchor="end" style="font-family: Arial, sans-serif; font-size: 12px; fill: rgb(123, 123, 123); font-weight: bold;">low</text></g><g fill="none" font-size="10" font-family="sans-serif" text-anchor="end"><path class="domain" stroke="currentColor" d="M-6,500H0V0H-6"/><g class="tick" opacity="1" transform="translate(0,500)"><line stroke="currentColor" x2="-6"/><text fill="currentColor" x="-9" dy="0.32em">560</text></g><g class="tick" opacity="1" transform="translate(0,455)"><line stroke="currentColor" x2="-6"/><text fill="currentColor" x="-9" dy="0.32em">580</text></g><g class="tick" opacity="1" transform="translate(0,409)"><line stroke="currentColor" x2="-6"/><text fill="currentColor" x="-9" dy="0.32em">600</text></g><g class="tick" opacity="1" transform="translate(0,364)"><line stroke="currentColor" x2="-6"/><text fill="currentColor" x="-9" dy="0.32em">620</text></g><g class="tick" opacity="1" transform="translate(0,318)"><line stroke="currentColor" x2="-6"/><text fill="currentColor" x="-9" dy="0.32em">640</text></g><g class="tick" opacity="1" transform="translate(0,273)"><line stroke="currentColor" x2="-6"/><text fill="currentColor" x="-9" dy="0.32em">660</text></g><g class="tick" opacity="1" transform="translate(0,227)"><line stroke="currentColor" x2="-6"/><text fill="currentColor" x="-9" dy="0.32em">680</text></g><g class="tick" opacity="1" transform="translate(0,182)"><line stroke="currentColor" x2="-6"/><text fill="currentColor" x="-9" dy="0.32em">700</text></g><g class="tick" opacity="1" transform="translate(0,136)"><line stroke="currentColor" x2="-6"/><text fill="currentColor" x="-9" dy="0.32em">720</text></g><g class="tick" opacity="1" transform="translate(0,91)"><line stroke="currentColor" x2="-6"/><text fill="currentColor" x="-9" dy="0.32em">740</text></g><g class="tick" opacity="1" transform="translate(0,45)"><line stroke="currentColor" x2="-6"/><text fill="currentColor" x="-9" dy="0.32em">760</text></g><g class="tick" opacity="1" transform="translate(0,0)"><line stroke="currentColor" x2="-6"/><text fill="currentColor" x="-9" dy="0.32em">780</text></g><text x="4" text-anchor="start" dominant-baseline="hanging" style="font-family: Arial, sans-serif; font-size: 12px; fill: rgb(123, 123, 123); font-weight: bold;">high</text></g></g></g></svg>