<svg xmlns="http://www.w3.org/2000/svg" width="805" height="600"><rect width="805" height="600" x="0" y="0" fill="#f0f9f6" id="background"/><g transform="translate(50,50)" id="visualization"><clipPath id="plotClipPath"><rect x="0" y="0" width="705" height="500"/></clipPath><g id="viz" clip-path="url(#plotClipPath)"><g><path fill="rgb(208, 237, 217)" stroke="rgb(159, 187, 168)" stroke-opacity="1" d="M444.8855045078942,380L448,379.0097137013472L452,377.5705495125434L455.7816473572892,376L456,375.911900925348L460,374.3202584716512L464,372.5478642096971L465.14214493851364,372L468,370.61139699714977L472,368.33349406827455L472.5208456931259,368L476,365.6476067524731L477.9769595388826,364L480,362.16879104047507L482.4681058163884,360L484,358.54576857303266L486.77467109972383,356L488,354.8786596963329L491.4204820330758,352L492,351.4361172103197L496,348.2656947452811L496.4724553141099,348L500,345.9966071555312L504,344.9617105363396L508,344.5294278823846L512,344.099830862761L513.4503425011396,344L516,343.85368562453266L520,343.62762364311226L524,343.43020514804516L528,343.26006845928725L532,343.11636536947L536,342.9987538370048L540,342.90741976387636L544,342.17874590137444L548,340.8484854650883L549.6905287606717,340L552,339.0651256369201L556,336.7476405302551L556.9596544200022,336L560,333.9252575582045L562.0999722384958,332L564,330.38281193055826L566.1336412350169,328L568,326.0000005518087L569.8409098362698,324L572,320.8681331429271L572.5823389204527,320L574.634805256937,316L576,312.2742511764874L576.102629686699,312L577.2114372838126,308L577.9458417680307,304L578.3655021900885,300L578.5020778844741,296L578.3655021900885,292L577.9458417680307,288L577.2114372838126,284L576.102629686699,280L576,279.7257488235126L574.634805256937,276L572.5823389204527,272L572,271.1318668570729L569.8409098362698,268L568,265.9999994481913L566.1336412350169,264L564,261.87549665203517L561.5046812310127,260L560,258.9083116219588L556,256.7252738118411L554.1963592555907,256L552,255.1033044901347L548,253.91732199734793L544,253.116437060046L540,252.6341271269481L536,252.43922869085623L532,252.48850214279315L528,252.784078578841L524,253.34222891727876L520,254.19572343484947L516,255.398976494063L514.482556617903,256L512,256.95225482457937L508,258.97106538882366L506.4979914615242,260L504,261.71855933986825L500.75340410703143,264L500,264.5296556587879L496,267.21252267225947L494.73609872381064,268L492,269.88444241683715L488.36800368720424,272L488,272.2224439628969L484,274.00025313178764L480,275.07141361829594L476,275.3760171889272L472,275.50057668074174L468,275.47708980499647L464,275.3297288630105L460,275.2009052794835L456,274.7359735221581L452,273.9778992087844L448,272.9764701360415L444.9158851362927,272L444,271.6947786593608L440,270.3215080972525L436,269.09385424777696L432.13173565030684,268L432,267.9587264104314L428,266.6783849409621L424,265.21124680402335L421.1615439099778,264L420,263.40824817190196L416,261.0224402545539L414.63652746142793,260L412,257.4476119512706L410.77389709004973,256L408.3723310329705,252L408,250.9969989826942L407.05791560775367,248L406.53661766235274,244L406.61964711424883,240L407.0424207673402,236L407.8062078400573,232L408,231.3078595750539L408.9979876108053,228L409.96686231386497,224L410.73778379383145,220L411.34444595151996,216L411.77647222378346,212L412,209.9505073838679L412.2384631292517,208L412.6653691021953,204L413.03233969211317,200L413.3418569132016,196L413.59563659994,192L413.7946509606692,188L413.9391357919718,184L414.0285700671958,180L414.0616263800644,176L414.0360951801079,172L413.7770359725087,168L413.7952178825766,164L414.1020075741478,160L414.6856666561278,156L415.6147332895406,152L416,149.91184869170692L416.37578179483853,148L416.9676585819861,144L417.3770190031938,140L417.61812036904524,136L417.69834299039417,132L417.6188608886635,128L417.3746795493757,124L416.95409595114256,120L416.33741123269846,116L416,114.36451180696926L415.535944255572,112L414.57320342030283,108L413.1855511648046,104L412,101.5018292498302L411.2902905126088,100L408.7409963571343,96L408,95.15690703413551L405.0574840600393,92L404,90.94494687955518L400.6605698816276,88L400,87.44720359585085L396,84.87813971291584L394.1428582395969,84L392,82.98273122000268L388,81.58583583732869L384,80.61699011498837L380.06061383498997,80L380,79.98994340296878L376,79.62687655298322L372,79.5555541051761L368,79.77080079214619L366.2077822121558,80L364,80.2648377152739L360,81.05425990430359L356,82.22357580118194L352,83.88296933215875L351.7826090647868,84L348,86.049513600485L345.36457200861884,88L344,89.0481022595512L340.9206531746535,92L340,92.94292015859494L337.08587756439704,96L336,97.5853227618835L334.29332581384904,100L332.16497385694083,104L332,104.40326434150205L330.3580025925937,108L328.978643812292,112L328,114.92202934370894L327.5610071691207,116L326.1630638624836,120L324.96399591774804,124L324,127.836248528688L323.94436416419705,128L322.829706978693,132L321.9620365594057,136L321.3487697276508,140L320.9936967284754,144L320.55666243156304,148L320,149.86415025278347L318.9357725574022,152L316,154.7740356037637L312.3733977716837,156L312,156.07503093724836L311.41857446984073,156L308,155.28645213431864L304,152.27399782648777L303.7892937924638,152L302.11350149765326,148L301.5907868777422,144L301.31924203788776,140L300.49827253609936,136L300,134.58945895219094L299.39401989058234,132L297.96531303313867,128L296,124.24415774829981L295.9009400483611,124L293.7035677654927,120L292,117.76609493794743L290.82491745733216,116L288,113.15338893243347L286.9167936188856,112L284,109.15175256577427L282.7654173638298,108L280,105.59061078168006L277.57235768745085,104L276,103.00040254711524L272,101.04955173272657L269.1956289795371,100L268,99.53891598227159L264,98.27902432931853L260,97.21381576826516L256,96.09139020926426L255.70173494133013,96L252,94.71110114850279L248,93.17683107129653L245.24331862701308,92L244,91.33775323018745L240,88.88332808884775L238.74839682430633,88L236,85.53075039998527L234.54337043626106,84L232.2366609971627,80L232,79.3522299060362L230.9868898170842,76L230.4389639109321,72L230.05221959449676,68L229.78789192963984,64L229.62282297244047,60L229.5438496691101,56L229.6763546698789,52L229.62630885044314,48L229.38780115609399,44L228.94478119114353,40L228.2721307975815,36L228,34.80991518238925L227.38564046701612,32L226.22088807714363,28L224.70153188891913,24L224,22.61538219401244L222.6735715698211,20L220,16.164835502746527L219.8815786517943,16L216.0751869041389,12L216,11.926109407116826L212,8.40539052595986L211.38505417478808,8L208,5.8181038119172115L204.08242125229202,4L204,3.9615367198683202L200,2.5355411932178242L196,1.4717068238993392L192,0.48250192276867665L190.02680904683223,0L188,-0.5234070473553061L184,-1.5543498241032268L180,-2.579514304220595L176,-3.6095237805693046L174.5183977167349,-4L172,-4.697159498887473L168,-5.819824111959292L164,-6.9545710786564L160.3768268972972,-8L160,-8.11284403914621L156,-9.339080239414685L152,-10.627692778503103L148.33049485271624,-12L148,-12.133944216206686L144,-13.958001731946965L140,-15.82050106170216L139.62492058451346,-16L136,-17.84547000798456L132,-19.45990674427692L130.33898471979293,-20L128,-20.796793187791707L124,-21.87077462053047L120,-22.68102410713493L116,-23.26404560405048L112,-23.645508777780535L108,-23.842840242230707L104,-23.866865496570625L100,-23.722817463390086L96,-23.410853711800044L92,-22.9187472039562L88,-22.21087535590611L84,-21.26140290919301L80,-20.099113506971577L79.72930387836053,-20L76,-18.72354638728153L72,-17.30007866118217L68.49825028457175,-16L68,-15.831204081598429L64,-14.450216498261213L60,-12.979457075435405L57.47184719035698,-12L56,-11.46887733041605L52,-9.95084201595769L48,-8.28331777369587L47.35337601600088,-8L44,-6.558569581238089L40,-4.65482940634017L38.72538169050361,-4L36,-2.607953779820548L32,-0.3057592771147455L31.512345181556213,0L28,2.2283193534410373L25.578236939251795,4L24,5.1893239212328695L21.06642675422387,8L20,9.093456052657118L17.13621766542704,12L16,13.24565728367503L13.581699383182809,16L12,18.70089168217335L11.249031365339604,20L9.501270070185427,24L8.19321725442282,28L8,28.750547377185683L7.134088238669236,32L6.349176794299197,36L5.8085969492301075,40L5.479823122135045,44L5.340629678794684,48L5.376614317844798,52L5.537190422909688,56L5.817800314596397,60L6.215388920905127,64L6.728254109658522,68L7.355948209193343,72L8,75.46351231721533L8.087213716282193,76L8.35254639189155,80L8.39734197802349,84L8.384471359607815,88L8.372927817030543,92L8.3437426245073,96L8.298449516541524,100L8.238208331492345,104L8.163952491015408,108L8.076174071468984,112L8.067536641034977,116L8.134950310574851,120L8.279580949642906,124L8.506897870789842,128L8.8273280546818,132L9.257692443407606,136L9.969559823871478,140L10.995058206334718,144L12,147.22832693417536L12.219885832768085,148L13.48037797862716,152L15.025242532214392,156L16,158.12269681706786L16.83130864822219,160L18.991958909796665,164L20,165.5395622939459L21.64080161547291,168L24,170.84492823636867L24.99891844678956,172L28,175.14703646866366L28.874222034456636,176L32,178.83253566361356L33.42592514744899,180L36,182.00782490960853L38.91266250459452,184L40,184.72861390260766L44,187.13043481265976L45.756113410713766,188L48,189.14642152989785L52,190.89249043027309L55.00645920727726,192L56,192.39711359895995L60,194.013908915015L64,195.50657472146275L65.35032767405343,196L68,197.08868920805935L72,198.58530169807466L76,199.8997592888545L76.31708583534007,200L80,201.3734028364247L84,202.7023316982761L88,203.88803731254546L88.39090736397915,204L92,205.20247532553384L96,206.41317250052862L100,207.50986565168859L102.05501449643123,208L104,208.52618186415577L108,209.53234773594238L112,210.44788824029035L116,211.29140910917124L120,211.92311778028449L120.56577115723331,212L124,212.58295361755484L128,213.2702154249883L132,213.97723597703288L136,214.70965982382882L140,215.47018259956644L142.66529177606907,216L144,216.32182290488726L148,217.3242792392423L152,218.3512864717086L156,219.40452775922512L158.18579835195663,220L160,220.59999614908583L164,221.96488523281693L168,223.31970769804815L169.99974282545435,224L172,224.77833588570684L176,226.2961705000016L180,227.80172720028742L180.5752708738537,228L184,229.2549590246665L188,230.3638111239291L192,231.41938174301293L194.20817401897887,232L196,232.527338694761L200,233.73506485785975L204,234.9863255418271L207.0501585886172,236L208,236.35409091785652L212,238.1695412526483L215.27053126842668,240L216,240.46612948026558L220,243.5122559291957L220.54827793347653,244L224,247.43337522396604L224.50358687921158,248L227.78747313366796,252L228,252.27552516316086L230.68404957078462,256L232,257.8057554037381L233.55367576400113,260L236,263.15956124378874L236.6627702809306,264L240,267.9724451878645L240.02423588213418,268L243.56128730602376,272L244,272.4469285575842L247.7759594632172,276L248,276.1966577854674L252,279.159433765037L253.32981237771997,280L256,281.6525864225286L260,283.7757659423732L260.46161127599066,284L264,285.7312433241359L268,287.4226871465557L269.6501971084119,288L272,288.85443219320535L276,290.0268648097207L280,290.95467895910946L284,291.6940370405535L285.31838404658157,292L288,292.6846971205468L292,293.79901854506056L296,295.01771206576166L298.90961416966127,296L300,296.41813409386236L304,298.1302990254828L307.90308748864084,300L308,300.0535770336526L312,302.5751938573947L314.0822659946735,304L316,305.5082029182713L318.95867620596295,308L320,309.00574116834923L322.9171963451413,312L324,313.2532695604886L326.0483934499161,316L328,318.86285110055377L328.6992462963467,320L331.030146594718,324L332,325.6218885139836L333.3408431931248,328L336,331.96127131392257L336.0251144866785,332L338.717906426372,336L340,337.7583415221479L341.59942267023433,340L344,343.1134511228099L344.7896646035952,344L348,347.4377512396518L348.56521240721514,348L352,351.2855617325677L352.7971267254171,352L356,354.76218095439367L357.5278367142459,356L360,357.9162560279146L362.66470147735384,360L364,360.98037423609577L368,363.8331480157554L368.23601060750707,364L372,366.6343422581231L374.0629232339118,368L376,369.30910431443505L380,371.8502981546384L380.2415922538393,372L384,374.3923910508133L387.38714958170794,376L388,376.3069207030151L392,377.97694580387684L396,379.29557528223734L398.6364901724626,380L400,380.3974357391136L404,381.3538947595715L408,382.12309831445776L412,382.7282663301714L416,383.1918855777955L420,383.5305705748931L424,383.61275805535917L428,383.4775735700064L432,383.11690490789726L436,382.5047410709886L440,381.59198940275274L444,380.29547300362543ZM572.8035862773237,484L576,482.82926907053934L580,480.8774883918844L581.3962943866893,480L584,478.3282759554054L587.1819577700243,476L588,475.36079317676626L592,472.3962929358479L592.5532695492393,472L596,469.2181594234745L597.4968069052481,468L600,465.1226898947617L600.9945412578977,464L603.2434440169797,460L604,457.941574439385L604.7438208069759,456L605.7807912184718,452L606.4392089995523,448L606.8935756817906,444L607.069807467665,440L607.037289878778,436L606.8279083371702,432L606.4509592783037,428L605.898711374931,424L605.146924882543,420L604.1512286991983,416L604,415.5202353404947L602.9702285902557,412L601.4169121563153,408L600,404.7550796072835L599.6803259663142,404L597.825105937426,400L596,396.7001782825153L595.6122894391003,396L593.066050820771,392L592,390.58404944487324L589.9740260594142,388L588,385.94471090943415L586.0137769107305,384L584,382.10420119184283L581.4241373036442,380L580,378.8355501041678L576.0334401721138,376L576,375.97508866435663L572,373.0992975276479L569.9688392597184,372L568,370.80734717978646L564,368.8825310942963L561.5986078301777,368L560,367.27072777256484L556,365.87519022304673L552,364.87014835458353L548,364.21547179915535L545.2878389960337,364L544,363.84722775435927L540,363.88016646313923L539.260474933021,364L536,364.3722999353351L532,365.0694124359607L528,366.1182204958369L524,367.7571634561736L523.5478225639441,368L520,369.5826208823484L516.3806872944754,372L516,372.2291844520295L512,375.76073802544545L511.75988612844014,376L508,379.6474139363274L507.67836268692633,380L504.05887204059275,384L504,384.06595790163476L500.82162571249216,388L500,389.4612919381706L498.6186435889856,392L496.99459517019307,396L496,399.2190951448945L495.75653027983117,400L494.6974514242726,404L493.83938871137434,408L493.1164130739121,412L492.5899443963733,416L492.3241028775576,420L492.2682776986171,424L492.4157407277189,428L492.77414849850084,432L493.367215673191,436L494.240057700689,440L495.4690825023895,444L496,445.3074962818705L497.0558676413458,448L498.77623982280875,452L500,454.4681385601526L500.75087715082486,456L503.0181816031842,460L504,461.48543748664895L505.70099375607606,464L508,466.83584027042275L508.99200991604187,468L512,470.97002255035534L513.1327424478824,472L516,474.467079967588L518.0960298551423,476L520,477.3587815084255L524,479.82893086584886L524.3035548669523,480L528,482.1036204296598L532,483.6655050326359L533.138308345399,484L536,484.8972787181399L540,485.8076660667891L544,486.4307184506289L548,486.8131114468579L552,486.98015798321944L556,486.94057857952146L560,486.68792609667275L564,486.1991386455346L568,485.4296357696918L572,484.30293235649526ZM682.7937080418769,532L684,531.7371432866723L688,530.4987290432796L692,528.7509686346604L693.2991083178266,528L696,526.4183006168172L699.0494508645027,524L700,523.2855181147991L703.2855181147991,520L704,519.0494508645027L706.4183006168172,516L708,513.2991083178266L708.7509686346604,512L710.4987299298145,508L711.7371431096263,504L712,502.7937080418769L712.6374159922141,500L713.2160937334675,496L713.4951911644756,492L713.4951911644756,488L713.2160937334675,484L712.6374159922141,480L712,477.2062919581231L711.7371431096263,476L710.4987299298145,472L708.7509686346604,468L708,466.7008916821734L706.4183006168172,464L704,461.2456572836751L702.9494979659809,460L700,456.7883941219791L699.0494508645027,456L696,453.5816993831828L693.2991083178266,452L692,451.24903136533965L688,449.5012709567204L684,448.26285689037366L682.7937080418769,448L680,447.3625840077859L676,446.78390626653254L672,446.5048088355244L668,446.5048088355244L664,446.78390626653254L660,447.3625840077859L657.2062919581231,448L656,448.26285671332766L652,449.5012709567204L648,451.24903136533965L646.7504752727057,452L644,453.6729531505656L641.1288929014664,456L640,456.973447513025L636.4274753546345,460L636,460.39454842980047L632.0838458507943,464L632,464.12137066044295L629.0940064333146,468L628,470.3827391009796L627.1932409463994,472L625.960629746933,476L625.3124430879135,480L625.055297114102,484L625.0962887778581,488L625.3942370329186,492L625.9404018066109,496L626.7519847408696,500L627.8732423618061,504L628,504.3475495815595L629.2582055494812,508L631.1153106967508,512L632,513.4683863507811L633.5266158558143,516L636,519.0738119449746L636.7744578263001,520L640,522.951199803867L641.2449512866917,524L644,526.4180714992104L646.7008916821734,528L648,528.7509686346604L652,530.4987290432796L656,531.7371432866723L657.2062919581231,532L660,532.6374159922141L664,533.2160937334675L668,533.4951911644756L672,533.4951911644756L676,533.2160937334675L680,532.6374159922141Z"/></g><g><path fill="rgb(200, 226, 205)" stroke="rgb(151, 176, 156)" stroke-opacity="0.3" d="M548.2916742553907,316L552,313.0578532599484L552.9907138319049,312L555.7335520698475,308L556,307.4285711206655L557.2806349240958,304L558.1382004811371,300L558.4172905224274,296L558.1382004811371,292L557.2806349240958,288L556,284.5714288793345L555.7335520698475,284L552.9907138319049,280L552,278.9421467400516L548.2916742553907,276L548,275.81960860452824L544,274.0722288948648L540,273.01991650725165L536,272.60846409558536L532,272.67449789058395L528,273.2175897182516L524,274.25566727855687L520,275.8266992472827L519.6724095298127,276L516,278.3712758982117L514.0197121210795,280L512,282.05642859244927L510.40908374173875,284L508,287.6345705188124L507.802890970155,288L506.0716078280908,292L504.6629348970839,296L504,299.4232186997512L503.8527124490788,300L503.7297579508121,304L504,305.1589284032079L504.58719723815545,308L506.67368780351205,312L508,313.4366716165141L511.7694725396407,316L512,316.10771530351906L516,317.50617149693807L520,318.44250140912425L524,319.03834834494944L528,319.3630453558248L532,319.4541784061454L536,319.3273395212395L540,318.98008349274835L544,317.9277711051352L548,316.18039139547176ZM435.89739303319095,368L436,367.9794141984932L440,366.8131342037214L444,365.1539722222965L446.61519002090233,364L448,363.3861236466812L452,361.45409028764936L454.6939664787359,360L456,359.2559702352289L460,356.827240893281L461.26303955759965,356L464,354.1975836181852L466.9483654702061,352L468,351.0295336643029L470.97491471732906,348L472,346.6883412022939L473.93699913943453,344L476,340.3880852206397L476.2081533832394,340L477.9821279586754,336L479.4391020067436,332L480,330.1542379097213L480.8476336154671,328L482.2575202306183,324L483.2470471464592,320L483.73338377907965,316L483.55955321288195,312L482.42152058341765,308L480,304.39131793050694L479.7890108510495,304L476.23768842712843,300L476,299.8162953696464L472,297.17936768442854L469.78855413922383,296L468,295.2820839333341L464,293.86767326742313L460,292.75880122399695L457.5023941690731,292L456,291.5433800241599L452,290.1911428467478L448,288.758365488702L446.09964166534655,288L444,287.1405822216738L440,285.5260776981006L436,284.1791401615551L435.38838757188535,284L432,282.95375841421964L428,281.8574927444295L424,280.797975219719L420.9974588679696,280L420,279.711077331613L416,278.57514546673605L412,277.08746657966697L409.6650402452527,276L408,275.14335921021717L404,272.6430493285454L403.2059743797125,272L400,269.17265981046376L398.6672149520607,268L396,265.05387102710927L395.06205762413083,264L392.41865771517405,260L392,259.0864703412679L390.64084832728287,256L389.60935782158367,252L389.2008216276008,248L389.32968874171866,244L389.8933766353771,240L390.7153208626694,236L391.79493881351135,232L392,231.47128431850024L393.2733655295157,228L394.4062651813002,224L395.25674819472533,220L395.8621368233543,216L396,214.36730210962332L396.19011834314034,212L396.45967521178557,208L396.66434546111026,204L396.8041704847077,200L396.8779776298794,196L396.88326210866,192L396.81600565126536,188L396.6703678264017,184L396.43828276305453,180L396.1088362617218,176L396,174.9834913206895L395.61980360273066,172L394.6398948902239,168L394.1057226275577,164L394.11319596622974,160L394.7226565717897,156L396,152.4013121361742L396.12147473726094,152L397.1343729646752,148L397.8919258263812,144L398.4020821275777,140L398.66691461156097,136L398.68254957683564,132L398.4387028716247,128L397.91778261644527,124L397.09343136020345,120L396,116.23881341063776L395.91463110278085,116L394.06005951354797,112L392,108.31952095166889L391.76982521805536,108L388,104.21799831444136L387.6993845247032,104L384,101.91583399134572L380,100.45464368078825L377.6770683837212,100L376,99.72837899239352L372,99.59999995976685L368,99.98744423780974L367.9449553586822,100L364,101.09414688652035L360,102.93613259605019L358.3938679190271,104L356,106.05618953673445L354.3112131101555,108L352,111.71273065185397L351.8582089319436,112L350.0579333776123,116L348.60555683327624,120L348,122.06698009443909L347.52689127858963,124L346.7529389874902,128L346.17033600903056,132L345.76452176397214,136L345.5283686903801,140L345.4617810346395,144L345.5433276829464,148L345.6717874881691,152L345.5593988534636,156L344.2170512990205,160L344,160.3534604710649L341.9025907816837,164L340,166.2201134787747L338.48286045330644,168L336,170.27323854139343L333.7579637571299,172L332,173.3305125360949L328,175.7323069590107L327.42619725994956,176L324,177.4151887662801L320,178.70123669950095L316,179.67883171888258L314.1761404384245,180L312,180.34315772611342L308,180.7117131815209L304,180.73067429155003L300,180.5869597278442L296.2711880681483,180L296,179.94686686521584L292,178.21347113265978L289.1002462186527,176L288,174.62832733148662L286.59222584046023,172L285.0070901795096,168L284,164.58079481585776L283.86290942812985,164L283.0873006801979,160L282.46617791635134,156L281.9569459394867,152L281.5229157628841,148L281.19774714714436,144L280.78469056583185,140L280.06364428938053,136L280,135.75406084824562L278.9151108315893,132L277.25165824719784,128L276,125.76862371598858L274.8199509798805,124L272,120.78094320665721L271.1537205963327,120L268,117.65334166157749L265.1204810576991,116L264,115.50015046925114L260,114.02374484740835L256,112.70962470547812L253.67251622446338,112L252,111.46324204393989L248,110.23040272054067L244,109.04982203939784L240.36153191219609,108L240,107.88494659198943L236,106.67747933175443L232,105.52886635901535L228,104.19705229096039L227.46455699284883,104L224,102.45914775886536L220.001777275351,100L220,99.99862159993623L216.07183981897026,96L216,95.90344143346141L213.7309278177496,92L212.10075232453033,88L212,87.70299485269004L210.82375228586517,84L210.26115726450723,80L210.1682576491275,76L210.58666877774118,72L210.8971129655036,68L211.10070749548782,64L211.19590339335286,60L211.1782401352947,56L211.09971527766328,52L210.768122919485,48L210.16719010611268,44L209.22793795871007,40L208,36.285389682142124L207.88386485235804,36L205.77802609107903,32L204,29.396923594816982L202.75432915212832,28L200,25.428106414702L197.9663918002115,24L196,22.915636213563488L192,21.085813074933526L189.3446471200308,20L188,19.544543044710977L184,18.309417219846125L180,17.180714463886275L176,16.13295543311638L175.45776853459563,16L172,15.260847836263196L168,14.44042949787817L164,13.63652858979215L160,12.831381783084296L156,12.00494500355515L155.97952011122482,12L152,10.984646043030779L148,9.351381980014267L145.56474471260603,8L144,7.137000763542204L140,4.548317124846065L139.2586053551266,4L136,1.7458697139881707L133.08976389034194,0L132,-0.5999548093948022L128,-2.4380265852502276L124,-3.9039527041769873L123.67424106512007,-4L120,-4.998691740231749L116,-5.822104672658895L112,-6.409739085892525L108,-6.784140439621197L104,-6.961199173983317L100,-6.951338519441279L96,-6.760300039120295L92,-6.374418343603537L88,-5.7426391298736235L84,-4.848398586583045L80.81487350482496,-4L80,-3.7811667880676083L76,-2.3058453326986097L72,-0.7472064347306855L70.14134800567032,0L68,0.8583852565808883L64,2.5141527261236973L60.58385212703601,4L60,4.250390883301833L56,6.027209615080793L52,7.933388670022907L51.86671524378576,8L48,9.902925302736165L44.12209914048964,12L44,12.065197196452601L40,14.360839824332714L37.44982319009773,16L36,17.255811717119343L33.155072860000814,20L32,21.42486227560795L30.111137366973892,24L28,27.581658275719064L27.776169821849336,28L25.97193285946875,32L24.574863324139955,36L24,38.13082232627451L23.569688361220884,40L22.87413051523174,44L22.392575113625867,48L22.099490179800156,52L21.90776896454581,56L21.80904361491764,60L21.79616249170715,64L21.862684828009876,68L22.002801788363612,72L22.211256583049604,76L21.966066943632597,80L21.487543782161183,84L21.012247189137298,88L20.615955148932798,92L20.25874820991126,96L20,99.16390266667526L19.924241333884297,100L19.58345077002049,104L19.275918090618674,108L18.99861132758099,112L18.87220536311287,116L18.88763781209704,120L19.043991486351032,124L19.34826787684942,128L19.81631322778219,132L20,133.14426556529497L20.417938530139253,136L21.344677168593634,140L22.671487230079777,144L24,147.29433888862766L24.26957406491175,148L25.96159785519599,152L28,155.9259295770292L28.037785896718987,156L30.369784947038397,160L32,162.28346913565542L33.25816671412531,164L36,167.13454503520057L36.80026691647254,168L40,170.95875557603767L41.23344105219488,172L44,174.2209804764001L46.66625470325539,176L48,176.8729813428837L52,179.16074655888684L53.689983416405454,180L56,181.16716736951344L60,183.08474952820956L62.00114337787909,184L64,184.95010963079966L68,186.76800657657685L71.01077512301907,188L72,188.42931636579743L76,190.05855455957942L80,191.50766877748924L81.44367821372714,192L84,192.94297518365033L88,194.30102090745748L92,195.52959039441828L93.61592340251497,196L96,196.78923014955802L100,198.0327897635363L104,199.07610143469327L107.93672830141603,200L108,200.01723138939485L112,201.03894538403267L116,201.96129537581538L120,202.63139102680344L124,203.1567748414788L128,203.64532132456577L130.95864993906375,204L132,204.1510115312509L136,204.73388723823228L140,205.32161636241136L144,205.9210022466147L148,206.5390336330812L152,207.18336217846627L156,207.8623822134099L156.7714878872429,208L160,208.65391853543667L164,209.58352266437174L168,210.59832221051016L172,211.68936353418997L173.06784156565323,212L176,212.9767496482591L180,214.48079589551241L184,215.9034399995208L184.33536047934092,216L188,217.1389921286522L192,218.24029052975112L196,219.23329331989402L199.34990110219871,220L200,220.16414286942955L204,221.11719845569604L208,222.0274134110457L212,223.04321911213725L215.20396849037604,224L216,224.27113213528946L220,225.86755895147917L224,227.80273595145098L224.34750895362419,228L228,230.45593235844115L229.89579545989773,232L232,234.06134197056144L233.67468753158266,236L236,238.88538357603414L236.78577731329773,240L239.46608093160444,244L240,244.8081793446059L241.91637552671278,248L244,251.28310821215155L244.4267409379027,252L247.08982485427015,256L248,257.18051148633333L250.45099041587423,260L252,261.4858503068477L254.9399885864148,264L256,264.85571709075305L260,267.74978891574517L260.3781536712162,268L264,270.4150374372744L266.69905548486196,272L268,272.7548786348585L272,274.69432322966594L275.4503325357426,276L276,276.21307325286404L280,277.49040643394187L284,278.4931278190893L288,279.4759145158071L290.2415509155973,280L292,280.4426253464259L296,281.43044098659317L300,282.417377765906L304,283.43127740032713L306.14426168046117,284L308,284.55300421616005L312,285.9678114448651L316,287.48708707702286L317.2977157998768,288L320,289.2352043427613L324,291.2414523032066L325.2861092755599,292L328,293.8314388857128L330.6004395504048,296L332,297.3503915122758L334.2842207403715,300L336,302.27588385171856L337.11510644272914,304L339.48163269966835,308L340,308.91858796904523L341.56062540364127,312L343.5875922819474,316L344,316.78621498720526L345.95116732519057,320L348,323.122438674327L348.61948346848607,324L351.77710334517076,328L352,328.24466913629703L355.6976047296334,332L356,332.3035084481597L359.9104559827728,336L360,336.0839041755493L363.9937487521631,340L364,340.0060302534142L368,343.97948703207334L368.0200129642916,344L372,347.92739081931705L372.0718704964212,348L376,351.7326290053504L376.2788035032411,352L380,355.2719098005718L380.83805778926626,356L384,358.5234657103125L386.35840609422723,360L388,360.94158722109296L392,362.82727956628105L395.0860138047979,364L396,364.35286789910134L400,365.6284727290242L404,366.64230051989534L408,367.5115858595157L410.7148932023264,368L412,368.24700909118934L416,368.87461291937797L420,369.3629020742312L424,369.4907956958521L428,369.3154152353392L432,368.82339718181106ZM559.3881434079739,472L560,471.93456662976007L564,471.18906651010263L568,470.0498803353395L572,468.401938847403L572.735235314369,468L576,465.9248670829817L578.4232220110405,464L580,462.50655835621274L582.1654391779766,460L584,457.3873342425376L584.8623174517586,456L586.8850217067758,452L588,449.2144054759848L588.5172356774261,448L589.9607262561069,444L590.8998496728897,440L591.4484870709587,436L591.669872225203,432L591.5938596088916,428L591.2245193356072,424L590.5417553055845,420L589.4977542428985,416L588.0069484595291,412L588,411.98571403223235L586.1289236444751,408L584,404.13433031954906L583.9195492984989,404L581.2697720094874,400L580,398.33076646121407L578.0637877575501,396L576,393.81467103494L574.1935955599471,392L572,390.05551979153654L568.9579847937167,388L568,387.43668569662395L564,385.6356032382233L560,384.3475855328582L558.4713385962499,384L556,383.38277701845004L552,382.7400096497778L548,382.4225165447918L544,382.4127052020481L540,382.7155549416287L536,383.3679916440504L533.4803645987654,384L532,384.3397417669583L528,385.64232286182335L524,387.5500184421941L523.2339852721585,388L520,390.32823489234033L518.1675631482502,392L516,394.4137572615117L514.8742965584057,396L512.5802432442224,400L512,401.2363680726498L510.7105026302762,404L509.1973004380095,408L508,411.93718925617395L507.9804637557911,412L507.0925056039823,416L506.5841596807189,420L506.40108161697765,424L506.52441744349653,428L506.95915405094377,432L507.7348039624528,436L508,436.93021994950993L508.838564031907,440L510.3835081343876,444L512,447.04263931798744L512.5069676176392,448L514.7774601300533,452L516,453.87778888412834L517.5369088231594,456L520,458.97843801042563L520.9220552564809,460L524,463.0140062955743L525.1051108922828,464L528,466.2922004448119L531.0021110211114,468L532,468.51242209357736L536,470.0726562312751L540,471.1751676632372L544,471.91266223112166L544.8088762266381,472L548,472.3711186322712L552,472.5291669818148L556,472.38648031257935ZM680.1290415176124,512L684,509.9428591211574L686.5585290953198,508L688,506.55852909531984L689.9428591211574,504L692,500.12904151761245L692.0550498509385,500L693.1641807851757,496L693.6991166644718,492L693.6991166644718,488L693.1641807851757,484L692.0550498509385,480L692,479.87095848238755L689.9428591211574,476L688,473.44147090468016L686.5585290953198,472L684,470.0571408788426L680.1290415176124,468L680,467.94495014906147L676,466.83581921482426L672,466.30088333552817L668,466.30088333552817L664,466.83581921482426L660,467.94495014906147L659.8709584823876,468L656,470.0571408788426L653.4414709046802,472L652,473.44147090468016L650.0571408788426,476L648,479.87095848238755L647.9454918811266,480L646.845298083863,484L646.3122932570766,488L646.310229540253,492L646.8410086439092,496L647.9451458619274,500L648,500.12904151761245L650.0571408788426,504L652,506.55852909531984L653.4414709046802,508L656,509.9428591211574L659.8709584823876,512L660,512.0550498509385L664,513.1641807851757L668,513.6991166644718L672,513.6991166644718L676,513.1641807851757L680,512.0550498509385Z"/></g><g><path fill="rgb(191, 214, 192)" stroke="rgb(143, 165, 144)" stroke-opacity="0.3" d="M437.31238456771825,356L440,354.9176006738126L444,352.72072223689213L445.27958488934473,352L448,350.1293747244095L450.90451571254937,348L452,346.9916134292743L455.09015554300163,344L456,342.8563657737978L458.21288330717357,340L460,336.8798679147483L460.5005756388754,336L462.10800404272743,332L463.0991853584202,328L463.48732008354386,324L463.1529347687482,320L461.9574142310187,316L460,312.55829998091696L459.67651416688534,312L456.1373443622982,308L456,307.8884063779717L452,304.6709297882489L451.15112301342333,304L448,302.02929268313795L444.76016430503284,300L444,299.58428937378176L440,297.4478656301672L436.5519563975697,296L436,295.79509003534105L432,294.5769527962017L428,293.5939400509664L424,292.7746448090738L420,292.08788626932756L419.26022251167655,292L416,291.57954692076237L412,290.834059557541L408,289.81261405805697L404,288.45645808729364L403.0805516417319,288L400,286.3015437655259L396,284.23925731547894L395.48201509421165,284L392,282.1746850552435L388,280.10643359057326L387.77890404108246,280L384,277.8329941918081L381.16678789710477,276L380,275.0486973773864L377.08774743974965,272L376,270.4478247699699L374.63656514535404,268L373.41910894343295,264L372.84425159866316,260L372.6779793094785,256L372.8105904072946,252L373.19096902052144,248L373.8009745660287,244L374.61763217993644,240L375.57722033174724,236L376,234.504052366566L376.73406616233626,232L378.3923394739008,228L379.6452698033936,224L380,222.3585827502156L380.52559275112804,220L381.02196266433805,216L381.055423236378,212L380.8743436177093,208L380.5533920440056,204L380.07414487148316,200L380,199.52986993648852L379.3446902867754,196L378.320858575542,192L376.9323114656386,188L376,185.88865951786903L374.8664005878132,184L372,180.35888849292047L371.5307925524872,180L368,177.79106903437838L364,176.98503460209668L360,177.25007973438392L356,178.2804105716042L352,179.87406287478922L351.76949311839564,180L348,181.83702005300756L344.14633340603956,184L344,184.0724731797684L340,186.3548221250408L337.3542066506462,188L336,188.74536117326954L332,190.38287310610178L328,191.48050140452654L325.15449276582405,192L324,192.1858992945194L320,192.727113205973L316,193.17246740806667L312,193.5457166511555L308,193.81931523248005L304,193.8712955073172L300,193.9608446026836L296,193.91766758515223L292,193.60863771200792L288,192.97967835210522L284.27061578360696,192L284,191.91074902158198L280,190.0031256538216L277.0988970215622,188L276,186.90715281852744L273.582830931073,184L272,180.72420922492176L271.7018005974231,180L270.7856344758409,176L270.78726404781673,172L270.662313972875,168L270.4268345874645,164L270.08054511676113,160L269.61012530900956,156L268.98796866216355,152L268.139536703429,148L268,147.40587638555868L267.11896255169154,144L265.66138706836614,140L264,136.81424176865963L263.50741811501666,136L260.288001564596,132L260,131.71613303874614L256,128.26293785790222L255.65081505850003,128L252,125.66608750170934L248.96022239275942,124L248,123.53500163067434L244,121.77043644491047L240,120.2186063169828L239.29915471723513,120L236,119.01852079370482L232,118.12157912405317L228,117.24065990902497L224,116.3907714411381L222.66066098272717,116L220,115.21662408679865L216,113.46996767227915L213.88901496986006,112L212,110.48503801233994L209.6519465884819,108L208,106.04951025027509L206.53885314013706,104L204,100.0795484867395L203.95235560513163,100L201.77778505908861,96L200,92.5852849606193L199.68345606415158,92L197.77603017622226,88L196,84.66483022138945L195.6017970892379,84L193.82381340331239,80L192.38887265159553,76L192,73.90976033137463L191.60682330921662,72L190.54745750085903,68L189.12503196613585,64L188,61.461492888356844L187.23114673853746,60L184.70489169365868,56L184,55.00882899038939L181.3587061464783,52L180,50.64225334484951L176.65749436685047,48L176,47.504662036689496L172,45.08179006318895L169.62705545338952,44L168,43.32201154267199L164,42.05439501332296L160,41.20625206364804L156,40.65169343694211L152,40.010877642926346L151.97565817234002,40L148,38.162322077115135L145.03936870827346,36L144,35.16157487932813L140.95984702980456,32L140,31.033970465134644L137.68387505101094,28L136,25.74593668615178L134.71181116422366,24L132,20.971914884331483L131.01434349218204,20L128,17.499272173376752L125.91384093176973,16L124,14.817194305547673L120,12.732031335644123L118.28594462573591,12L116,11.109874877599083L112,9.889008021622217L108,8.999056713985482L104,8.413379486326065L100,8.105943616979488L96,8.05161521378814L92,8.257377896936063L88,8.790960869080166L84,9.630644663613054L80,10.561381012436158L76.07763209111647,12L76,12.027731364623676L72,13.607959466994828L68,15.229498801420348L66.17258304260253,16L64,17.125712640622567L60,19.341769313690264L58.890961434198005,20L56,22.047532787405572L53.473720383715346,24L52,25.261588484550998L49.096464007044574,28L48,29.102861788479856L45.424544564044396,32L44,33.81934877146088L42.486971451754215,36L40.170059116715066,40L40,40.34753589240921L38.37795532921743,44L37.01106763834599,48L36.003308210364054,52L36,52.01453753193445L35.14710005751358,56L34.42075146871781,60L33.81600027390657,64L33.32187284878749,68L32.92611087841382,72L32.616235408273766,76L32,79.25746427722964L31.85972496147336,80L30.86441801683209,84L29.97436879277825,88L29.2655531508143,92L28.663938102229565,96L28.14656014461727,100L28,101.2702559687763L27.65853971281669,104L27.22188180287361,108L26.846527187177998,112L26.660255706920367,116L26.65001440766892,120L26.81334772959991,124L27.158267709681326,128L27.704403134596802,132L28,133.54829386001157L28.430717599544536,136L29.51698741879889,140L31.068082649395222,144L32,146.0200092692819L32.89244046479146,148L34.94470427660558,152L36,153.76784212372672L37.34067511292889,156L40,159.69817989835167L40.22401320668362,160L43.69957138586261,164L44,164.3000456028371L48,167.75930336001255L48.31495623210614,168L52,170.54247477379806L54.462080667320464,172L56,172.90260501864265L60,175.13410191244196L61.63566278592077,176L64,177.26993050296738L68,179.2908198911822L69.52126788085951,180L72,181.19358032547575L76,182.9397321466376L78.66280221570781,184L80,184.55999604967894L84,186.13808018944462L88,187.5599075962872L89.30527337361895,188L92,188.96906884885396L96,190.31160882784297L100,191.55086052604662L101.67843082044823,192L104,192.66831001295293L108,193.72457837949435L112,194.66313456505475L116,195.50984319566294L119.20611565522785,196L120,196.14125501841033L124,196.68475230939976L128,197.15438277566608L132,197.58642108942047L136,197.99639646878774L140,198.3906524356919L144,198.77517992081795L148,199.1562778898462L152,199.53971389579561L156,199.9324056115289L156.6813122375502,200L160,200.38069233516075L164,200.987872967547L168,201.71517298153344L172,202.5807922088901L176,203.58188172032231L177.2791886159036,204L180,204.97430772239494L184,206.44219882718886L188,207.64005996000913L189.36314995264735,208L192,208.6911982085703L196,209.6040991886842L200,210.39846622609576L204,211.0920484446503L208,211.6983493197962L210.00220404616937,212L212,212.34223338844185L216,213.07152355273632L220,213.878987353198L224,214.78200960670097L228,215.82698324046567L228.5913095943049,216L232,217.19020852322888L236,218.9782715530884L237.81807805101778,220L240,221.5507702986767L242.4460549253917,224L244,225.99565374470467L245.15762053365341,228L247.0992838164389,232L248,234.10132412880762L248.79401839967062,236L250.68713220389094,240L252,242.5276358903663L252.75683022226286,244L255.13075895471485,248L256,249.25143275251583L257.94947564465406,252L260,254.3950628438634L261.4333734408186,256L264,258.3597981314676L265.9027596409391,260L268,261.487748582759L272,263.84718283946995L272.3145511316015,264L276,265.7008277286558L280,267.15037302472825L282.941913648252,268L284,268.31850104566166L288,269.4102193168185L292,270.3565101368903L296,271.1919882218347L300,271.943209983926L300.33387055375505,272L304,272.68106854539946L308,273.37414159780946L312,274.2236071642872L316,275.04838842524765L320,275.80273771160915L321.1747962045302,276L324,276.5460620491024L328,277.3262765500794L332,278.3793283383432L336,279.917012105393L336.16763936736675,280L340,282.38751189809756L341.85879129322916,284L344,286.45326758809273L345.5248486004637,288L348,291.47999583417544L348.36823880275335,292L350.97709828112005,296L352,297.83449377715857L353.2265879360646,300L355.23777546386765,304L356,305.4845277746662L357.31732887507684,308L359.5502869757612,312L360,312.71583369747833L361.930979590843,316L364,319.1358340619948L364.541656948818,320L367.44749322692786,324L368,324.6554784823693L370.69284627102803,328L372,329.3870244343793L374.34498883475675,332L376,333.8381345473026L377.84940501648884,336L380,338.4480622864406L381.3007488963612,340L384,343.04862691795114L385.0063342204153,344L388,346.6216409264876L389.84187391513564,348L392,349.4701118517765L396,351.73689049039587L396.56053099256974,352L400,353.4451879258264L404,354.77194281055387L408,355.95896748343046L408.1618045648166,356L412,356.92442553338805L416,357.7163144660073L420,358.3482861401923L424,358.5025061674241L428,358.2620231433997L432,357.61398129559063L436,356.51776252590014ZM557.1699393621898,460L560,459.40719977924414L564,457.97745798545816L567.6544971430977,456L568,455.7879664558918L572,452.3827576726143L572.3389844641376,452L575.3221759694825,448L576,446.9340104374835L577.6544348961789,444L579.1830096483666,440L580,436.51712184459257L580.111156884195,436L580.5329731953921,432L580.5341697982251,428L580.123326507946,424L580,423.4076210880917L579.2552806301995,420L577.8849728257768,416L576,412.1604265357835L575.9191219615536,412L573.2523182525078,408L572,406.306293308661L569.8733498731385,404L568,402.15513299452977L565.1674872065115,400L564,399.18597039832986L560,397.09674224403733L556.9842691828126,396L556,395.6653788527548L552,394.80552769717303L548,394.4201790591402L544,394.4916519897507L540,395.0358867132153L536.3929828595544,396L536,396.1151153755236L532,397.9124824894353L528.8212356942047,400L528,400.621149522679L524.7985825240103,404L524,405.01410522946173L521.9996132800734,408L520,411.70677576388437L519.8615072684794,412L518.5314762788623,416L517.7466828370589,420L517.4243172331405,424L517.5267229895024,428L518.0502835627391,432L519.0239189834455,436L520,438.6498612350748L520.5265656686835,440L522.6859349234678,444L524,445.8294325193517L525.6712921266954,448L528,450.85597645191365L529.226275583381,452L532,454.36235422891525L534.5422334530921,456L536,456.8650263516638L540,458.59810422199917L544,459.74785619261377L545.5690984413258,460L548,460.37045080178257L552,460.52554743123085L556,460.225737879736Z"/></g><g><path fill="rgb(183, 203, 180)" stroke="rgb(135, 154, 132)" stroke-opacity="0.3" d="M236.4880788476118,204L240,203.17347951119314L244,201.55613485556847L247.1560153539,200L248,199.2959084191474L250.42615480853908,196L251.87831414217464,192L252,191.5832032858831L252.90203286552332,188L253.73558953019085,184L254.505361280942,180L255.27883041733338,176L256,173.4693638005822L256.4091842576602,172L257.0384180952454,168L257.237659096328,164L257.0471376477276,160L256.4582617336873,156L256,154.20940964299734L255.41685160147824,152L253.7289874722465,148L252,144.84635604670711L251.49342442399615,144L248.23776827181973,140L248,139.7598271039622L244,136.20555778980454L243.73549109619364,136L240,133.4832719178662L236.96135411426428,132L236,131.5686551382755L232,130.34524316035532L228,129.35630274769912L224,128.5909700892538L221.42445719216045,128L220,127.66466612690738L216,126.31596526567742L212.0159313565615,124L212,123.9902239002775L208,120.51064576160013L207.54819128145465,120L204.1525335668901,116L204,115.81862750291592L201.24152264386163,112L200,110.1919630283825L198.57913469046736,108L196,104.08909495049852L195.94191249873654,104L193.38018661633487,100L192,97.88200601432041L190.76381115815371,96L188,92.05025942289731L187.96358573235221,92L185.1035783185789,88L184,86.64565483714148L181.67698361391825,84L180,81.91653407248575L178.28719574591958,80L176,77.27914153497991L174.76872072938284,76L172,72.76731962664363L171.19684582654395,72L168,69.22647439545233L166.22564389496364,68L164,66.53408231497346L160,64.62138185382264L158.41034151630666,64L156,63.032665165727934L152,61.6583387996414L148,60.13404393007511L147.70040946549392,60L144,58.11222065240108L140.1752230169751,56L140,55.88176249025159L136,52.609937774266655L135.32628803766318,52L132,48.41223995105784L131.56924266024754,48L128,44.31284483588573L127.65215631807985,44L124,40.71848634488558L123.06666425571188,40L120,37.513228099829945L117.79027408646519,36L116,34.66653478253045L112,32.2070071497038L111.59186876578079,32L108,30.163098625691347L104,28.57239589178407L102.11640669650257,28L100,27.316791344502292L96,26.397384448581732L92,25.896396448666025L88,25.966078139182883L84,26.55612259348173L80,27.23317668606002L78.25836416786098,28L76,28.92397164333599L72,31.15317791559889L70.62551375830668,32L68,33.63153099313497L64.63855461079999,36L64,36.46204603803221L60,39.76900147938878L59.75351233652404,40L56,43.8056913531326L55.832917570489286,44L52.79756287874133,48L52,49.24401857171617L50.44699898535106,52L48.351963840370075,56L48,56.69418339983466L46.53334643198886,60L44.939570754941656,64L44,66.62651406929609L43.57360182566086,68L42.43319611974803,72L41.45561073068126,76L40.13887696477718,80L40,80.36635256850411L38.6493309636335,84L37.37053902661083,88L36.37723796607182,92L36,93.788313526353L35.51698674497047,96L34.76510151374765,100L34.12715340935283,104L33.59206669023419,108L33.145639693083055,112L32.91396237910821,116L32.88061078528736,120L33.041551046946054,124L33.40523923180815,128L33.99390390005861,132L34.847298933644154,136L36,139.52821585721648L36.14779697691887,140L37.84734590712509,144L39.96431857355313,148L40,148.06218425026492L42.273071530127595,152L44,154.52319897229685L45.13041624591136,156L48,159.24256933203668L48.742652730372896,160L52,162.91474151777098L53.36948796070544,164L56,165.8910993404279L59.15378372176312,168L60,168.52284855042723L64,170.90380708949954L65.95471894426544,172L68,173.14747367350617L72,175.19267601666303L73.73088307375141,176L76,177.0889981610233L80,178.84880183396342L82.85688736779218,180L84,180.48091111243025L88,182.06052174701512L92,183.49924961273325L93.46563880986957,184L96,184.9156187455381L100,186.27689498417743L104,187.4172809816369L106.19959212990778,188L108,188.5086644139509L112,189.53654772580973L116,190.46578288413775L120,191.12938353329326L124,191.6104932920228L127.98813520504422,192L128,192.00125517819902L132,192.3648766559466L136,192.68302823900035L140,192.9606030792222L144,193.2011804819972L148,193.40857082142787L152,193.5826368453412L156,193.72348719338697L160,193.82980749143604L164,194.06727433937607L168,194.40785637417508L172,194.9008424562433L176,195.56675324567055L177.59538225982845,196L180,196.7105768347405L184,198.0681953705992L188,199.2428361099262L190.89284269825976,200L192,200.2824553588507L196,201.15451504687155L200,201.8895619875882L204,202.49449115679107L208,202.97235697936833L212,203.3840553974382L216,203.75452611096853L218.9791269353073,204L220,204.08917646456132L224,204.339159106867L228,204.46179557941622L232,204.40511320476787L236,204.0905726447774ZM334.55506775566545,264L336,263.80801999155557L340,263.2896509613818L344,262.5820421949819L348,260.6421672116313L348.8354580946815,260L352,256.7335960356789L352.5077018543149,256L354.7708569785643,252L356,249.34490518470813L356.5264744341844,248L357.98219675772094,244L359.3564956303104,240L360,238.05666545795884L360.6294605177328,236L361.86820318187773,232L363.57684680961097,228L364,226.37575340246786L364.59085419194815,224L364.9297803122164,220L364.5250028859964,216L364,214.44682669010945L362.95562266939936,212L360.0157785399249,208L360,207.98276004670572L356,204.96347420150397L353.744248102487,204L352,203.3587310108137L348,202.65530981112306L344,202.55851246307572L340,202.86619070020487L336,203.5804044326377L332,203.89712761103573L328,203.91375636473293L324,203.77235448321363L320,203.7185487062245L316,203.73727031748257L312,203.82080664439684L308,203.91003373117326L304,203.83953423777058L300,203.9148754445631L296.96551282248754,204L296,204.02805806235034L292,204.10421207138114L288,204.14170375956047L284,204.13572761934256L280,204.09460018292344L276,204.0193882362463L272,204.20572741306978L268,204.86623769525153L264,206.4022570934345L261.47603836069777,208L260,211.430119934468L259.8379744044285,212L259.44000237679484,216L259.5620128458072,220L259.95801465381464,224L260,224.2552625990906L260.54068191043814,228L261.30723479911745,232L262.27040122806926,236L263.7367128577787,240L264,240.54513014523906L265.6393600790142,244L268,247.85247158153277L268.1006061391198,248L271.5698818887481,252L272,252.3985102781137L276,255.4869330006644L276.81367302964054,256L280,257.6526047785199L284,259.3188879447433L285.9198107908352,260L288,260.6266943772055L292,261.63148753159174L296,262.4605889529091L300,263.1372019428385L304,263.67545824806484L307.21420598749353,264L308,264.077649306167L312,264.57703028972594L316,264.95921547615507L320,265.13243236298473L324,265.0647748920092L328,264.7146744482988L332,264.27633136194055ZM434.60021898987065,344L436,343.1827247905847L439.73841786428716,340L440,339.6934635899009L442.38866830349457,336L444,332.1038059514487L444.04317464763506,332L444.87923827002487,328L444.8746676768176,324L444.026005546212,320L444,319.9393948260754L442.31864405015745,316L440,312.58790102658594L439.4936889163672,312L436,309.07789080316127L434.29412000272794,308L432,306.87117192316015L428,305.43662175668345L424,304.45598631591446L420.7730020707853,304L420,303.90497288207587L416,303.8997732285181L412,303.76946919201436L408,303.49053606262186L404,303.0252977808323L400,301.93393881239746L396,301.25197644772396L392,301.1175844432497L388,301.80327182631333L384,303.8938076766439L383.8929212986597,304L381.7059059186416,308L381.2107142860792,312L381.70361535066775,316L382.901377630131,320L384,322.39203045328964L384.8620766744184,324L387.73431899223976,328L388,328.2910508864019L391.8255786825754,332L392,332.16205874417915L396,335.36254428136954L396.9351589366827,336L400,337.9186575537389L404,339.9943204191715L404.0102850352974,340L408,341.9095395725721L412,343.6946349442693L412.75362585816526,344L416,345.10344311039836L420,346.2816898423383L424,346.6186749334087L428,346.2634876495355L432,345.19212364717384ZM560.6550859621734,444L564,441.26800733643313L565.0854362800048,440L567.3272658084319,436L568,433.7424989686124L568.4044256728724,432L568.6158163169948,428L568.1424276867663,424L568,423.5073868180158L566.7460150014814,420L564.4091918730347,416L564,415.5033079872957L560.179795113536,412L560,411.8743259410074L556,409.9063219500032L552,408.73040173808L548,408.2990789892464L544,408.6189900650602L540,409.7546005524729L536,411.84371686086456L535.7974793611022,412L532.1205839856663,416L532,416.2071733060832L530.3516820993715,420L529.515285550921,424L529.4730968480663,428L530.1830448880997,432L531.661660483619,436L532,436.59299647080184L534.488004421975,440L536,441.4927082645205L539.4858600182883,444L540,444.2869682821113L544,445.76468849278626L548,446.5200294608235L552,446.57353620926665L556,445.89405265081155L560,444.3904173987712Z"/></g><g><path fill="rgb(174, 191, 168)" stroke="rgb(127, 143, 121)" stroke-opacity="0.3" d="M228.3551479314546,192L232,190.26674386506102L235.04441079220567,188L236,187.10146374354144L238.24786387716944,184L240,180.88591486952492L240.4149156832347,180L241.9912874960171,176L243.56301730615195,172L244,170.09975324036884L244.4961771851709,168L244.82995812836316,164L244.57103720274142,160L244,157.40047713253466L243.68806233177833,156L242.07027634729258,152L240,148.88905876696793L239.24209083011561,148L236,144.9361724649794L234.49090225810983,144L232,142.76792597747823L228,141.3021815822874L224,140.29261833837114L222.79383148643916,140L220,139.33147408183262L216,138.1435102792435L212,136.13981632345806L211.8048359346268,136L208,133.25208194790704L206.70020036443157,132L204,129.23569379662612L203.016267866124,128L200,124.02158087716381L199.98556448271268,124L197.35507372391675,120L196,117.9340734112642L194.8262739395392,116L192.2662965738864,112L192,111.58870972717486L189.7822167442124,108L188,105.3594749205781L187.10038301498696,104L184.31140064001409,100L184,99.5673921959856L181.4075845748194,96L180,94.24173149224575L178.13156644719163,92L176,89.57875357884305L174.50630895138124,88L172,85.64329091659408L169.98923237287454,84L168,82.28822517640776L164.91638723973074,80L164,79.28382623140206L160,76.75900905384196L158.6125608074756,76L156,74.43223046664866L152,72.5014866791343L150.91798688120053,72L148,70.60765376366007L144,68.75568366042089L142.38072586949238,68L140,66.79528183576255L136,64.64025597298505L134.89462862957146,64L132,62.100016764421525L128.3198057745688,60L128,59.78520851203962L124,57.39152058603247L121.32158753511428,56L120,55.14768281461434L116,52.88159053791858L114.21980281866584,52L112,50.69086438633724L108,48.65244703036595L106.50446227451889,48L104,46.87610287178478L100,45.35751821460906L96,44.235534207085635L94.7170284200524,44L92,43.49638308319635L88,43.293296958702996L84,43.618898983509865L81.11227315071085,44L80,44.14914787344014L76,45.812240375881686L72.72380698626648,48L72,48.52076051017491L68,51.872094091639184L67.86703776764895,52L64,55.656079642863205L63.68668433393063,56L60.02117902128225,60L60,60.02326551936079L56.890436266205285,64L56,65.20257878168306L54.20616672888249,68L52,71.79299116247452L51.8952185704519,72L49.95572907758657,76L48,79.4889859293026L47.747141954579604,80L45.59130410023249,84L44,87.50089610173296L43.80011800967077,88L42.47387958102439,92L41.39712926172206,96L40.51041920492483,100L40,102.72984766145262L39.751157984554794,104L39.085141062137296,108L38.538747370356475,112L38.247630150286255,116L38.19155764426549,120L38.36495892235956,124L38.77733113366901,128L39.454736135130645,132L40,134.24374005921524L40.40678573685503,136L41.786865163991735,140L43.747160435945176,144L44,144.44556423891268L46.227217644467686,148L48,150.5014735138164L49.151586669728744,152L52,155.25398912679094L52.71699581584829,156L56,159.03377681337415L57.09993097852265,160L60,162.27635955634534L62.33443938127007,164L64,165.13293366305442L68,167.69665267493747L68.5099308198782,168L72,169.9662923732995L76,171.96124068575256L76.08220384684108,172L80,173.86766822225496L84,175.58220050198372L85.04554594448655,176L88,177.22835996151082L92,178.76025373404394L95.50088687341412,180L96,180.18573198656253L100,181.6194300800073L104,182.81211386742416L108,183.90720507464846L108.36968293380983,184L112,184.96836919140725L116,185.93520210506296L120,186.61871607754836L124,187.09693628747624L128,187.45877295283702L132,187.74547581309105L136,187.97160032692346L136.69462720007968,188L140,188.14695586294295L144,188.25847906902578L148,188.3040877964463L152,188.27505478422916L156,188.16117892019395L159.0446172080985,188L160,187.94778098318L164,187.83780198468952L168,187.77770901983712L172,187.83489165771L175.4098749700271,188L176,188.0305104100991L180,188.749546632161L184,189.79654287923353L188,190.7533666814943L192,191.6326322102508L193.94971136486203,192L196,192.37068312870593L200,192.94723954743318L204,193.37309342993217L208,193.63241104407706L212,193.75713721599163L216,193.74665343833647L220,193.58001784891513L224,193.0974021970119L228,192.1364190242531ZM322.4693170943889,252L324,251.38713171507783L328,248.8748313824176L329.2203584168386,248L332,245.25000189435133L333.24562343564287,244L336,240.10643711332057L336.0785302449713,240L338.1415772585869,236L339.48939947098586,232L340,230.31332389466445L340.65511831709824,228L340,224.49155337423315L339.85612985862554,224L336,221.01842354683453L334.58975058316884,220L332,218.9548379554795L328,217.28335516368077L324.6643774296578,216L324,215.81863633948024L320,215.07967591045247L316,214.6682326921541L312,214.537413620037L308,214.55890107607485L304,214.40270380459293L300,214.58679935315337L296,215.02314202109392L292,215.67038908346126L290.5177059278614,216L288,216.7538877913177L284,218.44657637473563L281.4333256112949,220L280,221.3784992783888L277.9805393162998,224L276.51779448251887,228L276.2153059825808,232L276.80595961145906,236L278.5370549416855,240L280,242.11792424316604L281.5238679362462,244L284,246.1600579119425L286.52636681048534,248L288,248.81914406472475L292,250.59271595583078L296,251.9453654928651L296.2334495175872,252L300,252.71871064632938L304,253.15378205433177L308,253.24427788515078L312,253.45704379515212L316,253.36071536725422L320,252.7473298608146Z"/></g><g><path fill="rgb(166, 180, 156)" stroke="rgb(119, 132, 110)" stroke-opacity="1" d="M212.90230854654328,180L216,179.12951320922122L220,177.76216955901316L223.3977817095893,176L224,175.63160483525957L228,172.18747743361314L228.15665390746278,172L230.0290141039447,168L230.4586513002584,164L229.3858652559174,160L228,157.95329846895447L226.0578073149548,156L224,154.73456822823684L220,152.82836280624755L218.22707424938926,152L216,151.2550759346862L212,149.18288038643928L210.4177151412474,148L208,146.18722476154605L205.92221301046584,144L204,142.24057954001805L202.10468767976795,140L200,137.42419962605018L199.02296025001795,136L196.1984934043066,132L196,131.70777193664227L193.77618740479903,128L192,124.98638479222217L191.47848893477288,124L189.3062913599461,120L188,117.71194932549608L187.09381789838153,116L184.76300235328483,112L184,110.77958105754936L182.3410468293896,108L180,104.59681407466863L179.59820204189379,104L176.68626834442836,100L176,99.12650013281441L173.47665373241853,96L172,94.37493079838612L169.60539381109686,92L168,90.49384493861606L165.03601404244307,88L164,87.20400504967995L160,84.63486363947104L158.91090160565778,84L156,82.22053624880189L152,80.21420765188824L151.54363434750428,80L148,78.21376688400966L144,76.378913904716L143.157673539971,76L140,74.41044517674393L136,72.42946598742293L135.16526743458212,72L132,70.2292377394557L128,68.30448265578951L127.27870183802347,68L124,66.44932514078712L120,64.83135851086365L117.6188102185589,64L116,63.34492786261433L112,61.94075863796397L108,60.713473114469025L105.29937822784811,60L104,59.58987002708514L100,58.44512711246273L96,57.643999102929286L92,57.17652815911978L88,57.16125696108236L84,57.638738575795344L80,58.455907994711964L76.60650883604416,60L76,60.25864401448527L72,62.949320768158515L70.69190292550405,64L68,66.14691317818446L66.05235539593406,68L64,70.0044446617068L62.24844092322786,72L60,74.71052838447102L59.07152477231469,76L56,79.77736468294145L55.84068713001662,80L52.80204038806744,84L52,85.19791528773595L50.331332203497226,88L48.46248614370111,92L48,93.17955190928603L46.98088125759713,96L45.778415809561494,100L44.78760672191717,104L44,107.90421026721458L43.9819697443244,108L43.35172695687004,112L43.009410549188175,116L42.93355961204361,120L43.11737518851206,124L43.57141514718927,128L44,130.30172989961534L44.33317662757764,132L45.46498861177011,136L47.16437494446015,140L48,141.46037257906005L49.55256240951735,144L52,147.35046888517599L52.51292665150919,148L55.98487615238801,152L56,152.01567689432915L60,155.9901969301282L60.010268602058346,156L64,159.42936871211518L64.69594189405015,160L68,162.44108818066573L70.33183277947313,164L72,165.04114553688368L76,167.3075022712079L77.32887501454317,168L80,169.34070588669204L84,171.1825999208636L85.93055078964841,172L88,172.88920224670386L92,174.48464498399375L96,175.9481078436907L96.14744686295015,176L100,177.4193164387376L104,178.63748010976013L108,179.7583790953667L108.95056424611457,180L112,180.8212665269395L116,181.79828525630762L120,182.4800672512485L124,182.93851146702207L128,183.2575743963567L132,183.48150651705282L136,183.6239246390101L140,183.68230672504177L144,183.6504930081228L148,183.52196844682015L152,183.27603256586525L156,182.88676677761492L160,182.31413204475672L164,181.7873936904183L168,181.22199478683507L172,180.6915647552205L176,180.19530367304424L180,180.24007053337516L184,180.68476156626372L188,181.0712398677938L192,181.37635681602006L196,181.5521221363465L200,181.55525266248958L204,181.33646388514876L208,180.87436660500043L212,180.1943402326163Z"/></g><g><path fill="rgb(158, 169, 143)" stroke="rgb(112, 122, 98)" stroke-opacity="0.3" d="M163.52348657450077,176L164,175.87458178868013L168,174.73227761700684L172,173.47320189948397L176,172.03768706432993L176.1649928181509,172L180,170.92297307734066L184,170.06941087293086L188,168.92674019506597L190.50104117248912,168L192,167.19224435910087L196,164.15198849349963L196.15857062386766,164L197.99203390232634,160L197.98352746026802,156L197.0101714670826,152L196,149.87807084166437L195.2945687396957,148L193.81496026916432,144L192,140.3164003563185L191.87072766355328,140L190.05884610636855,136L188.05256634685253,132L188,131.89668164130336L186.24226581245426,128L184.3810683728405,124L184,123.23371116442382L182.54223596619397,120L180.53512142818568,116L180,115.05461310668846L178.38240495416915,112L176,108.09581976006498L175.9435389875564,108L173.18431349976862,104L172,102.46226091271862L169.96789317015845,100L168,97.83421898173611L166.21091724700233,96L164,93.97480251945834L161.44673433392592,92L160,90.92676753668474L156,88.23976039519479L155.58756894209037,88L152,86.02141265142387L148,84.10225637240731L147.77401870991943,84L144,82.17451193667625L140,80.38673232858866L139.12131854416447,80L136,78.49595322561856L132,76.57792782806004L130.61867326309795,76L128,74.76218386153815L124,73.13916741054376L120.6515208468239,72L120,71.75381225507687L116,70.46745922292706L112,69.39143474046912L108,68.46863753466891L105.54955272727273,68L104,67.65932189658335L100,66.8580532856104L96,66.39730699687172L92,66.25313736053454L88,66.52727505066812L84,67.28289068886141L81.54444746425449,68L80,68.43524354315846L76,70.3568768424301L73.72784839296366,72L72,73.25369367456557L68.84604832736235,76L68,76.66599905359743L64.3860810492269,80L64,80.34164637891874L60.36566038406892,84L60,84.40758201999935L57.12733224485174,88L56,89.76260673816347L54.697112998609896,92L52.76851278947032,96L52,97.9170373866011L51.22670966349668,100L49.979010639205825,104L48.973285943252336,108L48.17124362094273,112L48,113.52892925082227L47.73109661686891,116L47.62195918461532,120L47.83159926875794,124L48,125.26195849661855L48.372602034714475,128L49.27757042612211,132L50.606308875938794,136L52,138.86607346140536L52.582369700573054,140L55.346140088477796,144L56,144.81186859480943L58.65364219731924,148L60,149.48350911306096L62.35965181713803,152L64,153.57198198886005L66.63271676011567,156L68,157.1400210539717L71.74382706885467,160L72,160.17734121858732L76,162.74489727795364L78.16187193704721,164L80,165.00938139029506L84,167.03523989338726L86.09507554896541,168L88,168.85694479528513L92,170.5287994431322L95.82373929518758,172L96,172.06890042192913L100,173.56784380106365L104,174.79480023399947L108,175.92512759333266L108.29343583784257,176L112,176.9995263833281L116,177.9698020880832L120,178.63645460204538L124,179.0649233537182L128,179.3331978827474L132,179.48760616382805L136,179.54024172990984L140,179.48434728223066L144,179.3079016208211L148,178.99786666124112L152,178.52029301370186L156,177.83153347648357L160,176.8638793621621Z"/></g><g><path fill="rgb(149, 157, 131)" stroke="rgb(103, 111, 86)" stroke-opacity="0.3" d="M158.8727241250178,172L160,171.57963960815476L164,170.0561356489074L168,168.19112473665984L168.39403489591348,168L172,165.96529999991048L174.9361391827161,164L176,163.04207307011524L179.6483210693068,160L180,159.54330304848776L182.79144902005396,156L184,152.80691386861312L184.27825889567742,152L184.55371000791462,148L184.4772019648214,144L184,141.77571674605048L183.68894606999237,140L182.67127095800652,136L181.29579568566868,132L180,128.47487523589177L179.84954869338077,128L178.413454134032,124L176.77039239574424,120L176,118.37848900948478L174.95382794001017,116L172.83355491516795,112L172,110.64070954823114L170.32106641950992,108L168,104.99009661614787L167.2037514643082,104L164,100.43752937892324L163.55095086869926,100L160,96.82929996060062L158.99943490202293,96L156,93.7527008674586L153.2210488553555,92L152,91.25007706216527L148,89.04971763667149L145.87991312100954,88L144,87.09452410493967L140,85.2808692746191L137.01884888940938,84L136,83.52869318610178L132,81.6796644967867L128,80.09632298364014L127.71981896239527,80L124,78.58593682070253L120,77.32929781375935L116,76.29744166204898L114.57576858410008,76L112,75.38081505630001L108,74.58382713594628L104,73.9600505011955L100,73.39784533403343L96,73.18629366145498L92,73.29104833991164L88,73.8043373491013L84,74.80513739948952L80.8293632870541,76L80,76.28632286971373L76,78.29385351304663L73.57862771964713,80L72,81.05752510625817L68.26459883979155,84L68,84.22470997262494L64.15242559877527,88L64,88.18184404276028L61.110230882558,92L60,93.7730778324837L58.71841722481639,96L56.813988195358945,100L56,102.06204933545988L55.27561749087917,104L54.048476954677994,108L53.07853991148576,112L52.53130835278219,116L52.37873591381609,120L52.60397466849423,124L53.215662919281954,128L54.24901634158218,132L55.77169365894787,136L56,136.42526624793447L57.95057666954159,140L60,142.7871919123303L60.91083670483732,144L64,147.52166658874108L64.43035768581134,148L68,151.66945802544168L68.34456593375634,152L72,155.17088932679573L73.04514450844468,156L76,158.14387765878283L78.8102701393675,160L80,160.71931375987464L84,162.96402387940455L86.03840530761974,164L88,164.95240594092985L92,166.74177017233694L95.05856505290859,168L96,168.3827907957002L100,169.92796024080172L104,171.18823022713866L106.76857189833794,172L108,172.36785061145048L112,173.43440125957596L116,174.38747033217794L120,175.0307656629455L124,175.42327740168344L128,175.6365142946537L132,175.7181691086671L136,175.67839593434536L140,175.50580630393608L144,175.18194179657291L148,174.6863794204072L152,173.97031979059784L156,172.96958192646497Z"/></g><g><path fill="rgb(141, 146, 119)" stroke="rgb(96, 100, 75)" stroke-opacity="0.3" d="M136.06814467380784,172L140,171.70427876509615L144,171.2145304727842L148,170.5066377628542L152,169.51425668565713L156,168.14912098708294L156.3468139853855,168L160,166.27906714713293L164,164.16927305145464L164.28664807679354,164L168,161.261111610569L169.52000614472308,160L172,157.18161461207785L172.93405067879007,156L175.13582247230568,152L176,149.0374576359398L176.32463385418203,148L177.1043269006002,144L177.06038718653423,140L176.55544967702218,136L176,133.8047619917771L175.6120054175907,132L174.55949586916887,128L173.28973518360397,124L172,120.64296668877395L171.75583037836105,120L169.91485296203632,116L168,112.64661929903349L167.62744241361867,112L164.90934772729526,108L164,106.88984298571827L161.3416585800704,104L160,102.68970546929626L157.0738620146687,100L156,99.09391300178314L152,96.20457890023368L151.68141522618077,96L148,93.8053749522731L144.55191763623216,92L144,91.71250022898772L140,89.74474401201292L136.16629518127954,88L136,87.92530152087136L132,86.14128158059017L128,84.60541263345661L126.16869420444047,84L124,83.22614799680014L120,82.05256619924131L116,81.10939349661078L112,80.37189585019763L109.4826720205231,80L108,79.75304924702468L104,79.2701887438235L100,78.84943917794479L96,78.80926210679087L92,79.09906373827036L88,79.79808591883545L87.28595102293284,80L84,80.87302071122312L80,82.40353741900907L77.02523314233167,84L76,84.57940188597533L72,87.57565251200685L71.50763584016477,88L68,91.61713563543046L67.67389323197474,92L64.75820892737266,96L64,97.25604033702149L62.46283294858037,100L60.62172569813097,104L60,105.66789498627753L59.16967003508236,108L58.03491456412121,112L57.381010318883,116L57.17754183841396,120L57.399881212180134,124L58.052011151691744,128L59.1666134768808,132L60,134.05956210672846L60.78854467650254,136L63.10847168913975,140L64,141.167173632407L66.20073516997965,144L68,145.9866787638884L69.94250372536874,148L72,149.97898564489216L74.2755604196791,152L76,153.38921421307958L79.53449274253649,156L80,156.31610184294797L84,158.85897379595414L85.98568092885967,160L88,161.06782242370193L92,163.01338861444694L94.19503040575842,164L96,164.78038708382064L100,166.3994590806875L104,167.70387446059516L104.97108575145376,168L108,168.9285547759407L112,170.00778780869297L116,170.96883873145822L120,171.60570115945575L124,171.9719990292947L124.69969510950634,172L128,172.13702329643968L132,172.14504445516712L136,172.00500024888623Z"/></g><g><path fill="rgb(132, 134, 107)" stroke="rgb(87, 89, 64)" stroke-opacity="0.3" d="M139.466362582972,168L140,167.94013058480783L144,167.28149120944357L148,166.36028966586588L152,165.09217563232727L154.6033406503151,164L156,163.31940174198098L160,160.7602109004111L161.11129750068332,160L164,157.48326483185386L165.4614238384699,156L168,152.53305117139473L168.3625450594223,152L170.1570188386525,148L171.31016577027924,144L171.65376273958015,140L171.47176148806443,136L170.74516496038382,132L169.77410296521384,128L168.52657724325252,124L168,122.6504492043166L166.98928393648856,120L165.07067084163162,116L164,114.20378648429565L162.57544104113364,112L160,108.69299866207803L159.44457135489884,108L156,104.455422139842L155.488228765731,104L152,101.18061556572076L150.32159011956864,100L148,98.46127682245296L144,96.12663481814968L143.76669676618968,96L140,94.06645231250911L136,92.18896874931059L135.5852594484103,92L132,90.3438244143417L128,88.74840925709691L125.80918918313142,88L124,87.38482324731086L120,86.27746180358292L116,85.40248461677118L112,84.73991597798255L108,84.22241503841869L105.44209523383506,84L104,83.8643647902864L100,83.55108887213024L96,83.6394594351788L92.59785129435119,84L92,84.06322882840331L88,84.87431949620873L84,86.1649999089451L80.03835427145557,88L80,88.02054619642291L76,90.80163649274431L74.66960374625205,92L72,94.78335533317644L70.97689136740374,96L68.16377089547206,100L68,100.27500036979512L65.9846607929295,104L64.28062094919505,108L64,108.82752337414394L62.96288568084634,112L62.18390852608411,116L61.9116582232478,120L62.112188305548216,124L62.78342595892522,128L63.95397193351002,132L64,132.1090460094539L65.64340451250783,136L68,139.88044813909582L68.07592986223187,140L71.40180196097467,144L72,144.61874995606922L75.51822862807222,148L76,148.43084717177263L80,151.75148566119816L80.32001467109666,152L84,154.60270963100322L86.18887221100488,156L88,157.0725007378943L92,159.2467960916639L93.49300653747582,160L96,161.17234993772198L100,162.90859040859488L103.12565281214808,164L104,164.2962980029625L108,165.56265514889748L112,166.6610193104529L116,167.62895431317446L118.37672182329067,168L120,168.25926979454545L124,168.59890241191988L128,168.70379943545697L132,168.6288249625709L136,168.38112996009147Z"/></g><g><path fill="rgb(124, 123, 94)" stroke="rgb(80, 79, 52)" stroke-opacity="1" d="M141.1922292796282,164L144,163.36945960789905L148,162.1497002368314L152,160.48009893344465L152.90422079689338,160L156,157.99921967888108L158.3746787611219,156L160,154.2812809181215L162.03035446210242,152L164,148.7316020177662L164.39183805411903,148L165.95107564957908,144L166.61109792193014,140L166.65068981657015,136L166.06605833304974,132L165.1804450472041,128L164,124.11006372679986L163.9655424724706,124L162.3218792384398,120L160.18489024901447,116L160,115.72147011396083L157.49531643035476,112L156,110.16310910577062L153.98520602534344,108L152,106.21903805905833L149.16833514695838,104L148,103.15908362528026L144,100.60699466500643L142.957668801892,100L140,98.34715786996199L136,96.31568818623492L135.34790426866718,96L132,94.44313194034015L128,92.83653863738664L125.5526867001467,92L124,91.46002326388427L120,90.34574721652416L116,89.48734447740094L112,88.86785982488314L108,88.4075850958939L104,88.13815087382574L101.36435000878345,88L100,87.9291080523L98.74928886344111,88L96,88.16924701440092L92,88.80362584872623L88,89.92248062986883L84,91.62838591670467L83.34684678319161,92L80,94.16639417236144L77.81065247247395,96L76,97.78852152254751L74.17564552951106,100L72,103.14531558284972L71.47012565971804,104L69.42711235789741,108L68,111.62522115151023L67.86285683546134,112L66.9411503826563,116L66.58329844062808,120L66.74459371582708,124L67.4156219238485,128L68,129.95320945550824L68.63036291074624,132L70.44893362307965,136L72,138.40018085210238L73.0923953676888,140L76,143.24210833238212L76.7251501777913,144L80,146.94551099049212L81.25389913806919,148L84,150.15761048717917L86.57965474393876,152L88,152.92635406955952L92,155.32366379545522L93.21689904922366,156L96,157.4438448587294L100,159.36575689392572L101.6397591419666,160L104,160.85172405698435L108,162.19163240182218L112,163.3494549124399L114.55464320171191,164L116,164.35801879869314L120,164.9832961231835L124,165.28775309874283L128,165.33203164217645L132,165.1743393038151L136,164.8201772444309L140,164.24249425247774Z"/></g><g><path fill="rgb(116, 112, 82)" stroke="rgb(72, 69, 41)" stroke-opacity="0.3" d="M141.44208274404173,160L144,159.21745281580175L148,157.58058326188632L150.89700333291782,156L152,155.28069313987052L155.88198076207416,152L156,151.8637960021547L158.70753820079855,148L160,145.39873888459692L160.6745727052847,144L161.67064919242162,140L161.9208194665285,136L161.43395353210744,132L160.5689513518188,128L160,126.20181063794894L159.32733337438924,124L157.6600652537302,120L156,116.97980934080516L155.39719785920366,116L152.24110290209765,112L152,111.74227331054811L148.0160566911841,108L148,107.98723804377195L144,105.14885692935962L142.19928883713726,104L140,102.68961246700977L136,100.5364161396237L134.9360027877473,100L132,98.5572512608172L128,96.86378950801682L125.57876289480336,96L124,95.45542550426703L120,94.37450167862133L116,93.5722463561147L112,93.03717173483659L108,92.67804880070454L104,92.53780986816673L100,92.46684616815418L96,92.92500209634113L92,93.83753342946426L88,95.31578050271992L86.67978034949772,96L84,97.60652664751794L81.0362083126848,100L80,100.98662200980263L77.39912319495059,104L76,106.00708734925473L74.81518051251291,108L72.94132213265547,112L72,115.21288602193721L71.78643970008378,116L71.31357660947992,120L71.42629904854869,124L72,127.36788987470544L72.11122024032727,128L73.41917800875274,132L75.37989957110278,136L76,136.89690786339162L78.27633385071223,140L80,141.79886911231128L82.23487039409946,144L84,145.4942187006012L87.24590474504149,148L88,148.54548843743157L92,151.21998527421385L93.25657937358349,152L96,153.55522607044608L100,155.6536899539743L100.82421046841426,156L104,157.25466139113442L108,158.72240065055553L112,159.985877754203L112.05111631686913,160L116,161.0187823009898L120,161.65079385221858L124,161.9276351626499L128,161.90483390109054L132,161.6447123408088L136,161.14909739596277L140,160.38135690159794Z"/></g><g><path fill="rgb(107, 100, 70)" stroke="rgb(64, 58, 30)" stroke-opacity="0.3" d="M140.53496104609886,156L144,154.61968371142578L148,152.4766247936637L148.70055553415708,152L152,149.0253258429154L152.9014714219271,148L155.51724634643438,144L156,142.6591474815145L156.8108280074664,140L157.24218512730596,136L156.87990338742804,132L156.088090954669,128L156,127.71524245535625L154.74122189051107,124L152.83961452363596,120L152,118.66093104509235L150.1326645773213,116L148,113.62926855797602L146.34313443926393,112L144,110.04076593425262L141.2838881520627,108L140,107.16745615748584L136,104.83413567540975L134.4475821661944,104L132,102.75311294128508L128,101.00204658942144L125.25667367069647,100L124,99.55013773003199L120,98.45973250403205L116,97.69272213017567L112,97.24357242883102L108,97.00301241158081L104,97.02876639451281L100,97.14751166533773L96,97.9007543966975L92,99.19274774021872L90.2891650177389,100L88,101.24118522271681L84.32496158879587,104L84,104.29600034314146L80.80809795073509,108L80,109.21245689989834L78.39461140492128,112L76.9205067366793,116L76.25716637756238,120L76.30741357087425,124L77.02798691964259,128L78.41946443759943,132L80,135.01141111698877L80.54408408762626,136L83.66821455901768,140L84,140.32690529220065L88,143.94475931545688L88.0657806863228,144L92,146.83720186578367L93.73701317767754,148L96,149.41939675310073L100,151.75684154935448L100.52113623812147,152L104,153.48058773991593L108,155.06735774439906L110.74512494025029,156L112,156.40099655615077L116,157.50683989746602L120,158.16431589677396L124,158.41293186592648L128,158.30370832568153L132,157.90561493474357L136,157.2155144275989L140,156.1841692596516Z"/></g><g><path fill="rgb(99, 89, 58)" stroke="rgb(56, 48, 19)" stroke-opacity="0.3" d="M138.83740870365259,152L140,151.51984143928703L144,149.2849621091345L145.7689921526803,148L148,145.89128536992988L149.58848575897426,144L151.5407857595327,140L152,137.71758965491108L152.29464443861403,136L152.02871946455627,132L152,131.8594590531912L151.14123287067636,128L149.65066000516325,124L148,120.91895473877548L147.4525216851028,120L144.26224674752177,116L144,115.74197810544695L140,112.19213567047262L139.75672542585318,112L136,109.44812254435308L133.6437876405264,108L132,107.11150233014044L128,105.25991397027548L124.70719703564475,104L124,103.74232324226489L120,102.66917488964907L116,101.9654562110241L112,101.63475439135459L108,101.54828707564155L104,101.78064751392284L100,102.14074216426448L96,103.25864751479426L94.24356356991149,104L92,105.12386447634248L88,107.9757802770012L87.97362085463973,108L84.5268147097095,112L84,112.9284151449379L82.56235116273982,116L81.64717716110079,120L81.57013620741125,124L82.25921602365034,128L83.69631899909353,132L84,132.55021230189615L86.0678125734438,136L88,138.2684174066001L89.59023591932782,140L92,142.02542756097142L94.51532326366993,144L96,144.9976941448964L100,147.5134784131999L100.97414642265693,148L104,149.4117942121556L108,151.17667480631192L110.18048470348373,152L112,152.61996476543817L116,153.7859709637536L120,154.45425945875974L124,154.65665623700949L128,154.43684295065486L132,153.86901998298987L136,152.94249908163795Z"/></g><g><path fill="rgb(90, 77, 45)" stroke="rgb(48, 37, 4)" stroke-opacity="0.3" d="M135.94697073127355,148L136,147.97834112080994L140,145.73197159963019L142.2750135786797,144L144,141.90031539946372L145.2536103738722,140L146.4936739270033,136L146.3806529298593,132L145.5086897787253,128L144,124.2604760801375L143.88549717381852,124L141.266070619018,120L140,118.56499958810446L137.46138980753454,116L136,114.84254704543375L132.0117077148423,112L132,111.99278209768076L128,109.89615633874016L124,108.18824311602452L123.37227536589282,108L120,107.09580335852226L116,106.4603850453467L112,106.27740582377987L108,106.39104856917334L104,106.89960135543603L100,107.59165454059746L98.94329829412601,108L96,109.418464769526L92.31511435291705,112L92,112.31720996374472L89.19416851409528,116L88,119.0547732272301L87.6948691359191,120L87.39716988425766,124L88,127.85935891253516L88.02372108226564,128L89.66012908310395,132L92,135.67666091263885L92.22071885776862,136L96,139.8410538973602L96.16659436541408,140L100,142.81379520312063L102.03785451292109,144L104,144.9686453200663L108,146.86016974744368L110.8113130134243,148L112,148.44332362213993L116,149.7087726033216L120,150.4031798654239L124,150.54096344140962L128,150.1499617344311L132,149.30669812816183Z"/></g><g><path fill="rgb(82, 66, 33)" stroke="rgb(41, 27, 0)" stroke-opacity="1" d="M131.6018839570594,144L132,143.8218805366023L136,141.15982110552764L137.26367005864313,140L139.51336556535756,136L139.75337337756307,132L138.88128606355232,128L137.00208792542335,124L136,122.6209482528763L133.87792856648971,120L132,118.29795377175543L129.02787631205675,116L128,115.3799766349365L124,113.44498395456415L120,112.1211247958008L119.27259427016915,112L116,111.52646068305836L112,111.53905878337895L108,111.93606299543396L107.70489693233233,112L104,113.05804223417283L100,114.58212478028256L98.11404787557876,116L96,118.79049694088411L95.30485178788362,120L94.47471552967417,124L94.93516517544919,128L96,130.67387864002075L96.5672692714771,132L99.41078648959353,136L100,136.56129088520933L104,139.51421897419837L104.66669097862723,140L108,141.8309881896395L112,143.7306191112504L112.66884919648831,144L116,145.09492937146652L120,145.76065315470268L124,145.7672992279192L128,145.11337957208596Z"/></g></g><g id="labels"/><g id="axis"><g transform="translate(0,500)" fill="none" font-size="10" font-family="sans-serif" text-anchor="middle"><path class="domain" stroke="currentColor" d="M0,6V0H705V6"/><g class="tick" opacity="1" transform="translate(0,0)"><line stroke="currentColor" y2="6"/><text fill="currentColor" y="9" dy="0.71em">40</text></g><g class="tick" opacity="1" transform="translate(59,0)"><line stroke="currentColor" y2="6"/><text fill="currentColor" y="9" dy="0.71em">60</text></g><g class="tick" opacity="1" transform="translate(118,0)"><line stroke="currentColor" y2="6"/><text fill="currentColor" y="9" dy="0.71em">80</text></g><g class="tick" opacity="1" transform="translate(176,0)"><line stroke="currentColor" y2="6"/><text fill="currentColor" y="9" dy="0.71em">100</text></g><g class="tick" opacity="1" transform="translate(235,0)"><line stroke="currentColor" y2="6"/><text fill="currentColor" y="9" dy="0.71em">120</text></g><g class="tick" opacity="1" transform="translate(294,0)"><line stroke="currentColor" y2="6"/><text fill="currentColor" y="9" dy="0.71em">140</text></g><g class="tick" opacity="1" transform="translate(353,0)"><line stroke="currentColor" y2="6"/><text fill="currentColor" y="9" dy="0.71em">160</text></g><g class="tick" opacity="1" transform="translate(411,0)"><line stroke="currentColor" y2="6"/><text fill="currentColor" y="9" dy="0.71em">180</text></g><g class="tick" opacity="1" transform="translate(470,0)"><line stroke="currentColor" y2="6"/><text fill="currentColor" y="9" dy="0.71em">200</text></g><g class="tick" opacity="1" transform="translate(529,0)"><line stroke="currentColor" y2="6"/><text fill="currentColor" y="9" dy="0.71em">220</text></g><g class="tick" opacity="1" transform="translate(588,0)"><line stroke="currentColor" y2="6"/><text fill="currentColor" y="9" dy="0.71em">240</text></g><g class="tick" opacity="1" transform="translate(646,0)"><line stroke="currentColor" y2="6"/><text fill="currentColor" y="9" dy="0.71em">260</text></g><g class="tick" opacity="1" transform="translate(705,0)"><line stroke="currentColor" y2="6"/><text fill="currentColor" y="9" dy="0.71em">280</text></g><text x="705" dy="-5" text-anchor="end" style="font-family: Arial, sans-serif; font-size: 12px; fill: rgb(123, 123, 123); font-weight: bold;">low</text></g><g fill="none" font-size="10" font-family="sans-serif" text-anchor="end"><path class="domain" stroke="currentColor" d="M-6,500H0V0H-6"/><g class="tick" opacity="1" transform="translate(0,500)"><line stroke="currentColor" x2="-6"/><text fill="currentColor" x="-9" dy="0.32em">580</text></g><g class="tick" opacity="1" transform="translate(0,458)"><line stroke="currentColor" x2="-6"/><text fill="currentColor" x="-9" dy="0.32em">600</text></g><g class="tick" opacity="1" transform="translate(0,417)"><line stroke="currentColor" x2="-6"/><text fill="currentColor" x="-9" dy="0.32em">620</text></g><g class="tick" opacity="1" transform="translate(0,375)"><line stroke="currentColor" x2="-6"/><text fill="currentColor" x="-9" dy="0.32em">640</text></g><g class="tick" opacity="1" transform="translate(0,333)"><line stroke="currentColor" x2="-6"/><text fill="currentColor" x="-9" dy="0.32em">660</text></g><g class="tick" opacity="1" transform="translate(0,292)"><line stroke="currentColor" x2="-6"/><text fill="currentColor" x="-9" dy="0.32em">680</text></g><g class="tick" opacity="1" transform="translate(0,250)"><line stroke="currentColor" x2="-6"/><text fill="currentColor" x="-9" dy="0.32em">700</text></g><g class="tick" opacity="1" transform="translate(0,208)"><line stroke="currentColor" x2="-6"/><text fill="currentColor" x="-9" dy="0.32em">720</text></g><g class="tick" opacity="1" transform="translate(0,167)"><line stroke="currentColor" x2="-6"/><text fill="currentColor" x="-9" dy="0.32em">740</text></g><g class="tick" opacity="1" transform="translate(0,125)"><line stroke="currentColor" x2="-6"/><text fill="currentColor" x="-9" dy="0.32em">760</text></g><g class="tick" opacity="1" transform="translate(0,83)"><line stroke="currentColor" x2="-6"/><text fill="currentColor" x="-9" dy="0.32em">780</text></g><g class="tick" opacity="1" transform="translate(0,42)"><line stroke="currentColor" x2="-6"/><text fill="currentColor" x="-9" dy="0.32em">800</text></g><g class="tick" opacity="1" transform="translate(0,0)"><line stroke="currentColor" x2="-6"/><text fill="currentColor" x="-9" dy="0.32em">820</text></g><text x="4" text-anchor="start" dominant-baseline="hanging" style="font-family: Arial, sans-serif; font-size: 12px; fill: rgb(123, 123, 123); font-weight: bold;">high</text></g></g></g></svg>