<svg xmlns="http://www.w3.org/2000/svg" width="805" height="600"><rect width="805" height="600" x="0" y="0" fill="#f0f8fb" id="background"/><g transform="translate(50,50)" id="visualization"><clipPath id="plotClipPath"><rect x="0" y="0" width="705" height="500"/></clipPath><g id="viz" clip-path="url(#plotClipPath)"><g><path fill="rgb(209, 234, 231)" stroke="rgb(160, 184, 181)" stroke-opacity="1" d="M689.2376553380045,504L692,503.363480096068L696,502.25648722737776L700,500.90217979689635L702.2226542782033,500L704,499.2905359369148L708,497.3611593863518L710.2984875088994,496L712,494.97718239121775L715.9772093228493,492L716,491.98394098396966L720,488.2500014381841L720.2595128929432,488L723.4652410509858,484L724,483.10714374550093L725.8342832544175,480L727.5477734798981,476L728,474.55852909531984L728.8267486806741,472L729.7302367858958,468L730.2966029584119,464L730.5697622806906,460L730.5697622806906,456L730.2966029584119,452L729.7302367858958,448L728.8267486806741,444L728,441.44147090468016L727.5477734798981,440L725.8342832544175,436L724,432.89285625449907L723.4652406465003,432L720,428.12903262351904L719.8833522248651,428L716,424.01772029615336L715.9772093228493,424L712,421.02281760878225L710.2773013897419,420L708,418.66722643470194L704,416.7853111374567L701.9393960111285,416L700,415.2472066559249L696,413.97235923624686L692,412.9562459429544L688,412.1481126887855L687.0915556286022,412L684,411.4651237234359L680,410.9278716796576L676,410.5302840297752L672,410.2151777670423L668,409.8431369897715L664,409.4016491025823L660,408.87311490458137L656,408.30633057313673L654.7564554486357,408L652,407.1966267723312L648,405.75121973640586L644.2438741519886,404L644,403.86217250344987L640,401.04753843792133L638.8373634215876,400L636,396.70464391359013L635.5104581040854,396L633.3230830160795,392L632,388.77761356599495L631.7278596953,388L630.602640219378,384L629.7327829218777,380L629.0561114647809,376L628.533333355685,372L628.1724317215973,368L628,366.9646859137542L627.5337175300568,364L626.5787173586166,360L625.2177650778449,356L624,353.3588566049307L623.3810917345565,352L620.973759019065,348L620,346.8187464545445L617.5922243343083,344L616,342.21953845611824L613.8439759441084,340L612,338.1300921637427L609.4049689376332,336L608,334.804281629483L604.05576496013,332L604,331.9565719445285L600,329.1890074367441L598.1036588831633,328L596,326.3845485916385L592.8700098324314,324L592,323.0743023980422L589.3421933148655,320L588,317.04679610702385L587.5911112898071,316L587.1472529682271,312L587.5590919569494,308L588,306.5520254891652L588.7186221119125,304L589.6682390811046,300L590.4828375936747,296L591.2204621541172,292L591.9193709647349,288L592,287.5931387413634L592.7480653911051,284L593.2513446072926,280L593.460665034526,276L593.3913048688033,272L593.0382473662928,268L592.3752434530993,264L592,262.4981171969179L591.4017396537887,260L590.041840344961,256L588.1277063017862,252L588,251.79285725579638L585.6161624946324,248L584,246.18411019480294L582.129321007854,244L580,241.71450550791178L577.8984485772803,240L576,238.51720146075638L572,236.19720049960432L571.5499993975509,236L568,234.42986814183803L564,233.16618014531406L560,232.29956956730433L557.8181809204182,232L556,231.7346599350269L552,231.44936060836494L548,231.44936060836494L544,231.7346599350269L542.1818190795818,232L540,232.29956956730433L536,233.16618014531406L532,234.42986814183803L528.4500006024491,236L528,236.19720049960432L524,238.5080573286673L522.2470451937392,240L520,242.01369965237564L517.9160389452129,244L516,245.93277130834952L513.9649618043651,248L512,250.73948131155288L511.0610606180144,252L508.7405878851979,256L508,257.6501129299465L506.82865411195326,260L505.2513284256005,264L504,267.9967052190113L503.99874533623233,268L502.7556996765662,272L501.6993114128908,276L500.7729385057029,280L500.4063307530346,284L500.7174039736059,288L502.1103625063464,292L504,294.46038230978115L504.91697516686384,296L508,299.1689531760499L508.6709598101555,300L512,302.8976218041048L513.1067262899843,304L516,306.16634212623853L518.2358727156079,308L520,309.73247482889985L522.1239259421181,312L524,314.194293379141L525.910650446635,316L528,318.33594270522735L529.8073170651396,320L532,322.5916797139044L533.4374243335008,324L536,327.79592051803724L536.1520452953171,328L537.2677155598276,332L536.4356892223595,336L536,336.6092905793816L533.0622588978504,340L532,340.68258389849603L528,342.6756531039467L524.8881184925503,344L524,344.265007156867L520,345.24000826081766L516,345.8341911595252L512,346.1140349401597L508,346.107540289502L504,345.8119525329858L500,345.1928187558003L496,344.1737840234677L495.4888927771593,344L492,342.35338442234354L488,340.276715971492L487.69412279211303,340L485.7459185591032,336L484.73043438362936,332L484.1713373522289,328L484,325.66050631916704L483.9118676568595,324L483.84448559432826,320L483.9075083162011,316L484,314.0647080472398L484.13209001722487,312L484.59390252558205,308L485.702158488249,304L486.4402829350887,300L486.66604044021165,296L486.1046748730964,292L484.1588027351927,288L484,287.82440956458964L481.5287022521825,284L480,282.5779856037895L477.7414841999263,280L476,278.7070183693499L472.73773293882584,276L472,275.4223271943558L468.0173973911542,272L468,271.98532294422756L464,268.47363280807144L463.4809423236519,268L460,264.5975545813438L459.3361551559401,264L456,260.4967683928546L455.50065045736767,260L452.45898783619293,256L452,255.0879924437363L450.4884687399067,252L449.6504929217082,248L449.86134971507727,244L450.9258762118592,240L452,237.46193721645085L452.5808657434337,236L454.66075748533535,232L456,229.79463090214938L456.98905685537443,228L459.4016136753885,224L460,223.0769250383113L462.17191020256666,220L464,217.0113313954913L464.6794026652368,216L466.7118857495167,212L468,208.42510425832603L468.1604915835842,208L469.26504835636877,204L469.98400132474956,200L470.3867204969363,196L470.50980433115615,192L470.3655021900885,188L469.94584176803073,184L469.21143728381264,180L468.10262968669895,176L468,175.72574882351262L466.6418326426484,172L464.59726375657056,168L464,167.10713488876627L461.89050419237105,164L460,161.9239248087352L458.199909336215,160L456,157.83203097092175L453.7773733917245,156L452,154.58652154342053L448.2399235902526,152L448,151.83502476669932L444,149.26305619503262L441.8978077275658,148L440,146.80369082244113L436,144.31905950675528L435.49557551633495,144L432,141.5895333269136L429.8043312311513,140L428,138.53214364644904L425.1285547710504,136L424,134.91139207860422L421.2406137068024,132L420,130.5784103551312L417.9397066246574,128L416,125.41649204690344L415.0174794607505,124L412.3217845660845,120L412,119.51851867284071L409.7634881184589,116L408,113.36281611412704L407.1139845912823,112L404.24029737080394,108L404,107.7001869724767L400.95014731972867,104L400,102.98305006055568L397.16828424215606,100L396,98.85504951908302L392.1310541655986,96L392,95.90651461916394L388,93.68067137977448L384,92.09722912231481L383.66666658494324,92L380,90.89428579715585L376,90.05038809411403L372,89.43587994542429L368,89.02026502564962L364,88.7836798292588L360,88.71456635164176L356,88.80837495301532L352,89.06704737061514L348,89.49915030253882L344,90.12068499652182L340,90.95674680271745L336.53016721423165,92L336,92.15232975539516L332,93.0748778357906L328,93.75836916117504L324,94.16459377797463L320,94.27405237438711L316,94.14238556497622L312,93.93644562089312L308,93.64976201708456L304,93.27022928128156L300,92.77839952011155L296,92.14425959886296L295.26254535354707,92L292,91.22904355142393L288,89.81610189735096L284.15745936427726,88L284,87.89288516791606L280.4406087750749,84L280,83.35569690063767L278.322604914885,80L276.80419708800497,76L276,73.30993559365095L275.6685004866831,72L274.8309337195382,68L274.15275882414613,64L273.5962196163451,60L273.1355502331429,56L272.7529178549814,52L272.43606491280224,48L272,45.14835489219058L271.8349801259491,44L270.95075285021727,40L269.6687661457134,36L268,32.27355698110652L267.8782710360764,32L265.55826868666094,28L264,26.202764767762503L261.9783841984877,24L260,21.997621316250104L257.7718826553511,20L256,18.494478748037977L252.0471435226902,16L252,15.970828305340703L248,14.043076301725193L244,12.6741191514011L241.1941891785088,12L240,11.700708272938101L236,11.033639952874992L232,10.67846706882301L228,10.608695131196697L224,10.99095461858893L220,11.325588172167187L216,11.619788426937049L212,11.87896984610586L209.82286394400336,12L208,12.099475689988182L204,12.28418134965115L200,12.442815581729619L196,12.409844779550014L193.9477192707895,12L192,11.550767289246707L188,9.7366484894887L186.05941317904046,8L184,6.036086237407204L182.50058074774483,4L180,0.7488194157137542L179.53171575659502,0L176.70689673492348,-4L176,-4.866763157881195L173.6500732755742,-8L172,-9.746889472042994L169.90642681497206,-12L168,-13.951199167003836L166.11919840981852,-16L164,-18.166340506596427L161.80391233927492,-20L160,-21.449061107132323L156.025974347775,-24L156,-24.016400136957557L152,-26.16097725543652L148,-27.830552557557354L147.51648527018983,-28L144,-29.26556810189151L140,-30.422986865058256L136,-31.349980282595993L132.51979030670566,-32L132,-32.10329257627153L128,-32.80393245691836L124,-33.21063712766668L120,-33.36297710930588L116,-33.277073264301194L112,-32.949344567257036L108,-32.35599060965082L106.57672597717053,-32L104,-31.39579074389969L100,-30.34012923120845L96,-29.11815205949592L92.83421139632071,-28L92,-27.735142720481377L88,-26.32345108033998L84,-24.658291520816817L82.61490405997176,-24L80,-22.839794535688597L76,-20.736283259024646L74.79752870272003,-20L72,-18.35967117083395L68.79907472444427,-16L68,-15.420973124517161L64,-12.398841672905533L63.48624938467134,-12L60,-9.321044237409197L58.34413480199541,-8L56,-6.119773465190306L53.41166390765912,-4L52,-2.7634189886129406L48.84239738541348,0L48,0.7934778110257241L44.37198832579534,4L44,4.348979297829146L40.366187716048955,8L40,8.389768454146576L36.85083345295311,12L36,13.043336904548894L33.83660500971598,16L32,18.751170265494693L31.14954207711523,20L28.60650929108371,24L28,25.013866035108194L26.15171239124824,28L24,31.820162779045816L23.893956546468843,32L22.21345171340859,36L20.9782322122271,40L20.084210740855312,44L20,44.53892324306011L19.393653087910437,48L18.97047983886428,52L18.804357337833267,56L18.880396685611032,60L19.180816586836116,64L19.728306078730824,68L20,69.3419404662774L20.502307801224944,72L21.556885744139677,76L22.997367731259303,80L24,82.13849115639655L24.85468724101166,84L27.24077115828966,88L28,89.00831761115259L30.294217217737554,92L32,94.45419935496571L32.98438441157003,96L35.42574776979076,100L36,101.02763547390597L37.68912311343141,104L39.610609397784344,108L40,109.05636668847058L40.99717740178039,112L41.85999177026724,116L42.27625528794354,120L42.6535440341444,124L43.00370268351779,128L43.30409186341444,132L43.55918468407154,136L43.772273109673506,140L43.9456028246764,144L44,145.6252559979531L44.072602708106814,148L44.1604158668456,152L44.63599400998527,156L45.406437576529555,160L46.53718279990278,164L48,167.6881642458751L48.11473332061706,168L50.05449654534587,172L52,174.91073460809616L52.73600587313172,176L56,179.62695947732493L56.35378320929371,180L60,183.58647021581532L60.503379639165416,184L64,186.77171557463112L65.87759396116618,188L68,189.35040566861431L72,191.466235511165L73.17983273719616,192L76,193.28269695955868L80,194.8140315066717L83.7095106023502,196L84,196.09604358908734L88,197.33677890609715L92,198.44603507766635L96,199.61577328995554L97.22171509330528,200L100,200.9151604309933L104,202.54708060833224L107.22724316280349,204L108,204.3737540815228L112,206.50309987898783L114.67009400315169,208L116,208.82860039208452L120,211.50120321303723L120.70908212600625,212L124,214.61454090909092L125.68938704433447,216L128,218.13641419501437L129.96817622187905,220L132,222.08078663974584L133.84696999049055,224L136,226.3793849479644L137.45880188412235,228L140,231.01504663333617L140.83345353744815,232L144,235.6766937900967L144.28256077335698,236L147.9139548343226,240L148,240.08910760965222L151.94775497405243,244L152,244.0487840715498L156,247.6313451962601L156.43145534195358,248L160,251.13679976966802L161.23890521135363,252L164,254.10279163172527L166.8572041358144,256L168,256.88603256477893L172,259.7974243666215L172.28683954865113,260L176,263.5175188500476L176.4856498822075,264L179.67781358523405,268L180,268.4826500158073L182.09185332177827,272L183.97689562123304,276L184,276.0579754579009L185.38838461998188,280L186.53169007188006,284L187.48150151443872,288L188,290.55750637420874L188.24857945543346,292L188.85822900757535,296L189.40391026075952,300L189.90132168754707,304L190.6249188403276,308L191.71916774522708,312L192,312.7554791308135L193.17035247192894,316L195.18846652064724,320L196,321.2175618985439L197.90286875549833,324L200,326.2891575756569L201.67321239818216,328L204,330.2150765376429L206.36785751135295,332L208,333.1849608333865L212,335.3578472035897L213.32663865597004,336L216,337.313168173132L220,339.09011294902086L222.20036147990226,340L224,340.7801111162144L228,342.4452259843817L231.91468813584032,344L232,344.03629196471445L236,345.7461024265076L240,347.424350313876L241.35735487437728,348L244,349.14517968547324L248,350.8683921191142L250.62739435395923,352L252,352.5846718112999L256,354.2795157910158L260,355.92323428307L260.1851147702425,356L264,357.7254663105952L268,359.5846114317172L268.845537120233,360L272,361.61710166920375L276,363.21531052688476L278.53327861693924,364L280,364.48390916162896L284,365.49097270186274L288,366.207604480985L292,366.81304564936676L296,367.26881985523937L300,367.5853400853564L304,367.76941822965165L308,367.8246729624899L312,367.75171950147336L316,367.8164708489334L320,367.9294072058413L321.76297473632576,368L324,368.0973848401307L328,368.30613961893476L332,368.54277908523994L336,369.1583276427395L340,370.09732405814987L344,371.2825763477141L346.0664521520921,372L348,372.69605953626876L352,374.0347829784738L356,375.3336699175457L358.0722803308188,376L360,376.6510303543105L364,377.9826461779379L368,379.24629814276875L370.466870266616,380L372,380.4974127808505L376,381.40202640656094L380,382.0722030456853L384,382.5472284192976L388,382.85284816428765L392,383.00491763172784L396,382.97257785329003L400,382.75465290800713L404,382.33812722195046L408,381.6960578545838L412,380.90861865642984L416,380.07634358838993L416.3829394451224,380L420,379.33133119891477L424,378.5586860402053L428,377.7051651260283L432,376.7002477271196L436,376.1524061121772L440,376.03044069614856L444,376.58703482610554L448,378.315870639253L449.95137271036174,380L452,382.6586102972861L452.6941027896553,384L454.2019683884779,388L455.2623999979463,392L456,395.73072618753923L456.04531351458434,396L456.59550598802616,400L457.5127610017955,404L458.68779758238975,408L460,411.48009300287896L460.1873242198593,412L462.01738324928465,416L464,419.2627051375051L464.4524043008669,420L467.667760668568,424L468,424.31927403371935L472,427.8790346346857L472.17093690800255,428L476,430.87732883754836L478.03571307497907,432L480,433.07469072977153L484,434.70089601460325L488,435.84682529378244L488.7704988484585,436L492,436.67441182783284L496,437.1807370495528L500,437.4277731064975L504,437.4433204462381L508,437.22993711279446L512,436.77853932310416L516,436.0672934381172L516.274964753203,436L520,435.1375521494896L524,433.8908738424759L528,432.24360875760044L528.476326682188,432L532,430.23511457520533L536,428.1253510758137L536.297944872936,428L540,426.57964055891125L544,425.41112562415356L548,424.6957874217053L552,424.5318010521022L556,425.0155082478451L560,425.9428863106335L564,427.3199623294639L565.4463016448682,428L568,429.6170708063172L570.6759125380422,432L572,433.5104305256947L573.6653491216608,436L575.685291835413,440L576,440.7811541621302L577.0666668649483,444L578.1144139083107,448L578.9509429118341,452L579.6317235847611,456L580,458.60791430925565L580.1756835053732,460L580.6023002211156,464L580.9627501365305,468L581.7072214687234,472L582.809085485429,476L584,479.09904259721964L584.3389416505693,480L586.3528218588485,484L588,486.4085391770601L589.1205348119762,488L592,491.07142961470254L592.9285703852975,492L596,494.8794651880238L597.5912931369115,496L600,497.6480627849911L604,499.8532560066652L604.3210171719065,500L608,501.6919393776627L612,503.1477379888546L614.9102560238642,504L616,504.33022535658233L620,505.3323424797419L624,506.1255215774431L628,506.7446623025321L632,507.2147702465637L636,507.5536592492283L640,507.773696488993L644,507.8829071661968L648,507.8856706116478L652,507.78308234806434L656,507.57306381018486L660,507.5478987276101L664,507.37735485556857L668,507.1239039615326L672,506.78172336315527L676,506.34228100954283L680,505.79373179088316L684,505.1200189941612L688,504.29953342569274Z"/></g><g><path fill="rgb(196, 220, 214)" stroke="rgb(147, 170, 165)" stroke-opacity="0.3" d="M564.1408157127868,296L568,292.07053898964125L568.0507323628061,292L570.3984256738809,288L572,284.68622518415077L572.2671267093566,284L573.2317455050887,280L573.6329407635294,276L573.5000018099678,272L572.8233107500552,268L572,265.3835107076016L571.4630604330561,264L569.1043506733995,260L568,258.6507935243796L565.1307511961506,256L564,255.19727818168258L560,253.17518567758498L556.2981699764962,252L556,251.92238661637992L552,251.4088493889716L548,251.4088493889716L544,251.92238661637992L543.7018300235038,252L540,253.17518567758498L536,255.19727818168258L534.8692488038494,256L532,258.6507935243796L530.8956493266005,260L528.5369395669439,264L528,265.3835107076016L527.1679309544282,268L526.4817233810427,272L526.3442327957,276L526.7484362481694,280L527.7280616076675,284L528,284.68622518415077L529.6015743261191,288L532,291.5657006837526L532.3794426872668,292L536,295.210884561945L537.2244888227951,296L540,297.47191729648966L544,298.9108468727489L548,299.731833141553L552,299.95368787626677L556,299.53582669699375L560,298.32832236813994L564,296.11463119535244ZM408.4105184716413,368L412,367.2217733393894L416,366.188059868935L420,364.9559512930428L422.58352563968265,364L424,363.4730084817691L428,361.66228642256584L430.8539294639745,360L432,359.2549562334568L436,356.8388985934588L437.3379883877069,356L440,354.14982767470724L442.8956894276507,352L444,351.09613589123677L447.55808732048786,348L448,347.5771713084561L451.52531806957415,344L452,343.4715362197222L454.94340956937265,340L456,338.80408511566424L458.30972098827,336L460,333.11666841573293L460.6123082106932,332L462.2056074086314,328L463.2740131854043,324L463.96516937911406,320L464,319.6542705047388L464.3728409730902,316L464.5159488020629,312L464.4069672283115,308L464.09299949226533,304L464,303.4709287612662L463.3889576534576,300L462.2802948640863,296L460.67303429850415,292L460,290.73847049034964L458.36693105854044,288L456,284.9961322121034L455.10433322567826,284L452,281.2355227038434L450.3928614149178,280L448,278.51549607371663L444,276.35962352813607L443.2554155073451,276L440,274.2502062671141L436,272.3259566200238L435.26654646049144,272L432,270.27905781292486L428,268.25097305172807L427.4524403665189,268L424,265.9219522968211L420.69623767015116,264L420,263.36736149990355L416.4541864025214,260L416,258.6623596883806L415.19116703595046,256L415.2536588875725,252L416,249.1669079607937L416.2875111720584,248L418.1498397550604,244L420,241.10499039796565L420.6852989193046,240L423.66508317458033,236L424,235.62037192203286L427.14111490895857,232L428,231.1524728683156L431.115703329437,228L432,227.2189671286975L435.50069512360756,224L436,223.58976316216905L440,220.1024498680469L440.10953614048947,220L444,216.02397129195293L444.0214962529842,216L446.87981025274564,212L448,209.93084250799018L448.95713386937405,208L450.38954589887874,204L451.3222746116735,200L451.7889412110966,196L451.8426934616423,192L451.4654754155508,188L450.6184533340802,184L449.23648299789454,180L448,177.50311184953745L447.13988626653077,176L444.071473509316,172L444,171.92616360669956L440,168.36041880209717L439.53064988858307,168L436,165.7184505517776L432.9840094023456,164L432,163.51083900991298L428,161.68162934285886L424.133276696013,160L424,159.93648927257772L420,158.08315813672036L416,156.14782174517327L415.7027799547852,156L412,153.86564180653258L409.1514198151227,152L408,151.10348318982676L404.55079062092716,148L404,147.39286728715751L401.349242003302,144L400,141.80886230375393L399.0858437545777,140L397.49195841421675,136L396,132.2059570687797L395.91126282838377,132L394.0061279582734,128L392,124.15297625421621L391.9072379749745,124L389.09208044712403,120L388,118.67153260131809L385.27242771504143,116L384,114.94788856921733L380,112.44105224720255L379.04494367616957,112L376,110.81071600186314L372,109.6180254493064L368,108.77116987868288L364,108.24573842026146L360,108.02425062940995L356,108.09520593773351L352,108.45242740709256L348,109.09471136720148L344,110.02565971014386L340,111.25373154079045L338.2752774403894,112L336,113.18018320915243L332,114.65220414700892L328,115.48349898027368L324,115.6783349807643L320,115.28443754841581L316,114.5556891160596L312,114.03641349208638L308,113.69024484576192L304,113.49585755624852L300,113.44316192208831L296,113.53172457311118L292,113.77087510682597L288,113.92927991955557L284,114.17436590981129L280,113.97784224062258L276,113.18950249160036L272,112.22910481430358L271.43898321047834,112L268,110.7002002981337L264,108.26937023111961L263.6936309967186,108L260.1469006794853,104L260,103.7793342272524L258.2172716478783,100L256.8435928049167,96L256,92.3834948544893L255.9245859511791,92L255.4036944567889,88L255.62068218515378,84L255.7524712079342,80L255.78826659867997,76L255.7269410568071,72L255.56466066365402,68L255.29455905651724,64L254.90618633456177,60L254.38460608177735,56L253.70902606392013,52L252.85072151402733,48L252,45.44284966939418L251.40964187254133,44L249.0991486022362,40L248,38.56942619638852L245.388781942871,36L244,34.90795317309238L240,32.66341464491666L238.17204672561587,32L236,31.314477220604388L232,30.633728214373676L228,30.499999172287346L224,31.06306461863288L220,31.874047212574L219.53225053129637,32L216,32.998294969756216L212,34.46725110112152L208.78848545346273,36L208,36.373429582819085L204,38.64211140347828L202.02956028791874,40L200,41.32688822708744L196.2465352648057,44L196,44.16074686088382L192,46.21396453989297L188,47.84374691009248L187.228799473778,48L184,48.58063472395753L180,48.54881173563575L177.53166631729954,48L176,47.545715919658846L172,44.86684196963711L171.23612035668236,44L169.02603288306057,40L168,36.32986905175218L167.93931737997218,36L167.64258078635083,32L167.55359173519855,28L167.12575706833792,24L166.52854468038169,20L165.7506488260006,16L164.7677584363003,12L164,9.483798880675522L163.52239788921256,8L161.9227299788099,4L160,0.38886217634740206L159.7715971763892,0L156.72507523387466,-4L156,-4.7493326977997725L152.30473906671375,-8L152,-8.213669763513906L148,-10.652174685703358L145.32991640008066,-12L144,-12.669606027870984L140,-14.393279335187401L136,-15.800861527308058L135.33356940225417,-16L132,-17.021158918243884L128,-18.0841531680952L124,-18.73759618103132L120,-19.046069800036378L116,-19.04250677359694L112,-18.735488635145472L108,-18.11143286786026L104,-16.986497718028858L100.83512970381798,-16L100,-15.75450826265812L96,-14.476810815295181L92,-13.054535988890578L89.39045753886441,-12L88,-11.466014576226655L84,-9.725586728533486L80.61801198459852,-8L80,-7.68281415119786L76,-5.3503136142000045L74.0201666955306,-4L72,-2.499525097924149L69.2062787624902,0L68,1.2062515585512017L65.19063679155471,4L64,5.294623103790698L61.460693247028416,8L60,9.645552678595195L57.85335705459366,12L56,14.118806389239467L54.30795985324883,16L52,18.648666833429573L50.79489799815701,20L48,23.222270870263827L47.29363173831132,24L44,27.741454441299112L43.788047760848116,28L40.599905538928596,32L40,33.091402977689114L38.50874723005114,36L36.99618328019383,40L36,43.777150782081094L35.94644152954238,44L35.339084677797146,48L35.07275441025328,52L35.13928326185196,56L35.49594240024942,60L36,63.38351081269619L36.10334795562332,64L37.0527711124295,68L38.341309680506015,72L40,75.9413295802648L40.02676038774561,76L42.250019847260035,80L44,82.57103533038062L45.03783408465492,84L48,87.47618812622414L48.43867778850992,88L52,91.77594089402206L52.203774820387025,92L54.911405042980334,96L56,98.03257327002399L56.949350737839524,100L58.3347100720151,104L59.19213805669449,108L59.57788379441854,112L59.560581884041824,116L59.26176858411526,120L59.13830995143505,124L59.17013290364338,128L59.26065648202365,132L59.410794617266816,136L59.624264832996374,140L59.90788046076071,144L60,145.0304318396998L60.27047926544742,148L60.73203869325053,152L61.64686870100988,156L63.001162644580376,160L64,162.19123214176534L64.9003855945628,164L67.5292292194739,168L68,168.56971980691662L71.21824582335051,172L72,172.67108429058788L76,175.65850773612368L76.52263659183481,176L80,177.92552659133304L84,179.79439453494484L84.46446084395387,180L88,181.57484760372125L92,183.19589089876757L93.91660595069808,184L96,184.9118195679372L100,186.71755021425054L102.6095801771661,188L104,188.69450908342458L108,190.8366049986659L110.17283875024933,192L112,193.00740166951738L116,195.26742860827852L117.2408642686334,196L120,197.6889071477267L123.77064224218142,200L124,200.1464316598391L128,202.7753294222013L129.86871551140675,204L132,205.53359590712319L135.41976733929863,208L136,208.46802061896994L140,211.74117557085725L140.31180474645942,212L144,215.3759882286945L144.68153292708269,216L148,219.26812107308632L148.7448761600332,220L152,223.35265711079177L152.65861702916877,224L156,227.43581163104062L156.56646461786326,228L160,231.60240914293138L160.48634210297692,232L164,234.80250212285745L165.87384036581284,236L168,237.3274073753148L172,239.3255714208927L173.69257799287652,240L176,240.91131981730416L180,242.16297691094599L184,243.13837356077738L188,243.87212704773037L188.504847051438,244L192,245.04892327800286L196,246.62757963002582L198.62766418265574,248L200,249.0170521346227L202.99089152598907,252L204,253.7790241200023L205.07519113904357,256L205.85550296323714,260L205.76125904166906,264L205.3016827849412,268L205.07970922997498,272L205.0393241984375,276L205.1533351925446,280L205.4126717721565,284L205.82224062938565,288L206.33874833319737,292L206.98004260552904,296L207.77242111869396,300L208,300.95591974250937L208.84659352780426,304L210.43252740449202,308L212,310.79118923178993L212.76748485148318,312L216,315.8138657656561L216.18010357898407,316L220,319.1401804520853L221.200414792426,320L224,321.6640045440736L228,323.7514180840841L228.52301075039725,324L232,325.43399425647954L236,326.9429958183886L238.99640598202143,328L240,328.3748891275392L244,329.80869548585196L248,331.19794233427865L250.39512502019267,332L252,332.5799055928314L256,334.01401808954716L260,335.48818788302344L261.34208136892295,336L264,337.0951958677468L268,339.1184587667197L269.4225845289181,340L272,341.634506431236L276,343.7563597809844L276.56778070479686,344L280,345.4452678736712L284,346.7191762471752L288,347.6040495835422L289.98588970949095,348L292,348.3543269428489L296,348.88467386819195L300,349.24424970558516L304,349.43608042550323L308,349.46168707377865L312,349.3211094177176L316,349.3732853834531L320,349.4978945353143L324,349.69342748355257L328,349.9103607198816L332,350.13336072354815L336,350.9214688608187L339.3174382656876,352L340,352.20606738519103L344,353.856168167809L348,355.8255832421621L348.3747357089815,356L352,357.67469088614365L356,359.5026028353255L357.0737834382314,360L360,361.2964777899984L364,363.0184514393455L366.33995774592194,364L368,364.6973360147656L372,366.34127845592695L376,367.4597548944164L378.546627886333,368L380,368.32536198113996L384,368.98537256381275L388,369.4233837930805L392,369.66119545004443L396,369.65293643065866L400,369.4002826449276L404,368.8905570983503L408,368.0949300645392ZM344,280.7277550840731L340,282.15427659374166L336,282.64587729128846L332,281.9260221708571L328.56210055113286,280L328,279.582304710197L324.6395497388764,276L324,275.0099263095725L322.5840013367893,272L321.40714519628705,268L320.7911367895304,264L320.6364247610274,260L320.96177765836853,256L321.4154043443151,252L321.9870290349192,248L322.56562544365295,244L322.85921948107654,240L322.871121956965,236L322.6748822408107,232L321.799842259087,228L320.3439598992362,224L320,223.137610142224L318.99484560762596,220L317.68291414170596,216L316.34203567626207,212L316,210.95532356894233L315.1713728476181,208L314.0506114490283,204L312.9190405277624,200L312,196.82849880554227L311.7789979062006,196L310.8518571698287,192L310.00703019901295,188L309.4429055039235,184L309.9281361145228,180L311.7990898736581,176L312,175.7572595157951L315.28535397803984,172L316,171.41809312328348L320,168.0626695885752L320.09044358297865,168L324,165.32307804181278L326.92828881647625,164L328,163.5084958413692L332,162.6379815925069L336,162.67184889803949L340,163.47843711327218L342.4351535657625,164L344,164.34484536573012L348,165.5322769384495L352,166.99414791790616L354.2945405222568,168L356,168.99240526659588L359.95878865052083,172L360,172.05220343766666L362.45910714641633,176L363.3661682130233,180L363.19880746333894,184L362.2437644634655,188L360.67201477326563,192L360,193.23497995900925L358.49160289210425,196L356,199.74643790856487L355.8328004475538,200L353.9198511535874,204L352.44059237427,208L352,209.49854850913755L351.24692008085464,212L350.2969429961077,216L349.55747196525374,220L348.99502982966567,224L348.85418725282045,228L349.08379299033624,232L349.7295542527395,236L350.6694809738738,240L352,243.94929770429593L352.01777048069266,244L353.6635876312946,248L355.61390003966875,252L356,252.70960680580032L357.83504670393404,256L360,259.410008140942L360.372756552801,260L360.8361092057739,264L360,266.7482822158978L359.5860156129008,268L356.5645942736969,272L356,272.4985672044328L352,275.8190330515799L351.76189788429684,276L348,278.23970324646206L345.2903185187156,280ZM514.7977772906452,416L516,415.6150189760886L520,413.8452784128952L523.2248175930616,412L524,411.4754431151883L528,408.20123697014094L528.2092540180358,408L531.9716500834436,404L532,403.9622089017226L535.5903969607389,400L536,399.4228934951625L539.8705536422237,396L540,395.8474471456276L544,393.74513834016244L548,393.85331362280675L552,395.4144311968043L552.8432382682,396L556,397.51504726885753L560,399.2361875130941L562.2382750537885,400L564,400.4762156983524L568,401.3803541845697L572,402.14165096320454L576,402.8014450657041L580,403.3909309436016L584,403.93629987379586L584.5152259665082,404L588,404.39949788581083L592,404.8621579224537L596,405.0277398501284L600,404.2457135870153L600.5403905114626,404L604,401.6713908239376L605.2986346275401,400L607.2237317620102,396L608,393.2289571940067L608.248012383312,392L608.7274539912307,388L608.9260127708568,384L608.8993536929271,380L608.6705905967083,376L608.2400027056777,372L608,370.5082785114796L607.5123519003843,368L606.0390572280232,364L604,360.2430382909095L603.8310547308514,360L600.1251213836222,356L600,355.89336842967845L596,353.33742169431633L592.9524755385243,352L592,351.64587446131225L588,350.7030964960926L584,350.1699297415987L580,350.02780819416586L576,350.38062737972143L572,351.28757173585177L570.1077035884349,352L568,352.91236832046746L564,355.362808212004L563.2017349023201,356L560,358.79128315623814L558.8547878339149,360L556,363.10752047175083L555.2170306412047,364L552,367.5163421466171L551.389723520417,368L548,371.6374830294037L547.4318829086967,372L544,374.73511264721685L540,375.6607033364296L536,375.0440154114592L532,373.4305054793669L529.0957708913987,372L528,371.6173300866168L524,370.6061700779803L520,369.909698030227L516,369.44549993039516L512,369.1665770172913L508,369.04782054356076L504,369.0797705322426L500,369.2664948969582L496,369.62665489132223L492,370.2958259894094L488,371.7864584601076L487.587292986291,372L484,374.49101843728823L482.48064230955674,376L480,379.6523857401062L479.8228547026969,380L478.4575160797748,384L477.7067161810545,388L477.42696894332596,392L477.55543655392455,396L478.0840850412445,400L479.28730444395126,404L480,405.54589698816324L481.4103955203233,408L484,411.19030301537595L484.87235707567174,412L488,414.2138969738846L491.67773787825945,416L492,416.125952787426L496,417.096414111155L500,417.60376285758065L504,417.7116003436206L508,417.4303752437807L512,416.75633880190463ZM682.4140494140901,488L684,487.6066385670847L688,486.4085152102274L692,484.9465319634453L694.1664820219088,484L696,483.020903993424L700,480.4634700779143L700.6179605196352,480L704,476.7525170839607L704.6711076267183,476L707.3489345392633,472L708,470.6177695550816L709.0949767332093,468L710.1580535331323,464L710.6708387675126,460L710.6702110923637,456L710.155411600961,452L709.0878586143247,448L708,445.41165486654506L707.3283432814517,444L704.6149600879345,440L704,439.3202808893709L700.449403671543,436L700,435.67246572949784L696,433.21727728393876L693.5555591291277,432L692,431.42391772045255L688,430.20564075676805L684,429.24027141643387L680,428.48927156852903L676.5419501094512,428L676,427.91967405993137L672,427.48007247035093L668,427.14593819148195L664,426.9071481633305L660,426.75838587310113L656,426.8084461486792L652,426.50853282884793L648,426.2625058705695L644,426.06828217039447L640,425.92628171920194L636,425.8399670891298L632,425.816955312627L628,425.87124646739187L624,426.02769716117393L620,426.3315807184541L616,426.8713332687181L612,427.95467538412163L611.909295826492,428L608,429.9109941760564L605.6037047161286,432L604,434.154763032308L603.0182663927903,436L601.6184464978747,440L600.777561137146,444L600.311506774041,448L600.1261442920419,452L600.1745659035619,456L600.4391203896079,460L600.9243732517426,464L601.6564517085637,468L603.0686650069186,472L604,473.79028115743426L605.3129030164941,476L608,479.26062690665674L608.7143926769602,480L612,482.60809359083976L614.1232509270623,484L616,484.98521180575983L620,486.7113834973452L623.7468010808218,488L624,488.0725376875814L628,489.0085127270893L632,489.72786178520846L636,490.25807979368176L640,490.6189727985825L644,490.8243863749425L648,490.8833175911226L652,490.80063418554744L656,490.5774683353485L660,490.6121071031155L664,490.43955235334954L668,490.1508389326026L672,489.7402539494765L676,489.19812999206727L680,488.5101565617366Z"/></g><g><path fill="rgb(184, 206, 197)" stroke="rgb(136, 157, 149)" stroke-opacity="0.3" d="M208.14319307863866,224L212,221.87483130703424L214.24730005062185,220L216,218.36968881875333L217.90538897662503,216L220,213.01495083911578L220.85229330895078,212L223.830850613777,208L224,207.79951460039155L227.42057791407098,204L228,203.296385690254L230.81906025027575,200L232,198.02342156744567L233.26211245878432,196L234.95991555472307,192L236,188.28390136457807L236.0896242094716,188L237.26682697113375,184L238.55025731765505,180L240,176.12779400758183L240.05325139362452,176L242.10894536434967,172L244,168.42783036808703L244.2652772336782,168L246.39129035619897,164L247.9029957580684,160L248,159.6745902232809L249.3313215653227,156L250.3760408408362,152L251.13174191650762,148L251.35937968655264,144L251.40184072985232,140L251.33166112964034,136L251.1579472706568,132L250.88385984653127,128L250.47083923709351,124L249.79916670698105,120L248.84127957430542,116L248,113.33104889881483L247.65607677820554,112L246.32479480370836,108L245.05964446272856,104L244,100.48360590835057L243.8664384845021,100L242.8207939953695,96L241.7453804600541,92L240.59277625592506,88L240.07920979662697,84L240,83.46498095070362L239.44939820473076,80L238.5792249722021,76L237.3890129434546,72L236,68.4870551542738L235.7624653026474,68L233.31791683638312,64L232,62.32535586134668L229.24793104086734,60L228,59.11860298847944L224,57.489286225153535L220,56.81484349071141L216,56.735955634771926L212,57.029766558588165L208,57.719434930029195L204,58.61251812824068L200,59.69799360680412L199.02353801232834,60L196,60.75432922613814L192,61.51188621099155L188,62.09547056590071L184,62.448068527019785L180,62.59811340037902L176,62.55436363508551L172,62.307059417934L168,61.81416197218027L164,60.93696429744921L160.5800179484361,60L160,59.76917245736928L156,57.78999428934702L153.16376666389743,56L152,54.51526815847234L150.60025884715154,52L150.28981731760115,48L150.28165561671216,44L150.5096914214703,40L150.89383916511377,36L151.32871370461143,32L151.65737583013902,28L151.57587643971976,24L151.10788006676512,20L150.2286188091473,16L148.89143815507126,12L148,10.055791946663405L146.99745010937445,8L144.39020961997062,4L144,3.5564112898029947L140.48900414413973,0L140,-0.3779361182984644L136,-3.080661156793056L134.3751257530657,-4L132,-5.099276074041796L128,-6.724415769837464L124,-7.745160027688868L122.1200233227321,-8L120,-8.261874123388537L116,-8.36956032984557L112,-8.103315740289943L111.35691222123683,-8L108,-7.4397800930101L104,-6.186202722528378L100,-4.828969117963879L97.7344487923065,-4L96,-3.306353334104699L92,-1.621716073397181L88.59999648351649,0L88,0.3185689611383111L84,2.695910026536424L82.06218689034077,4L80,5.531461703065986L77.04996929260616,8L76,8.93759567242499L72.9476067355333,12L72,13.005200154894666L69.5682545893321,16L68,18.019174825387154L66.39907366595637,20L64,23.047603539646445L63.22080304148375,24L60,27.986903930889255L59.989075000877904,28L56.660180488580636,32L56,33.11767314157255L54.26108990917217,36L52.45508258893062,40L52,41.4694923604973L51.205755023252834,44L50.50931497949421,48L50.370230035705674,52L50.81850835046805,56L51.73477546825879,60L52,60.8886095918115L52.980315811535974,64L54.53820231749438,68L56,71.03207042313113L56.48233215632399,72L58.80825186067878,76L60,77.80793193352841L61.45878265562425,80L64,83.51453493847009L64.34629489969541,84L67.34583722322861,88L68,88.84608018089543L70.29925926165353,92L72,95.89298947086107L72.04391108024541,96L73.0584092713309,100L73.53419810840083,104L73.59084074657778,108L73.293872508351,112L72.72390281055058,116L72,119.96957968739551L71.9944655761172,120L71.59237141346824,124L71.52195794071275,128L71.6027862738286,132L71.83846964863022,136L72,137.62665349756648L72.2369609268456,140L72.82060062708297,144L73.62800135617093,148L74.71376543973756,152L76,154.9757389825987L76.47431236690096,156L79.01316166851748,160L80,161.21891686389702L82.51119545975283,164L84,165.35006276055282L87.12956230275083,168L88,168.62140312973003L92,171.3349578796604L92.97942377495858,172L96,173.79255852584276L99.7477195443247,176L100,176.13224641249025L104,178.4006990120614L106.76976937253752,180L108,180.70713756963187L112,182.97008037527053L113.82179031383379,184L116,185.29944791381683L120,187.72770331357998L120.43750786420867,188L124,190.2743302005452L126.71091578513489,192L128,192.84442424155623L132,195.48317872430175L132.774654631726,196L136,198.21430388415035L138.6246866387413,200L140,200.96303848708754L144,203.74002969859646L144.3785594866669,204L148,206.76666247260408L149.64095550559864,208L152,210.00437030829175L154.50775824792345,212L156,213.31041914140894L159.20522143588093,216L160,216.7169960626416L164,219.52664231758558L164.85216619761474,220L168,221.87997397715725L172,223.70392378091822L172.8945083385674,224L176,225.12649809825808L180,226.08158535230183L184,226.5817812850059L188,226.60230883465158L192,226.59307753024967L196,226.43399914107653L200,226.06957452247855L204,225.38615972071744L208,224.07194190037933ZM401.80284894103585,228L404,226.7260747388936L407.2824767795896,224L408,223.46510032745704L412,220.38565713446258L412.51771521913446,220L416,217.2459550755558L417.6069098216776,216L420,213.73389287254537L421.80291268927783,212L424,209.2586183978309L424.96613786414025,208L427.06679094653316,204L428,200.63241304362646L428.1636171419701,200L428.02093619648065,196L428,195.90755050278403L426.88067600000954,192L424.5632149110536,188L424,187.34857673400586L420.1126881685177,184L420,183.9253252706119L416,182.03010619947418L412,180.8708749330661L408,180.40952868636168L404,180.7920971199232L400,182.5955937974923L398.5292347517037,184L396,186.5804519817931L394.76190482477756,188L392,191.06903183371622L391.2226638992987,192L388,195.47334819893257L387.5373502194357,196L384,199.47951286221968L383.4967025191668,200L380.76181682675616,204L380,205.5193492562346L378.82264322685126,208L377.60261718548117,212L377.08260266995654,216L377.4164631070728,220L378.76874318176414,224L380,225.94261210190018L382.05820340553015,228L384,229.418478002987L388,230.822509429175L392,231.02280116100712L396,230.38982735568692L400,229.1806388669391ZM305.2308565323256,320L308,316.55011838224476L308.3536850525633,316L308.93741471366064,312L308.08207575508135,308L308,307.8228563072697L306.65572381313945,304L305.1599701926691,300L304,296.96560624131666L303.66448461802685,296L301.87111484328494,292L301.31740222390454,288L301.60460987229965,284L301.8824588803787,280L302.16341521893077,276L302.4561745945798,272L302.76790433154144,268L303.10541820706277,264L303.52116723637516,260L304,256.18191586763174L304.0202951765854,256L304.5160946342631,252L305.04790744479044,248L305.5282349145673,244L305.71083652698115,240L305.60888050712276,236L305.2569905928433,232L304.39352925167276,228L304,226.74168508412862L302.9928815358331,224L301.4423911931728,220L300,216.4748624366989L299.7661155393396,216L297.7506577436484,212L296,208.7577692558803L295.48839944901187,208L292.66244497055106,204L292,203.1297094230465L288.8808564992235,200L288,199.18344005902583L284,196.57804342129361L282.41276843250563,196L280,195.1601721437853L276,194.75564712805675L272,194.88898015043844L268,195.53663905559847L265.8579319206733,196L264,196.4156907853628L260,197.59352012257295L256,199.0960400765215L253.98509161539783,200L252,201.0747457862558L248.40792314553158,204L248,204.41977672981244L245.87984172258996,208L244,211.5596600882285L243.72949598826602,212L241.40838424924277,216L240,218.76002972016204L239.27851418949348,220L237.05580022222688,224L236,225.9976912027077L234.81512253036004,228L233.07564659773806,232L232.1523804885236,236L232,237.33138475364643L231.66226607236177,240L231.5954048866542,244L231.58844133143634,248L231.25349799842365,252L230.52842251641403,256L229.42294738437926,260L228,263.7832941865555L227.91566456736336,264L226.06698804683396,268L224.80286502875066,272L224.06240347096377,276L224,277.0525253434011L223.8278829759788,280L224,282.60914880984126L224.09697587240362,284L224.93797723149527,288L226.12716687464064,292L227.69847102252163,296L228,296.6015374071832L229.92091793645113,300L232,302.9112769327135L232.89078943705664,304L236,307.0713335713639L237.08066964053165,308L240,310.05064367078404L243.18327599681322,312L244,312.42345862946064L248,314.27244549920994L252,315.7162740260522L253.00285532155107,316L256,316.7771183727421L260,317.58509739617625L264,318.18158189463105L268,319.1892345643921L269.915390023115,320L272,320.85252289407634L276,322.1736188582528L280,323.1606618500794L284,323.70422517612514L288,323.647747149938L292,323.579079365632L296,323.1844287060511L300,322.3155086582925L304,320.73226317849554ZM413.2423692082773,356L416,354.9846846920365L420,353.17936491726874L422.1398400989817,352L424,350.8988695848436L427.9850868178237,348L428,347.9882278145524L432,344.21338645045336L432.2408368477651,344L436,340.34970898266636L436.3545553197498,340L440,336.48121675191993L440.4903082800554,336L443.67071193062225,332L444,331.45159336133423L446.05014680426575,328L447.73194819294383,324L448,323.0368706481886L448.8424592369728,320L449.42959866308695,316L449.5362090657436,312L449.14644485013343,308L448.22651663484953,304L448,303.40938758400523L446.5703537085034,300L444.18784833578684,296L444,295.75369103767684L440.76273260502705,292L440,291.29731724571644L436,288.09883814344244L435.8583951891468,288L432,285.7080545985348L428.7680024459095,284L428,283.634279557831L424,282.1056918036771L420,280.93219748416163L416,280.0515358183008L415.67055481137163,280L412,279.41881791297465L408,279.0000174871192L404,278.56705491178275L400,278.3851064472951L396,278.4864056121442L392,278.91071822923L388,279.7149228008134L386.96090457135205,280L384,280.7386240035031L380,282.03525771399353L376,283.6936817621842L375.38590364438636,284L372,285.51469677781364L368,287.8382440783416L367.73893276008226,288L364,290.3874266347147L361.46588793558544,292L360,293.006462455486L356,295.7038721729802L355.5442566844176,296L352,298.6639532188213L350.196954441419,300L348,301.91878530706856L345.95860149603016,304L344,306.6440912341426L342.7291124084687,308L340.1677177395297,312L340,312.43177211918305L338.05009964867133,316L337.206406939005,320L337.811030565338,324L339.677515400291,328L340,328.4073665120441L342.01135755711636,332L344,334.4183963844457L345.033612499685,336L348,339.2990761460729L348.6886427404088,340L352,342.59671567818754L353.76035413830886,344L356,345.42490566401926L360,347.97218513157503L360.0426553133394,348L364,350.3416201340545L366.82268048776143,352L368,352.65014292895455L372,354.87016527440846L374.86016308175704,356L376,356.4277475459261L380,357.6045982686973L384,358.4688618813358L388,359.0581135197871L392,359.3972606328091L396,359.4224829082421L400,359.1373994348324L404,358.5289012706044L408,357.56545749516L412,356.4315235845508ZM673.9514717945707,468L676,466.4616412016469L678.5387431857213,464L680,460.9932164638316L680.3942905370463,460L680.2412409774317,456L680,455.496023697139L677.8940123455894,452L676,450.4116994741436L672.101496295495,448L672,447.95837426858134L668,446.817187736709L664,446.1635798323633L660,445.9721475200889L656,446.60025624430295L652,446.24470342600443L648,446.31714629115595L644,446.83802889071046L640,447.85720942304886L639.6289007817735,448L636,450.1254805477696L633.7418750004925,452L632,454.8445731051345L631.4519928957246,456L631.1735828637471,460L632,462.57463362032775L632.5692194722177,464L636,467.7169558310733L636.3570834771717,468L640,469.7094563647745L644,470.92715017223895L648,471.5330127051277L652,471.56242351040464L656,471.0369880994531L660,471.59498782586354L664,471.22981328436947L668,470.3519168158306L672,468.9498542572951Z"/></g><g><path fill="rgb(171, 192, 181)" stroke="rgb(124, 144, 133)" stroke-opacity="0.3" d="M191.95951069446272,212L192,211.99279712456104L196,210.9341046720063L200,209.3484605731552L202.41127656387,208L204,207.1897273110917L208,204.42656504583277L208.48065604170284,204L212,200.9419465897389L212.9261294847393,200L216,196.44629848743278L216.34121204591554,196L219.11126425893235,192L220,190.5451096174653L221.60531447723054,188L223.7826517403148,184L224,183.59988247574654L225.96438752096066,180L228,176.19976373747403L228.10862915710283,176L230.42017821274607,172L232,169.21772731156534L232.7012632367721,168L234.66628447316117,164L236,160.58791632634723L236.25848959578906,160L237.75233437437487,156L238.94776236916897,152L239.91454060519607,148L240,147.36814865191198L240.52274537495447,144L240.87029975193985,140L241.05262285153947,136L241.08575187027225,132L240.97603561801327,128L240.70397145749268,124L240.19925358333876,120L240,118.96530181213501L239.4987428081812,116L238.54065552516357,112L237.22730435865344,108L236,104.44693644952332L235.85486098861548,104L234.50477719810715,100L232.96379144961753,96L232,93.80353010619015L231.15494197553096,92L228.90224709115734,88L228,86.10194098239873L226.88279516601352,84L224.26721564713546,80L224,79.64944522980647L220.27472392361875,76L220,75.77165135247205L216,73.29575115089821L212.7923669182607,72L212,71.7032480119347L208,70.81969990037271L204,70.3632220193924L200,70.24161948178963L196,70.37816296613386L192,70.49116667420878L188,70.59900156543532L184,70.65711369405477L180,70.67234720592302L176,70.64746313449979L172,70.58307016634325L168,70.44971898515564L164,70.21300805454746L160,69.92944991669532L156,69.58612338845757L152,69.22663901442482L148,68.50464053107808L145.53703324881968,68L144,67.58476280747036L140,66.26649501798789L136,64.40124738114423L135.26677226180743,64L132,60.254578233749584L131.82823903466138,60L131.09469956710757,56L131.65052726388032,52L132,51.010272561636555L133.00814707924084,48L134.08892957933912,44L134.9934023302667,40L135.73752676210955,36L136,33.87825594653036L136.22902838592807,32L136.36286737151073,28L136.02701869094022,24L136,23.86904272160193L135.1429167027931,20L133.63167988791366,16L132,13.072375346568208L131.36801411940516,12L128.14547123995692,8L128,7.859600302554668L124,5.164151525058784L121.04325141744943,4L120,3.678646562692961L116,3.1559048470126214L112,3.29583343451516L108.2914685486544,4L108,4.064010283013673L104,5.965609917098007L100,7.929950931375217L99.86362415818692,8L96,10.14745856774627L92.62067962997665,12L92,12.361110904509957L88,15.014468227063176L86.68300152469305,16L84,18.111077800625623L81.86284798765308,20L80,21.71131401131302L77.77546624066542,24L76,25.871712712174954L74.18940594383537,28L72,30.59365452810374L70.96977856870959,32L68.93863559544428,36L68,38.603342498157645L67.47204915271578,40L66.59583946796155,44L66.37274307928348,48L66.89451837920066,52L68,55.40074286651958L68.21153359892392,56L70.1119737010518,60L72,63.70421516695063L72.18758360371012,64L74.57221410177189,68L76,70.27545722803248L77.19597752711766,72L79.88669691269737,76L80,76.17290685456402L82.50254339850039,80L84,82.66465697310497L84.67382355088503,84L86.37357106788266,88L87.66535206540937,92L87.88319180647488,96L87.58412316383107,100L87.04278789423736,104L86.34434259272496,108L85.49951998308774,112L84.56891503407235,116L84,118.3832568836857L83.59163204240582,120L83.04330286324671,124L82.98962298283016,128L83.16887978394686,132L83.59466653771034,136L84,138.34635256061335L84.27345003799661,140L85.22361113528089,144L86.54587227061998,148L88,151.26490609417664L88.32465031273966,152L90.82876614955305,156L92,157.40684722944437L94.17492602098514,160L96,161.79403844297747L98.22449479386648,164L100,165.51369222991462L102.87553951626106,168L104,168.85345149745586L108,171.90997547009994L108.12312793949198,172L112,174.5990529036116L114.14758041991345,176L116,177.12819345333452L120,179.6066250946364L120.62328091561659,180L124,182.11979039440956L127.01468183293625,184L128,184.64754657531023L132,187.29962042561488L133.04927885341718,188L136,190.01595993512063L138.92090259716625,192L140,192.75076046647285L144,195.53478695532135L144.6817861596851,196L148,198.32232187228868L150.47387930163146,200L152,201.06313975676625L156,203.58814689262567L156.7050906094466,204L160,206.20969976222165L163.47383443275433,208L164,208.31664206569332L168,210.20479345373843L172,211.61300588020146L173.63606359527398,212L176,212.62823305382489L180,213.15912784438518L184,213.2095169873254L188,212.7361925928165ZM262.1404628783933,288L264,287.4737244490764L268,286.0654635850314L272,284.5551485306094L272.932511266521,284L276,281.7293620239789L277.656969946714,280L280,276.9634604499128L280.5665139947043,276L282.49957804771003,272L284,268.2098098762962L284.06724804524947,268L285.1336075929273,264L286.27342711599374,260L287.492344011399,256L288,254.4400291788519L288.67579843649037,252L289.83968826753,248L290.8661059081239,244L291.182853182139,240L290.78076872382434,236L289.6712871675922,232L288,229.07918307205813L287.1924354280931,228L284,224.99685744056075L282.2982087352883,224L280,222.67503883674755L276,221.7109160691146L272,221.54552045203695L268,222.11839774296374L264,223.3317926894373L262.60146376613307,224L260,225.2037795129363L256,227.91961619615324L255.91232765367937,228L252.45260206572124,232L252,232.76730121999668L250.51150182434327,236L249.3167118507901,240L248.71263696416025,244L248.5747089741514,248L248.39351034758255,252L248,255.84195160223516L247.9874029022128,256L247.48366173119427,260L246.73711475017325,264L245.71166897611533,268L245.16201270273336,272L245.2157040960925,276L246.05282847239738,280L247.93613450122882,284L248,284.0862565060587L252,287.2072061397107L254.25895966815153,288L256,288.61394686221536L260,288.6789244583447ZM403.8044578633958,348L404,347.9585360072926L408,346.63002292216424L412,345.12472209359396L414.3778418529053,344L416,343.1447549438022L420,340.5933714142623L420.7815441788365,340L424,337.5099794060726L425.672606751716,336L428,333.3346058199747L429.012699053957,332L431.30451170343963,328L432,326.2703289909204L433.00379646942235,324L434.06709075448464,320L434.43141514762476,316L434.1089307162051,312L432.9929652434274,308L432,306.031688933506L430.9419255575798,304L428,300.31740136781684L427.6665931093835,300L424,297.12932749929126L422.0051368252989,296L420,295.01524199105927L416,293.6237556047901L412,292.74316431724685L408,292.3008633562885L405.0293588957055,292L404,291.90180946843765L400,291.8548702376413L397.960854805726,292L396,292.14469096773587L392,292.79120766692097L388,293.8169327506374L384,295.12256151365295L381.8124548719492,296L380,296.77171418589256L376,298.8443531490894L374.1509559286801,300L372,301.46429425397014L369.152833616386,304L368,305.2983072109138L365.6570949622287,308L364,310.62324723028246L363.1118326078948,312L361.344615098328,316L360.32722405143136,320L360.2653962272719,324L361.0632086644032,328L362.75518415351803,332L364,333.87583864354957L365.3656207276781,336L368,338.9018454862276L368.98449931817817,340L372,342.61444055914876L374.1844930826437,344L376,344.9339064330454L380,346.5595869231541L384,347.7747658874492L385.05295119188463,348L388,348.58614206424653L392,349.0637648052825L396,349.1192874640455L400,348.7569008396174Z"/></g><g><path fill="rgb(159, 178, 164)" stroke="rgb(112, 130, 117)" stroke-opacity="0.3" d="M113.3327415463562,44L116,40.710408010248955L116.4083045987737,40L117.87944526042256,36L118.27676454310429,32L117.05674067910303,28L116,26.460109130052842L112,24.07314503106727L108,24.355439706757736L104,27.02749432107923L102.40328407058317,28L100,29.593926120994652L96,31.852880776587952L95.68619509925796,32L92,34.679994011743645L90.73945229270359,36L88.77137076353114,40L89.08510969568295,44L92,47.09730641787888L96,47.3858204407866L100,47.78417144498707L104,47.78015453552581L108,47.49531348214819L112,45.22648176455817ZM197.20519436185953,200L200,198.69302484271986L204,196.1005050609702L204.12510034024064,196L208,192.59766985996197L208.5461529687782,192L211.84156026930782,188L212,187.79042477146584L214.6329603464015,184L216,181.89019424586718L217.16059333152452,180L219.64669019083203,176L220,175.45030948391064L222.2379070777322,172L224,169.24314588723098L224.79108393610983,168L226.9841148144294,164L228,161.78209449190248L228.83896338864497,160L230.43725458826236,156L231.76010487592117,152L232,151.1633667419991L232.94081511948662,148L233.64743161941254,144L234.05910129323405,140L234.29220909744942,136L234.36149078158883,132L234.27129533735064,128L234.006533275781,124L233.51390261617638,120L232.73811859662732,116L232,113.31142972898053L231.64994552998695,112L230.2116053546943,108L228.5919256971198,104L228,102.66391590671361L226.81819150613597,100L224.73081203655084,96L224,94.80327970210493L222.02988863006192,92L220,89.64969446492321L218.2705228744898,88L216,85.72307650015208L213.84128258481337,84L212,82.65249414812308L208,80.64387850260852L206.20519685083445,80L204,79.24456467881112L200,78.31718464134369L196,77.82038494596142L192,77.48052802205609L188,77.26069441413239L184,77.10699042814676L180,77.00643220111277L176,76.95162862296365L172,76.94396850159333L168,76.94972856518211L164,76.96572318113795L160,77.0062034666716L156,77.07532002518269L152,77.23417284673718L148,77.21178938222172L144,77.27255696117393L140,77.3943526952894L136,77.4636430429479L132,77.56001901520011L128,77.65808438159647L124,77.98746186595938L120,78.69321906879827L116.09951742048636,80L116,80.03528048937972L112,82.17578283123092L109.96813840963065,84L108,86.01934871832682L106.68287223883803,88L104.46092579711447,92L104,92.76356094115897L102.31370412810722,96L100.36502984380695,100L100,100.81325166961656L98.67086276977366,104L97.19310781334235,108L96,111.51325057740749L95.83509718170686,112L94.55267122257757,116L93.4387724600848,120L92.86489682220008,124L92.8656407267444,128L93.13471521458095,132L93.6851892199978,136L94.54819365502746,140L95.7778400457874,144L96,144.5506556258688L97.32518144533393,148L99.38361097665066,152L100,152.90203503224492L102.06751865051677,156L104,158.26358787509128L105.46821418594524,160L108,162.55999780431156L109.52752321557028,164L112,166.08646487478092L114.35113587594995,168L116,169.2195354444982L119.77739028446922,172L120,172.15339473127295L124,174.94313397517152L125.52488281114765,176L128,177.6362206829716L131.59079553505813,180L132,180.2673878582496L136,182.91486094336761L137.64079068348275,184L140,185.6359680313111L143.4278315256441,188L144,188.4028136404038L148,191.15375345339555L149.2709985763253,192L152,193.86833282444928L155.50095728330356,196L156,196.31450564298137L160,198.61478170243385L163.16253240833674,200L164,200.38384190481338L168,201.7764677866021L172,202.7717862864534L176,203.38164430449882L180,203.56683490574204L184,203.37612963411334L188,202.77166327408946L192,201.86668334796832L196,200.53886748941835ZM400.83438363224076,336L404,334.94452483692277L408,332.86288569690964L409.5865288979915,332L412,330.2153521623004L414.381860406859,328L416,325.6720873016222L416.95986759578363,324L417.96737998256594,320L417.5421943181978,316L416,312.7825566417144L415.45610994589214,312L412,309.32648455502175L408.9588224140801,308L408,307.71250848428565L404,306.66928476062526L400,306.3232250948844L396,306.6067416053783L392,307.50384044797175L390.7026484799783,308L388,309.34384913963095L384,311.91188905243257L383.88919596558964,312L380.3305657135046,316L380,316.6100824103217L378.47299571688706,320L378.19839742390855,324L379.36431932736116,328L380,328.95519374909566L382.5732337804362,332L384,333.0451182146239L388,335.1628460202078L390.49540427342276,336L392,336.3626087217843L396,336.62117349646303L400,336.21696269408005Z"/></g><g><path fill="rgb(146, 164, 147)" stroke="rgb(100, 117, 101)" stroke-opacity="1" d="M183.1259172600362,196L184,195.91604227157848L188,195.08891733142855L192,193.86651688609606L196,192.1060287259138L196.18486398463267,192L200,189.69987868907697L202.11509937339332,188L204,186.37254002735466L206.23588528099617,184L208,182.0190573080099L209.52815012265432,180L212,176.7021753155534L212.49327145546522,176L215.33257151402273,172L216,171.06160302677654L218.11549845386998,168L220,164.81786635724256L220.48745088160103,164L222.57200763286335,160L224,156.7391440798592L224.32470423607856,156L225.88014176208452,152L227.17798952739287,148L227.96709399289563,144L228,143.72059104833897L228.47137573008956,140L228.75800429517943,136L228.84071120592358,132L228.7237681444713,128L228.39227073126887,124L228,121.35078180149108L227.81292645061637,120L226.96656831312885,116L225.75334435608033,112L224.07081751505262,108L224,107.84353222106074L222.1480378050867,104L220,100.27042577040137L219.82976056643423,100L216.91595760576934,96L216,94.96025013978073L212.99480803301168,92L212,91.17731988588642L208,88.63828425591726L206.71373328388665,88L204,86.58816618922094L200,85.0871565445903L196,84.14449970568958L195.1659184492524,84L192,83.43133777543554L188,82.9330969959172L184,82.5940500812629L180,82.3834472420414L176,82.28409219848595L172,82.29746051188957L168,82.38081559307642L164,82.54594529695126L160,82.78743647999408L156,83.12101461977576L152,83.62515996260308L148.4868666635665,84L148,84.0493974256402L144,84.62519919221373L140,85.41498053639347L136,86.3341538950454L132,87.49435611985106L130.51077451402438,88L128,88.87753329491858L124,90.70152818458911L121.79690500344205,92L120,93.11488942839961L116.28749243771716,96L116,96.24237209282492L112.22854193194965,100L112,100.26536463970345L109.21243237308673,104L108,105.94762237590018L106.8860946779877,108L104.9850700545721,112L104,114.52019071513087L103.42557001444044,116L102.13514332899268,120L101.43485412751139,124L101.3757740647394,128L101.62542078661477,132L102.18901598277512,136L103.0916813923229,140L104,142.8401231543448L104.35314649311036,144L105.99064929965115,148L108,151.6670670582213L108.19323363320515,152L111.19224266858811,156L112,156.87255762851984L115.00608845393728,160L116,160.9119504169287L119.38330134668243,164L120,164.51310722097884L124,167.82013794611026L124.21782936683988,168L128,170.8723468431994L129.50618612335842,172L132,173.78338076801606L135.13259208072574,176L136,176.59261909980438L140,179.33813268827072L140.96182846244915,180L144,182.08032832839478L146.9317891872478,184L148,184.7338183074246L152,187.3827096977974L153.054449224099,188L156,189.7860808458338L160,191.92443973991323L160.185077810697,192L164,193.6312708636097L168,194.8968232571541L172,195.7745204794008L173.8621456926927,196L176,196.27442722390072L180,196.30389767094886Z"/></g><g><path fill="rgb(133, 150, 130)" stroke="rgb(88, 104, 85)" stroke-opacity="0.3" d="M187.80367405428524,188L188,187.94719393513935L192,186.43690249471626L196,184.28917850618984L196.41505358442595,184L200,181.42925443947928L201.5427253373325,180L204,177.7119923013767L205.5468424927987,176L208,173.2598838804206L208.98583939472178,172L212,168.1081200364249L212.07928558771636,168L214.6972792195378,164L216,161.67384936220884L216.9277352127068,160L218.86659089135992,156L220,153.32164657248572L220.56316489943026,152L222.05750033184614,148L222.9894939932757,144L223.5347913952,140L223.84142536632783,136L223.92502439180112,132L223.78757285762958,128L223.4127170866971,124L222.74904391311037,120L221.7263210531027,116L220.26273360508026,112L220,111.45148433983286L218.26016401473368,108L216,104.20439208368472L215.8710473834799,104L212.97654852325326,100L212,98.86197484341383L208.99663058127305,96L208,95.20186773155694L204,92.5900832550955L202.84657160156706,92L200,90.7087583891234L196,89.44358607958978L192,88.54267841608484L188.5939206042209,88L188,87.89764153775664L184,87.40700995305573L180,87.10344608839424L176,86.9615441490811L172,86.98274593398511L168,87.11697639907635L164,87.3848589314149L160,87.77040513894084L158.21432834039715,88L156,88.26757304876705L152,88.95112216183321L148,89.65341574705818L144,90.64225256250612L140,91.96504514070642L139.90119639102724,92L136,93.46171451965066L132,95.29346721821895L130.65224135651627,96L128,97.521823085537L124.3866676609151,100L124,100.30557506451626L120,103.88862762013616L119.88890572846637,104L116.46704402219652,108L116,108.64057534780596L113.7208361510011,112L112,115.22820408044606L111.61515705733132,116L110.00832040824815,120L109.07977436450321,124L108.89821911549038,128L109.09305406394512,132L109.65899254558721,136L110.61436268443597,140L112,143.991214310556L112.00305666700277,144L113.90304497183254,148L116,151.29484123768907L116.44725440334506,152L119.68231657022821,156L120,156.32731343932582L123.58654142657042,160L124,160.37863338963965L127.98453319806939,164L128,164.01291492625865L132,167.35409883603677L132.7812093251024,168L136,170.45525384043975L138.05739965966202,172L140,173.409861033818L143.611325245514,176L144,176.27222463398414L148,178.9636306561685L149.6316080530087,180L152,181.52183189233205L156,183.76524055862643L156.4838516792196,184L160,185.82257388863667L164,187.38984557774313L166.15294092652016,188L168,188.5507556198383L172,189.34131066405115L176,189.72131616313806L180,189.59173999981772L184,189.01923856589815Z"/></g><g><path fill="rgb(121, 135, 114)" stroke="rgb(77, 90, 71)" stroke-opacity="0.3" d="M191.01649794097227,180L192,179.57484872525868L196,177.26484120231612L197.67265585235072,176L200,174.2482425066184L202.37239959253856,172L204,170.4477605756183L206.21242927108887,168L208,165.73601029194316L209.228969759648,164L211.69591704362438,160L212,159.44446890662786L213.8156615190603,156L215.64234660369283,152L216,151.11087732640337L217.26093956880317,148L218.29835551790427,144L218.90006062011054,140L219.2309581933476,136L219.30535347439564,132L219.12231717225404,128L218.66168693719237,124L217.86629703926627,120L216.6553165820913,116L216,114.42691051381556L214.9662412789463,112L212.6360091252551,108L212,107.0405066073368L209.6784493798192,104L208,102.13081659763697L205.75656177849157,100L204,98.56653035965749L200.0447026491222,96L200,95.97494324595553L196,94.2598569056822L192,93.04022887793136L188,92.1830037448149L186.77748342737664,92L184,91.6018065609523L180,91.24256658250465L176,91.07695338054415L172,91.10961944297753L168,91.28697626790444L164,91.63599941901782L161.06383569226898,92L160,92.13432921260741L156,92.80260000310713L152,93.74027077757088L148,94.7623366810895L144.4036439395744,96L144,96.15091337616897L140,97.95730413989833L136.11456811428693,100L136,100.06848883972313L132,102.67573859528477L130.21391306848383,104L128,105.9235727329791L125.84058631232236,108L124,110.0788814362125L122.41855232810849,112L120,115.77183471043753L119.85971997398764,116L117.90974608817609,120L116.71654918599634,124L116.36848663986837,128L116.46624306885224,132L116.98995459155913,136L117.9477268973439,140L119.37557679783302,144L120,145.24974529463913L121.35025331842479,148L124,151.9937440804371L124.00413680630041,152L127.31414335186744,156L128,156.69691008007737L131.26659630630638,160L132,160.66875947318684L135.67890728220235,164L136,164.26822549227575L140,167.59449235173815L140.4910846733174,168L144,170.67513624465118L145.87462678597018,172L148,173.4771757936843L151.9152121143349,176L152,176.05461644720384L156,178.30037290830728L159.61997148577785,180L160,180.1849110378426L164,181.64615252123713L168,182.67597209266728L172,183.32611331939L176,183.57653591471382L180,183.30330158153362L184,182.5774935737158L188,181.3334281234661Z"/></g><g><path fill="rgb(108, 121, 97)" stroke="rgb(65, 77, 55)" stroke-opacity="0.3" d="M186.00046943353237,176L188,175.3363514180839L192,173.50515073564787L194.46080601928884,172L196,171.0714022872969L199.92654534518113,168L200,167.93568765494342L203.64275295857578,164L204,163.56031198933766L206.55902480782538,160L208,157.6890365026601L208.96496763635628,156L211.00301827748814,152L212,149.74702511734876L212.7488149837896,148L213.86695540387672,144L214.50343050691725,140L214.84069686064976,136L214.8929091851448,132L214.65691779095658,128L214.1089021253738,124L213.18564964225038,120L212,116.55907217450547L211.79185058263369,116L209.74905494576325,112L208,109.48957096726559L206.83371734236744,108L204,104.88426247445986L203.0483801800287,104L200,101.53893176483115L197.43159329984144,100L196,99.24127663150759L192,97.64158580209826L188,96.51192401170078L185.37604198215757,96L184,95.75156802263024L180,95.29302830244768L176,95.08034482745762L172,95.11824357266775L168,95.33997755371709L164,95.77429595858393L162.52516643187766,96L160,96.4072599567912L156,97.27223241934243L152,98.47183645826524L148,99.82081372867137L147.57271225908107,100L144,101.67488338264332L140.0999983716238,104L140,104.06862292184783L136,107.0125685784871L134.789255258177,108L132,110.65439718028222L130.69401415547614,112L128,115.57254717699135L127.6931445958308,116L125.45677665568775,120L124.0254596714706,124L124,124.18516152055497L123.47534625635427,128L123.44023458646618,132L123.88947259717156,136L124,136.47363450403157L124.79089488560078,140L126.1798109212601,144L128,147.57571991126068L128.2122189375929,148L130.91352510424832,152L132,153.2842502376483L134.30433553978372,156L136,157.70569727949794L138.2896095989545,160L140,161.5537542096811L142.71046825492652,164L144,165.07515409558124L147.78291060534679,168L148,168.1559637162979L152,170.82177929599908L154.10078636550205,172L156,173.07209988139084L160,174.9233909568335L163.18026624717336,176L164,176.28738892670947L168,177.24048010879642L172,177.80146227892544L176,177.9510914191269L180,177.5495395230417L184,176.68358683498406Z"/></g><g><path fill="rgb(95, 107, 80)" stroke="rgb(53, 64, 39)" stroke-opacity="0.3" d="M180.9576785194427,172L184,171.31012500294707L188,169.91200712625158L191.93319027238908,168L192,167.964567645074L196,165.20648995840128L197.36536413095956,164L200,161.387320601652L201.14414087198327,160L204,156.03997910484736L204.02576539430663,156L206.36639240972534,152L208,148.71698668151407L208.3331461892247,148L209.56283504953564,144L210.25121969183982,140L210.60167105931208,136L210.6250420141193,132L210.3122627902448,128L209.6304855720598,124L208.50150526498254,120L208,118.76301863918775L206.7856544434124,116L204.3202984659473,112L204,111.60022957680536L200.6553968378429,108L200,107.38654473346037L196,104.48270068610745L195.1209423954951,104L192,102.46174126734974L188,101.03931244449808L184,100.06319911654953L183.5948126971344,100L180,99.47503058694394L176,99.19626638379353L172,99.23017493239934L168,99.49199725665969L164.07568109503512,100L164,100.01035764573939L160,100.79349076341117L156,101.86530266338528L152,103.35249698764704L150.43405942135777,104L148,105.12919149507044L144,107.52309626003998L143.33064431152692,108L140,110.74093119601463L138.58715335996177,112L136,114.95780049231632L135.1375593444726,116L132.61050495506137,120L132,121.42016103830079L130.91268968450905,124L130.16402851297224,128L129.9837584179076,132L130.32528164380196,136L131.17861735776418,140L132,142.37431623319142L132.54464809657503,144L134.56964940937576,148L136,150.05468993317552L137.35065671981482,152L140,155.06627073094288L140.80912942413792,156L144,159.18645132343755L144.87970722027742,160L148,162.64140720452798L149.7643379031456,164L152,165.61299862904542L155.92958108421905,168L156,168.04023991908025L160,169.8929192144475L164,171.2290185813327L167.52132953860854,172L168,172.10895183245208L172,172.6170710730932L176,172.70656967584057L180,172.22460012021327Z"/></g><g><path fill="rgb(83, 93, 63)" stroke="rgb(42, 51, 24)" stroke-opacity="1" d="M188.98081536574642,164L192,162.18541879671432L194.75891376198337,160L196,158.90607859353722L198.616117718849,156L200,154.2781342310266L201.5207596301272,152L203.8025941560747,148L204,147.47005975981702L205.19568519879306,144L205.94989327649853,140L206.31169763205094,136L206.29386153583403,132L205.88499388506511,128L205.04586018394133,124L204,120.89700032256519L203.6675725971104,120L201.5502250591835,116L200,113.86614766769588L198.30495928726043,112L196,110.04385670870911L192.82386789045484,108L192,107.52426476311291L188,105.78534274094116L184,104.58498488249671L180.9265944732556,104L180,103.83574294133493L176,103.48325201721192L172,103.51100515704073L168,103.8142674537832L166.76320126052963,104L164,104.4428050228276L160,105.38781245194642L156,106.69568387849338L153.09235703405085,108L152,108.54389315205276L148,110.82130997165677L146.35262603963622,112L144,114.12906017764121L142.24314475576108,116L140,119.1524306434803L139.4176041929875,120L137.46890481276114,124L136.5228004790419,128L136.19607568899178,132L136.4268010998784,136L137.19397889460564,140L138.5118033458815,144L140,146.8872295024481L140.56358164055615,148L143.3994737661029,152L144,152.68857148934077L147.1308151665311,156L148,156.80612247613402L151.80029222262152,160L152,160.15500523017798L156,162.8024192306386L158.2983808231744,164L160,164.84146963098783L164,166.27702237208507L168,167.20829909172255L172,167.71303002198113L176,167.77635490360814L180,167.2253512606339L184,166.1665705894393L188,164.53898465220436Z"/></g><g><path fill="rgb(70, 79, 47)" stroke="rgb(30, 39, 6)" stroke-opacity="0.3" d="M185.5600789578283,160L188,158.77321108860838L192,156.0035280925585L192.00397498408813,156L196,152.07241129932487L196.0589221963516,152L198.89890574796664,148L200,145.5999326377286L200.62388460924456,144L201.47250512412188,140L201.85880714112528,136L201.79775097449988,132L201.2746632260213,128L200.24136753234853,124L200,123.39443098776187L198.3658375448403,120L196,116.59973210821849L195.46921548144053,116L192,113.03356182591602L190.37229671713033,112L188,110.79301026094637L184,109.35344567082231L180,108.43980191943578L176.11631877421974,108L176,107.9876229009775L174.0429468067369,108L172,108.01358360062844L168,108.38588659891812L164,109.13483584284796L160,110.26166561431694L156,111.83484069574754L155.6841921507589,112L152,114.37197621230902L149.83605596315707,116L148,117.78132827976435L146.1132980324207,120L144,123.5046553590683L143.7369515298543,124L142.56558487791057,128L142.07842498544645,132L142.20034934916353,136L142.9016942415079,140L144,143.40896427746085L144.20092974328935,144L146.4095123320802,148L148,150.03821206316408L149.70434696539292,152L152,154.18353435828422L154.25804098703472,156L156,157.25540817144906L160,159.509990006643L161.20326620931553,160L164,161.0712611852569L168,162.05559500961587L172,162.5752133617201L176,162.6103419275064L180,161.95427115338956L184,160.720285206576Z"/></g><g><path fill="rgb(58, 65, 30)" stroke="rgb(22, 26, 0)" stroke-opacity="0.3" d="M180.95330458298503,156L184,154.8379185335755L188,152.54940377878322L188.7145295380481,152L192,149.09474815326965L192.9672378481597,148L195.30076530568795,144L196,141.74093840184423L196.4476402692029,140L196.89624293619391,136L196.77454540440453,132L196.0603396281016,128L196,127.81839777641457L194.43454031891224,124L192,120.26703083683662L191.7726534214009,120L188,116.77626081399598L186.71785681145326,116L184,114.70816940718362L180,113.48744242311847L176,112.87956634089693L172,112.91120595285241L168,113.39481234840306L164,114.3621841110583L160,115.83391835084001L159.66729576501052,116L156,118.28630905318337L153.97421100532517,120L152,122.24206896172561L150.6645299326168,124L148.91239732470848,128L148.10176821724735,132L148.10123765731927,136L148.84380580595135,140L150.31159948318862,144L152,146.73178173615432L152.90242593665624,148L156,151.0208901341547L157.30991453176625,152L160,153.69476199155753L164,155.4948362017604L165.78577278394556,156L168,156.5801659345565L172,157.11556646374717L176,157.11428223550848L180,156.3361000865436Z"/></g><g><path fill="rgb(45, 51, 13)" stroke="rgb(7, 12, 0)" stroke-opacity="0.3" d="M184.36662688141604,148L188,144.38881025734744L188.2928506205128,144L189.9010247822551,140L190.56262932240958,136L190.29933695423597,132L189.06880976203553,128L188,126.11611722225129L186.36529897798044,124L184,122.00105513727735L180.3217173360128,120L180,119.86780851990312L176,119.01269836426226L172,119.03126435781934L168,119.65494557858665L166.8932727346574,120L164,121.15311738734547L160,123.61149609353103L159.54038760958045,124L156.57051967749436,128L156,129.4705709460073L155.25904684756895,132L155.06234325664767,136L155.78389920418957,140L156,140.53036956640443L157.7923198048954,144L160,146.39671602949144L162.032149759507,148L164,149.0686966848159L168,150.42983125553272L172,151.09812839754372L176,151.07313994447213L180,150.06746236726772L184,148.2444741125072Z"/></g></g><g id="labels"/><g id="axis"><g transform="translate(0,500)" fill="none" font-size="10" font-family="sans-serif" text-anchor="middle"><path class="domain" stroke="currentColor" d="M0,6V0H705V6"/><g class="tick" opacity="1" transform="translate(0,0)"><line stroke="currentColor" y2="6"/><text fill="currentColor" y="9" dy="0.71em">40</text></g><g class="tick" opacity="1" transform="translate(71,0)"><line stroke="currentColor" y2="6"/><text fill="currentColor" y="9" dy="0.71em">60</text></g><g class="tick" opacity="1" transform="translate(141,0)"><line stroke="currentColor" y2="6"/><text fill="currentColor" y="9" dy="0.71em">80</text></g><g class="tick" opacity="1" transform="translate(212,0)"><line stroke="currentColor" y2="6"/><text fill="currentColor" y="9" dy="0.71em">100</text></g><g class="tick" opacity="1" transform="translate(282,0)"><line stroke="currentColor" y2="6"/><text fill="currentColor" y="9" dy="0.71em">120</text></g><g class="tick" opacity="1" transform="translate(353,0)"><line stroke="currentColor" y2="6"/><text fill="currentColor" y="9" dy="0.71em">140</text></g><g class="tick" opacity="1" transform="translate(423,0)"><line stroke="currentColor" y2="6"/><text fill="currentColor" y="9" dy="0.71em">160</text></g><g class="tick" opacity="1" transform="translate(493,0)"><line stroke="currentColor" y2="6"/><text fill="currentColor" y="9" dy="0.71em">180</text></g><g class="tick" opacity="1" transform="translate(564,0)"><line stroke="currentColor" y2="6"/><text fill="currentColor" y="9" dy="0.71em">200</text></g><g class="tick" opacity="1" transform="translate(635,0)"><line stroke="currentColor" y2="6"/><text fill="currentColor" y="9" dy="0.71em">220</text></g><g class="tick" opacity="1" transform="translate(705,0)"><line stroke="currentColor" y2="6"/><text fill="currentColor" y="9" dy="0.71em">240</text></g><text x="705" dy="-5" text-anchor="end" style="font-family: Arial, sans-serif; font-size: 12px; fill: rgb(123, 123, 123); font-weight: bold;">low</text></g><g fill="none" font-size="10" font-family="sans-serif" text-anchor="end"><path class="domain" stroke="currentColor" d="M-6,500H0V0H-6"/><g class="tick" opacity="1" transform="translate(0,500)"><line stroke="currentColor" x2="-6"/><text fill="currentColor" x="-9" dy="0.32em">600</text></g><g class="tick" opacity="1" transform="translate(0,458)"><line stroke="currentColor" x2="-6"/><text fill="currentColor" x="-9" dy="0.32em">620</text></g><g class="tick" opacity="1" transform="translate(0,417)"><line stroke="currentColor" x2="-6"/><text fill="currentColor" x="-9" dy="0.32em">640</text></g><g class="tick" opacity="1" transform="translate(0,375)"><line stroke="currentColor" x2="-6"/><text fill="currentColor" x="-9" dy="0.32em">660</text></g><g class="tick" opacity="1" transform="translate(0,333)"><line stroke="currentColor" x2="-6"/><text fill="currentColor" x="-9" dy="0.32em">680</text></g><g class="tick" opacity="1" transform="translate(0,292)"><line stroke="currentColor" x2="-6"/><text fill="currentColor" x="-9" dy="0.32em">700</text></g><g class="tick" opacity="1" transform="translate(0,250)"><line stroke="currentColor" x2="-6"/><text fill="currentColor" x="-9" dy="0.32em">720</text></g><g class="tick" opacity="1" transform="translate(0,208)"><line stroke="currentColor" x2="-6"/><text fill="currentColor" x="-9" dy="0.32em">740</text></g><g class="tick" opacity="1" transform="translate(0,167)"><line stroke="currentColor" x2="-6"/><text fill="currentColor" x="-9" dy="0.32em">760</text></g><g class="tick" opacity="1" transform="translate(0,125)"><line stroke="currentColor" x2="-6"/><text fill="currentColor" x="-9" dy="0.32em">780</text></g><g class="tick" opacity="1" transform="translate(0,83)"><line stroke="currentColor" x2="-6"/><text fill="currentColor" x="-9" dy="0.32em">800</text></g><g class="tick" opacity="1" transform="translate(0,42)"><line stroke="currentColor" x2="-6"/><text fill="currentColor" x="-9" dy="0.32em">820</text></g><g class="tick" opacity="1" transform="translate(0,0)"><line stroke="currentColor" x2="-6"/><text fill="currentColor" x="-9" dy="0.32em">840</text></g><text x="4" text-anchor="start" dominant-baseline="hanging" style="font-family: Arial, sans-serif; font-size: 12px; fill: rgb(123, 123, 123); font-weight: bold;">high</text></g></g></g></svg>