<svg xmlns="http://www.w3.org/2000/svg" width="805" height="600"><rect width="805" height="600" x="0" y="0" fill="#fbf1f9" id="background"/><g transform="translate(50,50)" id="visualization"><clipPath id="plotClipPath"><rect x="0" y="0" width="705" height="500"/></clipPath><g id="viz" clip-path="url(#plotClipPath)"><g><path fill="rgb(236, 213, 239)" stroke="rgb(186, 164, 189)" stroke-opacity="1" d="M599.0531790622915,416L600,415.89736036158064L604,415.2470924202688L608,414.3411823654187L612,413.1292001894478L614.8791609048483,412L616,411.57190657277397L620,409.6484048313872L622.6736204531809,408L624,407.17935641339085L628,405.2249560457344L630.8662770073605,404L632,403.51434013359494L636,402.1915902665926L640,401.3042597160318L644,400.90584446397656L648,401.00204483711417L652,401.5520361177156L656,402.4798635938373L660,403.0225066426278L664,403.4649838609029L668,403.8226316582428L670.4801863034148,404L672,404.1160843565048L676,404.35422923534384L680,404.52743936444847L684,404.63952837324416L688,404.35422923534384L690.4184802006362,404L692,403.78206362622194L696,402.91545360180316L700,401.6517640748341L703.7230758203109,400L704,399.8782710360764L708,397.5582692982281L709.9897962143118,396L712,394.3556691251947L714.1896559694065,392L716,389.7718855762178L717.5055232399628,388L720,384.0471435226902L720.029171683261,384L721.9569236982749,380L723.3258808485989,376L724,373.1941891785088L724.2992917270619,372L724.966360047125,368L725.321532931177,364L725.3913048688033,360L725.1807370495528,356L724.674411590382,352L724,348.7704988484585L723.8468252937824,348L722.7008960146032,344L721.0746907297715,340L720,338.0357130749791L718.8773288375484,336L716,332.1709407655536L715.8790318692209,332L712.3192740337194,328L712,327.667760668568L708,324.46203109059115L707.2436112594295,324L704,322.0436480395774L700,320.11047068915974L699.735741890377,320L696,318.3625000546993L692,316.8031204123412L689.8018364061571,316L688,315.25800166837064L684,313.5894084799516L680.4430927829947,312L680,311.7681733525983L676,309.33539236986337L674.2200255148279,308L672,305.9387907779592L670.3042623050129,304L668,300.6225263135989L667.648417007431,300L665.7866940648372,296L664.3197591096638,292L664,290.9771437407231L663.1848152331778,288L662.2374122009944,284L661.3893072635618,280L660.5786214599534,276L660,273.1467971766804L659.7820636262219,272L658.9154525999202,268L657.6517640748341,264L656,260.2769241796891L655.8782710360764,260L653.558268686661,256L652,254.20276476776252L649.9783841984877,252L648,249.9976213162501L645.7718826553511,248L644,246.49447874803798L640.0471435226901,244L640,243.97082830534072L636,242.0430763017252L632,240.6741191514011L629.1941891785089,240L628,239.70070827293807L624,239.03363995287498L620,238.678467068823L616,238.60869513119673L612,238.81926295044713L608,239.32558817216722L604.7704988484585,240L604,240.15317470621756L600,241.2991039853967L596,242.92530927022852L594.0357130749791,244L592,245.12267116245164L588.1709369080025,248L588,248.13347910583025L584.0547806753993,252L584,252.05752274734834L580.4620310905912,256L580,256.76922871405327L578.0872848354492,260L576.3737933469824,264L576,265.18749445935015L575.0881441043795,268L574.1846568408265,272L573.6182904005738,276L573.345131279666,280L573.345131279666,284L573.3861825289752,288L573.3919749591316,292L573.3608074480547,296L573.2889447189975,300L573.1700123292671,304L572.9938788309254,308L572.7446754189025,312L572.3971421430335,316L572,317.23940439047175L571.0574976471568,320L568.9682081527093,324L568,325.3980733688573L566.2656244149845,328L564,330.90207290997245L563.2780258980011,332L560.4739400129494,336L560,336.64787914454826L557.5560565340386,340L556,342.1510566072204L554.6744632012683,344L552.3216990158303,348L552,348.7004327774887L550.4555418195512,352L549.0560301381596,356L548.0414754326268,360L548,360.2312714051346L547.2844848340718,364L546.8192629504472,368L546.6211790468359,372L546.678467068823,376L547.033639952875,380L547.6868787006945,384L548,385.27322801385094L548.6443649258156,388L549.99792623775,392L551.9271093729739,396L552,396.1166302918442L554.470343945589,400L556,401.7718855762178L558.0129380997857,404L560,405.94374348334605L562.2218835893913,408L564,409.5582692982281L568,411.8782710360764L568.2769241796891,412L572,413.6517640748341L576,414.91545360180316L580,415.78206362622194L581.5815197993638,416L584,416.35422923534384L588,416.63952837324416L592,416.63952837324416L596,416.35422923534384ZM319.0961562387253,420L320,419.66105834943073L324,417.6480627849911L326.4087068630885,416L328,414.8794651880238L331.0714296147025,412L332,411.0714296147025L334.8794651880238,408L336,406.4087068630885L337.64806215300655,404L339.66105810933914,400L340,399.0961545314076L341.1838232981443,396L342.26953177012217,392L342.9886373044086,388L343.39798619418946,384L343.5364786769887,380L343.4137066364918,376L343.0184131476143,372L342.6519253742996,368L342.2977120533825,364L341.93703293698934,360L341.54397209049336,356L341.0747590227233,352L340.43876932881545,348L340.361147386098,344L342.5783132945323,340L344,339.0413730876406L348,337.3000940353443L352,336.2850590792189L353.7529669396173,336L356,335.73101822961013L360,335.7676231830904L361.9214992635681,336L364,336.2678342752877L368,337.17779405739327L372,338.3822485081906L376,339.829886040072L376.38923140718526,340L380,341.62031548552824L384,343.5833877477028L384.75522187305404,344L388,345.8062782719939L391.50499764242426,348L392,348.30190770889317L396,350.78852306526466L398.21621539009425,352L400,353.0394855327182L404,355.18317379050677L405.6474695482129,356L408,357.214000543267L412,359.1069438352337L414.0381981274194,360L416,360.90422775578634L420,362.3191031302156L424,363.36284728002613L427.3649844783308,364L428,364.1326001816946L432,364.71533123974007L436,365.0585856368825L440,365.18021988356054L444,365.0824123055383L448,364.7516718282295L452,364.1495365392716L452.67157495762126,364L456,363.3002196572044L460,362.18021161725903L464,360.66029500559455L465.3599963231226,360L468,358.71943463134534L472,356.10336267893064L472.12652712497754,356L476,352.64400792191043L476.67758393489873,352L480,348.8502195470527L480.8249880846199,348L483.87366112339237,344L484,343.8030000750661L486.37847434469336,340L488,336.7421462468016L488.36938710892,336L490.09157152182286,332L491.48664398894573,328L492,326.3026336458839L492.7270658774478,324L493.75666974405146,320L494.57989060836405,316L495.24250147964597,312L495.77626860295914,308L496,305.9318547677324L496.2333906251556,304L496.61940189426014,300L496.91430279238386,296L497.12679662050584,292L497.16838503362953,288L497.2689200959916,284L497.26345510147405,280L497.1489658696066,276L496.91766883292144,272L496.55605910197187,268L496.03220962599937,264L496,263.7961734941456L495.44390995415176,260L494.7120113834791,256L493.80008838285687,252L492.6634658764042,248L492,246.06122417801095L491.3181436331273,244L489.70827876651003,240L488,236.62092655274483L487.6890669639761,236L485.2983203410098,232L484,230.18065536432476L482.4265861396524,228L480,225.2555022043423L478.90683363043024,224L476,220.80264339130355L475.12504609226266,220L472,217.10246479250986L470.6221242689908,216L468,213.7580819788658L465.7478286858153,212L464,210.4394211553652L461.2217064168177,208L460,206.64581462587L457.7495622139419,204L456,201.60533475957016L454.93193736850185,200L452.68101252142935,196L452,194.58234469829324L450.88914200692716,192L449.4274251947088,188L448.17703833702046,184L448,183.35937525871066L447.15733000996124,180L446.2623277174864,176L445.44422835525825,172L444.67441159038196,168L444,164.7704988484585L443.84682529378244,164L442.70089601460325,160L441.07469072977153,156L440,154.0357130749791L438.87732883754836,152L436,148.1709407655536L435.87903186922085,148L432.31927403371935,144L432,143.66776066856798L428,140.46203109059113L427.23077128594673,140L424,138.0872848354491L420,136.37379334698247L418.7778790412461,136L416,135.12305208348667L412,134.1846568408265L408,133.52923281903583L404,133.11686450736508L400,132.92279440328537L396,132.93395556962366L392,133.14719768671716L388,133.56877121311365L384,134.2149182671803L380,135.11370371128808L377.00606111750767,136L376,136.2819658536177L372,137.9470040063077L368,139.52561906664278L366.63667769511875,140L364,140.86730417236845L360,141.69748858088283L356,141.84632809599475L352,141.7404569810106L348,141.39413607499165L344,140.82603967279303L340,140.13283714529035L339.6330752906325,140L336,138.631730087451L332,136.48040574714733L331.26885560003944,136L328,133.76137171354927L325.9861142855905,132L324,130.22622038857807L322.07369988917026,128L320,125.54713448396271L318.93884214705895,124L316.22980860584244,120L316,119.64900511066148L314.0885116013514,116L312,112.12504271502871L311.9421342315162,112L310.14802911286716,108L308.25961102217224,104L308,103.45273787657021L306.5149648198063,100L304.4634387293359,96L304,95.18114725824157L302.27213575662927,92L300,88.285774816235L299.8283050119442,88L297.4084875778547,84L296,81.80438159186721L294.8396026295098,80L292.1642744571644,76L292,75.76600820424744L289.27649451881086,72L288,70.3746161896201L286.1672817349347,68L284,65.51362300360404L282.69029201143013,64L280,61.257910139412644L278.68281666254023,60L276,57.50946599814384L274.2678768479025,56L272,54.01857000534673L269.5571670242204,52L268,50.686594266753474L264.6065092654304,48L264,47.51543175164548L260,44.501286940109935L259.2937952432497,44L256,41.566403747820885L253.48148148330228,40L252,38.96916581288036L248,36.35934164584779L247.4239868837637,36L244,33.60570096905275L241.43687293826451,32L240,31.070373549214878L236,28.71178521142224L234.67125917252355,28L232,26.55243912406786L228,24.598804169460948L226.63724938976162,24L224,22.780686732711843L220,21.130480949641026L216.72808524066073,20L216,19.726007384500036L212,18.09570780703389L208,16.456298770094165L206.94993312297333,16L204,14.579583743414304L200,12.62397458789684L198.7624752763486,12L196,10.356143255316752L192.12713684824126,8L192,7.899872788652502L188,4.562629389544753L187.40407595300587,4L184.00120455456482,0L184,-0.0016134405462508994L181.3042580962262,-4L180,-6.1658916164039255L178.97411270167112,-8L176.68652571296315,-12L176,-13.18734160913884L174.41504084955392,-16L172,-19.836629912759335L171.8954585783112,-20L168.96083947149862,-24L168,-25.038120360471098L165.08397152805594,-28L164,-29.051990739063633L160.72194914236547,-32L160,-32.634028896435964L156.10483737405855,-36L156,-36.089579893854186L152,-38.873354536778L149.88070858646105,-40L148,-41.04860466318865L144,-42.80679567712499L140.43228173486324,-44L140,-44.15611367931988L136,-45.33783013879564L132,-46.23357706655668L128,-46.90502555531257L124,-47.316862750714385L120,-47.51336054864306L116,-47.48509385246991L112,-47.34528783747197L108,-47.09798111824011L104,-46.72002020535815L100,-46.197535479452704L96,-45.38899121139678L92,-44.61224430853787L88.67159692420358,-44L88,-43.891251225326705L84,-43.297177163944234L80,-42.74380211523584L76,-42.23596635740331L72,-41.7791545789214L68,-41.37960665498567L64,-41.18349633762173L60,-41.2149626121038L56,-41.650184617429765L52,-42.00304862320586L48,-42.26633639855051L44,-42.487728400055076L40,-42.66517413535059L36,-42.85136823274839L32,-42.87933960073446L28,-42.74008845798856L24,-42.41840478901625L20,-41.89118759781792L16,-41.1247644564833L12,-40.070619812307875L11.787829412707737,-40L8,-38.77037178634832L4,-36.96455800199037L2.377571610701196,-36L0,-34.55789923972749L-2.8594811556703945,-32L-4,-30.91134706765928L-6.865280834599901,-28L-8,-26.75434271632497L-10.418300616817191,-24L-12,-21.29910831782665L-12.750968634660396,-20L-14.498729929814573,-16L-15.737143109626317,-12L-16,-10.793708041876982L-16.63741599221406,-8L-17.216093733467474,-4L-17.495191164475585,0L-17.495191164475585,4L-17.216093733467474,8L-16.63741599221406,12L-16,14.793708041876982L-15.737143109626317,16L-14.498729929814573,20L-12.750968634660396,24L-12,25.29910831782665L-10.418300616817191,28L-8,31.049450864502646L-7.30129286128961,32L-4,35.41865536765776L-3.4481957820691207,36L0,39.76180278463315L0.2671186573412143,40L4,43.24303856042857L4.964515167977268,44L8,46.357412223362786L10.299240301386192,48L12,49.21250004659569L15.876013027901195,52L16,52.08846693680894L20,55.0160798008566L21.34860942235352,56L24,57.88555787645677L27.044054242388555,60L28,60.6369930222902L32,63.24386265984137L33.19875398133952,64L36,65.80273925798866L39.63834078410841,68L40,68.22445959716558L44,70.68689396213966L46.27904335627554,72L48,73.02027753548634L52,75.252930702311L53.61827489138631,76L56,77.15184601171615L60,78.86079967177935L62.97070853191488,80L64,80.41915564212306L68,81.92490963759775L72,83.24557030650152L74.69180055218385,84L76,84.39960184486003L80,86.36824733721414L82.63497666588674,88L84,88.95820172660717L87.33957853954189,92L88,92.69986098689353L90.47917637106494,96L92,98.19223598020659L93.04877835777503,100L95.14215938766918,104L96,105.8199299124081L96.87391823080438,108L98.33925897283191,112L100,115.88376212325687L100.04460659135336,116L101.64940037811664,120L103.57650392921093,124L104,124.76988751223362L105.7327165117409,128L108,131.7607841790185L108.1442342146469,132L110.66003847365045,136L112,137.8439726941778L113.62150628722435,140L116,142.76541413777545L117.1369968539851,144L120,146.8086763661705L121.34280117020182,148L124,150.19276045311213L126.50341672631671,152L128,153.0355897544119L132,155.4639145032279L132.99148899798652,156L136,157.62987416443232L140,159.2408076200174L142.20238445797165,160L144,160.6667519288948L148,162.00893387983876L152,163.26912451480922L154.06980164587486,164L156,164.76502757286949L160,166.34125614956247L164,167.83157915370174L164.3902214300689,168L168,169.79141648264488L172,171.86410047512567L172.24020808397813,172L176,174.49849355464397L178.23949799377715,176L180,177.3577317715292L183.46221745198181,180L184,180.48114734740392L188,183.9382295279878L188.06927206641677,184L192,187.64715318087661L192.38936551723418,188L196,191.10296194410995L197.07087962972355,192L200,194.51174884771268L201.8001875304032,196L204,197.89326157148383L206.5471029472772,200L208,201.25507391373162L211.284249774148,204L212,204.64495001269097L215.9195129563887,208L216,208.07919766533075L220,211.98263978498773L220.0171063568048,212L223.3038328842739,216L224,216.9195112392759L226.2391043869348,220L228,222.6343317146484L228.8603908181006,224L231.03406284235194,228L232,230.08441316611567L232.81396277336495,232L234.36427209384436,236L235.8609785383385,240L236,240.39849522071484L237.1508514372403,244L238.38079392314643,248L239.5794440680359,252L240,253.14703323135603L240.97336962828058,256L242.64446848077796,260L244,262.76431070554395L244.58920393890253,264L246.6963498846893,268L248,270.1741686924406L249.0957954853493,272L251.87456253181404,276L252,276.1627725178135L255.06847758619972,280L256,281.00603473678655L259.104718531989,284L260,284.7531643517619L264,287.6849724502815L264.48378885584987,288L268,290.374336814965L270.3961277108899,292L272,293.1572008731108L275.9673428128552,296L276,296.02570686549325L280,299.25020093794194L281.1153535651141,300L284,302.2389627920061L286.48817217264775,304L288,305.2946516498124L291.4179331334788,308L292,308.5883296723934L295.6664380977242,312L296,312.4226030089509L299.15624277186475,316L300,317.73842972726993L301.2695119660283,320L301.875262929387,324L300.14727976462416,328L300,328.1246748810767L296,331.2844331617943L295.0497655715754,332L292,333.4984316024651L288,335.591827314805L287.29968267554847,336L284,337.54050052273584L280,339.77134055050556L279.6538446665851,340L276,342.1656516739176L273.56407461807026,344L272,345.12645281231124L268.91334848094,348L268,348.9285703852975L265.1205348119762,352L264,353.5912931369115L262.35193784699345,356L260.33894189066086,360L260,360.9038454685924L258.8161767018557,364L257.73046822987783,368L257.0113626955914,372L256.6004456113106,376L256.46671642684987,380L256.6004456113106,384L257.0113626955914,388L257.73046822987783,392L258.8161767018557,396L260,399.0961545314076L260.33894189066086,400L262.35193784699345,404L264,406.4087068630885L265.1205348119762,408L268,411.0714296147025L268.9285703852975,412L272,414.8794651880238L273.5912931369115,416L276,417.6480627849911L280,419.66105834943073L280.9038437612747,420L284,421.1838249046094L288,422.26953177012217L292,422.9886373044086L296,423.3995536655939L300,423.5332858834506L304,423.3995536655939L308,422.9886373044086L312,422.26953177012217L316,421.1838249046094ZM482.7937080418769,508L484,507.73714328667234L488,506.4987290432796L492,504.75096863466035L493.2991083178266,504L496,502.4183006168172L499.04945086450266,500L500,499.28551811479906L503.28551811479906,496L504,495.04945086450266L506.4183006168172,492L508,489.2991083178266L508.75096863466035,488L510.49872992981454,484L511.73714310962634,480L512,478.7937080418769L512.6374159922141,476L513.2160937334675,472L513.4951911644756,468L513.4951911644756,464L513.2187236935762,460L512.6520011980355,456L512,453.0892816892515L511.76650782818194,452L510.5450379185586,448L508.8026242466917,444L508,442.62316953398727L506.4535817306885,440L504,437.2456572836751L502.94949796598087,436L500,432.7883941219791L499.04945086450266,432L496,429.5816993831828L493.2991083178266,428L492,427.24903136533965L488,425.5012709567204L484,424.26285689037366L482.7937080418769,424L480,423.3625840077859L476,422.78390626653254L472,422.5048088355244L468,422.5048088355244L464,422.78390626653254L460,423.3625840077859L457.2062919581231,424L456,424.26285671332766L452,425.5012709567204L448,427.24903136533965L446.7008916821734,428L444,429.5816993831828L441.2456572836751,432L440,433.15917402229854L437.15917402229854,436L436,437.2456572836751L433.5816993831828,440L432,442.7008916821734L431.24903136533965,444L429.50127007018546,448L428.26285689037366,452L428,453.2062919581231L427.3625840077859,456L426.78390626653254,460L426.5048088355244,464L426.5048088355244,468L426.78390626653254,472L427.3625840077859,476L428,478.7937080418769L428.26285689037366,480L429.50127007018546,484L431.24903136533965,488L432,489.2991083178266L433.5816993831828,492L436,495.04945086450266L436.7883941219791,496L440,498.94949796598087L441.2456572836751,500L444,502.4183006168172L446.7008916821734,504L448,504.75096863466035L452,506.4987290432796L456,507.73714328667234L457.2062919581231,508L460,508.6374159922141L464,509.21609373346746L468,509.4951911644756L472,509.4951911644756L476,509.21609373346746L480,508.6374159922141Z"/></g><g><path fill="rgb(222, 203, 228)" stroke="rgb(172, 154, 178)" stroke-opacity="0.3" d="M626.3348315636852,312L628,311.4636714304359L632,309.530907431468L634.1405544555678,308L636,306.19491707197204L637.5946633457288,304L639.5177528362858,300L640,298.42728851305884L640.5713093363717,296L641.0988483423993,292L641.2824565726409,288L641.1762575091551,284L640.7801208868833,280L640.0201512485718,276L640,275.92959941679686L638.6343389897277,272L636.6122435223273,268L636,267.1346170688059L633.1139081186392,264L632,263.0853001795194L628,260.711628007342L626.1720467256158,260L624,259.3144772206044L620,258.63372821437366L616,258.49999917228735L612,258.903585888845L608,259.874047212574L607.677422633944,260L604,261.7829367655438L600.8708982638725,264L600,264.80969698462405L597.4285698019332,268L596,270.5221230099559L595.3338651395686,272L594.1765079449,276L593.6183137373084,280L593.6183137373084,284L593.914014856376,288L594.4388727918143,292L595.2336515268555,296L596,298.74968892082984L596.4407760280926,300L598.3424767895943,304L600,306.5591645706139L601.3032047024923,308L604,310.2916827620048L607.1805961779824,312L608,312.3548822422152L612,313.3466388505687L616,313.6735061857321L620,313.4269442983268L624,312.6278277773285ZM454.96228498265464,348L456,347.6106484551241L460,345.76329053059413L462.9474372307652,344L464,343.29759001328665L467.91939885111003,340L468,339.92277876854735L471.35900420598193,336L472,335.1273488097641L473.93633280106656,332L476,328.0065763061891L476.0033586523683,328L477.8711811429707,324L479.31971945184125,320L480,317.65681233840814L480.50053128795196,316L481.4849222410253,312L482.2593897074389,308L482.86000801330397,304L483.3118358460488,300L483.6319275135546,296L483.83117293118994,292L483.80458827496,288L483.8231637528254,284L483.69760420484874,280L483.4194110565189,276L482.9725645847858,272L482.3314358779419,268L481.43254118073867,264L480.35578701674694,260L480,258.8505334057039L479.16966249667905,256L477.7982858424922,252L476.15352822197474,248L476,247.66988951593225L474.0082193834437,244L472,240.90308824726333L471.2970813401944,240L468,236.30948295599995L467.66302168147456,236L464,232.96843981049216L462.56048833854106,232L460,230.34873939166107L456,228.22881311912948L455.4887397160121,228L452,226.4989559403437L448,225.09872331618004L444.1541930560054,224L444,223.94661106116598L440,222.7482687439403L436,221.63152342432255L432,220.2838044470525L430.6000035525732,220L428,219.07539715307172L424,218.6282407963801L420.8756251706227,220L420,220.2908280025315L416.696802776867,224L416,224.6350431372549L412.7689252037494,228L412,228.8002269565153L409.1267403428531,232L408,233.10685592506405L405.14349350808453,236L404,237.0377392165965L400.7288928405273,240L400,240.58191404650012L396,243.89192670676903L395.8451239311765,244L392,246.31491983817972L388,247.75320206396952L384,247.79804869836408L380,247.2230510997511L376,245.99240011390071L372,244.02761029201713L371.96550966451497,244L368.20382735993263,240L368,239.6879710644792L366.2898873815539,236L365.19185686250717,232L364.8045314592049,228L365.0130700854034,224L366.06929480305416,220L367.6651803387459,216L368,215.39272665199462L371.344526930665,212L372,211.53742295022295L376,210.6592183641015L380,209.81918154438614L384,209.22762752771837L388,208.80642382786903L392,208.57431353569774L396,208.49706572001202L400,208.58178204301038L404,208.58807320688118L408,208.59752674880724L412,208.6125598060279L416,208.63916195581237L420,208.6971079268577L420.7665182300119,208L424,205.6965928089304L425.0621229170581,204L426.51224132293896,200L427.2370116113765,196L427.5424424269663,192L427.5441568302191,188L427.3087890876104,184L426.8615636851757,180L426.2013774677322,176L425.30519781876603,172L424.12595801607847,168L424,167.67740992253744L422.2170632344562,164L420,160.87089826387248L419.154732855831,160L416,157.5529987713369L413.4051336405804,156L412,155.33386513956867L408,153.9237919393505L404,152.97712646476216L400,152.4423228350133L396,152.28495528472396L392,152.4842181308331L388,153.03081778229273L384,153.9258551556834L380,155.18055798585806L377.98867696248675,156L376,156.90544998415933L372,159.58482620112457L371.21637050454973,160L368,161.7949275135708L364,163.25974421010622L360,163.6580123112272L356,162.85067507651948L352,161.96384301138218L348,160.99932905611857L344.1769754073429,160L344,159.95470910485554L340,158.79593316998512L336,157.1531046490557L333.8468137663286,156L332,154.99251279550222L328,152.39117985847278L327.5329328276888,152L324,148.97667040744068L323.11333338223125,148L320,144.52059584890455L319.62464886788774,144L316.7381892722984,140L316,139.00916065748106L314.1841791075997,136L312,132.41047235267385L311.78486769063517,132L309.66519200746086,128L308,124.87286938617015L307.5895497290325,124L305.7382019143264,120L304,116.38012580487009L303.83090328376034,116L302.03286911177446,112L300.0850787750757,108L300,107.82752863863163L298.205639701087,104L296.0833091998799,100L296,99.85686020740775L293.79960400156676,96L292,93.31213744302235L291.11872019550975,92L288.21199741725474,88L288,87.71340076154812L285.29019431708105,84L284,82.306940432588L282.2825818608194,80L280,77.03795494394271L279.1613768295561,76L276,72.31477454407366L275.7187143991906,72L272.01998544160165,68L272,67.97984984100475L268,64.07633219324336L267.918553885969,64L264,60.624097207588306L263.21865577928105,60L260,57.410085151363205L258.1201550465092,56L256,54.36788289088733L252.40628200723904,52L252,51.720283498236654L248,49.01727186398793L246.4173695437638,48L244,46.41209957657475L240.0479477367178,44L240,43.96967065992422L236,41.50017968438064L233.33071544033055,40L232,39.18796750989108L228,36.8728735512488L226.30330767394003,36L224,34.71089737348953L220,32.72877498816277L218.33829223931804,32L216,30.918511561068726L212,29.15093213988247L209.28141991137943,28L208,27.422138448407523L204,25.615997578084546L200.2845126776109,24L200,23.864336636162832L196,21.94763000027858L192,20.05013670567365L191.89416688632014,20L188,17.932781902904225L184.55445642404788,16L184,15.650694214004545L180,12.91012161941238L178.77154737728665,12L176,9.538237961115584L174.40045494621927,8L172,5.0452436513883185L171.19213146531547,4L168.53555105983537,0L168,-0.8496010259986235L166.08655029247558,-4L164,-7.446690850025746L163.67153861602523,-8L161.05603360201474,-12L160,-13.482507118959859L158.29438606283867,-16L156,-18.99634169177814L155.09286154995027,-20L152,-22.999092385359262L150.74842411528482,-24L148,-25.845566118841646L144,-27.976175048886134L143.94694600706734,-28L140,-29.82307264335259L136,-31.285209865610227L133.6010843770481,-32L132,-32.50421867189047L128,-33.544733198176715L124,-34.249320624098786L120,-34.67728424468002L116,-34.82501742813023L112,-34.82637522528687L108,-34.69832405345437L104,-34.38972827375486L100,-33.88839952064619L96,-33.04155247080621L92,-32.19742219415832L91.03833234686812,-32L88,-31.422692164226888L84,-30.66961993648969L80,-29.916523634391766L76,-29.16215485441146L72,-28.40506432535969L69.83008689357635,-28L68,-27.67614645575084L64,-27.166382142580403L60,-26.872296889504867L56,-27.00626995500727L52,-27.03499408152652L48,-26.92374845171014L44,-26.779820580299415L40,-26.600807331689282L36,-26.45538671424727L32,-26.127759028286874L28,-25.597309396214456L24,-24.835929996017782L20.727979212295466,-24L20,-23.758991642535094L16,-22.06431109679015L12.26200825459992,-20L12,-19.818705220981613L8,-16.43364896490243L7.597392891413691,-16L4.785769738064545,-12L4,-10.411766361782156L3.000677378365168,-8L1.9195481625470165,-4L1.351436016591947,0L1.2376230438267015,4L1.5714997885171584,8L2.3555557874161224,12L3.626767356189035,16L4,16.833684791455738L5.555859486970633,20L8,23.69166864406624L8.223986685040742,24L11.93690542359812,28L12,28.054828499904275L16,31.535316397314887L16.529518878124364,32L20,34.53168861046234L21.977825926678534,36L24,37.66676895370631L26.756385259533445,40L28,41.04727422666272L31.42375281485218,44L32,44.48449032608525L36,47.89606739326487L36.1195421789439,48L40,51.16488710027241L40.9990482946219,52L44,54.401217536197436L46.010844503398516,56L48,57.464881717902415L51.55428682830936,60L52,60.2898966411185L56,62.51394937498364L59.05142935470755,64L60,64.47501714757738L64,66.40837669077081L67.6254541000171,68L68,68.16908071981274L72,69.89311868917343L76,71.33353050290009L77.52976873112692,72L80,73.12835670298298L84,75.18865187080993L85.31941552721213,76L88,77.79159945402981L90.75878034014607,80L92,81.10430823961687L94.74539774233727,84L96,85.48861804320907L97.7705811975504,88L100,91.58547238955822L100.21881420646807,92L102.06744599808121,96L103.87432529487793,100L104,100.29373541803389L105.4055205705153,104L106.93170897550618,108L108,110.71885946322271L108.46681728958794,112L110.19069024338424,116L112,119.51279837949639L112.24262400030935,120L114.56772831074062,124L116,126.0525436100913L117.38564283758893,128L120,131.42614960077566L120.45406668507277,132L123.86767214818894,136L124,136.1423467507754L127.86497590623281,140L128,140.1238385707046L132,143.52321501803678L132.62172463692,144L136,146.47617633428789L138.7606198837475,148L140,148.6812569183064L144,150.59423552089365L147.52190338791954,152L148,152.19843073246395L152,153.80878552681028L156,155.40925521842487L157.54416638817116,156L160,157.01396466789095L164,158.57064071521356L167.49647567087214,160L168,160.2286826547994L172,162.1966635914726L175.56798112503174,164L176,164.24248017727774L180,166.61779387997046L182.28211570247936,168L184,169.14214519291875L188,171.81314555685884L188.26142659156739,172L192,174.93892987219965L193.32348905884237,176L196,178.30053683725833L197.9561731039168,180L200,181.88690085304205L202.34601819086419,184L204,185.48622270050095L206.91754140356414,188L208,188.90080427179112L211.95187871032647,192L212,192.03935951184457L216,195.09513395842487L217.26679247284483,196L220,198.08052494263677L222.61405183365565,200L224,201.11444129049823L227.82820790021503,204L228,204.14715112466763L232,207.48985442767457L232.6176815374091,208L236,211.3993355777722L236.58454625908013,212L239.70555558962207,216L240,216.4383808854887L242.13521920346415,220L244,223.55845845090334L244.21107964975266,224L245.81691061983088,228L247.267015581652,232L248,234.10793331049445L248.61614075182297,236L249.91497266293737,240L251.25104098770862,244L252,246.1715576819123L252.60013567899028,248L253.98440200675975,252L255.76228948134428,256L256,256.4513014339123L257.98914853717116,260L260,263.05906673103885L260.67497186026526,264L263.8214852704678,268L264,268.2093241213337L267.5351369104211,272L268,272.4551553616002L271.64472772328236,276L272,276.3173535422907L276,279.8402625949404L276.18245266477453,280L280,283.07561005745515L281.4444770894889,284L284,285.50274269409664L288,287.54956367975274L288.97435767057607,288L292,289.56386380887443L296,291.45744734914837L297.21355397545403,292L300,293.4008240671899L304,295.32813500135126L305.4233959168291,296L308,297.37926149372754L312,299.4939783978066L312.9542259929369,300L316,301.80353988545596L319.6911990463581,304L320,304.19875219643103L324,306.7448928363082L326.02728281206913,308L328,309.21927949435667L332,310.7749697395714L336,311.7468680636028L337.2878145103531,312L340,312.50750975846375L344,313.2290389631325L348,313.86361285451557L352,314.428804841195L356,314.938319362596L360,315.6390424222702L361.51195154894674,316L364,316.62892815492546L368,317.8819567922205L372,319.3777298663374L373.4202217244601,320L376,321.1377147147511L380,323.1207463014367L381.58969914878145,324L384,325.2808980453899L388,327.5655120209406L388.6205763544421,328L392,330.4455325969785L393.9754494756266,332L396,333.57576858982776L399.3853237632164,336L400,336.4342627646762L404,339.14244627027523L405.33085320943445,340L408,341.6807267652597L411.94423302513366,344L412,344.0317537565282L416,346.23407879955573L420,347.8806147465464L420.3816379869081,348L424,349.07541839607904L428,349.9125265368262L432,350.4477382466095L436,350.71152344657696L440,350.71557428007054L444,350.4544665083276L448,349.90441356541226L452,348.9920635301872ZM687.3646468956355,384L688,383.90192010640015L692,382.63433898972767L696,380.6122489552028L696.8653900365512,380L700,377.11391414197806L700.9147051080242,376L703.2877863423366,372L704,370.1716155236792L704.6855227793956,368L705.366759494818,364L705.5012345839327,360L705.0991242319827,356L704.131862600944,352L704,351.66116495286246L702.2522803709737,348L700,344.7489844239139L699.3392892245389,344L696,341.1340965580031L694.247139225097,340L692,338.82768071815764L688,337.3069292467454L684,336.2844112973809L681.5039452407298,336L680,335.8499327500433L676,335.6925986730509L672,335.7971008796873L670.0012952840375,336L668,336.25879744383917L664,337.24821358531005L660,338.9359516738794L658.3239489414607,340L656,342.02906306723037L654.6579531443906,344L652.8405721601158,348L652,351.11079550587414L651.7106591570584,352L651.0653547234529,356L651.0199454767915,360L651.5479411566115,364L652,365.5929081529292L652.5485810245416,368L654.0395601725116,372L656,375.4666694356527L656.4561898428605,376L660,378.7156130991335L662.1789578070471,380L664,380.813845489218L668,382.19201880850886L672,383.2010439567542L676,383.90192010640015L676.903717667982,384L680,384.27936930625793L684,384.4311504107528ZM595.3646468956355,396L596,395.90192010640015L600,394.97734693155115L604,393.60894312139374L607.4869344550351,392L608,391.70641485551477L612,388.8394961123209L612.9680943043569,388L616,384.58711410429095L616.4472337993834,384L618.6608282471198,380L620,376.2388622384619L620.0760788365538,376L620.4236740591165,372L620.5014443962186,368L620.2782990666218,364L620,362.0221488893502L619.6542134731212,360L618.4607609098115,356L616.5168001869771,352L616,351.25122437478575L612.8767866603481,348L612,347.3465850043696L608,345.3513120124764L604,344.2514073154211L601.984038020519,344L600,343.78459459160626L596,343.77147318363893L592,343.9027505075785L591.541666950429,344L588,344.7487157990912L584,346.1813906397876L580.1658730981126,348L580,348.09015404058135L576,350.95442178929306L574.8493295565634,352L572,355.18899293204936L571.4200705687264,356L569.2190068557742,360L568,363.11556337282275L567.7158546032805,364L566.903585888845,368L566.5483563895255,372L566.6337282143737,376L567.3144772206044,380L568,382.17204672561587L568.7116280073419,384L571.0852948919758,388L572,389.11391414197806L575.1346099634488,392L576,392.6122489552028L580,394.63433898972767L584,395.90192010640015L584.6353531043645,396L588,396.4311504107528L592,396.4311504107528ZM313.0267843584532,400L316,397.82353045905006L317.82353045905006,396L320,393.0267843584532L320.588066856733,392L322.15702632067297,388L323.05357369379556,384L323.3453487617643,380L323.05357369379556,376L322.15702632067297,372L320.808825193257,368L320,366.2769896893871L318.6046023739402,364L316,360.928572289213L314.87319258494057,360L312,358.1919190193165L308,356.65930725868117L304.4755465791286,356L304,355.92760882953456L300,355.8490284177665L298.59397181781264,356L296,356.3233094579256L292,357.41738995835067L288,359.1592908180708L286.6291463393166,360L284,362.03348136483874L282.0982181401127,364L280,366.93212147588724L279.3976998980227,368L277.84297367932703,372L276.94642630620444,376L276.6546512382357,380L276.94642630620444,384L277.84297367932703,388L279.411933143267,392L280,393.0267843584532L282.17646954094994,396L284,397.82353045905006L286.9732156415468,400L288,400.588066856733L292,402.15702632067297L296,403.05357369379556L300,403.3453487617643L304,403.05357369379556L308,402.15702632067297L312,400.588066856733ZM480.12904151761245,488L484,485.9428591211574L486.55852909531984,484L488,482.55852909531984L489.9428591211574,480L492,476.12904151761245L492.05504985093853,476L493.16418078517574,472L493.69911666447183,468L493.69911666447183,464L493.16418078517574,460L492.05504985093853,456L492,455.87095848238755L489.9428591211574,452L488,449.44147090468016L486.55852909531984,448L484,446.0571408788426L480.12904151761245,444L480,443.94495014906147L476,442.83581921482426L472,442.30088333552817L468,442.30088333552817L464,442.83581921482426L460,443.94495014906147L459.87095848238755,444L456,446.0571408788426L453.44147090468016,448L452,449.44147090468016L450.0571408788426,452L448,455.87095848238755L447.94495014906147,456L446.83581921482426,460L446.30088333552817,464L446.30088333552817,468L446.83581921482426,472L447.94495014906147,476L448,476.12904151761245L450.0571408788426,480L452,482.55852909531984L453.44147090468016,484L456,485.9428591211574L459.87095848238755,488L460,488.05504985093853L464,489.16418078517574L468,489.69911666447183L472,489.69911666447183L476,489.16418078517574L480,488.05504985093853Z"/></g><g><path fill="rgb(207, 193, 218)" stroke="rgb(158, 145, 168)" stroke-opacity="0.3" d="M451.5947410405357,336L452,335.8231845196391L456,333.33633937140917L457.76995770688075,332L460,330.13024210724024L462.0920795957609,328L464,325.85205050599336L465.389251701087,324L467.7808834563632,320L468,319.54842488216724L469.52677442312404,316L470.8810632866455,312L471.9357635608343,308L472,307.6883475071633L472.70168915407214,304L473.26440910900567,300L473.6482896866693,296L473.8652407795447,292L473.7776037814963,288L473.7288426166559,284L473.4774308454778,280L473.00487302686327,276L472.2810614875917,272L472,270.8621649193308L471.2026262176447,268L469.6506565125244,264L468,260.4090497635277L467.7793154158154,260L465.3397536641354,256L464,254.09590892122344L462.2088377052561,252L460,249.699458935944L457.9583100469923,248L456,246.50531572336024L452,244.08416706707123L451.7955205443834,244L448,242.48726460495345L444,241.5599940605979L440,241.09937848076288L436,241.08931110221585L432,241.50222808868386L428,242.53962350471033L424.6551900375514,244L424,244.27724553293285L420,246.66633032378945L418.43747957949626,248L416,249.9731189336402L413.46322215987817,252L412,253.09704603444425L408,255.9727457567119L407.9599051487692,256L404,258.62279978882475L401.8498914774138,260L400,261.1711006530402L396,263.78111945347655L395.6375507233479,264L392,266.2658330197076L388.1170102451527,268L388,268.0681304801726L384,268.9131194711722L380,269.4498785793813L376,269.5992153767207L372,269.1758218024205L368.6833844677975,268L368,267.78649406788173L364,265.4772503983701L362.4505975304536,264L360,261.61948768938436L358.8680938824014,260L356.0728183801098,256L356,255.90277312165716L353.46675248281633,252L352,248.92599000274652L351.6073315785796,248L350.3145703489632,244L349.39951605648497,240L348.7862984170193,236L348.42956378467494,232L348.30523242164196,228L348.27070058998805,224L348.60629483383605,220L348.9246399192576,216L349.23661540404885,212L349.5542839499609,208L349.84310304572836,204L349.91225305973944,200L349.7289053798481,196L349.2579073573263,192L348.0162726289351,188L348,187.96813065875602L345.82344758360864,184L344,181.8181441988885L342.3928730588363,180L340,177.9644065895277L337.86038797757476,176L336,174.6071329003924L332.8414997101364,172L332,171.4013366900134L328,168.26286776768399L327.71837392954194,168L324,164.76231876451493L323.2874854915363,164L320,160.75357087789916L319.378042072904,160L316.257694172364,156L316,155.65472088343446L313.8265300729449,152L312,148.84782091973798L311.5814529985882,148L309.59675848400826,144L308,140.86946945273107L307.61393468902924,140L305.7144864424912,136L304,132.46908301754877L303.788320702622,132L301.9200743847834,128L300.0312261332067,124L300,123.93313950862549L298.28837408972294,120L296.458791652567,116L296,115.03884771127656L294.6313738493866,112L292.6580919633498,108L292,106.74472695046998L290.60661256480466,104L288.30583897081465,100L288,99.52462530579251L285.7848716173873,96L284,93.54995093942728L282.90199891608955,92L280,88.20312893944427L279.8362518287959,88L276.5702503840936,84L276,83.31577031905485L273.12337821310587,80L272,78.72173055585438L269.5626513928284,76L268,74.32791559008433L265.7552066357321,72L264,70.22781558109241L261.6541755861447,68L260,66.5159807778868L257.01682995879554,64L256,63.1986019455868L252,60.463988574077234L251.3024432336628,60L248,57.73440142234037L245.3469471057635,56L244,55.087703738154346L240,52.47793135458943L239.24848718978558,52L236,49.86642009141579L232.97574248190818,48L232,47.39196025662022L228,44.97293040911282L226.2078684966752,44L224,42.775191660516526L220,40.778278922000595L218.2807583500279,40L216,38.88590825792758L212,37.05342768069596L209.5563258736562,36L208,35.26987175585603L204,33.45454109527931L200.6060057292168,32L200,31.72019950119575L196,29.92946683110742L192,28.171021574640008L191.59124354062948,28L188,26.351092346349503L184,24.47959279518551L183.02819445510886,24L180,22.3179935854413L176.09678898003085,20L176,19.935170762635664L172,17.03864434735695L170.63387474699738,16L168,13.768885481831063L166.0359779339978,12L164,9.815778623635765L162.40929523099064,8L160,4.595676333378137L159.62152880488136,4L157.30426759761139,0L156,-2.2157659914218186L154.8519033002569,-4L152.12596349677102,-8L152,-8.163026641721586L148.59916534444625,-12L148,-12.614885498506965L144.12028138577963,-16L144,-16.095513423274056L140,-18.81998460799855L137.88659242318266,-20L136,-20.971836101710366L132,-22.685856742996734L128.19044289465455,-24L128,-24.058964638260264L124,-24.95944462979496L120,-25.53123910716927L116,-25.773687888328865L112,-25.837754678153303L108,-25.752173099419593L104,-25.447491149027613L100,-24.910834931663643L96.10880825335775,-24L96,-23.973508002026648L92,-23.014136494366312L88,-22.03901923055588L84,-21.038681498861024L80,-20.001927109711048L79.992602265203,-20L76,-18.94421434985172L72,-17.812728524036487L68,-16.578442134602497L65.7767609597976,-16L64,-15.514935732391194L60,-14.656581552258999L56,-14.313477255839189L52,-13.751448317200413L48,-12.84218435640372L44.713582965779466,-12L44,-11.789019083778328L40,-10.496598254654401L36,-9.126674830504143L33.57055733165919,-8L32,-7.028170131948542L28.265197520828693,-4L28,-3.6878716008444172L25.413733136838687,0L24,3.5897931638236287L23.85927913354935,4L23.470809525582936,8L23.963565602151647,12L24,12.110869339818876L25.231814596520394,16L27.215242432398227,20L28,21.145228394131777L29.876429105946755,24L32,26.517788833696258L33.191230645150426,28L36,30.82642814124881L37.105043145444114,32L40,34.55345381285562L41.46561209577854,36L44,38.63552557327074L45.229024794684335,40L48,42.86779759212115L49.04803119769551,44L52,46.87651947343383L53.31845933080669,48L56,50.02290538741562L58.903888782304676,52L60,52.71280993600112L64,55.28441197668539L65.16647275772084,56L68,57.59303414342642L72,59.683467148281665L72.69749979294593,60L76,61.38760358856311L80,63.145844501662964L81.85175305754345,64L84,65.04845030604747L88,67.25766975820207L89.15981856416425,68L92,69.9472757935109L94.56560341017988,72L96,73.2290638904584L98.73748816739632,76L100,77.41594118848616L101.9624181499749,80L104,83.04559835144485L104.54782314224224,84L106.59074230039519,88L108,91.09128921154155L108.36348774611784,92L109.82003340577072,96L111.31516211331362,100L112,101.80226384222061L112.75632209210866,104L114.21802985857448,108L115.86134171651477,112L116,112.28606037253059L117.73776362479646,116L120,119.92180120030821L120.04474399325625,120L122.74745044217445,124L124,125.56462158716181L126.02758104805125,128L128,130.25071406357088L129.61738761894142,132L132,134.41265496531858L133.68677328933126,136L136,138.01324598193676L138.9293084672463,140L140,140.70267206838747L144,142.97569930353944L146.12600092004905,144L148,144.91512745745547L152,146.71075958552595L154.94441376971682,148L156,148.4802365538935L160,150.20097211279102L164,151.75136587435446L164.60436657689007,152L168,153.48801343349103L172,155.27078508596205L173.571757815384,156L176,157.22540985178043L180,159.30262967492064L181.28911351175833,160L184,161.61360922231333L187.9456653213312,164L188,164.03561804691236L192,166.85025863952103L193.56883897275299,168L196,169.87823468336217L198.64986404298293,172L200,173.14804376161743L203.3886028698896,176L204,176.5378469091503L208,179.97478646260208L208.03030749928251,180L212,183.43208150875483L212.72985248415023,184L216,186.5471320737721L218.00580271434154,188L220,189.43080908068953L223.79430400066798,192L224,192.1492100133159L228,194.82596289802711L229.9327260784827,196L232,197.3799630938011L236,199.89350983670715L236.1738140771247,200L240,202.72451999120238L241.66928579310087,204L244,206.1271020643191L245.91321783561727,208L248,210.55086494376178L249.14723607725557,212L251.62683446899405,216L252,216.71124639372556L253.62251441690137,220L255.30188474582815,224L256,225.99780406460258L256.7064519944696,228L258.05637720246426,232L259.41018127392454,236L260,237.6704863636284L260.8643279089274,240L262.44581564690844,244L264,247.58534062713687L264.1902740331043,248L266.1965152858354,252L268,254.8808041990937L268.71688643236917,256L271.7690907104185,260L272,260.27496191534044L275.1866316331607,264L276,264.8943704117344L278.84577541098224,268L280,269.1828641035979L283.4577629944026,272L284,272.4180257054808L288,275.09263623465716L289.5677453316082,276L292,277.350626420742L296,279.3013369451185L297.6095480171747,280L300,281.00880423173237L304,282.5411777988066L308,283.9737452305883L308.07920736652824,284L312,285.24543416095656L316,286.4863070930343L320,287.82719109791356L320.4821145903051,288L324,289.4591807106021L328,291.324259055695L330.33105580721866,292L332,292.5265869393914L336,293.1134801473598L340,293.32780685415753L344,293.7103905782308L348,294.03890780811514L352,294.29231126396417L356,294.4423505575613L360,294.85596437984475L364,295.9949350004819L364.0111333757077,296L368,297.5281177112375L372,299.8119567513984L372.2531433581666,300L376,302.2684526647715L378.2939323250573,304L380,305.07081915532996L383.912273691626,308L384,308.05576756036913L388,310.9822650003182L388.96684611986177,312L392,314.69562559269616L393.20282979777573,316L396,318.77177722743767L397.2944070496364,320L400,322.28946949690567L402.08584788952203,324L404,325.38317670983974L407.7711092872921,328L408,328.1625653431182L412,330.9351536616639L413.5890521499379,332L416,333.58653990217135L420,335.63886969225985L420.93605148291215,336L424,337.16782417122977L428,338.23529529929573L432,338.8876871331987L436,339.1491232011948L440,339.020011178762L444,338.476294586916L448,337.46467190400864Z"/></g><g><path fill="rgb(193, 182, 207)" stroke="rgb(145, 134, 158)" stroke-opacity="0.3" d="M331.3881699181991,272L332,271.73181606068533L335.3706047505679,268L336,266.66668949905295L336.8363839554487,264L337.355234599932,260L337.30200320720024,256L336.7514165918386,252L336.3379435230612,248L336.01763040075036,244L336,243.73213863951457L335.7404457539006,240L335.5187575008478,236L335.3399606381257,232L335.1945117225716,228L334.87227192155325,224L334.8333598921122,220L334.6438650956142,216L334.2855427710195,212L333.73139660014937,208L332.9270671936019,204L332,200.74315263175197L331.7768402729513,200L330.3158536314716,196L328.55287331001676,192L328,191.00630306788412L326.3989895668434,188L324,184.2691410890136L323.8419801896606,184L321.17498786978655,180L320,178.41623090424235L318.447762675178,176L316,172.4310189617392L315.75449884191465,172L313.3540606801646,168L312,165.746432897957L311.08596000446204,164L308.903330190357,160L308,158.20227440308915L307.0526893961425,156L305.4418279147446,152L304,148.3793131178457L303.86073903942395,148L302.3163256857149,144L300.6884907508773,140L300,138.46806319666035L298.9651363579133,136L297.2505702896617,132L296,129.26031547555615L295.4687400736689,128L293.7780069621081,124L292.04015922696533,120L292,119.9112969386048L290.3319639161637,116L288.4422179938788,112L288,111.13678454494408L286.46572259375193,108L284.2828326637044,104L284,103.52523032198928L281.9985601146339,100L280,97.00314384676108L279.3002694385526,96L276.1233199642024,92L276,91.85056490001628L272.682448723615,88L272,87.2238299233804L269.1225656704589,84L268,82.76064765974832L265.42696442971453,80L264,78.48272528149775L261.51580603214154,76L260,74.52263919453037L257.2564635613039,72L256,70.85721748853544L252.36012878567715,68L252,67.72680364329025L248,64.76435515463035L246.93453634337243,64L244,61.99822251264297L240.9456425532444,60L240,59.363021654691664L236,56.73165587509078L234.85899507113737,56L232,54.12627600820545L228.61517283236896,52L228,51.60457088101512L224,49.22518066056065L221.72053821069778,48L220,47.06771827998733L216,45.081515952807734L213.66700295195375,44L212,43.20871769072852L208,41.41574508608687L204.6254664480275,40L204,39.715641917084895L200,37.95552377946268L196,36.34130476342668L195.1610568229833,36L192,34.589774538787765L188,32.980141602459966L185.52023908957057,32L184,31.336381494035535L180,29.55735039236322L176.65781645698542,28L176,27.655619339088275L172,25.418330877649723L169.59193034437033,24L168,22.936114299463895L164,20.045895572609155L163.94125737218275,20L160,16.571003142878354L159.4270750644461,16L156,12.256871438767945L155.7583353613702,12L152.51743464527382,8L152,7.240184565469846L149.6614129176599,4L148,1.643724155843259L146.74334856814562,0L144,-3.3426955281851463L143.4016597931484,-4L140,-7.38870340163119L139.2988012623801,-8L136,-10.427161551395088L133.45173771960702,-12L132,-12.835086177707552L128,-14.781218493442893L124.40301241085234,-16L124,-16.13035186123841L120,-17.005887631016805L116,-17.42624121979202L112,-17.593627566965083L108,-17.563561262555027L104,-17.24187103079943L100,-16.62103625961487L97.74205165518774,-16L96,-15.52314934699649L92,-14.409606043255394L88,-13.248765545813967L84,-12.018247732372018L83.94285796093934,-12L80,-10.726410338610748L76,-9.300833744630083L72.73844036274716,-8L72,-7.654501512248061L68,-5.583692447341079L64.78707069446341,-4L64,-3.5534823651763787L60,-1.4982025000879275L56.22669015167884,0L56,0.10782454842184563L52,2.5498051991850588L50.30469258645178,4L48,7.24864823879598L47.50390459782682,8L46.180648476492394,12L45.992869712110206,16L46.69125321698442,20L48,23.575568109182L48.138747274235385,24L50.15947935022706,28L52,30.733457737337645L52.92013383995749,32L56,35.33071376855531L56.63305761080085,36L60,39.43614866273012L60.50470114107367,40L64,43.36199061883008L64.66065879333794,44L68,46.73076247397756L69.59857195870404,48L72,49.606166169714754L76,51.862830370575324L76.2508683933408,52L80,54.011110315935696L83.83041117531272,56L84,56.08421476408492L88,58.1926715248664L91.11720520812369,60L92,60.50859215982243L96,63.132226138216765L97.12875148841593,64L100,66.47385436262869L101.50681925995863,68L104,70.76296293168522L104.94403608239327,72L107.75919710512073,76L108,76.38136928235141L109.96684699593544,80L111.86014564573034,84L112,84.32463962796058L113.36786426668783,88L114.74132583606499,92L116,95.85234918022729L116.04346159756423,96L117.31398906106008,100L118.69756505357384,104L120,107.35777149022414L120.23540254196308,108L121.89230049774278,112L124,115.95660188568061L124.02274918496343,116L126.46911835390713,120L128,122.0259828873125L129.53488638961358,124L132,126.71654250409742L133.2275599939764,128L136,130.79068501219783L137.49711318926728,132L140,133.95167007066522L143.10475026962476,136L144,136.56888861856436L148,138.79223109055852L150.44544511364347,140L152,140.77279920599312L156,142.7167452022133L158.94342198315078,144L160,144.47848661669155L164,146.1600568017497L168,147.83381830386486L168.38271848157052,148L172,149.65840700949832L176,151.50495773139127L177.03132433157958,152L180,153.512671382678L184,155.5928476317087L184.7505439705339,156L188,157.90112853443145L191.4037984173563,160L192,160.39981485377896L196,163.2434899927763L196.98837124519486,164L200,166.40808702173717L201.97147087790734,168L204,169.67558103392975L206.8447103449049,172L208,172.98270743773776L211.70528386435,176L212,176.24897166120115L216,179.3357922672086L216.91251010728314,180L220,182.342687970251L222.3043389026467,184L224,185.2228693350403L228,187.7665172379527L228.40828161576866,188L232,190.0867515143479L235.6429946706337,192L236,192.20890903291013L240,194.43301294681277L242.7217421175684,196L244,196.8326603882361L248,199.55223941950862L248.67425914611943,200L252,202.6837231058227L253.58238182770344,204L256,206.52357626622302L257.4387902294659,208L260,211.46325795073204L260.4107535980377,212L262.75411650245314,216L264,218.6104137575657L264.6838374986389,220L266.36050251778477,224L267.6957168478709,228L268,228.85751191484212L269.1362862918713,232L270.64899437524025,236L272,239.28751924805937L272.2977320611433,240L274.13378800662235,244L276,247.65574272958423L276.17775952121116,248L278.47809285911904,252L280,254.20599115485146L281.55517210933283,256L284,258.413154783382L285.90396526513797,260L288,261.6246331709263L291.6440038814242,264L292,264.22546609497186L296,266.3475460544992L299.7319443441929,268L300,268.11664841743607L304,269.49509818573455L308,270.58831291098033L312,271.4079039206262L316,271.9349251221896L316.665327892063,272L320,272.3339574248032L324,272.6933038354904L328,273.0122180282231ZM449.0969309963523,324L452,321.9332825852989L453.9389023499672,320L456,317.4218605528968L457.0145994854216,316L459.27402210784317,312L460,310.3382247219378L460.91826963101687,308L462.1037121330181,304L462.9415461711279,300L463.46902809374694,296L463.7052630330719,292L463.4330939475624,288L463.1821061826887,284L462.5833467677036,280L461.5891879500696,276L460.1232610750717,272L460,271.74601081263245L457.8705691893831,268L456,265.62844664407464L454.47022329940353,264L452,261.6451068412197L449.399086553684,260L448,259.1730475386952L444,257.80873523437435L440,257.13333917332096L436,257.0590579238636L432,257.53676648194363L428,258.5746001823705L424.46345790360635,260L424,260.1784757238394L420,262.2922836790788L417.6383289022076,264L416,265.1380624716868L412,267.9841054239166L411.9770214749706,268L408,271.41299812717665L407.3098744671083,272L404,275.5592995649863L403.59031832481577,276L400.8042370827505,280L400,281.6950331712219L398.9380034572188,284L397.8905290623773,288L397.40928724985423,292L397.79179869480487,296L398.8556902186763,300L400,302.6383608346182L400.58286605169224,304L402.97283371381945,308L404,309.3346047792171L406.0304618688096,312L408,314.0931266031938L409.78688126207993,316L412,318.0349414998672L414.1570007104247,320L416,321.44658040584767L420,323.9550870031904L420.09661072842516,324L424,325.58811737206787L428,326.69470120543997L432,327.3148143341536L436,327.4561932259443L440,327.099276014723L444,326.1929221425056L448,324.6445871276587Z"/></g><g><path fill="rgb(178, 172, 197)" stroke="rgb(130, 125, 148)" stroke-opacity="0.3" d="M312.6841395743773,252L316,248.64743048750887L316.4371071350538,248L318.3284193884972,244L319.49245725963806,240L320,237.15504784180308L320.1782247457815,236L320.5231618440584,232L320.6241048759159,228L320.1812013219007,224L320.01289734695234,220L320,219.87934126764463L319.57271854982224,216L318.8766992718203,212L317.9423260077044,208L316.77379600608936,204L316,201.7924067233689L315.38730408014004,200L313.96646711714163,196L312.55208436737126,192L312,190.5138286586252L311.07007948067917,188L309.50088136964354,184L308,180.26239127234408L307.9033749247446,180L306.35213109037704,176L304.8580637781935,172L304,169.71813152480377L303.3827273753914,168L301.98803377513224,164L300.5776344800842,160L300,158.21058677673724L299.3361321371702,156L298.20983874511325,152L297.05309402232456,148L296,144.68137433462635L295.8078320265047,144L294.5108235870817,140L293.02079575132404,136L292,133.40193630822674L291.493874956354,132L289.90068275895976,128L288.26187754123566,124L288,123.37607103707285L286.67753180734223,120L284.9630831393667,116L284,113.96991533443656L283.1287949673598,112L281.1459320619141,108L280,105.9098731528031L278.919299332105,104L276.36168946679015,100L276,99.49826788785606L273.3898765490071,96L272,94.35585768643244L269.98372403413714,92L268,89.78917618919667L266.3448608135246,88L264,85.49188919404523L262.5111327003556,84L260,81.48676340095557L258.42169585850695,80L256,77.70900787169691L253.90641600979217,76L252,74.45002125766672L248.86148811155567,72L248,71.32505546594095L244,68.27738487393529L243.63061422245966,68L240,65.35881377556277L238.07631217780403,64L236,62.60658219523938L232,60.01264940874495L231.9805746599303,60L228,57.35876680875677L225.75324125929012,56L224,54.92536621360708L220,52.676248904554285L218.7111203214638,52L216,50.548627921249704L212,48.56249097028521L210.79594609546814,48L208,46.67792012783514L204,44.90944293709771L201.82118388022053,44L200,43.214322341857724L196,41.611304023566305L192,40.038490494647874L191.8898722158845,40L188,38.50983660176027L184,37.07403505453553L180.92276658286198,36L180,35.63430757154072L176,34.037249279777456L172,32.35130509553045L171.17390563840917,32L168,30.460470458812168L164,28.331600235957183L163.42554577929084,28L160,25.737235998317374L157.78658898422643,24L156,22.40726908063965L153.3230823776799,20L152,18.697487154178177L149.24257042138345,16L148,14.706598779497654L145.34686895786825,12L144,10.454390586308136L141.78269160594868,8L140,5.835370952103943L138.39110966310787,4L136,1.4232222334166806L134.54621001946012,0L132,-2.2371487952607794L129.72481241987816,-4L128,-5.184610276606875L124,-7.206158208450418L121.69684427014548,-8L120,-8.498263786167016L116,-9.140916083628L112,-9.460309595200997L108,-9.542600772488427L104,-9.269838938618392L100,-8.64258835175714L97.7961993021282,-8L96,-7.405145827455641L92,-6.017198646362104L88,-4.5285410019403685L86.67408564280947,-4L84,-2.825280572898407L80,-0.8914320461244643L78.33187003189303,0L76,1.3983969198848314L72.18683569006595,4L72,4.170660031566243L68.31109263538991,8L68,8.48272453244958L65.63670417097939,12L64.20565840892863,16L64,18.11237689222878L63.807134266761665,20L64,21.30299566063144L64.3530291545475,24L65.73014823352511,28L67.95809629410135,32L68,32.05365470760543L70.94548003520066,36L72,37.22432879036961L74.68349843883783,40L76,41.12006793057472L79.64080767753191,44L80,44.23971079312312L84,46.7538940953977L86.03393988933601,48L88,49.054427373845414L92,51.25199232852944L93.29639612848308,52L96,53.65562795126999L99.39923591387998,56L100,56.42830687404867L104,59.62471566162287L104.40167084322968,60L108,63.776799703652415L108.17424072171855,64L110.82109821367203,68L112,69.97142406913542L112.99332863509713,72L114.85859323011945,76L116,78.73866677468175L116.45582068260694,80L117.78434880790778,84L119.01603376458857,88L120,91.30946272484897L120.18455580572822,92L121.26179520988367,96L122.4890636506288,100L123.88750933849158,104L124,104.28584172140077L125.3930434186351,108L127.20064606351264,112L128,113.4297598839473L129.4241859469964,116L132,119.77909192444034L132.15263012653025,120L135.48997054095506,124L136,124.53025574392811L140,127.90012678783728L140.1357991089565,128L144,130.84087374182016L145.85907724438022,132L148,133.32015063148307L152,135.51773766662419L152.9095375405165,136L156,137.6222725239117L160,139.48127117837197L161.22954604105573,140L164,141.20500411767284L168,142.92742275367445L170.48925184892607,144L172,144.68599492641502L176,146.53019663265485L179.13099574745723,148L180,148.43014410511577L184,150.48155097814887L186.87097498293252,152L188,152.62743481428737L192,154.99789200917803L193.59051358652823,156L196,157.6202217152801L199.26091292515514,160L200,160.5734942405077L204,163.7470373905986L204.31361158047224,164L208,167.04959393168252L209.18575821099637,168L212,170.27442071521511L214.37365762434825,172L216,173.23074510672404L219.8923774735198,176L220,176.07986978897054L224,178.95005811378564L225.6767023704212,180L228,181.5242130144801L232,183.8251002602026L232.3381067529349,184L236,185.9445399105685L240,187.8752193881603L240.25851399085042,188L244,189.8827596100656L248,191.9259156042292L248.15832741602276,192L252,194.10400448040087L255.50103570254964,196L256,196.32012749083037L260,198.71037121703307L262.25702763512436,200L264,201.29463249328762L267.69066708813244,204L268,204.30169182450527L271.79692777590947,208L272,208.27970638402223L274.643333726979,212L276,214.8068790604898L276.57129670793336,216L278.10594260745347,220L279.3356580332976,224L280,227.0240267899478L280.2549895571415,228L281.73559753742603,232L283.41783886140126,236L284,237.18468662598758L285.6465170221046,240L288,243.50015753540094L288.41660803027855,244L292,247.75815294980987L292.30019204294916,248L296,250.65241018004804L298.5896602765512,252L300,252.64984512949678L304,253.59380451765702L308,253.6462426824313L312,252.46851151405923ZM441.5272103955409,312L444,310.3931659289199L446.4088810069592,308L448,305.8698239153206L448.9719079349554,304L450.40083733035044,300L451.2269744633396,296L451.4837414211464,292L450.80353618761296,288L450.0366429596555,284L448.55791050981634,280L448,279.0045399278187L445.3877538489322,276L444,274.8566033665024L440,272.86868430448624L436,272.05929242315784L432,272.26277139485705L428,273.3941098671696L424,275.4290303487285L423.23099267464056,276L420,279.0289701862928L419.25447943578746,280L416.9881976461476,284L416,286.68006301467955L415.56153245069606,288L414.6205838986464,292L414.7008185290358,296L415.5136585439915,300L416,301.2626656286646L417.24502867438935,304L419.9662577931125,308L420,308.03723658111136L424,311.2438462745723L425.44751117109297,312L428,313.07964861533867L432,313.8920057777841L436,313.81007094976025L440,312.77825030745703Z"/></g><g><path fill="rgb(164, 162, 186)" stroke="rgb(117, 115, 138)" stroke-opacity="1" d="M286.65746218417894,192L288,191.27481636953178L291.1381213318969,188L292,186.06729527710223L292.650840151208,184L293.23851785544235,180L293.42480045600036,176L293.38980163296185,172L293.1999015049035,168L292.90953478617894,164L292.4385694665464,160L292,156.22863189443714L291.9773162239866,156L291.50349304617293,152L290.8651258573783,148L290.02751364275,144L288.98196662794686,140L288,136.98513963052744L287.707627941941,136L286.3939898916464,132L284.8947655778841,128L284,125.70270036737779L283.39197341624185,124L281.9008342563445,120L280.234244966215,116L280,115.49366322479455L278.3503528880956,112L276.1832924473157,108L276,107.68864341079973L273.7811827973661,104L272,101.38981153893488L271.0556233299454,100L268,96.09458990639789L267.9242075567523,96L264.3457148894285,92L264,91.62867623677786L260.37915028048747,88L260,87.62013853554546L256.15108779412685,84L256,83.8570673587538L252,80.55822991291947L251.2935805282928,80L248,77.3558754342867L246.25443099286963,76L244,74.24275003090685L241.0546493603669,72L240,71.19495730562298L236,68.19599593622081L235.7375877915236,68L232,65.31666792622605L230.13601853104336,64L228,62.57149476701301L224,60.10712649534955L223.81558326058934,60L220,57.748481018833075L216.79665396033107,56L216,55.56262505332623L212,53.471013805948985L208.9380273506796,52L208,51.53941288761803L204,49.67721288807164L200.10217885061252,48L200,47.95521412182828L196,46.3182886929317L192,44.71409316214226L189.92202183862912,44L188,43.306794015600445L184,41.99283093726581L180,40.76684323356943L177.39140899547567,40L176,39.53736526241079L172,38.2247388829951L168,36.937110182606204L165.21966239881215,36L164,35.504812693827816L160,33.76303654434868L156.72642377775858,32L156,31.542273682047494L152,28.965360500800102L150.58949312064345,28L148,25.971974718062L145.62136546077218,24L144,22.52135264734393L141.34027388658072,20L140,18.683438629675706L137.33420572011616,16L136,14.662255851315166L133.3307130182632,12L132,10.615299643486509L129.40484938199515,8L128,6.608014968963403L124.65519779603886,4L124,3.5500526539761523L120,1.5591936602721432L116,0.3914636049738789L113.64576589423646,0L112,-0.24547489963536862L108,-0.5248973782483972L104,-0.28283230435432927L102.49960617339562,0L100,0.5110221957266106L96,2.1277630343728475L92,3.878557855914181L91.7439606811474,4L88,6.2343223280707605L85.3544423725011,8L84,9.227727230223138L81.28441774761973,12L80,14.062479353887653L78.92586633123935,16L77.95852015635936,20L78.16183626062715,24L79.46834156957084,28L80,28.87937211100318L82.01478024413257,32L84,34.07709301831747L85.94651201233185,36L88,37.74765669607467L90.73505011747847,40L92,40.88567779977777L96,43.68397792186545L96.44301023212395,44L100,46.28158024882535L102.72147512814016,48L104,48.76476144069298L108,51.39121493412378L108.81530291122567,52L112,55.05122139083045L112.73944230245306,56L115.28290499679309,60L116,61.40192969067144L117.07209814032569,64L118.38076876495123,68L119.67477082382564,72L120,72.95129432446117L120.89706121875099,76L121.98902460108044,80L123.00651120013674,84L124,87.97713994343306L124.00510489534642,88L124.94032257418485,92L125.92997792304865,96L127.11567693051748,100L128,102.54105639888763L128.48047607589262,104L130.04213755114253,108L131.97316026690416,112L132,112.04575979039569L134.31258162320137,116L136,118.34987797097213L137.41609362518057,120L140,122.50933169279477L141.76281541227374,124L144,125.6981331195799L147.56513234990697,128L148,128.28398515343486L152,130.67582788343404L154.3787927418218,132L156,132.90576646724352L160,134.9139618979255L162.4396054879341,136L164,136.6972775333344L168,138.45721357005166L171.586651522735,140L172,140.18510560493536L176,141.99069523253362L180,143.8086053805888L180.40690997399054,144L184,145.78578115626004L188,147.84283306049193L188.28325026536862,148L192,150.1431752914456L195.01437370538144,152L196,152.6284091000622L200,155.45351612371047L200.7442053507695,156L204,158.49424939313857L205.93423403220106,160L208,161.68223117234868L210.92246194028036,164L212,164.87301659775028L216,167.80487180940634L216.2778652964668,168L220,170.63228179219607L222.02582893948022,172L224,173.3827983536637L228,175.81631966970463L228.34451027656132,176L232,178.05692325971393L235.93587146339814,180L236,180.0335403006012L240,181.90815129400482L244,183.73856263498845L244.58938832282064,184L248,185.59050457795433L252,187.24460677495347L254.0534878006199,188L256,188.77465672695882L260,190.11083244277063L264,191.23589166970197L267.4407282683333,192L268,192.15849926001215L272,192.91474424811827L276,193.53484399619845L280,193.81614126244568L284,193.13672327203477Z"/></g><g><path fill="rgb(150, 152, 175)" stroke="rgb(104, 106, 128)" stroke-opacity="0.3" d="M275.9049417545683,180L276,179.9476472360011L280,176.27444799921165L280.19172037616806,176L282.37189305751207,172L283.76084290315845,168L284,167.01255109188384L284.6607081130815,164L285.1372561020801,160L285.4104942677416,156L285.490341133084,152L285.2695446289404,148L284.7465762450317,144L284,140.29118016385297L283.94774967986405,140L282.9325697551506,136L281.77311905730005,132L280.39873542079494,128L280,126.89830059522541L278.9422807651521,124L277.40051261174517,120L276,116.78328256082833L275.65741058943996,116L273.67276409636514,112L272,109.06427087288009L271.4032471400578,108L268.92227599395875,104L268,102.67578673214922L266.10111293161486,100L264,97.41480837259812L262.770553358892,96L260,93.13991641383487L258.8158019471402,92L256,89.35284751317897L254.32603280110015,88L252,86.08590185769714L249.33832572417663,84L248,82.93068591986633L244.21070436997843,80L244,79.8343843522025L240,76.73652020284436L239.03777835817448,76L236,73.6683452060897L233.80809254739114,72L232,70.63163653730516L228.504156108112,68L228,67.63727672436119L224,64.92860466440138L222.52718211332444,64L220,62.491002209719426L216,60.24363973361065L215.5496405965206,60L212,58.06470304711081L208,56.05996845353846L207.8745076869577,56L204,54.14874748948017L200,52.38278975555042L199.05498913557147,52L196,50.72726309540414L192,49.08229150607801L188.83826757629174,48L188,47.70310974353984L184,46.45609428216346L180,45.34647886622582L176,44.334043429469034L174.5593945009087,44L172,43.34452309608952L168,42.44047496735004L164,41.54626270000483L160,40.63007497884655L157.51413984516324,40L156,39.531448145546165L152,38.38411867624879L148,37.19794182424428L144.22207038981657,36L144,35.900042192488485L140,34.051005423883126L136.9660611304334,32L136,31.225068267403174L132.70590004189862,28L132,27.24674996806496L129.49832752264328,24L128,22.153085718505707L126.0564997107384,20L124,18.05970939280131L121.3354851397687,16L120,15.13300863607381L116,13.461097725856206L112,12.404192531880781L109.38192262035611,12L108,11.821950338904145L106.11439661055081,12L104,12.266758145046282L100,14.067691578549102L97.89647689527067,16L96,19.290811965731592L95.64225535931993,20L95.36314722888974,24L96,25.868834980661788L96.75713658939213,28L99.770915716238,32L100,32.20009592766374L104,34.89164075674604L105.93032113606094,36L108,37.18771351492171L112,39.35410248103079L112.9437306042783,40L116,42.21319683743096L117.92896876653387,44L120,46.31591803273329L121.14842181707945,48L123.17944951649002,52L123.97343053617877,56L124,56.180530952689L124.43905316605805,60L124.73428769717447,64L125.00895206166746,68L125.5513563124396,72L126.2576707109861,76L126.97452036859002,80L127.7095085950101,84L128,85.44382258957589L128.46181800889602,88L129.26714979963282,92L130.17796927337903,96L131.3246419932008,100L132,101.9427456702517L132.6807309362337,104L134.2966960433298,108L136,111.3814095444294L136.36041747251593,112L139.28082940418832,116L140,116.82615088952761L143.12030357296786,120L144,120.75580156508104L148,123.73099194941284L148.40211525406343,124L152,126.21696518625461L155.15221609013997,128L156,128.49287889165186L160,130.5905632067869L163.06908501778068,132L164,132.43448852653552L168,134.2545346154711L171.9798409167774,136L172,136.00895807444985L176,137.7730794442826L180,139.53226237181804L181.03972141674274,140L184,141.39832489196775L188,143.35731736219657L189.21891492508377,144L192,145.54116496195812L196,147.93998130353157L196.08645845240164,148L200,150.74694848030003L201.69917639880236,152L204,153.70301290600383L207.0290677186511,156L208,156.76220914621578L212,159.83485589367504L212.23589212380193,160L216,162.7474909417216L217.7986720708684,164L220,165.56245011453348L223.57725097648432,168L224,168.28927106472605L228,170.6734022601068L230.58121979797392,172L232,172.76382093607447L236,174.63393362813235L239.34659416780096,176L240,176.28489921524647L244,177.92225059328484L248,179.48546110350833L249.6429462342308,180L252,180.80869117165253L256,181.88331298179128L260,182.60151642437023L264,182.9129975674656L268,182.69023492469563L272,181.74017512373388Z"/></g><g><path fill="rgb(135, 141, 165)" stroke="rgb(90, 96, 118)" stroke-opacity="0.3" d="M270.00761430002154,172L272,170.4492771208062L274.29972405558453,168L276,165.5181168989331L276.7967308497864,164L278.2927971202567,160L279.3163777203179,156L279.9586754294019,152L280,151.1625917191622L280.13799338445347,148L280,145.51585646317483L279.9176430543349,144L279.3433784956003,140L278.42852079674367,136L277.3214408051948,132L276,128.13240681274706L275.9549023484655,128L274.49457013374507,124L272.93887894100374,120L272,117.89067317933615L271.18470549005383,116L269.1872031091457,112L268,109.9363797752869L266.8689913698103,108L264.2676560009357,104L264,103.62963857585444L261.2053771773572,100L260,98.62291477957837L257.5433647504117,96L256,94.51154196318254L252.9645569081381,92L252,91.21315621531048L248,88.12261576987169L247.83598484126418,88L244,85.0492738786663L242.6085941976766,84L240,81.99133252250991L237.3902763150677,80L236,78.92746097716389L232.188289130072,76L232,75.85540610925031L228,72.75715188477795L226.9723416576046,72L224,69.84828585029874L221.2786512944652,68L220,67.17821278690326L216,64.71546964918127L214.78738707454272,64L212,62.45031030512146L208,60.385377676800914L207.21301105982513,60L204,58.41765889424528L200,56.57543096997412L198.63426915836857,56L196,54.89379632541423L192,53.22445418531993L188.39903830972202,52L188,51.85932434279013L184,50.66088675248915L180,49.6460104662915L176,48.78028007889546L172,48.039105181742286L171.7097773761201,48L168,47.44601438529676L164,46.94975474790249L160,46.55508043636442L156,46.224495032791225L152,46.14335797013263L148,46.394846820274296L144,47.2029862364904L141.98822122081114,48L140,48.99546070390801L136.6822388974492,52L136,52.768348025044446L134.16238986691926,56L132.68275063777298,60L132,62.54491903577005L131.65017686510862,64L130.99489154618985,68L130.90885052754948,72L131.15713239195856,76L131.52995805649334,80L132,83.91842201771018L132.00865365869862,84L132.56778358055976,88L133.25560302525128,92L134.09569132254225,96L135.20702130993362,100L136,102.27172474156177L136.67662281041493,104L138.62508788177269,108L140,110.26789968246095L141.15197090119486,112L144,115.3908710666654L144.5811098264693,116L148,119.05324294320877L149.19075642520463,120L152,121.9359215274834L155.26871227844146,124L156,124.4298288203517L160,126.53850088166593L163.18551783482602,128L164,128.3889607915152L168,130.22594031262722L172,131.9795774103942L172.048030199383,132L176,133.73150188392808L180,135.46140796584336L181.23268401277596,136L184,137.23805256910714L188,139.084654337359L189.84639495917315,140L192,141.12093793473642L196,143.3855955867724L196.91259260726218,144L200,146.136705544497L202.51275010432715,148L204,149.099547338243L207.76912120449117,152L208,152.17615157710233L212,155.1800386107171L213.2008394349109,156L216,157.9703331352837L219.00693536962336,160L220,160.69641268509363L224,163.4111427090027L225.00832508356638,164L228,165.78063156040582L232,167.82034723415427L232.41429361064564,168L236,169.5796592333561L240,171.0797634607418L242.70717887032532,172L244,172.4688280560527L248,173.75913379264477L252,174.69421685829388L256,175.25395642176983L260,175.3080786554633L264,174.7402713510383L268,173.27210389160342Z"/></g><g><path fill="rgb(121, 131, 154)" stroke="rgb(77, 86, 108)" stroke-opacity="0.3" d="M260.88908554997766,168L264,166.7368895978546L267.6830889462713,164L268,163.69834470402716L270.75840843432036,160L272,157.73275635996973L272.80566586496764,156L274.1654851748111,152L274.8445353437367,148L274.9503575490296,144L274.59815716958053,140L273.8278982794332,136L272.812528456543,132L272,129.54975108522726L271.50801074236864,128L270.12392430491843,124L268.6307686623335,120L268,118.55466446731387L266.8761147895081,116L264.8145344604028,112L264,110.6295594559227L262.3367403936756,108L260,104.6713393703466L259.49670696626725,104L256.16136325152786,100L256,99.82815114741132L252,96.16277555938333L251.8106533145122,96L248,93.00033173506137L246.67061596764756,92L244,89.99469035726884L241.28459839359886,88L240,87.02761265108569L236,84.01933703052146L235.9744751680965,84L232,80.94369746929007L230.79220905728715,80L228,77.81894723606598L225.5662522006469,76L224,74.83944804104434L220,72.03049682709943L219.95605952529326,72L216,69.34750351144018L213.9185982651797,68L212,66.84620198409209L208,64.6003810696696L206.86892128751595,64L204,62.56356878891688L200,60.67486282962244L198.43897550576952,60L196,58.94419321933657L192,57.203379144800806L188.56149927346547,56L188,55.803740460142734L184,54.654880823517914L180,53.72889616991637L176,52.99787788417211L172,52.447170158477775L168,52.137174449951374L164.03234297963547,52L164,51.998736067593654L163.918086563113,52L160,52.061773890548636L156,52.3551401628759L152,53.08487976578158L148,54.4264121611142L145.1746948977006,56L144,56.78544250716544L140.7752282675308,60L140,60.97669090649484L138.14521037869756,64L136.50542811168955,68L136,70.73652621900675L135.81170246240796,72L135.65040760870127,76L135.71745368433776,80L135.97172922806635,84L136,84.24940442505246L136.4507097108681,88L137.137554860672,92L138.05016168375482,96L139.31602862883756,100L140,101.67604501029356L141.01114713642488,104L143.22135779491003,108L144,109.13894761359248L146.1937492207964,112L148,113.88721492550178L150.25702528630413,116L152,117.40692018263084L155.49837292474672,120L156,120.32578315431581L160,122.64035698540494L162.7175297664237,124L164,124.60840519182622L168,126.40172351914686L171.77064137280234,128L172,128.10224880993542L176,129.8064078932543L180,131.47011384174925L181.2793570957444,132L184,133.16867230801776L188,134.92658456828292L190.28479499093754,136L192,136.82756673420897L196,138.92102821886428L197.67397217410814,140L200,141.5479758451067L203.3695596918036,144L204,144.4657106968346L208,147.5977722506963L208.51215063679297,148L212,150.66081511521682L213.91489394845752,152L216,153.4254995023609L219.90163508067388,156L220,156.06661869797952L224,158.70061137006238L226.3086827312287,160L228,160.9873956564051L232,162.9701515851467L234.47279626846614,164L236,164.65120428460722L240,166.04832405082306L244,167.26176087091528L246.91633913959566,168L248,168.28461443878848L252,168.86059803851714L256,168.93148954898055L260,168.30401040958537Z"/></g><g><path fill="rgb(107, 121, 143)" stroke="rgb(63, 77, 98)" stroke-opacity="0.3" d="M261.5098320540166,160L264,158.03519202816213L265.7099249599222,156L268,152.27083363398245L268.13028367923715,152L269.3675365636785,148L269.8637270877208,144L269.79324522538496,140L269.23343890700863,136L268.37688044299796,132L268,130.75936631732878L267.1560834266807,128L265.8038110481894,124L264.33218577816876,120L264,119.24524929483516L262.48702865348673,116L260.282180257529,112L260,111.55772082757056L257.57230749264284,108L256,105.91208923048083L254.32595232265265,104L252,101.60196085013476L250.3363113224259,100L248,97.9889761677928L245.57277690362167,96L244,94.81504917448109L240.16926205901882,92L240,91.87559573873801L236,88.96432864605168L234.68682711862317,88L232,85.97009511308303L229.45144294512573,84L228,82.86698995273608L224.1995740590475,80L224,79.85062690081429L220,77.00113919921907L218.59382587143386,76L216,74.19515868292655L212.78355294196712,72L212,71.4884410537112L208,69.02070738598348L206.26491862942362,68L204,66.78017455914502L200,64.73464729214939L198.43296168546266,64L196,62.92730949037076L192,61.13100968368559L188.83061719116955,60L188,59.703132421665856L184,58.56329827147138L180,57.68644104590962L176,57.05059061297692L172,56.65010962764069L168,56.55637549830948L164,56.709297435544016L160,57.16383767055444L156,58.00630479509573L152,59.48481374182646L151.02800233330342,60L148,61.854182912253236L145.5925618315669,64L144,65.87747198858875L142.6251980009386,68L141.18171439327,72L140.51798466322035,76L140.25801458547735,80L140.32033872465865,84L140.6794484872946,88L141.32250053568032,92L142.2636085667229,96L143.63011968423734,100L144,100.82190236465169L145.56532904814094,104L148,107.83366921208216L148.11582635437813,108L151.56963764078532,112L152,112.4044261309368L156,115.86567015154236L156.1765378864496,116L160,118.56010464524257L162.5000951457498,120L164,120.77040697215301L168,122.67770767523868L170.97826541798725,124L172,124.43749417708148L176,126.03889373591832L180,127.5782975180702L181.1244394184618,128L184,129.15306934731012L188,130.7746441767316L190.84072586126712,132L192,132.52099894390008L196,134.44637368224807L198.5005889884763,136L200,136.94494620652011L204,139.7508177187608L204.32526186372382,140L208,142.84022160538873L209.47068932912066,144L212,145.97358880432424L214.8005871819742,148L216,148.834149543379L220,151.54830261992765L220.6736534895295,152L224,154.1357520839661L227.41158491206943,156L228,156.32879776199402L232,158.19579974533656L236,159.74585297181503L236.8388248894325,160L240,160.9981631689445L244,162.0102969673022L248,162.75913366530636L252,162.9571417256362L256,162.4691885651508L260,160.97560944092226Z"/></g><g><path fill="rgb(92, 111, 133)" stroke="rgb(49, 68, 88)" stroke-opacity="1" d="M254.9877275583621,156L256,155.66354003000336L260,152.96051255901796L260.9162502045504,152L263.42544234131014,148L264,146.2068297148462L264.54857507996957,144L264.83311327964077,140L264.50807056576735,136L264,133.13007682285928L263.78783501558576,132L262.5881891635659,128L261.2386148483096,124L260,120.68230908903877L259.7281487643565,120L257.76519674623967,116L256,112.98621006658664L255.32681456650516,112L252.1478937909901,108L252,107.83110486824663L248.3840277237091,104L248,103.63029616501046L244.02122269347865,100L244,99.9826404292501L240,96.81763956601381L238.95597263315153,96L236,93.87024813165726L233.4304683081346,92L232,90.95799462534981L228.0519217951374,88L228,87.96009152021523L224,84.98956503692972L222.6261827769208,84L220,82.11755425262078L217.1045352878591,80L216,79.21595697862287L212,76.4002338012804L211.40474391298312,76L208,73.79404335838444L205.13377531913642,72L204,71.33186568114954L200,69.05174196657052L198.0197460247404,68L196,67.04072026062983L192,65.07789955840084L189.2025676632456,64L188,63.56424723439156L184,62.44215053887385L180,61.62090832126037L176,61.084917064255905L172,60.83770464732339L168,60.96053054823878L164,61.40334251541282L160,62.2450083437443L156,63.62644213210967L155.251928360802,64L152,65.9955144285189L149.68658287764265,68L148,70.34787250683587L147.0782360079675,72L145.79185126621886,76L145.11554729313852,80L144.91798618251084,84L145.13897679404604,88L145.7432027377283,92L146.7347234053478,96L148,99.3653588268433L148.25662909331058,100L150.45566199667815,104L152,106.18650822969067L153.3823456698854,108L156,110.77364732645856L157.31760795741135,112L160,114.06126755453573L162.93443424272698,116L164,116.62444070696841L168,118.77384360651283L170.48731838169584,120L172,120.6756142676418L176,122.30460274040584L180,123.83169308696466L180.46911365665432,124L184,125.25658164050193L188,126.66941751746879L191.58135441279717,128L192,128.16819598950042L196,129.84209955081604L199.70692812468496,132L200,132.17576049883388L204,134.8453134361905L205.52817484561137,136L208,137.8606312218919L210.74129234375573,140L212,140.98042625546515L216,143.89760542805627L216.1406474470494,144L220,146.70279320814558L221.8269374909567,148L224,149.43983332431017L228,151.68709703643435L228.67385559245508,152L232,153.46220416824153L236,154.8763949214229L240,155.95198683735765L240.2608195378192,156L244,156.7078303604778L248,157.1120965816704L252,156.8399013505038Z"/></g><g><path fill="rgb(78, 100, 122)" stroke="rgb(36, 58, 78)" stroke-opacity="0.3" d="M255.31624521605352,148L256,147.31770019886372L257.9844189754289,144L259.0296083459041,140L259.0742792411264,136L258.5322898731926,132L257.4439777457599,128L256.15420455669016,124L256,123.58988063963818L254.4266791182871,120L252.24179797169103,116L252,115.641965944529L249.30845956958666,112L248,110.47716385280785L245.71131834082314,108L244,106.29441240631712L241.61192055460498,104L240,102.58394118516631L237.02081963998535,100L236,99.20919326592988L232,96.08756523410014L231.88971646847853,96L228,93.17314570443082L226.36756504438648,92L224,90.30826639559271L220.69335961216143,88L220,87.50893303686533L216,84.57722911732873L215.23246673434858,84L212,81.6585816969095L209.63698439289254,80L208,78.91117275206892L204,76.32189653991094L203.5002335751579,76L200,73.8742817349337L196.75889452532186,72L196,71.59788898283045L192,69.3425125866575L188.9809642934789,68L188,67.6185896651223L184,66.44896295284968L180,65.63891136700198L176,65.17887990420118L172,65.08340102237099L168,65.4512425671416L164,66.24374568691144L160,67.57539216851904L159.11760230254805,68L156,70.16121803937679L154.15962841646402,72L152,75.51370265120974L151.7643473740876,76L150.52842856441276,80L149.98291044709234,84L150.01244469422747,88L150.5454026168467,92L151.56745354026174,96L152,97.06390411611625L153.27131258858472,100L155.67822265474004,104L156,104.41894714771306L159.11612134644068,108L160,108.824325825865L163.95526012026653,112L164,112.02986710180559L168,114.4541024987515L170.82292688257422,116L172,116.5806935132934L176,118.33547899980255L180,119.9391469240623L180.16791888669763,120L184,121.28854076036816L188,122.57272072501272L192,123.87214945880407L192.40024001293233,124L196,125.18243990316364L200,127.14759574984922L201.48547500232308,128L204,129.55479853827825L207.35671739069466,132L208,132.47358685210946L212,135.52977180737238L212.65430926974807,136L216,138.35052007444094L218.2498091565193,140L220,141.2428533809011L223.73772981883474,144L224,144.1827008028167L228,146.47964945598736L231.14567605002242,148L232,148.37633721154245L236,149.7028273269317L240,150.61825353408662L244,151.11894269015545L248,151.08888045669437L252,150.03846706088328Z"/></g><g><path fill="rgb(63, 90, 112)" stroke="rgb(20, 49, 69)" stroke-opacity="0.3" d="M250.40678070132293,140L251.83719317249302,136L251.80196322202767,132L250.7286620080912,128L249.32936838965844,124L248,120.74684802040056L247.6597586639266,120L245.16133738051803,116L244,114.4994375010312L241.9604788044889,112L240,109.95544573615425L238.0682706083993,108L236,106.06852490891495L233.78450778173487,104L232,102.4772032464227L229.18829055323818,100L228,99.07601385140782L224.00484876306865,96L224,95.99661179122535L220,93.37425232753154L218.1066466466221,92L216,90.51059739457585L212.6571535254082,88L212,87.51525794728457L208,84.66383757155279L207.0702184949227,84L204,81.95393972749162L201.1681786761207,80L200,79.26163271290275L196,76.8380160692997L194.77611496446798,76L192,74.27062752867852L188,72.29962724025151L187.176998549904,72L184,70.97490647558953L180,70.13461298358851L176,69.75258047369917L172,69.87547217227498L168,70.65702413705219L164.24514322771353,72L164,72.12113093812005L160,75.13635584621349L159.21045739226238,76L156.8015842669361,80L156,82.58080967343301L155.65046139063594,84L155.39736108767772,88L155.79607601326248,92L156,92.7989019016913L156.9052989364072,96L158.81844419936675,100L160,101.73685903124459L161.77733366820996,104L164,106.198444406947L166.04074652847834,108L168,109.41841345855701L171.99066501086372,112L172,112.00509421452944L176,113.88665016371075L180,115.55178311374496L181.23537321349363,116L184,116.92552248432341L188,118.12046446673835L192,119.24748115364935L194.810341016329,120L196,120.3031466016796L200,121.91055770949714L204,123.94237398186988L204.09887343008518,124L208,126.3590943290412L210.44275685601428,128L212,129.1218683997946L216,131.8960837268515L216.14350911516232,132L220,134.6946662738439L221.69016983291374,136L224,137.68600022275848L227.6978691189558,140L228,140.17550014803442L232,141.94915842382528L236,143.2736458412062L240,143.9816439380343L244,143.86490512273048L248,142.40269654260297Z"/></g><g><path fill="rgb(49, 80, 101)" stroke="rgb(3, 40, 59)" stroke-opacity="0.3" d="M238.55135061382475,128L238.44645664041207,124L237.45868593369187,120L236,117.2931595196469L235.2710530591143,116L232.12538074310828,112L232,111.87416514061564L228.20613901582766,108L228,107.80589894311811L224,104.11341249846029L223.869240475374,104L220,101.02228302877631L218.89566337808338,100L216,97.80883553963389L213.88594050772178,96L212,94.62212879529326L208.4549418675146,92L208,91.68341603559887L204,88.88528269833745L202.8653686344395,88L200,85.95466508721319L197.34403557959223,84L196,83.13010791794684L192,80.0317174648658L191.94758413661384,80L188,77.96053715949046L184,76.4509879334442L181.93961449172429,76L180,75.62184196457542L176,75.46531229747433L172.15293184378328,76L172,76.0281093591212L168,77.93876238947195L165.4154415279889,80L164,81.90120921512371L162.87326629138732,84L162.00604611205011,88L162.20449365913183,92L163.32813137210832,96L164,97.25617657497514L165.64560752082826,100L168,102.67675748949213L169.32589915747684,104L172,106.07433103304626L174.9645790738174,108L176,108.55916591980818L180,110.34927740977807L184,111.86454779872994L184.46267429619627,112L188,112.89796644159875L192,113.69217198456022L196,114.25345666993141L200,115.65320999770694L200.83217006369136,116L204,117.23181713079356L208,119.34632677821017L209.16321994963454,120L212,121.46099797943052L216,123.37466407736633L217.21339361162592,124L220,125.51052094242183L223.59475455962007,128L224,128.2973916083345L228,130.36871413667558L232,131.86761643615552L236,131.78585278795745Z"/></g></g><g id="labels"/><g id="axis"><g transform="translate(0,500)" fill="none" font-size="10" font-family="sans-serif" text-anchor="middle"><path class="domain" stroke="currentColor" d="M0,6V0H705V6"/><g class="tick" opacity="1" transform="translate(0,0)"><line stroke="currentColor" y2="6"/><text fill="currentColor" y="9" dy="0.71em">40</text></g><g class="tick" opacity="1" transform="translate(59,0)"><line stroke="currentColor" y2="6"/><text fill="currentColor" y="9" dy="0.71em">60</text></g><g class="tick" opacity="1" transform="translate(118,0)"><line stroke="currentColor" y2="6"/><text fill="currentColor" y="9" dy="0.71em">80</text></g><g class="tick" opacity="1" transform="translate(176,0)"><line stroke="currentColor" y2="6"/><text fill="currentColor" y="9" dy="0.71em">100</text></g><g class="tick" opacity="1" transform="translate(235,0)"><line stroke="currentColor" y2="6"/><text fill="currentColor" y="9" dy="0.71em">120</text></g><g class="tick" opacity="1" transform="translate(294,0)"><line stroke="currentColor" y2="6"/><text fill="currentColor" y="9" dy="0.71em">140</text></g><g class="tick" opacity="1" transform="translate(353,0)"><line stroke="currentColor" y2="6"/><text fill="currentColor" y="9" dy="0.71em">160</text></g><g class="tick" opacity="1" transform="translate(411,0)"><line stroke="currentColor" y2="6"/><text fill="currentColor" y="9" dy="0.71em">180</text></g><g class="tick" opacity="1" transform="translate(470,0)"><line stroke="currentColor" y2="6"/><text fill="currentColor" y="9" dy="0.71em">200</text></g><g class="tick" opacity="1" transform="translate(529,0)"><line stroke="currentColor" y2="6"/><text fill="currentColor" y="9" dy="0.71em">220</text></g><g class="tick" opacity="1" transform="translate(588,0)"><line stroke="currentColor" y2="6"/><text fill="currentColor" y="9" dy="0.71em">240</text></g><g class="tick" opacity="1" transform="translate(646,0)"><line stroke="currentColor" y2="6"/><text fill="currentColor" y="9" dy="0.71em">260</text></g><g class="tick" opacity="1" transform="translate(705,0)"><line stroke="currentColor" y2="6"/><text fill="currentColor" y="9" dy="0.71em">280</text></g><text x="705" dy="-5" text-anchor="end" style="font-family: Arial, sans-serif; font-size: 12px; fill: rgb(123, 123, 123); font-weight: bold;">low</text></g><g fill="none" font-size="10" font-family="sans-serif" text-anchor="end"><path class="domain" stroke="currentColor" d="M-6,500H0V0H-6"/><g class="tick" opacity="1" transform="translate(0,500)"><line stroke="currentColor" x2="-6"/><text fill="currentColor" x="-9" dy="0.32em">580</text></g><g class="tick" opacity="1" transform="translate(0,464)"><line stroke="currentColor" x2="-6"/><text fill="currentColor" x="-9" dy="0.32em">600</text></g><g class="tick" opacity="1" transform="translate(0,429)"><line stroke="currentColor" x2="-6"/><text fill="currentColor" x="-9" dy="0.32em">620</text></g><g class="tick" opacity="1" transform="translate(0,393)"><line stroke="currentColor" x2="-6"/><text fill="currentColor" x="-9" dy="0.32em">640</text></g><g class="tick" opacity="1" transform="translate(0,357)"><line stroke="currentColor" x2="-6"/><text fill="currentColor" x="-9" dy="0.32em">660</text></g><g class="tick" opacity="1" transform="translate(0,321)"><line stroke="currentColor" x2="-6"/><text fill="currentColor" x="-9" dy="0.32em">680</text></g><g class="tick" opacity="1" transform="translate(0,286)"><line stroke="currentColor" x2="-6"/><text fill="currentColor" x="-9" dy="0.32em">700</text></g><g class="tick" opacity="1" transform="translate(0,250)"><line stroke="currentColor" x2="-6"/><text fill="currentColor" x="-9" dy="0.32em">720</text></g><g class="tick" opacity="1" transform="translate(0,214)"><line stroke="currentColor" x2="-6"/><text fill="currentColor" x="-9" dy="0.32em">740</text></g><g class="tick" opacity="1" transform="translate(0,179)"><line stroke="currentColor" x2="-6"/><text fill="currentColor" x="-9" dy="0.32em">760</text></g><g class="tick" opacity="1" transform="translate(0,143)"><line stroke="currentColor" x2="-6"/><text fill="currentColor" x="-9" dy="0.32em">780</text></g><g class="tick" opacity="1" transform="translate(0,107)"><line stroke="currentColor" x2="-6"/><text fill="currentColor" x="-9" dy="0.32em">800</text></g><g class="tick" opacity="1" transform="translate(0,71)"><line stroke="currentColor" x2="-6"/><text fill="currentColor" x="-9" dy="0.32em">820</text></g><g class="tick" opacity="1" transform="translate(0,36)"><line stroke="currentColor" x2="-6"/><text fill="currentColor" x="-9" dy="0.32em">840</text></g><g class="tick" opacity="1" transform="translate(0,0)"><line stroke="currentColor" x2="-6"/><text fill="currentColor" x="-9" dy="0.32em">860</text></g><text x="4" text-anchor="start" dominant-baseline="hanging" style="font-family: Arial, sans-serif; font-size: 12px; fill: rgb(123, 123, 123); font-weight: bold;">high</text></g></g></g></svg>