<svg xmlns="http://www.w3.org/2000/svg" width="805" height="600"><rect width="805" height="600" x="0" y="0" fill="#faeef0" id="background"/><g transform="translate(50,50)" id="visualization"><clipPath id="plotClipPath"><rect x="0" y="0" width="705" height="500"/></clipPath><g id="viz" clip-path="url(#plotClipPath)"><g><path fill="rgb(236, 206, 218)" stroke="rgb(185, 157, 168)" stroke-opacity="1" d="M202.11469921771453,312L204,311.38214603999245L208,309.6332438679748L210.7738734798109,308L212,307.30266135616944L216,304.99734652714693L217.62616418996276,304L220,302.6541923530478L224,300.18013662349773L224.27874862317117,300L228,297.54261378362537L230.15920959005336,296L232,294.70450924960636L235.63966353251988,292L236,291.7335466516274L240,288.686244842133L240.85690830029262,288L244,285.56486196458457L245.91167680942834,284L248,282.3696322751879L251.00620282932255,280L252,279.25906765478646L256,276.43902433868953L256.66886216862923,276L260,273.9755057593906L263.4716796724551,272L264,271.73283846422026L268,269.93586475463064L272,268.29497138860717L272.6599942107961,268L276,266.49104559585163L280,264.5367331708981L281.0413835165328,264L284,262.47823585587565L288,260.22153971674084L288.3692328165971,260L292,257.8197500050817L294.6947724541918,256L296,255.10951456905968L300,252.00458118611692L300.00527631778965,252L304,248.36392945201118L304.3422914903699,248L307.98429308725173,244L308,243.97720932284926L310.977181268627,240L312,238.13819901356652L313.16802171010573,236L314.78266733107716,232L315.91937096473487,228L316,227.59313874136342L316.7480653911051,224L317.25134460729254,220L317.460665034526,216L317.3913048688033,212L317.03824736629286,208L316.37524345309936,204L316,202.49811719691792L315.4017396537887,200L314.041840344961,196L312.12770630178625,192L312,191.79285725579638L309.6161624946323,188L308,186.18411019480294L306.1400347626906,184L304,181.6928061377095L301.9825233452337,180L300,178.41587545390536L296,176.2983960046161L295.4521361625692,176L292,174.10988901896644L288.2921340397292,172L288,171.82809974914767L284,169.18795297091503L282.3860546313624,168L280,166.11905258208265L277.6743643564668,164L276,162.34164090980562L274.0564683250618,160L272,157.2686004574621L271.20536584884616,156L268.9351949511514,152L268,150.1609633756127L267.0663496780222,148L265.39232878969983,144L264,140.69586042438033L263.7405065255878,140L262.238543240434,136L260.7454152169142,132L260,129.97646627792588L259.3266248201711,128L258.00164527008064,124L256.33847875065874,120L256,119.34953883576921L254.29728013765765,116L252,112.09292221798918L251.94965422489418,112L249.65933490006068,108L248,105.43894474759225L247.16765938624894,104L244.5978561199787,100L244,99.08215730863594L242.27060138299112,96L240,92.08433600697484L239.95741665536661,92L238.05298051725646,88L236.14161980364793,84L236,83.66816347339153L234.56255356028203,80L233.1238227641885,76L232,73.0355931400779L231.6249472698296,72L230.199000520318,68L228.78494847892335,64L228,61.61920278151604L227.52000739198235,60L226.57503298372887,56L225.5513188203646,52L224.4423343208673,48L224,46.4519947874343L223.3420372174824,44L222.2558588784526,40L220.8964148864892,36L220,33.812096468739284L219.27109625800279,32L217.3184487372137,28L216,25.80873643856816L214.8854768034691,24L212,20.29058547528639L211.76874744806258,20L208,16.152039734610327L207.85220631208875,16L204,12.053551662586258L203.9395440818489,12L200,8.485644169748042L199.39194586560757,8L196,5.293216190787774L194.24197151253378,4L192,2.3044745426226143L188.8091108392964,0L188,-0.619050883640412L184,-3.6712927749903486L183.5757811903011,-4L180,-7.020427337872448L178.87600693556698,-8L176,-10.603920800892936L174.51618478758195,-12L172,-14.421942459311083L170.41853512153523,-16L168,-18.411326488587335L166.4475731325644,-20L164,-22.425594109951874L162.42584716808958,-24L160,-26.267347260260095L158.11816513292587,-28L156,-29.759125200125325L153.27470140116304,-32L152,-33.07769386267909L148.24803697020377,-36L148,-36.19857130722493L144,-38.80716744100992L141.63491145074758,-40L140,-40.86394513102033L136,-42.524044929137126L132,-43.76592046695348L131.02326021925302,-44L128,-44.75385706353063L124,-45.47543004448712L120,-46.01063723888246L116,-46.3839831485598L112,-46.61357237382098L108,-46.71264445132762L104,-46.69060373248993L100,-46.55374618454597L96,-46.305732771759125L92,-45.820556101213036L88,-45.15715874214764L84,-44.5342606536939L80.30620662980087,-44L80,-43.960307386476586L76,-43.48852891561708L72,-43.06351822277129L68,-42.687097812495L64,-42.393460235210995L60,-42.01866336055347L56,-41.55302643601134L52,-40.98232799128295L48,-40.28638655518644L46.617952290305965,-40L44,-39.49902977515522L40,-38.571627158276804L36,-37.420527437049735L32,-36.21254654225579L31.316693608327796,-36L28,-35.01185204469602L24,-33.59081547593829L20.31835687594645,-32L20,-31.864491862383332L16,-29.890885323182204L12.928577752441868,-28L12,-27.416608603634387L8,-24.353075201851226L7.629111155896055,-24L4,-20.26359711109515L3.7588024948875045,-20L0.3752306049457559,-16L0,-15.513879054254403L-2.634823895604896,-12L-4,-9.581041694462613L-4.902579466007211,-8L-6.620492951516383,-4L-7.845908858963753,0L-8,0.6855953483034369L-8.811389334646762,4L-9.477507296405733,8L-9.876717491404065,12L-10.038806958373428,16L-9.975012061641692,20L-9.680108556765163,24L-9.131395952066299,28L-8.284209763362767,32L-8,32.97252216773212L-7.176723448778759,36L-5.662365179925658,40L-4,43.16383369175958L-3.567170708538953,44L-0.77611992485798,48L0,48.97543346150309L2.5037065937479923,52L4,53.64216096185061L6.190758390646067,56L8,57.81059810708993L10.349276013792249,60L12,61.50675844116299L14.686663729823678,64L16,65.22672762560771L18.808463264903978,68L20,69.2159009352871L22.512405892815835,72L24,73.73457595247461L25.615967373051305,76L28,79.57014052174489L28.245865630953205,80L30.342821770677574,84L32,87.38707587607277L32.24535530955258,88L33.69854033013955,92L35.050597156768774,96L36,99.01453649600927L36.25458041150992,100L37.205849395560904,104L38.12487076865807,108L39.378494381548194,112L40,113.67580140948868L40.78107980696876,116L42.48664811208795,120L44,122.81693340469019L44.61282104582199,124L46.81397881792307,128L48,129.88849884415777L49.32504907113295,132L52,135.66008624825955L52.25008228439566,136L55.563039682013624,140L56,140.46663633173344L59.56654106311785,144L60,144.3954890589223L64,147.72437030931397L64.37838239490367,148L68,150.55016647539324L70.39479898615315,152L72,152.97284207058374L76,155.18503819120224L77.56847803861115,156L80,157.31340381898804L84,159.28984817287855L85.56716901192883,160L88,161.192216158215L92,162.96945906252247L94.9442746464128,164L96,164.4223676360836L100,165.82248274264117L104,167.0579699650874L107.29364452525758,168L108,168.24652720556998L112,169.60641588140328L116,170.8514069981773L119.99169654742369,172L120,172.002920426527L124,173.90005654551732L128,175.88785947337857L128.21266176284306,176L132,178.3439758884017L134.72386383704549,180L136,180.86478239673914L140,183.6011048712694L140.5672007366805,184L144,186.85333243956262L145.33863371837953,188L148,190.89593900137896L148.97052863157464,192L151.7019943316788,196L152,196.56606094101852L153.74378949930252,200L154.98993080002165,204L155.3686693149221,208L155.0028460408944,212L154.17436641230108,216L152.84976798014327,220L152,221.92284040320504L151.09181106455594,224L149.22478580718493,228L148,230.49300895154585L147.21221471336074,232L145.05469614198947,236L144,237.94640035819674L142.82406276905436,240L140.6311299326893,244L140,245.56212431924348L138.93493813507055,248L137.58961626528662,252L136.5884030832928,256L136,259.25097066952003L135.84797582834656,260L135.3163165028145,264L135.05641799280215,268L135.05708684686527,272L135.3074637631985,276L135.83717203620287,280L136,280.78955404804236L136.61916678090554,284L137.7465354414231,288L139.34766262568303,292L140,293.23396115163524L141.46425720062436,296L144,299.4896926479888L144.384627995778,300L148,303.628768125686L148.39977067428205,304L152,307.27355767364884L153.11853506722784,308L156,309.824489742941L160,311.671823463551L160.9475738128522,312L164,313.08407107836223L168,314.09937323422156L172,314.77897539688684L176,315.18162911219156L180,315.34336993939036L184,315.28406008345655L188,315.010833131602L192,314.53004319782127L196,313.79473461155817L200,312.7477192138617ZM297.1915920531772,440L300,439.55485065273865L304,438.6642728165376L308,437.42648371549876L312,436.03387769841095L312.08589913920474,436L316,434.54706906849333L320,432.68282441188444L321.22409125039223,432L324,430.4754365737314L327.5180222882054,428L328,427.65419635881085L332,424.5528221331899L332.637676451087,424L336,420.9112778405789L336.90723244850346,420L340,416.6267276343836L340.54216105006645,416L343.7545652468203,412L344,411.62790317201166L346.36977254316366,408L348,404.8464316920626L348.4484467196104,404L350.37498680107973,400L352,396.15189343709625L352.0696246079557,396L353.86450970758506,392L355.56657690974953,388L356,386.84771983624654L357.2733649940266,384L358.9549379088945,380L360,377.48629991189426L360.83881244722915,376L363.3048582685516,372L364,371.00789719493656L368,368.0098216372268L368.02629226592893,368L372,366.8153055214604L376,366.5570733520194L380,366.90635831982456L384,367.68986920541306L385.0426677116411,368L388,368.89552587216497L392,370.11710603107747L396,371.3878916939971L398.08116824040985,372L400,372.593582375432L404,373.39736821195L408,373.92269783324275L412,374.21089182753946L416,374.2821405673561L420,374.1394744444276L424,373.783947575339L428,373.1920529746473L432,372.314935893174L433.2412361055366,372L436,371.337918069175L440,370.20015734574497L444,368.8217795536098L446.0260167654684,368L448,367.2211845041127L452,365.34549060832336L454.38446932316947,364L456,363.09194919006177L460,360.38686970798483L460.64385835489395,360L464,357.997667312961L467.49999835238293,356L468,355.7191495681164L472,353.7970431609157L476,352.22260897595316L476.82580724570425,352L480,351.190789747176L484,350.4376238137928L488,349.87967332260536L492,349.5196318019144L496,349.1544847306821L500,348.77822008098553L504,348.38432449601953L507.675462327691,348L508,347.96860945937465L512,347.5611683664025L516,347.119156106672L520,346.63030275009805L524,345.6382232052853L528,344.16194110332094L528.3277808133063,344L532,342.27038848086556L535.4182538736494,340L536,339.6187612125952L540,336.11256066768567L540.124396602192,336L544,332.18221467449155L544.180857607812,332L547.1661864932405,328L548,326.4186738286524L549.3047936515225,324L550.8022903852498,320L551.7822345429416,316L552,314.5921273093982L552.4327900781726,312L552.7671932035196,308L552.8057757448719,304L552.5674018239765,300L552.0452142018179,296L552,295.77916576099614L551.3063525377192,292L550.2525098891708,288L548.7969259486412,284L548,282.3347417530519L546.9616541785978,280L544.5936481176593,276L544,275.2173912822311L541.6549304360067,272L540,269.86722576026835L538.5530091800604,268L536,264.85562963700363L535.2417916360681,264L532,260.4107655888307L531.6066901864053,260L528,256.23560800514565L527.7671387067145,256L524,252.14966506996387L523.8523061119432,252L520,248.04347746110273L519.9578462262119,248L516.1253795828301,244L516,243.86885234629233L512.3149144073786,240L512,239.6752626870624L508.6259601322985,236L508,235.3398066651311L505.0038077197954,232L504,230.93521842988366L501.3725504403362,228L500,226.5726666579734L497.63084375966855,224L496,222.1104754097824L494.31945061298757,220L492,216.89506539093185L491.27671456473024,216L488.34138229875896,212L488,211.53428134998956L485.32116932778706,208L484,206.24271718572015L482.30769297820893,204L480,200.87499926909777L479.3663797246479,200L476.56106717255875,196L476,195.17876257931118L473.908469802916,192L472,189.07025490917658L471.3305966317605,188L468.8361835439954,184L468,182.68030356851125L466.35035407541363,180L464,176.40279605456038L463.7408007378714,176L460.9806814405515,172L460,170.72727236255588L457.8409098362698,168L456,165.99999944819132L454.13364123501685,164L452,161.87549665203517L449.5046812310127,160L448,158.9083116219588L444,156.7252738118411L442.19635925559066,156L440,155.1033044901347L436,153.91732199734793L432,153.116437060046L428,152.6341271269481L424,152.43352831243178L420,152.50000024097963L416,152.83834528965568L412,153.47372379844012L408,154.45652145175762L404,155.87308411191026L403.72710751238816,156L400,157.7233589668053L396.4549446768825,160L396,160.29870087461416L392,163.99506105165938L391.994985955686,164L388.18859771191677,168L388,168.26177118009213L385.3913901175,172L384,174.73552002575298L383.3587444082662,176L381.831544519813,180L380.7629250733588,184L380.05474421428863,188L380,188.526312195243L379.61252377396823,192L379.45642400527885,196L379.57751824285293,200L379.9803907669971,204L380,204.1132155153951L380.6178755170931,208L381.5609941428574,212L382.8731622852658,216L384,218.58486183514572L384.58138968952994,220L386.6990293655589,224L388,225.91428518372396L389.3644862060088,228L391.67429302053887,232L392,232.72001429717955L393.40934200114543,236L394.54869421947984,240L394.9895814314327,244L394.6201813373764,248L393.37465850155456,252L392,254.59369417756142L391.1724709833361,256L388,259.9750092953393L387.978495701549,260L384,263.8312805845168L383.8187766349609,264L380,267.17171277803925L379.01892050831754,268L376,270.40611856085565L374.0828753145249,272L372,273.70643790851625L369.7056296211587,276L368,277.74824770674184L365.9247908112329,280L364,282.17002994408074L362.4160544961794,284L360,286.93722763965803L359.13166802262236,288L356.53215739113745,292L356,292.9970258443363L354.2748749106778,296L352.25115493498794,300L352,300.52874979577007L350.01983376226246,304L348,307.38912578658704L347.50486817656724,308L344,311.72321413710176L343.5337001611262,312L340,313.68361785191604L336,313.9317795896758L332,313.69273596854475L328,313.3751153996759L324,312.98320452915954L320,312.59923762014427L316,312.2104560125568L313.96620050934393,312L312,311.77765419262136L308,311.2847473625231L304,310.9740440458329L300,310.86289328410356L296,310.9368019202423L292,311.1977186085141L288,311.66413173849037L286.06737472502505,312L284,312.3169622556155L280,313.1743174458029L276,314.37459301058374L272,315.9903107344812L271.97828509079426,316L268,317.66195911065086L264,319.6594884547189L263.3526298866626,320L260,321.70950439834314L256.1814980506055,324L256,324.1073650234968L252,326.6779310782484L250.24694362963015,328L248,329.7071997528202L245.4933027465625,332L244,333.61009603809833L241.92703412750348,336L240,338.5778483673475L238.97828606692985,340L236.45222220845005,344L236,344.7856075891403L234.15246684901877,348L232.1581873264218,352L232,352.3302780952306L230.18840640054214,356L228.6944916236593,360L228,362.38301437223674L227.48288787488065,364L226.53639282156183,368L225.86795991508467,372L225.42551881717827,376L225.17904046640143,380L225.1146031058422,384L225.2319830968351,388L225.5449060286847,392L226.0671176733798,396L226.8430518135902,400L227.94423587533868,404L228,404.15692764816157L229.30208407618449,408L231.2164731082313,412L232,413.2373003087017L233.78918603356044,416L236,418.9172892303472L236.86073261278005,420L240,423.54257314300287L240.43503951665963,424L244,427.43948481516736L244.63800127499997,428L248,430.77052921636346L249.9969854580325,432L252,433.20674680967215L256,435.1597971296146L258.111399289487,436L260,436.77003683691464L264,438.1392023714045L268,439.24855983809607L272,439.99437211284703L272.0432662967546,440L276,440.56977752293415L280,440.90725810537344L284,441.03442507061845L288,440.96484855961523L292,440.6968053311085L296,440.2131685617011ZM692.5942091255403,508L696,507.4646413082444L700,506.4957964160153L704,505.09890214416987L706.3076942465473,504L708,503.19733184609765L712,500.6282669784739L712.7487679546944,500L716,497.12522654846816L717.1252265484682,496L720,492.74876795469436L720.6282669784739,492L723.1973324378471,488L724,486.30769424654727L725.0989021441699,484L726.4957964160153,480L727.4646409488537,476L728,472.59420912554026L728.0989455175261,472L728.4620114640882,468L728.533333355685,464L728.3180860162538,460L728,457.521734943993L727.8167951536434,456L727.0273727487577,452L725.8580567932617,448L724.1986634147426,444L724,443.632107403276L722.025957694681,440L720,437.2698395735043L719.019223016916,436L716,432.89428558050463L715.0370501797772,432L712,429.3214049679981L710.0671542458063,428L708,426.6035500399489L704,424.4599281304912L702.9490194261676,424L700,422.64396990271985L696,421.1030515344663L692.676000022665,420L692,419.7488674003284L688,418.4051987438383L684,417.11627825854947L680.5714299441798,416L680,415.76133872043454L676,413.97277586030066L672.5897787399224,412L672,411.4234076202661L669.4253871909151,408L668.5439130870899,404L668.9010161291893,400L669.1724841871143,396L669.4065480012215,392L669.6267599870281,388L669.8473530537092,384L670.0789244198727,380L670.3311044708643,376L670.5359700769912,372L670.4680862831881,368L670.1225412993939,364L669.4736445881883,360L668.4699363884442,356L668,354.6507935243796L667.0998443897005,352L665.2232428919888,348L664,346.0571412249302L662.677686333447,344L660,341.04917960208275L659.0367188978172,340L656,336.9303113702057L654.7835759079338,336L652,333.9477772482079L648.391304102479,332L648,331.79008762435683L644,330.14201360530586L640,328.9802339175225L636,328.19569363551943L634.3636463592728,328L632,327.69862417754143L628,327.4846530658863L624,327.5555541051761L620,327.91645650366746L619.4949417205656,328L616,328.545688779908L612,329.5084289914733L608,330.89608178933344L605.666665421438,332L604,332.7851820005105L600,335.3344763480605L599.2266459621376,336L596,338.9514628862514L594.8707569781899,340L592,342.69495647941903L590.633730588329,344L588,347.1074670856188L587.2328094765957,348L584.1935612941725,352L584,352.2748179005588L581.2513964414073,356L580,357.789348801853L578.3644876598938,360L576,363.2253667475839L575.3964543430899,364L572.1827635558277,368L572,368.21513705103865L568.58548070731,372L568,372.6066837542499L564.5705489882899,376L564,376.5228738929169L560.118558903014,380L560,380.09827786460886L556,383.41566335594314L555.3187013006366,384L552,386.6714882449966L550.4687327255398,388L548,390.03636303012894L545.8728319375863,392L544,393.67137984981304L541.7400337924973,396L540,397.893463037738L537.9953919410756,400L536,402.64346786408186L535.0120056320002,404L532.8127975874494,408L532,410.01416837880083L531.1865662578094,412L529.9928910197436,416L529.1870225734343,420L528.7017937384583,424L528.5000002409796,428L528.5668649281645,432L528.9072402461013,436L529.546511457763,440L530.5355411932178,444L531.9615397276586,448L532,448.0824149093344L533.8181051780513,452L536,455.3850534579134L536.4053905259599,456L539.9261094071169,460L540,460.07518690413895L544,463.8815569756033L544.1648355027465,464L548,466.6735715698211L550.6153821940125,468L552,468.7015321525987L556,470.2208888627898L560,471.2844397497702L564,471.9888691918957L564.1086870079371,472L568,472.4261901553541L572,472.5688371566847L576,472.4261901553541L579.8913129920629,472L580,471.9888691918957L584,471.2844397497702L588,470.2208888627898L592,468.7015321525987L593.3846178059875,468L596,466.6735715698211L600,464.19099323210537L600.2706775718079,464L604,461.1304916499332L605.547851013809,460L608,458.1490783835326L611.0822583923958,456L612,455.24573105589445L616,452.4213353986171L616.7589177949565,452L620,449.9089699376783L623.9219579590998,448L624,447.95593856765197L628,447.0035435507382L632,447.8931586666398L632.1149122278296,448L635.0573905219718,452L636,454.11055472236467L636.4847421578779,456L637.2811582839792,460L637.7537196649649,464L638.5772248768867,468L639.6254950855526,472L640,473.12986565389633L640.8102725042927,476L642.2524801199872,480L644,483.78424666581896L644.0920143784125,484L646.2581766699512,488L648,490.4603761144116L649.079505637838,492L652,495.1868508020983L652.7714517555872,496L656,499.05224070966506L657.2455495690491,500L660,502.0259584760114L663.6321071422236,504L664,504.19866341474255L668,505.85805679326165L672,507.02737274875767L676,507.8167951536434L677.5217265883671,508L680,508.3180886111053L684,508.53333335568504L688,508.46201146408816L692,508.0989455175261Z"/></g><g><path fill="rgb(222, 195, 208)" stroke="rgb(172, 147, 159)" stroke-opacity="0.3" d="M201.42928661082766,296L204,294.8813469497095L208,292.5829940803701L208.80126122776994,292L212,289.5475727316414L214.10677677806046,288L216,286.5753089670371L219.43108247343548,284L220,283.5723171640753L224,280.59768808691734L224.8055148466729,280L228,277.68752602429527L230.3289995137124,276L232,274.8363611299379L236,272.038031893783L236.05386196767802,272L240,269.53728802199765L242.38493630146064,268L244,266.8677053623501L247.98120315302322,264L248,263.98566043354305L252,260.93331537366896L253.32675927535263,260L256,258.0861128380136L259.1981395710879,256L260,255.48543309797884L264,253.14844761109384L266.13973607507904,252L268,251.02533522189134L272,249.07732333780365L274.044909533672,248L276,247.0390325717753L280,244.94039770355516L281.6575966072621,244L284,242.40359012010612L287.1924134728221,240L288,239.2452086768693L291.141547182332,236L292,234.85333636087603L293.94004758815066,232L295.9283247963066,228L296,227.79306873273788L297.2170995391578,224L297.9863272361763,220L298.28116906770515,216L298.1056832086078,212L297.41817302321084,208L296.16306412422233,204L296,203.6469612761752L294.14040458422323,200L292,197.00607322940425L291.21329926285125,196L288,192.80806135842107L287.1287891723776,192L284,189.61648449576433L281.80306793923825,188L280,186.91905595513884L276,184.4815151636207L275.257483125127,184L272,181.67433018213967L269.908861884122,180L268,178.22285984182065L265.955090930692,176L264,173.55524272365062L262.9439734622776,172L260.60010899292695,168L260,166.8326686088019L258.7552098542094,164L257.2352600894681,160L256,156.45752847363644L255.86104006839525,156L254.6755986779856,152L253.5538158185587,148L252.3178813639521,144L252,143.08477636906636L251.03829423637058,140L249.63032673782902,136L248.14081876014103,132L248,131.63669943449406L246.72641153815084,128L245.2120793622459,124L244,121.3119889823844L243.4739684699831,120L241.47454945396458,116L240,113.2709465423141L239.39949060416296,112L237.39877743604865,108L236,105.4353022010844L235.23219848997212,104L232.91194756427342,100L232,98.4271912074432L230.6182339757633,96L228.3462813611074,92L228,91.36384853304938L226.31285070398712,88L224.3511151159301,84L224,83.21483732769391L222.67492175371984,80L221.13127248770672,76L220,73.31676398810606L219.4761054792399,72L217.84117535535012,68L216.1672235965242,64L216,63.57962959205787L214.6150600387997,60L213.15498998670898,56L212,53.09779204289737L211.58089420226912,52L209.98992443481956,48L208.23181448153503,44L208,43.47322687686625L206.5291615805284,40L204.50014999114126,36L204,35.12604848977381L201.96549094870198,32L200,29.39367366076914L198.81060425932168,28L196,25.08817918289671L194.80227678624806,24L192,21.726838181103417L189.56470098033031,20L188,18.97971661258515L184,16.628419278107486L182.85456964276915,16L180,14.229556522500303L176.19421224585955,12L176,11.873361134237285L172,9.30495579904543L169.93905133733483,8L168,6.664917605775187L164.11078443181475,4L164,3.91436313693292L160,0.7247178634242886L159.13066896154345,0L156,-3.1251830088285146L155.24066546517102,-4L152.16591119347675,-8L152,-8.21416638281191L149.21624714766887,-12L148,-13.53274365834865L145.7566307473979,-16L144,-17.74370844773003L141.39666480330888,-20L140,-21.067729351308955L136,-23.642952963947366L135.3352335087742,-24L132,-25.5679087297446L128,-27.06356528726984L124.71268884081579,-28L124,-28.180249453846983L120,-29.028445729811445L116,-29.706361875785824L112,-30.230131750053495L108,-30.612959399040875L104,-30.865647999509456L100,-30.99700412867626L96,-31.014157758803734L92,-30.72137164863397L88,-30.2080228001173L84,-29.74740967758099L80,-29.336386456301028L76,-28.975943221275415L72,-28.66678221096334L68,-28.409330763738623L64,-28.255194975416927L60.69676225897646,-28L60,-27.94946009236469L56,-27.50961041290921L52,-26.90768983182231L48,-26.12048547119636L44,-25.11235650490434L40.51026971085696,-24L40,-23.842931026765072L36,-22.332789213444272L32,-20.718805252173524L30.329495290180333,-20L28,-19.009474023900836L24,-17.007879949884142L22.278968856121097,-16L20,-14.650074113255144L16.274641226504357,-12L16,-11.759693830589626L12.305664616610883,-8L12,-7.593422310165181L9.622051552406859,-4L8,-0.6255208621000179L7.738826385130025,0L6.498193476675425,4L5.663679101521339,8L5.168331695726877,12L4.975207587147452,16L5.070534046628268,20L5.461159049548016,24L6.175814352322163,28L7.270622019271741,32L8,33.91440849638839L8.882090184832464,36L11.1626526779323,40L12,41.13217422931103L14.284614702974281,44L16,45.70034057166572L18.47391839371926,48L20,49.396876115923675L22.912676632765326,52L24,53.00465257840901L27.03385255997175,56L28,57.02285728019976L30.554414674251262,60L32,61.86936005602561L33.418336564741736,64L35.89069524878403,68L36,68.191991411684L37.78602243617084,72L39.48779930226257,76L40,77.3053636624135L40.90452685799016,80L42.138534731465654,84L43.30388595659963,88L44,90.47429500112597L44.3740372022431,92L45.34469169051343,96L46.343343885942716,100L47.40969533932105,104L48,106.04989251015422L48.518684768829274,108L49.951294577254714,112L51.755697137004375,116L52,116.45066085506494L53.84869096043346,120L56,123.30739546027127L56.45140503557701,124L59.20527984680231,128L60,129.0375076627523L62.34383809185485,132L64,133.8642344297758L66.08062169333607,136L68,137.78866126441898L70.6410743741699,140L72,141.05275062017475L76,143.85939383909746L76.20707259662706,144L80,146.53553236325536L82.41016792587894,148L84,148.96883507743684L88,151.18666239093244L89.59812876120606,152L92,153.26415413706104L96,154.97565991448076L98.88135971568582,156L100,156.42951069855195L104,157.85020881299354L108,159.13151155317095L110.91313862900682,160L112,160.36191123891405L116,161.63369910886246L120,162.81234509790107L123.40561831806417,164L124,164.23846428320655L128,166.01598959332455L132,167.77577730963753L132.4952219422481,168L136,169.84112616076715L140,171.87996355711925L140.2300747659688,172L144,174.2877198170192L146.82944986169878,176L148,176.79928108504737L152,179.55026122535622L152.6286165375903,180L156,182.70781138239488L157.58010612996455,184L160,186.3280089802039L161.74377190014005,188L164,190.63175208184987L165.17823191434258,192L168,195.90547371477192L168.06848170134828,196L170.53396514543556,200L172,203.22645664609462L172.3516821452369,204L173.2820692643039,208L173.40384087429698,212L173.11212017713058,216L172.21757022132397,220L172,220.57831963147265L170.63712897254436,224L168.69204311446572,228L168,229.1842218345637L166.3220129902332,232L164,235.41880411600283L163.60913649130424,236L160.66416711360733,240L160,240.87914029103285L157.7625416832567,244L156,247.27552233121497L155.63366711857512,248L154.04644951883557,252L152.87233774565226,256L152.05997945986385,260L152,260.55051885924564L151.65923987333684,264L151.60966436702992,268L151.91763902719038,272L152,272.57644505890556L152.5768861092444,276L153.6737636858432,280L155.2911312470725,284L156,285.30539795498095L157.7731686661829,288L160,290.5570370979014L161.59353686058026,292L164,293.7413618214032L168,295.89669995457916L168.25763538750977,296L172,297.272920856881L176,298.1980203643018L180,298.75594692403524L184,298.99475400743773L188,298.9446477810648L192,298.5485536603738L196,297.774335201743L200,296.5861398256275ZM418.34919431445826,360L420,359.8978631637973L424,359.36742752797625L428,358.5217652911177L432,357.29414749628177L435.6074079599573,356L436,355.8622960869024L440,354.2842536703686L444,352.40971004440974L444.7728970223952,352L448,350.2340489119769L451.4613661084784,348L452,347.6048918404021L456,344.2632812062768L456.2794731470033,344L460,340.12672281834284L460.1496855624699,340L464,336.63041879374134L464.8832452477641,336L468,333.83113439100464L471.71587854976167,332L472,331.85392826271L476,330.6331429608002L480,330.24043320004756L484,330.11881042602243L488,330.0857947429486L492,330.13390693617634L496,330.0149029459907L500,329.7761201646247L504,329.402509523295L508,328.8825686603907L512,328.19781162977176L512.9242118457386,328L516,327.2246257906071L520,325.9459461077149L523.5923048066478,324L524,323.72300416114416L527.9979214184183,320L528,319.997412315201L530.5154823375525,316L532,312.52622211435227L532.185361738609,312L533.0930314840276,308L533.5216428052303,304L533.5177134066306,300L533.1023446718223,296L532.2750533546758,292L532,291.1211838432542L530.9250092476491,288L529.0694837129196,284L528,282.26646838923665L526.4819435664454,280L524,277.08300477321836L523.0142432561347,276L520,273.29787152125556L518.4621845644115,272L516,269.822234854269L513.9641552397983,268L512,266.1590349797679L509.78080134315803,264L508,262.18987396500836L505.9571422869344,260L504,257.8212502443056L502.4650067444235,256L500,252.99385117148472L499.2398355158441,252L496.2171054128735,248L496,247.71383113111796L493.4907493662756,244L492,241.84636851962847L490.553334711507,240L488,236.84555308515354L487.2333330688856,236L484,232.5564687562075L483.4254615347952,232L480,228.79490254235571L479.09839906439345,228L476,225.38264088362735L474.34022339229193,224L472,221.77641468064962L470.16191486741104,220L468,217.599101860235L466.6185747667696,216L464,212.51242300602956L463.6370754546334,212L460.993791330681,208L460,206.39999653743945L458.6086969107897,204L456.38513736729124,200L456,199.30416675497963L454.3717673926627,196L452.36580917963863,192L452,191.30494136687793L449.9507068580069,188L448,185.08931506197797L447.11396060404115,184L444,180.5394935261657L443.3872746193048,180L440,177.33898068172113L437.72662446735706,176L436,175.09717554508245L432,173.63557532809534L428,172.740013181213L424,172.37553958109186L420,172.53918156447617L416,173.26044938181656L412,174.60707167328246L409.29183106994356,176L408,176.82382157642127L404.4444464770526,180L404,180.52344910656234L401.72610527845035,184L400,187.81101585402934L399.93043187692604,188L398.95798189271846,192L398.4699440459393,196L398.41935415459443,200L398.7839997465312,204L399.5626651639597,208L400,209.45133170108898L400.8633091800405,212L402.70758142070224,216L404,218.18737159684815L405.18272491178504,220L408,223.56602546363627L408.36830484198026,224L412,227.70305562041L412.29956066223434,228L415.5776604940035,232L416,232.70159563927893L417.9605347046297,236L419.4208645297296,240L420,243.51551241075657L420.0771848873003,244L420,247.62837414608515L419.99192653784627,248L419.1555264998951,252L417.50154207834936,256L416,258.33700739120565L414.8855377778537,260L412,263.1028556916627L411.1413059521346,264L408,266.56403046385174L406.2412620859611,268L404,269.5155536988212L400.4816838214483,272L400,272.2950920227229L396,275.09345923425286L394.7316633639941,276L392,277.7895207651999L388.7861120249717,280L388,280.5101619732493L384,283.2798876022779L383.0414197687975,284L380,286.2443677291349L377.8853210681504,288L376,289.9368062752267L374.19351833145345,292L372,295.2306445906342L371.5395323921529,296L369.65112335688895,300L368.2297161691953,304L368,304.846127809578L367.0594972107941,308L366.16403509994274,312L365.5258214014197,316L365.12756149420767,320L364.97784702182247,324L365.11929905455366,328L365.6523094631669,332L366.95346282210033,336L368,337.7966178818151L369.2173471088408,340L372,343.10012596704615L372.92456373792595,344L376,346.1303141040647L379.0764169930293,348L380,348.51409090411073L384,350.68621148557196L386.522499548685,352L388,352.74400665872747L392,354.6350265138413L395.0705290042425,356L396,356.41729441409274L400,358.06822928691605L404,359.0970276120772L408,359.75571784510873L410.858206610458,360L412,360.10481216884114L416,360.1558562957146ZM295.74479886917726,428L296,427.96859112174957L300,427.20047426129054L304,426.0883083851037L308,424.53124897602186L309.2641820788786,424L312,422.88657869191695L316,420.9204467897521L317.5712078152049,420L320,418.57734576273964L323.55635608771604,416L324,415.6751121982387L328,412.0930687050766L328.09757499541206,412L331.6371462078483,408L332,407.5098559470727L334.44337745846724,404L336,401.30958184518425L336.7521729806362,400L338.76443605386197,396L340,393.1606641544306L340.52808253578314,392L342.1935704353248,388L343.46281675706445,384L344,381.80211007084233L344.491545124656,380L345.3273123016,376L345.9394721880606,372L346.34637178618345,368L346.54582183186375,364L346.51016657667964,360L346.1710423463242,356L345.3329309943424,352L344.0509877789812,348L344,347.8748960482202L342.5068165883994,344L340,340.24312477226664L339.85058397700436,340L336.45289739422566,336L336,335.60734672447245L332,332.3626438231098L331.4501448191949,332L328,330.13374322844004L324,328.38560091661725L322.90223761020707,328L320,326.9882254784203L316,325.8606796706141L312,324.9416806581765L308,324.1703876241137L306.80269975002,324L304,323.5751524950429L300,323.26950132329296L296,323.23849077105416L292,323.47263719815265L288,323.9835548654864L287.9176387205026,324L284,324.72071379385176L280,325.7868690112255L276,327.2752857070963L274.4640377837638,328L272,329.1223865138567L268,331.2408738768603L266.7509670341803,332L264,333.79668843498564L260.95750178162376,336L260,336.7421597008826L256.1764097517496,340L256,340.16152459689425L252.16579859740108,344L252,344.17955074982393L248.76370516814927,348L248,348.98507476814626L245.93568266691454,352L244,355.16353766015226L243.4894511567491,356L241.55375868132455,360L240.13822928033323,364L240,364.5269782154049L239.03029063328546,368L238.25578986794267,372L237.77193180557828,376L237.54704166968958,380L237.56993774402986,384L237.84813971733058,388L238.40972193472163,392L239.25420293700773,396L240,398.55108047537277L240.4073685580437,400L241.90686184507302,404L243.9765130466729,408L244,408.0361889155015L246.6385258686616,412L248,413.5446485304246L250.7107034342751,416L252,417.0861208068039L256,419.895201025477L256.17325432027855,420L260,422.2730613937389L263.580978554132,424L264,424.20226760904575L268,425.90573397633307L272,427.0859282813308L276,427.9139656363385L276.6449978031887,428L280,428.47905083731666L284,428.75552578061115L288,428.7616850927917L292,428.50312698870766ZM577.364565117146,452L580,451.46446344836875L584,450.05985883261064L588,448.000002366109L588.0000034625642,448L592,444.83030448006105L592.8302381772531,444L596,440.3761187243837L596.2894471586443,440L599.0487610863693,436L600,434.4990001014364L601.3900673308069,432L603.4995716817567,428L604,427.02400186183297L605.7954434579165,424L608,420.45592175700904L608.3309314798172,420L611.4429679617423,416L612,415.3590647567849L615.4531557609754,412L616,411.534220250244L620,408.5534277781341L620.8187700199268,408L624,406.0820653745418L627.644573800422,404L628,403.8297851253915L632,401.8456897386748L635.4572599493348,400L636,399.65110118817574L640,396.73964463613106L640.8712536378619,396L644,392.67737111248795L644.5330492241652,392L646.9679254720727,388L648,385.70601934399843L648.6470252162266,384L649.7327577314921,380L650.4376948591472,376L650.7610924293369,372L650.5682468516434,368L649.8304921468788,364L648.4824166637027,360L648,359.0343416810573L646.0923316210061,356L644,353.61076764635726L642.1087115163297,352L640,350.60885351169946L636,348.784766902011L633.1706755646156,348L632,347.73029495740474L628,347.3223928991187L624,347.4087381294781L620,347.9856250604514L619.9466271528007,348L616,349.22946771083014L612,351.1083534216344L610.6051069560934,352L608,353.9335876997045L605.8174999457814,356L604,357.97471882941295L602.4557660772244,360L600,363.57593522053645L599.767560717929,364L597.751956064869,368L596,371.6008247971773L595.7857885609242,372L593.6770298005328,376L592,378.99520139838955L591.3650578769659,380L588.6127922936149,384L588,384.7913769266991L585.1349032880695,388L584,389.0894110067692L580.5255503326756,392L580,392.37791810627147L576,395.03757302372225L574.4589610460162,396L572,397.3703757504312L568,399.5722104553266L567.2568100040053,400L564,402.0718563589023L561.1733723376957,404L560,404.9302140091609L556.5731565088557,408L556,408.6320212126169L553.358514219554,412L552,414.2731878283846L551.1117971462962,416L549.6633148231494,420L548.7851837914667,424L548.4463506560958,428L548.646946067542,432L549.4192806843232,436L550.8339183592773,440L552,442.1894247477528L553.2257511346038,444L556,446.95658752814165L557.3333325789627,448L560,449.62348410728055L564,451.2601865708923L567.1341203932127,452L568,452.17042065756743L572,452.45158438324404L576,452.24018463026437ZM688.691727740181,488L692,487.35488012873554L696,485.8936887652487L699.3727824485833,484L700,483.546708077189L703.546708077189,480L704,479.3727824485833L705.8936887652487,476L707.3548801287355,472L708,468.691727740181L708.1116226217138,468L708.2400027056777,464L708,461.52065627597676L707.8231201449141,460L706.7190199444075,456L704.89713275372,452L704,450.618581254614L701.8184814846169,448L700,446.3550870283631L696.472815240085,444L696,443.7465410949062L692,442.2379886371691L688,441.32454616438224L684,440.96682099906593L680,441.1776062805802L676,442.02897514891185L672,443.67693846289353L671.4864364774609,444L668,446.8954335396404L667.0702452954339,448L664.6280939199494,452L664,453.4849585360047L663.1638883587469,456L662.2957594420033,460L661.8260865681657,464L661.9656294322523,468L662.6759780918054,472L664,475.9704995702424L664.0122406875204,476L666.5108412770429,480L668,481.7085163456185L670.6769241154866,484L672,484.8733910614659L676,486.71537633539515L680,487.82447574705475L681.5137780903633,488L684,488.24000270567774L688,488.11162262171376Z"/></g><g><path fill="rgb(209, 184, 199)" stroke="rgb(160, 136, 150)" stroke-opacity="0.3" d="M200.106042500419,280L204,278.03986085562735L207.09121488062897,276L208,275.4018178440812L212,272.1256864042862L212.16923341734258,272L216,269.48113560404454L218.35103502303087,268L220,266.8096182030953L224,264.03231917751646L224.04717971651587,264L228,260.94493486834443L229.25944451428995,260L232,257.75038198721256L234.20896179696672,256L236,254.54878770524886L239.2698108718801,252L240,251.43231399491413L244,248.45414141262842L244.63079128870191,248L248,245.77867792850475L250.66112867245653,244L252,242.99045874833627L256,240.29677968862956L256.47721275984287,240L260,237.42457282846578L262.0667704488169,236L264,234.40365354351036L266.9413775805152,232L268,230.88847059994197L270.6730034071027,228L272,225.94079570366222L273.1287761148548,224L274.45447934204026,220L274.79651861923134,216L274.15690375171124,212L272.37339916665644,208L272,207.40597599038273L269.7133802713274,204L268,201.9216618901259L266.4098770894992,200L264,197.4250432325038L262.73643670685,196L260,193.21244084357744L258.92867278992986,192L256,188.81153633247044L255.359242932251,188L252.06448780697832,184L252,183.89556676060158L250.00891377705977,180L248.83092350706193,176L248,172.5311408199126L247.8905252395095,172L247.13640491744252,168L246.4825946309955,164L245.91253894476972,160L245.2880162620794,156L244.5925921196922,152L244,148.7971140051793L243.8735114296369,148L243.04506185779496,144L242.0067473010247,140L240.76073643713988,136L240,133.70211504761693L239.5225447307891,132L238.30261454761404,128L236.93363781476654,124L236,121.68743836999693L235.31567212871892,120L233.29876031267685,116L232,113.56153641362272L231.17048491922486,112L228.95384995021698,108L228,106.36555234788673L226.68767810404188,104L224.2757303456304,100L224,99.52852446665227L222.0570195008725,96L220,92.2409923448017L219.8747280697254,92L217.89587247954546,88L216,84.12024613953321L215.9426711397145,84L214.20032895337926,80L212.5241270928388,76L212,74.85479498230362L210.75814200270838,72L208.89827549857984,68L208,66.06854696688569L207.091098045107,64L205.32376276368905,60L204,56.968598360186775L203.55119363840936,56L201.54226324052604,52L200,49.198185083676236L199.2906418920702,48L196.7525935891572,44L196,42.86406964910165L193.8885490261734,40L192,37.73751666432963L190.32193603320138,36L188,33.78264665674082L185.8022356470713,32L184,30.589776278552662L180.24437986575032,28L180,27.836457855126923L176,25.348974837949967L173.60674034333937,24L172,23.110975794221005L168,20.99276015929712L165.93319161047964,20L164,19.062180543336964L160,17.231104427370497L157.1961574959091,16L156,15.369973972808324L152,13.069758915928915L150.18198799344995,12L148,10.448243840414563L144.0021553724836,8L144,7.998436938243316L140,5.178005038077359L138.26851114534153,4L136,2.084011832747734L133.40835087877355,0L132,-1.4074791096905415L129.19280520118858,-4L128,-5.098770682058429L124.29525959833907,-8L124,-8.198896353268921L120,-10.737215026302579L117.80129666690195,-12L116,-12.786066068570577L112,-14.30018956015715L108,-15.536211520650426L106.16599043775841,-16L104,-16.478248114392457L100,-17.188650015213128L96,-17.72366148164754L92,-17.74876003638144L88,-17.459629283365743L84,-17.255545459774737L80,-17.107099121558363L76,-17.0080251162547L72,-16.953282794395562L68,-16.938787691831948L64,-17.029657137506717L60,-16.883649051056338L56,-16.507883255699696L52.68592491660675,-16L52,-15.90065308500904L48,-15.080330183501886L44,-13.979583441973276L40,-12.535944000603834L38.81937031529657,-12L36,-10.464020550194945L32,-8.14309209170581L31.766776623047917,-8L28,-5.129152478158289L26.707902436009363,-4L24,-0.9309589963686022L23.26942201812348,0L20.9408689801501,4L20,6.338922330932505L19.387568844099604,8L18.476537820239557,12L18.091155694147133,16L18.196490758238397,20L18.786675338959824,24L19.883459515006493,28L20,28.287592809997562L21.573747060895585,32L23.89638289363303,36L24,36.139842538784166L26.898693778646333,40L28,41.19132943177152L30.58262813451205,44L32,45.30166975861661L34.777751153357954,48L36,49.31057650866879L38.19996076581481,52L40,54.520248375451274L40.96563057175655,56L43.0931815489522,60L44,62.09438830411432L44.713837258884865,64L46.09613544481206,68L47.31008927238432,72L48,74.48334274972643L48.365309351210044,76L49.271082927883356,80L50.1255784442568,84L50.98408908664058,88L51.87574729440411,92L52,92.52165317504142L52.72393053788821,96L53.6506781206034,100L54.71939533917009,104L55.99562790232258,108L56,108.0105635748761L57.57625076768949,112L59.5859199858412,116L60,116.67916370251538L62.02639107789469,120L64,122.6743176769871L65.04113404871293,124L68,127.53440920083747L68.42271281901083,128L72,131.63175410478925L72.38824908132037,132L76,135.1970861695827L76.95249949016511,136L80,138.4105937337791L82.14388782497642,140L84,141.2955767481333L88,143.8014327719158L88.33542113420202,144L92,146.1720546286825L95.89380983673712,148L96,148.05134730930328L100,149.75752029811815L104,151.2315212082902L106.27567270097526,152L108,152.6244387853881L112,153.98292086151216L116,155.20909801217107L118.75100996799046,156L120,156.39458626742962L124,157.85401065483228L128,159.39621345810477L129.54048027714302,160L132,161.06450964589115L136,162.78162176720957L138.92189163216764,164L140,164.51297118593158L144,166.41834362553112L147.295057613739,168L148,168.38875571635998L152,170.64691639939213L154.26007409783597,172L156,173.17760267644428L160,175.96024283413453L160.056900720663,176L164,178.95422854800046L165.42839384538428,180L168,182.11616776358937L170.30531856659496,184L172,185.6188677517265L174.48931602128857,188L176,189.71045104272207L178.0187928891869,192L180,194.57412073544452L181.3796034973489,196L184,199.06385336907982L184.91165985347976,200L187.7413810529602,204L188,204.65348234931247L189.41716474452585,208L189.8422011498335,212L189.93332062202347,216L189.389927955759,220L188.16998112816742,224L188,224.4338130966347L186.65416034351244,228L184.67794982327655,232L184,233.10304914909852L182.19453818002,236L180,238.8932455935299L179.16350830278674,240L176,243.8820210049244L175.90342302041182,244L173.4046085544622,248L172,250.83692622503446L171.43812250935702,252L170.06214387342334,256L169.2301909763604,260L169.10855370133936,264L169.85463381538437,268L171.70644787422992,272L172,272.48153686832023L174.7601063416124,276L176,277.1411085217234L180,279.7669089898595L180.53444043196544,280L184,281.22172463074753L188,281.9963188065059L192,282.03686131000325L196,281.3670468940877L200,280.05251568661424ZM424.78200988168044,348L428,347.03610769900484L432,345.30488308047677L434.6196322645727,344L436,343.18330404439126L440,340.54207129805L440.74480098112394,340L444,337.24256133433306L445.3597477782821,336L448,333.2631352388589L449.16643084617465,332L452,328.48894145724444L452.384965887726,328L455.1816472291298,324L456,322.6894590044755L457.6851178832136,320L459.99833410096494,316L460,315.99681991979935L463.14038122072577,312L464,310.85231606433166L467.19747286952463,308L468,307.25310042248645L472,305.14673375629343L476,304.45090528937135L480,304.93784911207405L484,305.4159978726471L488,305.52285031226916L492,305.227468313478L495.51826403929533,304L496,303.7629245945452L500,300.94845448977804L500.92261369173207,300L502.96169017377645,296L503.42559920789574,292L502.86793471084593,288L501.69901614976027,284L500,280.99751640733217L499.4768852147108,280L496.4539360857399,276L496,275.5313820357983L493.0927012978317,272L492,270.5264650372736L489.81589821445993,268L488,265.7197305991926L486.409188692753,264L484,261.2480398398122L482.6853804865632,260L480,257.3579211574369L478.3494812648471,256L476,254.02689244211928L473.35579504557484,252L472,250.9588210118066L468,248.27138565277437L467.49667787927297,248L464,246.08786260666267L460,244.30841886110733L458.9108675567562,244L456,243.08764333749093L452,242.4343943196746L449.1215037509902,244L448,244.77274603624767L446.1384843729745,248L444,251.9718842912668L443.99000037107794,252L442.32551616829426,256L440.3122063396869,260L440,260.5045037272517L438.1597581248533,264L436,267.0382723472948L435.41322331321066,268L432.0581689942479,272L432,272.05217256010434L428,274.6972502792023L425.5700134342318,276L424,276.65703166335436L420,278.1668525850541L416,279.564752881104L414.8786673445738,280L412,280.94914063406145L408,282.43769211126914L404.34435769801644,284L404,284.1316350554233L400,285.95072368553895L396.5228948170955,288L396,288.3491283761515L392,291.22517798242177L391.00940116651793,292L388,294.8810892368016L386.92816207279606,296L384,299.96878905169126L383.978639463894,300L381.89431476913927,304L380.44365155508785,308L380,309.9297399461724L379.53839697212635,312L379.114515812098,316L379.1534000619158,320L379.688263557481,324L380,325.1617705812106L380.80381454357587,328L382.6333153468292,332L384,334.03539442298427L385.39486921296526,336L388,338.70776148475284L389.34557853281285,340L392,341.99478567971096L394.86663311631673,344L396,344.645479861302L400,346.7218901825758L403.90854143912287,348L404,348.0290824758801L408,348.86577415810535L412,349.28463990062994L416,349.3147833154137L420,348.95491884959426L424,348.2186388338783ZM305.5146616807011,416L308,414.9323350514779L312,413.0275274072698L313.82075665985417,412L316,410.5936824834315L319.3554078794875,408L320,407.42490629471365L323.26982019764694,404L324,403.10963297339265L326.2085172813639,400L328,397.0384163061608L328.6216770620635,396L330.738499493114,392L332,389.2705237906079L332.57181451088314,388L333.9334819852932,384L334.8996344421751,380L335.5342697197725,376L335.87007946739726,372L335.91410349353475,368L335.6476804314771,364L335.0202945234458,360L333.93399676407705,356L332.16736995503095,352L332,351.6787036909673L329.82538355218,348L328,345.56168818811796L326.66983163027993,344L324,341.44492152280856L322.06565800534463,340L320,338.673855457428L316,336.6588181289298L314.3619122976669,336L312,335.1337430325058L308,333.9414753935222L304,333.0505241191708L300,332.5646003278443L296,332.429724414262L292,332.62335940062394L288,333.14892181163157L284,334.0356933712845L280,335.34394679396485L278.52150884191644,336L276,337.15639977987706L272,339.52392132896165L271.28306636262704,340L268,342.28029196638334L265.8870848027611,344L264,345.6230867909438L261.4295673016116,348L260,349.4003902704625L257.5288048758589,352L256,353.71114010708465L254.09598117596147,356L252,359.25435662918755L251.54658297452755,360L249.67142860006442,364L248.33154552056737,368L248,369.42887741888285L247.44260693323605,372L246.9184657552987,376L246.71158070017583,380L246.8124366027464,384L247.23487427276274,388L248,391.9053398219242L248.02050233222167,392L249.23118608689936,396L250.91660374876028,400L252,401.9536541956378L253.25252516640944,404L256,407.4289882476985L256.5165941652087,408L260,411.06024694576735L261.24158501775634,412L264,413.71073633355195L268,415.7916446966787L268.54103911781465,416L272,417.34140502183465L276,418.46471975203883L280,419.1900447589035L284,419.5686087584191L288,419.6372241191747L292,419.40700067129256L296,418.8659683063845L300,417.977089497489L304,416.6709484813898Z"/></g><g><path fill="rgb(195, 173, 189)" stroke="rgb(146, 126, 141)" stroke-opacity="0.3" d="M226.03520025145616,200L228,199.0266114774281L230.82751493164943,196L232,194.17417637356027L232.86122396145885,192L233.9955402157304,188L234.66417616565008,184L235.40918293301155,180L236,177.5436918998946L236.28838109156084,176L236.80528393646387,172L237.12422800676563,168L237.3021549478883,164L237.39881254344027,160L237.30687211738177,156L237.0496322063343,152L236.6770251048352,148L236.06019423032365,144L236,143.726105680702L235.16810864171447,140L234.04303810332698,136L232.83050388501852,132L232,129.52434376639678L231.48782595918317,128L229.98917945724872,124L228.2249154879504,120L228,119.58386039254086L226.11786027502063,116L224,112.12158249224387L223.93651237572612,112L221.80982751899717,108L220,104.7678919777074L219.58758670908122,104L217.29275174366592,100L216,97.7019461492863L215.053580959268,96L212.89914682232939,92L212,90.2848144122857L210.85607710822393,88L208.91454702551545,84L208,82.00187802029117L207.14891352785645,80L205.52615649754227,76L204,72.71779951342134L203.66406257031252,72L201.66475210658507,68L200,64.82986035164672L199.55814712838225,64L197.36862641731375,60L196,57.60098802065937L195.03551409112737,56L192.30381660429686,52L192,51.578219628932345L189.0775324787487,48L188,46.76563862346413L185.16141395466258,44L184,42.89445798612988L180.47268108881144,40L180,39.628529449070186L176,36.81626231780234L174.67757544817175,36L172,34.336053174281886L168,32.09131152169802L167.81154393680487,32L164,30.034254244568118L160,28.2719822631811L159.304400184587,28L156,26.621760405351267L152,24.959707584288864L149.49422765491633,24L148,23.37245990535608L144,22.06328325021181L140,20.719765335392168L137.77328951089547,20L136,19.360546161558545L132,17.964426565044093L128,16.604565043677212L126.07290883701194,16L124,15.22274332286429L120,13.673989877202985L116,12.070870462219645L115.82867177291976,12L112,10.138436467408965L108,8.130301752355464L107.75426158725827,8L104,5.753312433668057L101.13269094884055,4L100,3.2109822207303296L96,0.5023119805217391L94.76799454014358,0L92,-1.0595359102166242L88,-1.8373325582051336L84,-2.627339899724234L80,-3.350466492430371L76.15371942408649,-4L76,-4.021184700338196L72,-4.565125527588918L68,-5.083964328051351L64,-5.707476115644795L60,-5.838001527931226L56,-5.515453439055875L52,-4.74568742217734L49.58904277940064,-4L48,-3.404776431773115L44,-1.2743201814970462L42.2058490230574,0L40,2.0219113207916593L38.31419016446776,4L36,7.710495648990118L35.82558970237196,8L34.21447608400295,12L33.3848397610485,16L33.255317328095174,20L33.77121017755471,24L34.89746455597435,28L36,30.554716001765073L36.591875698368426,32L38.77284834348353,36L40,37.81823255362423L41.53572961827237,40L44,43.05401030214108L44.751650042896784,44L48,47.8031138798236L48.15482579026437,48L50.448243523515174,52L52,55.937461282369156L52.02025609824875,56L52.92948202078776,60L53.54940345555562,64L54.18228512891193,68L54.77516615801616,72L55.352430590474825,76L55.93283602257799,80L56,80.43857386935636L56.47462018763596,84L57.07439306540107,88L57.758827010112384,92L58.564645253120545,96L59.52931144192448,100L60,101.63776305884733L60.6338000746793,104L61.95284657849001,108L63.80714139289199,112L64,112.3534146503876L66.05208857022052,116L68,118.71785745929566L68.98823748554886,120L72,123.37912573842002L72.58777147580344,124L76,127.48245374753122L76.52444525403217,128L80,131.21867131071807L80.88010418189901,132L84,134.60883792229677L85.82017506251091,136L88,137.58156535417146L91.65121858100193,140L92,140.2199755421982L96,142.39292036928654L99.629177000527,144L100,144.1680165889166L104,145.83001148571964L108,147.29948508128442L110.0660610898129,148L112,148.69420438503946L116,150.00735109593757L120,151.20820901084394L122.3949901864926,152L124,152.57703356479135L128,154.1128921025783L132,155.62887830185596L132.9826333086012,156L136,157.24805046143098L140,158.83196991450706L143.00414126591528,160L144,160.42705075856557L148,162.1555599338214L152,163.9107360455003L152.18694161211363,164L156,166.06333452102064L159.38152375206582,168L160,168.39576345376605L164,170.9692511386171L165.60625001489979,172L168,173.68440885234025L171.30739121369305,176L172,176.51168974806342L176,179.45946434043083L176.73015078767645,180L180,182.73591877201818L181.98690987032614,184L184,185.50503776769727L187.95275107152463,188L188,188.03575917186498L192,190.70459033398868L194.29156819089366,192L196,193.15258126105266L200,195.3931520381189L201.35042060436973,196L204,197.40346334503073L208,199.04848539325843L211.24397019746135,200L212,200.33054979960093L216,201.4075673526075L220,201.76520882291948L224,201.1230163088547ZM423.44323881762614,336L424,335.7589213719761L428,333.2254120608841L429.44295320285914,332L432,329.27746924049285L433.16840417306173,328L436,324.1115527410066L436.0798400102665,324L438.3033139809685,320L439.99212038425685,316L440,315.97097995894757L441.12411505543196,312L441.69135828310493,308L441.53872232384435,304L440.2889766679921,300L440,299.56218557719535L436.61832549095857,296L436,295.64134063334996L432,294.1639309317356L428,292.91008318608993L424,292.37317054458583L420,292.29779667142526L416,292.6220946957444L412,293.44533203941575L408,294.7559672311636L405.3003497868791,296L404,296.7294655835929L400,299.74304326444104L399.7546346750596,300L396.85956969107684,304L396,305.704225827817L394.90967913175507,308L393.7584130707405,312L393.312114083873,316L393.55234863543916,320L394.50185989730227,324L396,327.4833627667038L396.237964324275,328L398.96861226394526,332L400,333.10822405264844L404,335.8894670290092L404.24978319961156,336L408,337.3258850077088L412,337.9948074521681L416,337.95986853024357L420,337.2139230484519ZM288.48019085297835,412L292,411.78090885458136L296,411.1243135964892L300,410.02052344950636L304,408.39066486859446L304.7132523338645,408L308,405.96095963742977L310.8779860410421,404L312,403.1320389804406L315.4839148538332,400L316,399.47026887793686L318.9488534956946,396L320,394.58112356850773L321.6874512949028,392L323.9627363334378,388L324,387.91207380323783L325.4960050898728,384L326.5487633610761,380L327.1837179591687,376L327.4255712166144,372L327.26703392765074,368L326.66532951926536,364L325.5299487750108,360L324,356.6205197061174L323.6661200130046,356L320.49679861040863,352L320,351.465807646977L316,348.0286513588259L315.9583500225493,348L312,345.5597428236152L308.7011244897797,344L308,343.6950846421273L304,342.2953827821733L300,341.48769893278177L296,341.17480267878693L292,341.3087206696034L288,341.878691730639L284,342.90757380951646L281.1540731260449,344L280,344.4493267726197L276,346.58328507481593L273.9193903608505,348L272,349.34511836185715L268.6855707908817,352L268,352.56794354151003L264.4704249511934,356L264,356.5810685946473L261.35702356320996,360L260,362.33237775965506L259.0643745233604,364L257.41964635220614,368L256.31379031033805,372L256,373.9645873075479L255.67720235277085,376L255.47887494785994,380L255.7173531255424,384L256,385.6267520084988L256.4292284031214,388L257.6982051486745,392L259.49464372395954,396L260,396.8654001529205L262.000406225553,400L264,402.4089742554709L265.4723299173891,404L268,406.1869995203751L270.8309860878665,408L272,408.62430647182606L276,410.2461826745669L280,411.30459938984546L284,411.87902994758724L287.1974338271851,412L288,412.0275435546059Z"/></g><g><path fill="rgb(181, 161, 180)" stroke="rgb(133, 114, 132)" stroke-opacity="0.3" d="M218.49284161621512,180L220,179.11210762268246L223.41630674388193,176L224,175.29229838547946L226.0203701038555,172L227.71743163790507,168L228,167.1003471775124L228.8034424777647,164L229.58070239235371,160L229.95657611068685,156L230.0183462771497,152L229.86435560846542,148L229.37070195774658,144L228.53888166223425,140L228,138.08267819841356L227.4206843518882,136L226.22823000231506,132L224.90715403832905,128L224,125.59505545964998L223.41902105076025,124L221.72897811348975,120L220,116.69561006789618L219.6473234437742,116L217.59594627423934,112L216,108.98794246006639L215.47708112036594,108L213.28563799149367,104L212,101.82795742573532L210.95054214872096,100L208.74179268392578,96L208,94.6112272260525L206.7052503564051,92L204.76173176743197,88L204,86.3949007774666L202.8964600067286,84L201.11157852764882,80L200,77.48213114094915L199.36462869838078,76L197.35601610864796,72L196,69.5827578980471L195.10141091544818,68L192.69893103309033,64L192,62.89450568562859L190.00473042606552,60L188,57.289044886444316L186.9095943097998,56L184,52.894263809515934L183.040405037229,52L180,49.27126395721265L178.38431759199392,48L176,46.15275335295945L172.8034165101824,44L172,43.451085560045385L168,40.93075163461231L166.19537261692318,40L164,38.843085093902175L160,37.082997978421275L157.026288409463,36L156,35.59658447857338L152,34.11528392544069L148,32.87748272830497L144.0015478728183,32L144,31.999598478404337L140,30.94683738326819L136,29.987060502150783L132,29.105726787900352L128,28.26912327768028L126.61423055805679,28L124,27.414757641945556L120,26.538401774366392L116,25.70475731750608L112,24.88934383493995L108,24.112900379752844L107.47729309710047,24L104,23.09408317220884L100,21.877758978543113L96,20.428859264259202L94.11426027420362,20L92,19.45828814873866L88,18.8614429347453L84,18.139128572581058L80,17.490865344656726L76,16.804490910803437L72,16.05304152971823L71.71895403286624,16L68,15.317683384762901L64,14.195861399841633L60,14.232808314787789L56,15.835659727972143L55.80418391834385,16L53.19825467709424,20L52.598939401033135,24L53.241933156562055,28L54.612190397598965,32L56,35.29976979055374L56.27749023408896,36L58.04802121028166,40L59.6124705869978,44L60,44.99358606244212L60.94869185217755,48L61.24968115982571,52L61.251514237067596,56L61.03834587808697,60L60.830386513698755,64L60.84863290618213,68L60.962374480497516,72L61.157057416682136,76L61.42647895080083,80L61.77010349389869,84L62.23831177353736,88L62.84310806966866,92L63.62088553904576,96L64,97.55644811128161L64.57432822255069,100L65.76031780073083,104L67.28978425165195,108L68,109.38507795854608L69.40588167949383,112L72,115.88572928449753L72.0795049033205,116L75.44027993229147,120L76,120.58776038789381L79.35410846161128,124L80,124.63829269497506L83.52155791777935,128L84,128.43023666903562L88,131.76943963110028L88.2926136061599,132L92,134.78362427428524L93.94213165679898,136L96,137.24130318684658L100,139.2745796331591L101.60764878504014,140L104,141.0571941370541L108,142.65184979590506L111.76156655235846,144L112,144.08867488399838L116,145.46045511134864L120,146.70298796711108L123.952979742557,148L124,148.01653378848883L128,149.51658611695302L132,150.98421460584578L134.84164514252797,152L136,152.45118497584022L140,153.92781185913358L144,155.3513973727422L145.81825705507632,156L148,156.85671078511817L152,158.44583324723132L155.53150519786843,160L156,160.22365387585307L160,162.26621317004947L163.34772945434742,164L164,164.379143923705L168,166.70496007319792L170.19198848975492,168L172,169.1713186320598L176,171.80542221084744L176.2886177296973,172L180,174.6697143135437L182.51722553816126,176L184,176.816619378508L188,178.56850902156157L191.90762953995159,180L192,180.04005306426438L196,181.36839360243994L200,182.3529806753478L204,182.95997318427658L208,183.12143759927005L212,182.71264282477932L216,181.4770900052954ZM301.8538144826068,400L304,398.6706114732127L307.1780372893793,396L308,395.2158594646036L311.16017129123634,392L312,391.02832958138816L314.3103707904073,388L316,384.95930065698866L316.47703644491946,384L317.8185975766663,380L318.5483388175757,376L318.68549345086694,372L318.20210005955647,368L317.0143636964771,364L316,361.96072133473217L314.83963969041673,360L312,356.7835249874061L311.1431919976438,356L308,353.89856846798335L304.40291418912386,352L304,351.80442041792287L300,350.56600957769524L296,349.98900258167936L292,349.9878342883057L288,350.5288640997841L284,351.62105181626197L283.09274778766405,352L280,353.299679422201L276,355.652776070597L275.53241015962885,356L272,359.2601158322674L271.2935062157995,360L268.3536926658543,364L268,364.6579142373184L266.4325457631938,368L265.1902465040919,372L264.51886043730764,376L264.39253902851453,380L264.8270679082103,384L265.88471761781847,388L267.6896194909519,392L268,392.5252772521383L270.6004543116826,396L272,397.44629020729093L275.2106403055493,400L276,400.5110701701147L280,402.3068051074853L284,403.31562478766676L288,403.65872730047306L292,403.3932914737607L296,402.5268328525505L300,401.0205741500019Z"/></g><g><path fill="rgb(167, 150, 170)" stroke="rgb(120, 104, 123)" stroke-opacity="1" d="M208.1611944628413,172L212,170.41080704403873L215.2735678337982,168L216,167.33326321568012L218.48793066164944,164L220,161.35277276420481L220.61327356613253,160L221.78903723614008,156L222.4051014811792,152L222.64898956145947,148L222.4297407962004,144L221.78756806008334,140L220.8219297887283,136L220,132.87288825622775L219.7760389419979,132L218.59419801360337,128L217.22128545567972,124L216,120.98697930393973L215.59561363916447,120L213.5523071016837,116L212,112.98735344053918L211.50159671310445,112L209.43313403421377,108L208,105.33023250826187L207.3342156892217,104L205.17380731617857,100L204,97.7436551357739L203.137788250141,96L201.20132983876937,92L200,89.51739560811114L199.3074439627756,88L197.46528840367836,84L196,80.82249805737959L195.63263149527626,80L193.82537672556248,76L192,72.69308744802234L191.5962185689445,72L189.00027576854677,68L188,66.55111655462605L186.03923071624587,64L184,61.529534949870225L182.59260856775722,60L180,57.35013827949746L178.5233687708943,56L176,53.864709358985095L173.49724127079156,52L172,50.90290827401924L168,48.240542122287366L167.56967667321004,48L164,45.972927913143224L160,44.147737262020115L159.61843301199684,44L156,42.51754815948999L152,41.089293138942026L148.15081734246095,40L148,39.95342910504391L144,39.059809516906455L140,38.20708999326027L136,37.48955580026637L132,36.88408859145861L128,36.33947275893004L125.26793139430706,36L124,35.811807343851044L120,35.29669716984458L116,34.90502475858301L112,34.63185702090493L108,34.541719405175996L104,34.46889558380232L100,34.41546079879764L96,34.38543706526599L92,34.898384810001644L88,35.91480810207241L87.72542180013505,36L84,37.20197880015078L80,39.55082351606441L79.43563796652916,40L76,43.44163827339156L75.60436154766654,44L73.3825807312453,48L72,50.37367928392277L71.25570915643337,52L69.63951617110908,56L68.27840215018313,60L68,61.00817109732705L67.27302360506016,64L66.74079750169787,68L66.45158345792467,72L66.34664310957388,76L66.39296586188678,80L66.57315873389678,84L66.93724775579636,88L67.48988530317243,92L68,94.6310213934043L68.2640552303111,96L69.28884440791239,100L70.63317282843471,104L72,107.1348124901736L72.38337530615053,108L74.75799283611187,112L76,113.72501855362637L77.66367152246895,116L80,118.62970123686938L81.25059008934954,120L84,122.7107389117501L85.40535401485099,124L88,126.33403773705788L89.96911228389021,128L92,129.63636293916966L95.46534579162721,132L96,132.35020803735623L100,134.621358835447L102.79863195436312,136L104,136.58037759493612L108,138.34361194953715L112,139.91524462724385L112.23816684112415,140L116,141.33378164093685L120,142.61363972048014L124,143.93668593207124L124.18190454405783,144L128,145.3916795816589L132,146.8088095300815L135.5005268999144,148L136,148.1828261602981L140,149.53950067156265L144,150.81825405769882L147.72583044154675,152L148,152.09585460526782L152,153.48202480539976L156,155.04385247238253L158.21470624674333,156L160,156.83470507255518L164,158.73620160055864L166.62162004083325,160L168,160.70330971641894L172,162.7642721783564L174.3169403550686,164L176,165.0002703948652L180,167.46274801191396L181.2338735275547,168L184,169.30319234726102L188,170.72768017353485L192,171.8361403358818L192.92432011861774,172L196,172.58218229653045L200,172.93034394706717L204,172.79826763786366L208,172.05675424537617ZM295.0838061340562,392L296,391.7308963919377L300,389.5441676395935L301.90860235004993,388L304,385.68600887967403L305.13857946343904,384L306.8903410627894,380L307.73005569943047,376L307.6383819923807,372L306.52055368930303,368L304.1800157014833,364L304,363.80173810644965L300,360.8880446327831L297.67689427724224,360L296,359.52872010734177L292,359.262402928644L288,359.7977670151935L287.38842152717416,360L284,361.41961597466866L280.178271014453,364L280,364.1640784511699L277.01975412975975,368L276,370.0133761571497L275.1953037357099,372L274.40563121561786,376L274.4504733904884,380L275.402961232414,384L276,385.22913140670863L277.8573444635865,388L280,389.99604690708674L283.6152583677431,392L284,392.17215448146715L288,392.9611998908942L292,392.8063283150615Z"/></g><g><path fill="rgb(154, 139, 161)" stroke="rgb(108, 94, 114)" stroke-opacity="0.3" d="M208.34001604788153,160L211.97307147690657,156L212,155.95475358208682L213.73741400669599,152L214.76533080658436,148L215.06066298699005,144L214.74515132691636,140L214.00821847171403,136L213.18370283360667,132L212.1852794526588,128L212,127.42290596283027L210.90441223512295,124L209.3698400747969,120L208,117.18227802410297L207.4596578328443,116L205.62300574700413,112L204,108.53881069671644L203.76282605052404,108L201.8990651967003,104L200,100.27398667259425L199.8708786101634,100L198.0251444016303,96L196.17769853172052,92L196,91.62048099645699L194.3928243143004,88L192.5282253739142,84L192,82.87570441207808L190.60928052690633,80L188.55648583234262,76L188,75.08722151178628L185.9444463490006,72L184,69.43204276673285L182.80907623528583,68L180,64.81020479544907L179.22499000073987,64L176,60.82799811892258L175.07669085315257,60L172,57.41414405312963L170.17650032293358,56L168,54.42206860088851L164,52.04582258874041L163.90965035041734,52L160,49.99689788912275L156,48.345560450257125L155.05681103047516,48L152,46.82424263689353L148,45.602950518770854L144,44.74770290233019L140.17108495611058,44L140,43.96305723641615L136,43.25729749710152L132,42.703086561796965L128,42.23463419081406L124,41.82462688821468L120,41.52379411779722L116,41.38622121089222L112,41.41986596131483L108,41.70924245808115L104,42.12074980049874L100,42.698814439743416L96,43.5181252285968L94.61227971889647,44L92,44.92216557302325L88,47.014025493528266L86.55686903831315,48L84,49.67289321893941L81.46450309824533,52L80,53.536055107713594L78.06863989342239,56L76,59.09569550855744L75.48219488665882,60L73.62658979282227,64L72.5127808659185,68L72,70.83982142286467L71.80534076697805,72L71.39305491985874,76L71.2152332818741,80L71.2358985558364,84L71.50625489334328,88L72,91.8251748944202L72.02188532302543,92L72.79967834876442,96L73.88590132679445,100L75.34622432161589,104L76,105.39093771397057L77.21678028537505,108L79.76170064283369,112L80,112.31711579929495L82.8088950341361,116L84,117.29444783048666L86.67034575322614,120L88,121.22873763166902L91.17377788237036,124L92,124.70908058459474L96,127.67881630970035L96.50236477760978,128L100,130.15878026137867L103.44494492189736,132L104,132.28927673393275L108,134.19748504911593L112,135.8892336293083L112.2930810046019,136L116,137.4008049185297L120,138.75364466278015L123.63859804984307,140L124,140.12458083432927L128,141.55581311954765L132,142.9406792715384L135.21583363194537,144L136,144.27088697211522L140,145.51538892320812L144,146.65696668243564L148,147.76849711803104L148.86218360339035,148L152,148.92087967714116L156,150.25010261788202L160,151.761000950982L160.62583100583967,152L164,153.40506838001093L168,155.10193992832754L170.06599141168272,156L172,156.8976940729879L176,158.8267306334609L178.29901413069638,160L180,160.89892306964308L184,162.28233052768164L188,163.20865032767483L192,163.76156068360547L196,163.86432826828997L200,163.4568292644079L204,162.35414474574674L208,160.26328269329707Z"/></g><g><path fill="rgb(140, 128, 151)" stroke="rgb(95, 84, 105)" stroke-opacity="0.3" d="M200.9424630415558,152L204,148.73435717732656L204.48493711596285,148L206.0179447307683,144L206.4808071733308,140L206.28787153851744,136L205.9377727706203,132L205.33541773649955,128L204.41302997522547,124L204,122.69073025796922L203.2042768441363,120L201.6201241231529,116L200.04803801129566,112L200,111.88666558924439L198.49355780195498,108L196.845236764224,104L196,102.18459440877498L195.06038861742672,100L193.34634068293798,96L192,92.93113792580283L191.59248442715477,92L189.74756257369376,88L188,84.47612298093588L187.7506550566527,84L185.58383558135546,80L184,77.28582657740336L183.189454359963,76L180.14076548117015,72L180,71.83314527483515L176.51011483122943,68L176,67.46858661593436L172.39897344168878,64L172,63.638849196431465L168,60.208898040151695L167.71684095190164,60L164,57.44322037014484L161.46079896453645,56L160,55.20952345795274L156,53.37709012006877L152.48189858369415,52L152,51.80660980035475L148,50.48884609541395L144,49.55566565172495L140,48.730580983284796L136,48.102728326158285L135.11721737364505,48L132,47.594192256278546L128,47.179960187242784L124,46.83635307845532L120,46.63649122642022L116,46.64595398271621L112,46.883062029952356L108,47.455332460586305L105.15887610684132,48L104,48.20505118452664L100,49.116431650416814L96,50.363953231339366L92.5917609635832,52L92,52.29950960079458L88,54.9067844605097L86.65990444266288,56L84,58.408467184659884L82.62034683020372,60L80,63.89820203990868L79.93939496533429,64L78.23821616365518,68L77.10662376537348,72L76.38639552127947,76L76,79.80424660042425L75.98058703797199,80L75.82649453443864,84L75.98533424211931,88L76,88.12664335136495L76.42564510086413,92L77.18214417249993,96L78.28782656471304,100L79.8070767670354,104L80,104.39375645099705L81.75102302512124,108L84,111.39751122194514L84.4193846527331,112L87.76152781379608,116L88,116.24136225286108L91.91867435782825,120L92,120.0717625868325L96,123.18724223469903L97.22215236888246,124L100,125.83392334550237L103.75804996465865,128L104,128.13529881567135L108,130.18315947828185L112,131.99667940235113L112.00825962572975,132L116,133.5883004033567L120,134.9962742336208L122.86988721131118,136L124,136.400161191014L128,137.84647415151431L132,139.23595813123157L134.34786335987476,140L136,140.54550184719378L140,141.6997125543547L144,142.72452804680256L148,143.6957912979023L149.34433267002416,144L152,144.63952295812345L156,145.7343696885523L160,146.9981060825375L163.07425086952912,148L164,148.32601071362976L168,149.6970619751465L172,151.11830198868654L174.34775112022777,152L176,152.67156459283717L180,154.37228018525698L184,155.35907924869818L188,155.76080310542994L192,155.58762306837693L196,154.63837848984772L200,152.70661840712833Z"/></g><g><path fill="rgb(126, 117, 141)" stroke="rgb(82, 73, 96)" stroke-opacity="0.3" d="M193.91309661373634,144L196,141.08310653130997L196.56342610734652,140L197.62917439203852,136L198.22752464886617,132L198.33853532361098,128L197.96448616120858,124L197.21500013869263,120L196.03365126875042,116L196,115.89573899642807L194.86448643096162,112L193.58804189927395,108L192.16649233145853,104L192,103.60451110718736L190.51133720986763,100L188.8335007128361,96L188,94.10860994048272L187.04089651478705,92L185.06420648233416,88L184,86.02228205725876L182.83981294435745,84L180.4000724884545,80L180,79.38258049993144L177.66969575319962,76L176,73.98566331896075L174.25353563329537,72L172,69.70739144785108L170.26332721119667,68L168,65.89667193334452L165.65282829527752,64L164,62.75096832465164L160,60.17465960754109L159.68805607155213,60L156,58.076053499690346L152,56.2965525348169L151.18026505066447,56L148,54.87835336664875L144,53.85467457665993L140,52.96627944340946L136,52.30598245821071L133.38614505835366,52L132,51.82583575685061L128,51.44631455582285L124,51.14941946616841L120,51.021227884453964L116,51.132483614702124L112,51.50489214012842L109.30269413614766,52L108,52.23603134800754L104,53.172809871665265L100,54.429646013282905L96.298185518732,56L96,56.13346408120182L92,58.5598382857749L90.15685567715707,60L88,62.05645300941987L86.27464525776483,64L84,67.69354121118337L83.84016990092226,68L82.26963195163913,72L81.22550859023312,76L80.57898058026467,80L80.24893894901385,84L80.27832691111533,88L80.640563951409,92L81.36207032665774,96L82.47005181204565,100L84,103.93422444561838L84.02632493062208,104L86.13490289793734,108L88,110.62152284403669L89.01346223014758,112L92,115.3758773440264L92.62323912487466,116L96,118.8722103861464L97.55129052345302,120L100,121.67121005986294L103.8876239878976,124L104,124.0670819100448L108,126.25032325864069L111.59971453562699,128L112,128.18983012725343L116,129.85976753878532L120,131.3296428718579L121.86238459752158,132L124,132.76831727189338L128,134.2117209880857L132,135.58615217085114L133.3115457923832,136L136,136.86965443422986L140,137.96060626538556L144,138.88280156125683L148,139.71548133603318L149.57283146344471,140L152,140.45884812287684L156,141.32168151413163L160,142.33405146504828L164,143.3708148325775L166.5170187861204,144L168,144.38927099066095L172,145.38051978228057L176,146.43991862133143L180,147.59309871100925L184,147.89439606411145L188,147.28263683893204L192,145.52362723550138Z"/></g><g><path fill="rgb(113, 106, 132)" stroke="rgb(70, 63, 87)" stroke-opacity="0.3" d="M187.49039880457394,136L188,135.42553664362035L189.9940894560006,132L191.2478617866987,128L191.62383682919125,124L191.42192531046192,120L190.68997320727385,116L189.83862783162334,112L188.7889994383213,108L188,105.53441925482159L187.50640138665682,104L185.899419372779,100L184.21933792576,96L184,95.51872042475526L182.31669933076768,92L180.19085730376565,88L180,87.67319286389099L177.74730324193723,84L176,81.34861787312903L175.07534034006494,80L172.08666459178426,76L172,75.90216147001013L168.45599880366802,72L168,71.55123105508119L164,68.078590036939L163.8976587150246,68L160,65.17367006021777L158.12747960519027,64L156,62.757536738180306L152,60.69032227029223L150.36391531701827,60L148,59.071007364621494L144,57.90796674388454L140,56.91737276136743L136,56.19911577033889L134.37168802678673,56L132,55.70423558272492L128,55.34806953517074L124,55.08621324033763L120,55.015587718151295L116,55.217175837033494L112,55.719982042080346L110.75422951444702,56L108,56.63150963058183L104,57.82588471432655L100,59.41024829407982L98.81592955493869,60L96,61.6442345086316L93.04393051788321,64L92,65.10695934256827L89.73823362904983,68L88,71.0675653054237L87.52933309129429,72L86.05357232713081,76L85.097385964193,80L84.54542795603729,84L84.43613205190363,88L84.72742736042431,92L85.44004946699505,96L86.59443527773337,100L88,103.40670521418616L88.24733067605021,104L90.47918637579554,108L92,110.03473947118184L93.63247391835759,112L96,114.37067789556588L97.88739940154758,116L100,117.56531148699514L103.74272444943026,120L104,120.1585113132048L108,122.40304853065714L111.17528634784446,124L112,124.41480907754712L116,126.16453676597581L120,127.70205185438977L120.8021593975898,128L124,129.17099021200494L128,130.62506631627042L131.98076834505284,132L132,132.00663989165537L136,133.2551142024091L140,134.26490323108607L144,135.0623339390375L148,135.72803374726038L150.13369693570078,136L152,136.2543018520333L156,136.8634907307913L160,137.58124106879592L164,138.25779355330098L168,138.83459084713388L172,139.29227733113447L176,139.69582856759817L180,139.98179315803543L184,138.82877935921007Z"/></g><g><path fill="rgb(99, 95, 122)" stroke="rgb(57, 53, 78)" stroke-opacity="1" d="M176.08818968135614,132L180,130.56143631904L182.68058779052012,128L184,125.59278616270637L184.577333716361,124L185.1772598572756,120L185.00739624463637,116L184.5531609842721,112L184,109.24820760890645L183.74159757233207,108L182.55692825654432,104L181.0066634129572,100L180,97.62458787141347L179.29008408970338,96L177.3356394506713,92L176,89.59191651449731L175.10285084467012,88L172.5426031444727,84L172,83.21829888877787L169.7510519543519,80L168,77.7225019852271L166.52954399041374,76L164,73.52705460850694L162.2428357671828,72L160,70.25451189774478L156.70204560324134,68L156,67.54777524741365L152,65.19935307730489L149.51606228444535,64L148,63.321766772380585L144,61.96501518118362L140,60.81459572850926L136.05573574703186,60L136,59.989121634965386L132,59.4690934929377L128,59.11898193815355L124,58.8803297376935L120,58.859698595446474L116,59.14886468117638L112,59.78130278674695L111.18381350405318,60L108,60.95628361460973L104,62.52755468194064L101.10676260625237,64L100,64.70594157862377L96,67.99062750922124L95.99110049677594,68L93.01823700508155,72L92,73.90691205998414L91.03401347562135,76L89.74947804888686,80L88.95289059467692,84L88.67937017634239,88L88.87214143560263,92L89.54562673389054,96L90.71214523834803,100L92,103.01706935076925L92.45300316518768,104L94.966874497856,108L96,109.23230548411141L98.65939877972465,112L100,113.16635925661657L103.68998638253797,116L104,116.20612477431484L108,118.6102816364722L110.5857899400435,120L112,120.72965323418879L116,122.50263639107786L119.84768472573401,124L120,124.05961910124938L124,125.54958676653231L128,127.02330679070718L130.7886819699885,128L132,128.41628874328524L136,129.63689747355505L140,130.58321021679996L144,131.27183169395377L148,131.78547330278244L150.83406182080418,132L152,132.09083715874945L156,132.41182087192112L160,132.77794392448203L164,133.01099262044494L168,133.00987252786743L172,132.68368427385096L176,132.02330483261295Z"/></g><g><path fill="rgb(85, 83, 113)" stroke="rgb(43, 43, 70)" stroke-opacity="0.3" d="M173.50157474982,124L176,121.44183256106888L176.9609412719792,120L178.08004614353797,116L178.3584035466946,112L177.96589451634276,108L177.075540939976,104L176,100.91990454450183L175.6874760616846,100L174.06127776766846,96L172.17454880776177,92L172,91.68906766648658L169.96395766846314,88L168,84.93785315656706L167.3489068005282,84L164.23685268119203,80L164,79.72417922280505L160.4377141369237,76L160,75.61740456289613L156,72.49119081513683L155.31818336714275,72L152,69.86455911517757L148.5204237880977,68L148,67.73876317164445L144,66.18568703162325L140,64.87082861248717L136.28518759828117,64L136,63.937635722869345L132,63.377934012467705L128,63.02143978230691L124,62.798960833596794L120,62.83602722215892L116,63.2475866424754L112.36592785979067,64L112,64.08881233725765L108,65.70642468229076L104,67.87106140250916L103.80703228194619,68L100,71.17648736598696L99.21464576988143,72L96.342204863537,76L96,76.66477008660436L94.58665424249628,80L93.47187332906182,84L92.99311811081662,88L93.07969766664684,92L93.74397160557353,96L94.9938605391684,100L96,102.14115938934927L96.97941483097352,104L99.89687710020164,108L100,108.10714144619524L104,111.81888358768967L104.21754057763886,112L108,114.64823297557732L110.16623877377523,116L112,117.00575044582507L116,118.85857665960978L118.8420418491776,120L120,120.45379280797769L124,121.9143369163252L128,123.35761673582533L129.87935611525288,124L132,124.72600731370193L136,125.92482494442106L140,126.80967960823236L144,127.38146244269336L148,127.72410213364708L152,127.77616391384339L156,127.77716832721302L160,127.74400741917552L164,127.41769669933575L168,126.57790832099516L172,124.91381980555207Z"/></g><g><path fill="rgb(71, 72, 103)" stroke="rgb(30, 33, 60)" stroke-opacity="0.3" d="M165.06341784680927,120L168,117.66689614729532L169.3347456792468,116L171.0665374183036,112L171.52093732823914,108L171.1539927214638,104L170.11607132421682,100L168.74820599465824,96L168,94.2982223909687L166.93785707211123,92L164.61631425091042,88L164,87.11373437661172L161.65138697554355,84L160,82.08039865633074L158.03356681718125,80L156,78.08952455854282L153.601947974015,76L152,74.83255470474217L148,72.35848351507212L147.25001502789638,72L144,70.6068734069722L140,69.15917104356339L136,68.14681038840979L135.03571215988995,68L132,67.56083117548175L128,67.22585426273608L124,67.05262322906967L120,67.19375768497503L116,67.80359795703367L115.29125786683946,68L112,69.06800033437275L108,71.24054739959163L106.89822643862428,72L104,74.54405052826417L102.6728095078453,76L100.02989450600725,80L100,80.06434345215868L98.45401607763421,84L97.69550291642716,88L97.65169172575105,92L98.32501914113934,96L99.71137995223836,100L100,100.54126191925681L102.03258600933898,104L104,106.40845795687028L105.44253787343928,108L108,110.13940249157181L110.4769392706853,112L112,112.96329423647546L116,115.06760400970771L118.08032148414176,116L120,116.77134452276914L124,118.22784213132476L128,119.64728360918323L129.06656342487292,120L132,120.95698622574966L136,122.0815974095353L140,122.85147033535273L144,123.24357383522033L148,123.3372318397227L152,123.02297169545167L156,122.52591025059351L160,121.8300097563307L164,120.54285008406677Z"/></g><g><path fill="rgb(58, 61, 94)" stroke="rgb(18, 23, 52)" stroke-opacity="0.3" d="M157.01821378453988,116L160,114.26246326255293L162.48790168240424,112L164,109.12273515623573L164.43146734524345,108L164.79794565410748,104L164.18282528680413,100L164,99.39731608962455L162.93338895481838,96L161.11539297192542,92L160,90.17275537130581L158.58957189076403,88L156,84.8198411529354L155.30522801743479,84L152,80.70991776097958L151.18151852245327,80L148,77.59860029221286L145.23426094767362,76L144,75.3982944276953L140,73.76463008881805L136,72.66202686697977L132,72.05473638395318L131.22492247920434,72L128,71.79080538167594L124,71.72963394472629L120.5460540188372,72L120,72.05052173183773L116,73.07364221954961L112,74.90457379074019L110.46966512762185,76L108,78.33030932077207L106.58190256464158,80L104.18139589111533,84L104,84.55611201091688L103.04652626724388,88L102.81726396377917,92L103.46161969960957,96L104,97.43617464121132L105.04990253535328,100L107.65543992304617,104L108,104.37950706522386L111.64845254725782,108L112,108.26537200528395L116,110.75804224151497L118.36504340402783,112L120,112.72986798907914L124,114.29508404344784L128,115.78552097919058L128.6335429161617,116L132,117.0401813826721L136,118.0688001323563L140,118.67797530040326L144,118.81383338765028L148,118.54663057287652L152,117.68908348664317L156,116.41061129143188Z"/></g><g><path fill="rgb(44, 50, 84)" stroke="rgb(3, 10, 43)" stroke-opacity="0.3" d="M150.37209239785543,112L152,110.96225405036853L155.2880602185879,108L156,106.57414377826967L157.05088145335395,104L157.1164813602974,100L156.2459145505046,96L156,95.43434639741903L154.51267015639075,92L152,88.09984422495262L151.92953908724394,88L148.13574475073148,84L148,83.88195736160333L144,81.17854007820955L141.86722171108087,80L140,79.09912515101132L136,77.86043406788221L132,77.2823182907816L128,77.13444488290298L124,77.29272889781691L120,78.01256744082283L116,79.61716398111207L115.40011590271891,80L112,82.91975794278241L111.15728225090677,84L109.33511626568341,88L108.77324898066882,92L109.40617028466013,96L111.14876873447201,100L112,101.18689071846927L114.47718180500007,104L116,105.23448824029174L120,107.92579436150046L120.13168352788585,108L124,109.69169478306495L128,111.32167099530727L129.8447432636315,112L132,112.67363953826651L136,113.63482579469519L140,114.04622646343327L144,113.80676876050742L148,112.97830342138872Z"/></g></g><g id="labels"/><g id="axis"><g transform="translate(0,500)" fill="none" font-size="10" font-family="sans-serif" text-anchor="middle"><path class="domain" stroke="currentColor" d="M0,6V0H705V6"/><g class="tick" opacity="1" transform="translate(0,0)"><line stroke="currentColor" y2="6"/><text fill="currentColor" y="9" dy="0.71em">40</text></g><g class="tick" opacity="1" transform="translate(50,0)"><line stroke="currentColor" y2="6"/><text fill="currentColor" y="9" dy="0.71em">60</text></g><g class="tick" opacity="1" transform="translate(101,0)"><line stroke="currentColor" y2="6"/><text fill="currentColor" y="9" dy="0.71em">80</text></g><g class="tick" opacity="1" transform="translate(151,0)"><line stroke="currentColor" y2="6"/><text fill="currentColor" y="9" dy="0.71em">100</text></g><g class="tick" opacity="1" transform="translate(201,0)"><line stroke="currentColor" y2="6"/><text fill="currentColor" y="9" dy="0.71em">120</text></g><g class="tick" opacity="1" transform="translate(252,0)"><line stroke="currentColor" y2="6"/><text fill="currentColor" y="9" dy="0.71em">140</text></g><g class="tick" opacity="1" transform="translate(302,0)"><line stroke="currentColor" y2="6"/><text fill="currentColor" y="9" dy="0.71em">160</text></g><g class="tick" opacity="1" transform="translate(353,0)"><line stroke="currentColor" y2="6"/><text fill="currentColor" y="9" dy="0.71em">180</text></g><g class="tick" opacity="1" transform="translate(403,0)"><line stroke="currentColor" y2="6"/><text fill="currentColor" y="9" dy="0.71em">200</text></g><g class="tick" opacity="1" transform="translate(453,0)"><line stroke="currentColor" y2="6"/><text fill="currentColor" y="9" dy="0.71em">220</text></g><g class="tick" opacity="1" transform="translate(504,0)"><line stroke="currentColor" y2="6"/><text fill="currentColor" y="9" dy="0.71em">240</text></g><g class="tick" opacity="1" transform="translate(554,0)"><line stroke="currentColor" y2="6"/><text fill="currentColor" y="9" dy="0.71em">260</text></g><g class="tick" opacity="1" transform="translate(604,0)"><line stroke="currentColor" y2="6"/><text fill="currentColor" y="9" dy="0.71em">280</text></g><g class="tick" opacity="1" transform="translate(655,0)"><line stroke="currentColor" y2="6"/><text fill="currentColor" y="9" dy="0.71em">300</text></g><g class="tick" opacity="1" transform="translate(705,0)"><line stroke="currentColor" y2="6"/><text fill="currentColor" y="9" dy="0.71em">320</text></g><text x="705" dy="-5" text-anchor="end" style="font-family: Arial, sans-serif; font-size: 12px; fill: rgb(123, 123, 123); font-weight: bold;">low</text></g><g fill="none" font-size="10" font-family="sans-serif" text-anchor="end"><path class="domain" stroke="currentColor" d="M-6,500H0V0H-6"/><g class="tick" opacity="1" transform="translate(0,500)"><line stroke="currentColor" x2="-6"/><text fill="currentColor" x="-9" dy="0.32em">600</text></g><g class="tick" opacity="1" transform="translate(0,462)"><line stroke="currentColor" x2="-6"/><text fill="currentColor" x="-9" dy="0.32em">620</text></g><g class="tick" opacity="1" transform="translate(0,423)"><line stroke="currentColor" x2="-6"/><text fill="currentColor" x="-9" dy="0.32em">640</text></g><g class="tick" opacity="1" transform="translate(0,385)"><line stroke="currentColor" x2="-6"/><text fill="currentColor" x="-9" dy="0.32em">660</text></g><g class="tick" opacity="1" transform="translate(0,346)"><line stroke="currentColor" x2="-6"/><text fill="currentColor" x="-9" dy="0.32em">680</text></g><g class="tick" opacity="1" transform="translate(0,308)"><line stroke="currentColor" x2="-6"/><text fill="currentColor" x="-9" dy="0.32em">700</text></g><g class="tick" opacity="1" transform="translate(0,269)"><line stroke="currentColor" x2="-6"/><text fill="currentColor" x="-9" dy="0.32em">720</text></g><g class="tick" opacity="1" transform="translate(0,231)"><line stroke="currentColor" x2="-6"/><text fill="currentColor" x="-9" dy="0.32em">740</text></g><g class="tick" opacity="1" transform="translate(0,192)"><line stroke="currentColor" x2="-6"/><text fill="currentColor" x="-9" dy="0.32em">760</text></g><g class="tick" opacity="1" transform="translate(0,154)"><line stroke="currentColor" x2="-6"/><text fill="currentColor" x="-9" dy="0.32em">780</text></g><g class="tick" opacity="1" transform="translate(0,115)"><line stroke="currentColor" x2="-6"/><text fill="currentColor" x="-9" dy="0.32em">800</text></g><g class="tick" opacity="1" transform="translate(0,77)"><line stroke="currentColor" x2="-6"/><text fill="currentColor" x="-9" dy="0.32em">820</text></g><g class="tick" opacity="1" transform="translate(0,38)"><line stroke="currentColor" x2="-6"/><text fill="currentColor" x="-9" dy="0.32em">840</text></g><g class="tick" opacity="1" transform="translate(0,0)"><line stroke="currentColor" x2="-6"/><text fill="currentColor" x="-9" dy="0.32em">860</text></g><text x="4" text-anchor="start" dominant-baseline="hanging" style="font-family: Arial, sans-serif; font-size: 12px; fill: rgb(123, 123, 123); font-weight: bold;">high</text></g></g></g></svg>