<?xml version="1.0" encoding="UTF-8"?>
<svg id="_图层_1" data-name="图层 1" xmlns="http://www.w3.org/2000/svg" viewBox="0 0 1165.5 1080">
  <defs>
    <style>
      .cls-1 {
        fill: none;
        stroke: #628fd1;
        stroke-miterlimit: 10;
        stroke-width: 2px;
      }
    </style>
  </defs>
  <path id="_地月距离" data-name="地月距离" class="cls-1" d="M578.25,278.75s39.11-34.64,54-30,15.25,43.75,57,56c42.7,12.53,48.75-4.75,63,3s2.75,51.25,26,72,45.75,5.25,58,34-21.25,30.25-9,66,41.12,34.5,37,69c-4.75,39.75-35.25,26.25-37,48s19.75,49.25,7,81-45.25,4.25-64,31,5.75,49.25-25,76-56.25-9.75-71-4-30.25,58.25-51,58-46.25-48.75-67-37-39.25,38.25-65,32-25.25-63.75-50-65-56.25,9.25-70,0,6.75-67.75-20-75-53.25-14.75-56-29,24.75-36.75,9-82-35.25-37.75-35-60,26.25-24.75,43.75-53-25-50.75-1.75-80,40.13,7.51,58-28c19.25-38.25,6.25-52.25,32-71,36.84-26.82,34.25,8.75,66,6"/>
</svg>